M48
;DRILL file {Pcbnew (2012-01-19 BZR 3256)-stable} date Tue 02 Jul 2013 11:48:26 AM CDT
;FORMAT={2:4/ absolute / inch / suppress leading zeros}
FMAT,2
INCH,TZ
T1C0.012
T2C0.036
T3C0.040
%
G90
G05
M72
T1
X51500Y-36500
X51500Y-38500
X51500Y-49500
X51500Y-51000
X51500Y-52500
X53500Y-36500
X53500Y-38250
X53500Y-52500
X54000Y-39250
X54000Y-40750
X54000Y-41750
X54000Y-42600
X54000Y-43500
X54000Y-44500
X54000Y-46000
X54000Y-47000
X54000Y-48500
X54640Y-48520
X55060Y-48520
X55080Y-47220
X55100Y-52100
X55360Y-46860
X55500Y-36500
X55500Y-38250
X55500Y-39250
X55500Y-52500
X55920Y-44000
X56400Y-43400
X56750Y-40750
X56750Y-41750
X56750Y-45750
X56800Y-47600
X56800Y-48600
X57000Y-43500
X57000Y-47000
X57200Y-46200
X57250Y-42500
X57400Y-38500
X57500Y-36500
X57500Y-52500
X58700Y-49900
X59200Y-39000
X59250Y-48750
X59500Y-36500
X59500Y-52500
X59750Y-51000
X59900Y-39900
X60250Y-48750
X60400Y-44300
X60400Y-45800
X60680Y-44860
X60700Y-40900
X60900Y-43400
X60980Y-50140
X61300Y-45400
X61480Y-44060
X61500Y-36500
X61500Y-39000
X61500Y-50000
X61850Y-43300
X61850Y-44350
X61900Y-40900
X62060Y-38940
X62100Y-50500
X62250Y-40000
X62500Y-51000
X62500Y-52500
X62520Y-48120
X62800Y-50000
X63000Y-39000
X63000Y-41900
X63300Y-40800
X63340Y-47680
X63480Y-47280
X63500Y-36500
X64500Y-52500
X64540Y-47850
X64600Y-50800
X64700Y-46920
X65000Y-36500
X65200Y-40940
X65250Y-45250
X65250Y-49000
X65250Y-50000
X65500Y-43000
X65500Y-46500
X65890Y-40300
X65970Y-38910
X66000Y-48000
X66500Y-47000
X66500Y-52500
X67000Y-36500
X67540Y-38380
X67700Y-42100
X68000Y-40000
X68000Y-41500
X68000Y-43500
X68000Y-44500
X68000Y-45500
X68000Y-47000
X68000Y-49000
X68500Y-36500
X68500Y-52500
X69640Y-49920
X70000Y-49125
X70500Y-36500
X70500Y-38500
X70500Y-40000
X70500Y-52500
T2
X58000Y-37000
X58000Y-38000
X58000Y-39000
X58000Y-40000
X58000Y-41000
X58000Y-42000
X58000Y-43000
X58000Y-44000
X58000Y-45000
X58000Y-46000
X58000Y-47000
X58000Y-48000
X58000Y-49000
X58000Y-50000
X58000Y-51000
X58000Y-52000
X58500Y-42501
X58500Y-43501
X58500Y-44500
X58500Y-45500
X58500Y-46500
X59500Y-41501
X59500Y-42501
X59500Y-43501
X59500Y-44500
X59500Y-45500
X59500Y-46500
X59500Y-47500
X60500Y-41501
X60500Y-42501
X60500Y-46500
X60500Y-47500
X61499Y-41501
X61499Y-42501
X61499Y-46500
X61499Y-47500
X62499Y-41501
X62499Y-42501
X62499Y-43501
X62499Y-44500
X62499Y-45500
X62499Y-46500
X62499Y-47500
X63499Y-42501
X63499Y-43501
X63499Y-44500
X63499Y-45500
X63499Y-46500
X64000Y-37000
X64000Y-38000
X64000Y-39000
X64000Y-40000
X64000Y-41000
X64000Y-42000
X64000Y-43000
X64000Y-44000
X64000Y-45000
X64000Y-46000
X64000Y-47000
X64000Y-48000
X64000Y-49000
X64000Y-50000
X64000Y-51000
X64000Y-52000
T3
X52000Y-39500
X52000Y-40500
X52000Y-41500
X52000Y-42500
X52000Y-43500
X52000Y-44500
X52000Y-45500
X52000Y-46500
X52000Y-47500
X52000Y-48500
X52000Y-50500
X52000Y-51500
X53000Y-39500
X53000Y-40500
X53000Y-41500
X53000Y-42500
X53000Y-43500
X53000Y-44500
X53000Y-45500
X53000Y-46500
X53000Y-47500
X53000Y-48500
X53000Y-50500
X53000Y-51500
X54000Y-50500
X54000Y-51500
X55000Y-50500
X55000Y-51500
X56000Y-50500
X56000Y-51500
X66000Y-50500
X66000Y-51500
X67000Y-50500
X67000Y-51500
X68000Y-50500
X68000Y-51500
X69000Y-39500
X69000Y-40500
X69000Y-41500
X69000Y-42500
X69000Y-43500
X69000Y-44500
X69000Y-45500
X69000Y-46500
X69000Y-47500
X69000Y-48500
X69000Y-50500
X69000Y-51500
X70000Y-39500
X70000Y-40500
X70000Y-41500
X70000Y-42500
X70000Y-43500
X70000Y-44500
X70000Y-45500
X70000Y-46500
X70000Y-47500
X70000Y-48500
X70000Y-50500
X70000Y-51500
T0
M30
