G04 (created by PCBNEW-RS274X (2012-01-19 BZR 3256)-stable) date Tue 02 Jul 2013 11:49:59 AM CDT*
G01*
G70*
G90*
%MOIN*%
G04 Gerber Fmt 3.4, Leading zero omitted, Abs format*
%FSLAX34Y34*%
G04 APERTURE LIST*
%ADD10C,0.006000*%
%ADD11C,0.015000*%
%ADD12R,0.063000X0.063000*%
%ADD13C,0.063000*%
%ADD14C,0.035000*%
%ADD15C,0.008000*%
G04 APERTURE END LIST*
G54D10*
G54D11*
X51000Y-53000D02*
X51000Y-49500D01*
X71000Y-53000D02*
X51000Y-53000D01*
X71000Y-49500D02*
X71000Y-53000D01*
X51000Y-49500D02*
X51000Y-36000D01*
X71000Y-36000D02*
X71000Y-49500D01*
X51000Y-36000D02*
X71000Y-36000D01*
G54D12*
X58000Y-37000D03*
G54D13*
X58000Y-38000D03*
X58000Y-39000D03*
X58000Y-40000D03*
X58000Y-41000D03*
X58000Y-42000D03*
X58000Y-43000D03*
X58000Y-44000D03*
X58000Y-45000D03*
X58000Y-46000D03*
X58000Y-47000D03*
X58000Y-48000D03*
X58000Y-49000D03*
X58000Y-50000D03*
X58000Y-51000D03*
X58000Y-52000D03*
X64000Y-52000D03*
X64000Y-51000D03*
X64000Y-50000D03*
X64000Y-49000D03*
X64000Y-48000D03*
X64000Y-47000D03*
X64000Y-46000D03*
X64000Y-45000D03*
X64000Y-44000D03*
X64000Y-43000D03*
X64000Y-42000D03*
X64000Y-41000D03*
X64000Y-40000D03*
X64000Y-39000D03*
X64000Y-38000D03*
X64000Y-37000D03*
G54D12*
X52000Y-51500D03*
G54D13*
X52000Y-50500D03*
X53000Y-51500D03*
X53000Y-50500D03*
X54000Y-51500D03*
X54000Y-50500D03*
X55000Y-51500D03*
X55000Y-50500D03*
X56000Y-51500D03*
X56000Y-50500D03*
G54D12*
X66000Y-51500D03*
G54D13*
X66000Y-50500D03*
X67000Y-51500D03*
X67000Y-50500D03*
X68000Y-51500D03*
X68000Y-50500D03*
X69000Y-51500D03*
X69000Y-50500D03*
X70000Y-51500D03*
X70000Y-50500D03*
G54D12*
X61499Y-42501D03*
G54D13*
X60500Y-41501D03*
X60500Y-42501D03*
X59500Y-41501D03*
X58500Y-42501D03*
X59500Y-42501D03*
X58500Y-43501D03*
X59500Y-43501D03*
X58500Y-44500D03*
X59500Y-44500D03*
X58500Y-45500D03*
X59500Y-45500D03*
X58500Y-46500D03*
X59500Y-47500D03*
X59500Y-46500D03*
X60500Y-47500D03*
X60500Y-46500D03*
X61499Y-47500D03*
X61499Y-46500D03*
X62499Y-47500D03*
X63499Y-46500D03*
X62499Y-46500D03*
X63499Y-45500D03*
X62499Y-45500D03*
X63499Y-44500D03*
X62499Y-44500D03*
X63499Y-43501D03*
X62499Y-43501D03*
X63499Y-42501D03*
X62499Y-41501D03*
X62499Y-42501D03*
X61499Y-41501D03*
G54D12*
X52000Y-39500D03*
G54D13*
X53000Y-39500D03*
X52000Y-40500D03*
X53000Y-40500D03*
X52000Y-41500D03*
X53000Y-41500D03*
X52000Y-42500D03*
X53000Y-42500D03*
X52000Y-43500D03*
X53000Y-43500D03*
X52000Y-44500D03*
X53000Y-44500D03*
X52000Y-45500D03*
X53000Y-45500D03*
X52000Y-46500D03*
X53000Y-46500D03*
X52000Y-47500D03*
X53000Y-47500D03*
X52000Y-48500D03*
X53000Y-48500D03*
G54D12*
X69000Y-39500D03*
G54D13*
X70000Y-39500D03*
X69000Y-40500D03*
X70000Y-40500D03*
X69000Y-41500D03*
X70000Y-41500D03*
X69000Y-42500D03*
X70000Y-42500D03*
X69000Y-43500D03*
X70000Y-43500D03*
X69000Y-44500D03*
X70000Y-44500D03*
X69000Y-45500D03*
X70000Y-45500D03*
X69000Y-46500D03*
X70000Y-46500D03*
X69000Y-47500D03*
X70000Y-47500D03*
X69000Y-48500D03*
X70000Y-48500D03*
G54D14*
X55100Y-52100D03*
X60980Y-50140D03*
X62100Y-50500D03*
X69640Y-49920D03*
X55360Y-46860D03*
X55060Y-48520D03*
X56400Y-43400D03*
X55080Y-47220D03*
X54640Y-48520D03*
X61480Y-44060D03*
X60680Y-44860D03*
X64540Y-47850D03*
X64700Y-46920D03*
X63480Y-47280D03*
X63340Y-47680D03*
X62520Y-48120D03*
X70000Y-49125D03*
X55920Y-44000D03*
X62060Y-38940D03*
X57400Y-38500D03*
X70500Y-52500D03*
X53500Y-52500D03*
X67540Y-38380D03*
X54000Y-40750D03*
X51500Y-38500D03*
X57500Y-36500D03*
X62500Y-52500D03*
X54000Y-41750D03*
X51500Y-51000D03*
X68000Y-40000D03*
X53500Y-36500D03*
X57000Y-43500D03*
X61500Y-36500D03*
X65000Y-36500D03*
X56800Y-48600D03*
X56750Y-45750D03*
X57000Y-47000D03*
X54000Y-48500D03*
X67000Y-36500D03*
X65200Y-40940D03*
X54000Y-42600D03*
X54000Y-43500D03*
X51500Y-36500D03*
X54000Y-46000D03*
X68500Y-36500D03*
X60250Y-48750D03*
X65890Y-40300D03*
X54000Y-44500D03*
X55500Y-36500D03*
X70500Y-36500D03*
X59500Y-36500D03*
X56750Y-40750D03*
X56750Y-41750D03*
X70500Y-38500D03*
X65970Y-38910D03*
X70500Y-40000D03*
X57250Y-42500D03*
X54000Y-47000D03*
X61850Y-43300D03*
X66000Y-48000D03*
X59200Y-39000D03*
X59900Y-39900D03*
X61500Y-50000D03*
X61300Y-45400D03*
X66500Y-47000D03*
X65500Y-43000D03*
X63000Y-39000D03*
X68000Y-45500D03*
X60700Y-40900D03*
X68000Y-43500D03*
X62250Y-40000D03*
X60400Y-44300D03*
X67700Y-42100D03*
X61850Y-44350D03*
X65250Y-45250D03*
X66500Y-52500D03*
X63300Y-40800D03*
X64500Y-52500D03*
X68500Y-52500D03*
X64600Y-50800D03*
X60400Y-45800D03*
X65500Y-46500D03*
X54000Y-39250D03*
X57500Y-52500D03*
X53500Y-38250D03*
X68000Y-47000D03*
X68000Y-44500D03*
X68000Y-49000D03*
X51500Y-52500D03*
X55500Y-52500D03*
X51500Y-49500D03*
X63500Y-36500D03*
X57200Y-46200D03*
X60900Y-43400D03*
X65250Y-49000D03*
X63000Y-41900D03*
X56800Y-47600D03*
X59750Y-51000D03*
X59250Y-48750D03*
X65250Y-50000D03*
X68000Y-41500D03*
X62500Y-51000D03*
X61500Y-39000D03*
X61900Y-40900D03*
X62800Y-50000D03*
X58700Y-49900D03*
X59500Y-52500D03*
X55500Y-39250D03*
X55500Y-38250D03*
G54D15*
X69575Y-43300D02*
X69275Y-43000D01*
X69975Y-48500D02*
X70000Y-48500D01*
X68870Y-43000D02*
X69275Y-43000D01*
X64420Y-39500D02*
X63700Y-39500D01*
X67562Y-42642D02*
X68512Y-42642D01*
X69975Y-48500D02*
X69575Y-48100D01*
X63700Y-39500D02*
X63578Y-39622D01*
X68512Y-42642D02*
X68870Y-43000D01*
X67562Y-42642D02*
X64420Y-39500D01*
X58000Y-40000D02*
X58378Y-39622D01*
X63578Y-39622D02*
X58378Y-39622D01*
X69575Y-48100D02*
X69575Y-43300D01*
X52300Y-41000D02*
X51880Y-41000D01*
X57300Y-40080D02*
X57900Y-39480D01*
X52420Y-41120D02*
X52420Y-42800D01*
X52220Y-43000D02*
X51700Y-43000D01*
X51580Y-48080D02*
X52000Y-48500D01*
X51820Y-40080D02*
X57300Y-40080D01*
X52420Y-41120D02*
X52300Y-41000D01*
X63520Y-39480D02*
X64000Y-39000D01*
X51580Y-40320D02*
X51820Y-40080D01*
X52420Y-42800D02*
X52220Y-43000D01*
X51580Y-43120D02*
X51700Y-43000D01*
X51580Y-40700D02*
X51580Y-40320D01*
X51880Y-41000D02*
X51580Y-40700D01*
X57900Y-39480D02*
X63520Y-39480D01*
X51580Y-43120D02*
X51580Y-48080D01*
X65938Y-51562D02*
X66000Y-51500D01*
X56520Y-52100D02*
X57058Y-51562D01*
X55100Y-52100D02*
X56520Y-52100D01*
X57058Y-51562D02*
X65938Y-51562D01*
X52430Y-48930D02*
X52704Y-49204D01*
X58278Y-50278D02*
X60842Y-50278D01*
X51580Y-48280D02*
X51580Y-48680D01*
X51830Y-48930D02*
X52430Y-48930D01*
X60842Y-50278D02*
X60980Y-50140D01*
X66000Y-50500D02*
X62100Y-50500D01*
X52704Y-49204D02*
X57204Y-49204D01*
X58000Y-50000D02*
X58278Y-50278D01*
X51438Y-48138D02*
X51580Y-48280D01*
X51438Y-43062D02*
X51438Y-48138D01*
X51438Y-43062D02*
X52000Y-42500D01*
X57204Y-49204D02*
X58000Y-50000D01*
X51580Y-48680D02*
X51830Y-48930D01*
X70567Y-48993D02*
X69640Y-49920D01*
X66460Y-50980D02*
X65680Y-50980D01*
X70420Y-42000D02*
X70420Y-40920D01*
X65240Y-51420D02*
X58420Y-51420D01*
X66980Y-51500D02*
X66460Y-50980D01*
X67000Y-51500D02*
X66980Y-51500D01*
X58420Y-51420D02*
X58000Y-51000D01*
X70420Y-40920D02*
X70000Y-40500D01*
X70567Y-42147D02*
X70420Y-42000D01*
X70567Y-48993D02*
X70567Y-42147D01*
X65240Y-51420D02*
X65680Y-50980D01*
X55803Y-47303D02*
X55360Y-46860D01*
X55360Y-46860D02*
X55360Y-48220D01*
X57637Y-47303D02*
X55803Y-47303D01*
X55360Y-48220D02*
X55060Y-48520D01*
X58380Y-47500D02*
X57834Y-47500D01*
X61020Y-47978D02*
X58858Y-47978D01*
X61498Y-47500D02*
X61020Y-47978D01*
X58858Y-47978D02*
X58380Y-47500D01*
X57834Y-47500D02*
X57637Y-47303D01*
X61499Y-47500D02*
X61498Y-47500D01*
X52740Y-43000D02*
X56200Y-43000D01*
X52562Y-42822D02*
X52740Y-43000D01*
X58680Y-41580D02*
X57640Y-41580D01*
X52562Y-42822D02*
X52562Y-41062D01*
X56220Y-43000D02*
X57640Y-41580D01*
X60000Y-42400D02*
X59680Y-42080D01*
X60000Y-45001D02*
X61499Y-46500D01*
X52562Y-41062D02*
X52000Y-40500D01*
X55080Y-47220D02*
X55080Y-48080D01*
X59180Y-42080D02*
X58680Y-41580D01*
X60000Y-42400D02*
X60000Y-45001D01*
X59680Y-42080D02*
X59180Y-42080D01*
X56200Y-43000D02*
X56400Y-43200D01*
X56400Y-43400D02*
X56400Y-43200D01*
X55080Y-48080D02*
X54640Y-48520D01*
X56200Y-43000D02*
X56220Y-43000D01*
X61638Y-50562D02*
X63200Y-49000D01*
X56898Y-50562D02*
X61638Y-50562D01*
X53000Y-51500D02*
X53000Y-51462D01*
X63200Y-49000D02*
X64000Y-49000D01*
X53400Y-51062D02*
X56398Y-51062D01*
X56398Y-51062D02*
X56898Y-50562D01*
X53000Y-51462D02*
X53400Y-51062D01*
X53000Y-50500D02*
X53000Y-50520D01*
X61580Y-50420D02*
X64000Y-48000D01*
X53400Y-50920D02*
X56340Y-50920D01*
X56840Y-50420D02*
X61580Y-50420D01*
X56340Y-50920D02*
X56840Y-50420D01*
X53000Y-50520D02*
X53400Y-50920D01*
X67620Y-42500D02*
X64440Y-39320D01*
X64440Y-38840D02*
X64120Y-38520D01*
X64120Y-38520D02*
X59520Y-38520D01*
X61480Y-44060D02*
X60680Y-44860D01*
X59520Y-38520D02*
X58000Y-37000D01*
X69000Y-42500D02*
X67620Y-42500D01*
X64440Y-39320D02*
X64440Y-38840D01*
X68510Y-49740D02*
X69433Y-48817D01*
X69433Y-48817D02*
X69433Y-43933D01*
X69433Y-43933D02*
X69000Y-43500D01*
X68510Y-50990D02*
X68510Y-49740D01*
X68510Y-50990D02*
X68000Y-51500D01*
X57150Y-41250D02*
X57820Y-40580D01*
X53250Y-41250D02*
X53000Y-41500D01*
X62580Y-40580D02*
X64000Y-42000D01*
X57150Y-41250D02*
X53250Y-41250D01*
X57820Y-40580D02*
X62580Y-40580D01*
X57582Y-41438D02*
X58738Y-41438D01*
X59738Y-41938D02*
X59800Y-42000D01*
X56770Y-42250D02*
X57582Y-41438D01*
X61000Y-42260D02*
X61000Y-43001D01*
X61000Y-43001D02*
X62499Y-44500D01*
X60740Y-42000D02*
X61000Y-42260D01*
X53000Y-42500D02*
X53250Y-42250D01*
X58738Y-41438D02*
X59238Y-41938D01*
X53250Y-42250D02*
X56770Y-42250D01*
X59238Y-41938D02*
X59738Y-41938D01*
X59800Y-42000D02*
X60740Y-42000D01*
X64000Y-46220D02*
X64000Y-46000D01*
X63062Y-48198D02*
X61698Y-49562D01*
X57262Y-49062D02*
X57762Y-49562D01*
X64540Y-47850D02*
X65350Y-47850D01*
X63062Y-48198D02*
X63062Y-45937D01*
X65350Y-47850D02*
X68000Y-50500D01*
X52420Y-48720D02*
X52762Y-49062D01*
X52980Y-43500D02*
X52420Y-44060D01*
X52762Y-49062D02*
X57262Y-49062D01*
X53000Y-43500D02*
X52980Y-43500D01*
X52420Y-44060D02*
X52420Y-48720D01*
X63062Y-45937D02*
X63499Y-45500D01*
X64700Y-46920D02*
X64000Y-46220D01*
X57762Y-49562D02*
X61698Y-49562D01*
X52820Y-48920D02*
X52562Y-48662D01*
X52562Y-44938D02*
X53000Y-44500D01*
X62920Y-48140D02*
X61640Y-49420D01*
X62920Y-45079D02*
X62920Y-48140D01*
X52820Y-48920D02*
X57320Y-48920D01*
X52562Y-48662D02*
X52562Y-44938D01*
X57320Y-48920D02*
X57820Y-49420D01*
X57820Y-49420D02*
X61640Y-49420D01*
X62920Y-45079D02*
X63499Y-44500D01*
X63638Y-47438D02*
X63480Y-47280D01*
X64400Y-47438D02*
X63638Y-47438D01*
X68142Y-47358D02*
X69000Y-46500D01*
X64480Y-47358D02*
X64400Y-47438D01*
X68142Y-47358D02*
X64480Y-47358D01*
X64460Y-47580D02*
X63440Y-47580D01*
X69000Y-47500D02*
X64540Y-47500D01*
X63440Y-47580D02*
X63340Y-47680D01*
X64540Y-47500D02*
X64460Y-47580D01*
X70000Y-41860D02*
X70140Y-42000D01*
X70425Y-48700D02*
X70425Y-42205D01*
X70220Y-42000D02*
X70425Y-42205D01*
X70000Y-49125D02*
X70425Y-48700D01*
X58800Y-48120D02*
X58680Y-48000D01*
X62520Y-48120D02*
X58800Y-48120D01*
X70140Y-42000D02*
X70220Y-42000D01*
X58680Y-48000D02*
X58000Y-48000D01*
X70000Y-41500D02*
X70000Y-41860D01*
X57500Y-46500D02*
X58000Y-46000D01*
X53000Y-46500D02*
X57500Y-46500D01*
X55920Y-44000D02*
X56960Y-44000D01*
X56960Y-44000D02*
X57459Y-43501D01*
X58500Y-43501D02*
X57459Y-43501D01*
X52000Y-39700D02*
X52000Y-39500D01*
X52000Y-51500D02*
X52000Y-50500D01*
X51580Y-40900D02*
X51438Y-40758D01*
X51296Y-48196D02*
X51438Y-48338D01*
X61782Y-38662D02*
X62060Y-38940D01*
X51296Y-48196D02*
X51296Y-43004D01*
X51580Y-42720D02*
X51580Y-40900D01*
X51438Y-40262D02*
X52000Y-39700D01*
X51438Y-40758D02*
X51438Y-40262D01*
X51438Y-48738D02*
X52000Y-49300D01*
X51296Y-43004D02*
X51580Y-42720D01*
X52000Y-50500D02*
X52000Y-49300D01*
X51438Y-48338D02*
X51438Y-48738D01*
X57400Y-38500D02*
X59300Y-38500D01*
X59462Y-38662D02*
X61782Y-38662D01*
X59300Y-38500D02*
X59462Y-38662D01*
X66500Y-52540D02*
X66460Y-52500D01*
X56800Y-48600D02*
X57400Y-48600D01*
X51500Y-36500D02*
X51500Y-38500D01*
X57000Y-42750D02*
X57000Y-43500D01*
X66000Y-47000D02*
X66500Y-47000D01*
X65500Y-45500D02*
X65500Y-46500D01*
X70460Y-49300D02*
X70709Y-49051D01*
X66540Y-52500D02*
X66500Y-52540D01*
X68500Y-52500D02*
X66540Y-52500D01*
X70709Y-42089D02*
X70562Y-41942D01*
X68000Y-38380D02*
X67540Y-38380D01*
X70460Y-50040D02*
X70000Y-50500D01*
X69980Y-38380D02*
X68000Y-38380D01*
X53500Y-38250D02*
X53500Y-38750D01*
X60250Y-48750D02*
X59250Y-48750D01*
X59500Y-52500D02*
X62500Y-52500D01*
X70562Y-36562D02*
X70500Y-36500D01*
X65970Y-40220D02*
X65970Y-38910D01*
X68000Y-45500D02*
X68000Y-44500D01*
X63500Y-36500D02*
X61500Y-36500D01*
X57200Y-46200D02*
X56750Y-45750D01*
X51500Y-52500D02*
X51500Y-51000D01*
X70562Y-38962D02*
X69980Y-38380D01*
X67000Y-36500D02*
X65000Y-36500D01*
X53260Y-40240D02*
X57564Y-40240D01*
X55500Y-36500D02*
X53500Y-36500D01*
X70562Y-39000D02*
X70562Y-36562D01*
X68000Y-41800D02*
X67700Y-42100D01*
X56750Y-43750D02*
X56250Y-43750D01*
X70500Y-40000D02*
X70500Y-38500D01*
X57564Y-40240D02*
X57762Y-40438D01*
X59500Y-36500D02*
X57500Y-36500D01*
X70562Y-41942D02*
X70562Y-39000D01*
X70562Y-39000D02*
X70562Y-38962D01*
X56750Y-43750D02*
X57000Y-43500D01*
X70460Y-49720D02*
X70460Y-50040D01*
X60400Y-44300D02*
X60400Y-43900D01*
X65890Y-40300D02*
X65970Y-40220D01*
X57250Y-42500D02*
X57000Y-42750D01*
X54000Y-48500D02*
X54000Y-47000D01*
X56000Y-43500D02*
X54000Y-43500D01*
X53000Y-40500D02*
X53260Y-40240D01*
X54000Y-44500D02*
X54000Y-43500D01*
X70000Y-51480D02*
X70460Y-51020D01*
X54000Y-46000D02*
X54000Y-44500D01*
X70460Y-49720D02*
X70460Y-49300D01*
X57762Y-40438D02*
X63500Y-40438D01*
X63500Y-40438D02*
X64698Y-40438D01*
X56250Y-43750D02*
X56000Y-43500D01*
X64698Y-40438D02*
X65200Y-40940D01*
X63500Y-40600D02*
X63300Y-40800D01*
X62500Y-39250D02*
X62750Y-39000D01*
X62750Y-39000D02*
X63000Y-39000D01*
X63500Y-40438D02*
X63500Y-40600D01*
X65250Y-43250D02*
X65250Y-45250D01*
X59750Y-51000D02*
X62500Y-51000D01*
X60700Y-40900D02*
X61900Y-40900D01*
X61750Y-39250D02*
X62500Y-39250D01*
X65500Y-41240D02*
X65500Y-43000D01*
X60400Y-43900D02*
X60900Y-43400D01*
X61300Y-44900D02*
X61850Y-44350D01*
X66500Y-52500D02*
X66460Y-52500D01*
X70500Y-52500D02*
X68500Y-52500D01*
X65500Y-43000D02*
X65250Y-43250D01*
X61500Y-39000D02*
X61750Y-39250D01*
X63300Y-49500D02*
X64750Y-49500D01*
X65500Y-46500D02*
X66000Y-47000D01*
X61300Y-44900D02*
X61300Y-45400D01*
X70000Y-51500D02*
X70000Y-51480D01*
X64750Y-49500D02*
X65250Y-49000D01*
X64750Y-49500D02*
X65250Y-50000D01*
X57400Y-48600D02*
X57500Y-48500D01*
X56800Y-48600D02*
X56800Y-47600D01*
X68000Y-40000D02*
X68000Y-38380D01*
X53500Y-38750D02*
X54000Y-39250D01*
X57500Y-48500D02*
X59000Y-48500D01*
X68000Y-44500D02*
X68000Y-43500D01*
X59200Y-39000D02*
X61500Y-39000D01*
X70709Y-49051D02*
X70709Y-42089D01*
X59000Y-48500D02*
X59250Y-48750D01*
X65200Y-40940D02*
X65500Y-41240D01*
X55500Y-52500D02*
X53500Y-52500D01*
X59500Y-52500D02*
X57500Y-52500D01*
X68000Y-47000D02*
X68000Y-45500D01*
X62800Y-50000D02*
X63300Y-49500D01*
X68000Y-41500D02*
X68000Y-41800D01*
X65250Y-45250D02*
X65500Y-45500D01*
X55500Y-39250D02*
X55500Y-38250D01*
X70460Y-51020D02*
X70460Y-49720D01*
X55500Y-38250D02*
X55500Y-36500D01*
G54D10*
G36*
X55167Y-46650D02*
X55141Y-46676D01*
X55109Y-46722D01*
X55087Y-46773D01*
X55075Y-46828D01*
X55075Y-46884D01*
X55084Y-46935D01*
X55054Y-46935D01*
X54999Y-46945D01*
X54947Y-46966D01*
X54901Y-46997D01*
X54861Y-47036D01*
X54829Y-47082D01*
X54807Y-47133D01*
X54795Y-47188D01*
X54795Y-47244D01*
X54805Y-47299D01*
X54825Y-47351D01*
X54856Y-47398D01*
X54894Y-47438D01*
X54930Y-47463D01*
X54930Y-48018D01*
X54705Y-48242D01*
X54670Y-48235D01*
X54614Y-48235D01*
X54559Y-48245D01*
X54507Y-48266D01*
X54461Y-48297D01*
X54421Y-48336D01*
X54389Y-48382D01*
X54367Y-48433D01*
X54355Y-48488D01*
X54355Y-48544D01*
X54365Y-48599D01*
X54385Y-48651D01*
X54416Y-48698D01*
X54454Y-48738D01*
X54500Y-48770D01*
X53330Y-48770D01*
X53371Y-48711D01*
X53405Y-48634D01*
X53424Y-48553D01*
X53425Y-48458D01*
X53409Y-48376D01*
X53377Y-48299D01*
X53331Y-48230D01*
X53272Y-48171D01*
X53203Y-48124D01*
X53126Y-48092D01*
X53044Y-48075D01*
X52961Y-48075D01*
X52879Y-48090D01*
X52802Y-48122D01*
X52732Y-48167D01*
X52712Y-48187D01*
X52712Y-47813D01*
X52723Y-47825D01*
X52792Y-47873D01*
X52868Y-47906D01*
X52950Y-47924D01*
X53033Y-47926D01*
X53115Y-47911D01*
X53193Y-47881D01*
X53263Y-47836D01*
X53324Y-47779D01*
X53371Y-47711D01*
X53405Y-47634D01*
X53424Y-47553D01*
X53425Y-47458D01*
X53409Y-47376D01*
X53377Y-47299D01*
X53331Y-47230D01*
X53272Y-47171D01*
X53203Y-47124D01*
X53126Y-47092D01*
X53044Y-47075D01*
X52961Y-47075D01*
X52879Y-47090D01*
X52802Y-47122D01*
X52732Y-47167D01*
X52712Y-47187D01*
X52712Y-46813D01*
X52723Y-46825D01*
X52792Y-46873D01*
X52868Y-46906D01*
X52950Y-46924D01*
X53033Y-46926D01*
X53115Y-46911D01*
X53193Y-46881D01*
X53263Y-46836D01*
X53324Y-46779D01*
X53371Y-46711D01*
X53397Y-46650D01*
X55167Y-46650D01*
X55167Y-46650D01*
G37*
X55167Y-46650D02*
X55141Y-46676D01*
X55109Y-46722D01*
X55087Y-46773D01*
X55075Y-46828D01*
X55075Y-46884D01*
X55084Y-46935D01*
X55054Y-46935D01*
X54999Y-46945D01*
X54947Y-46966D01*
X54901Y-46997D01*
X54861Y-47036D01*
X54829Y-47082D01*
X54807Y-47133D01*
X54795Y-47188D01*
X54795Y-47244D01*
X54805Y-47299D01*
X54825Y-47351D01*
X54856Y-47398D01*
X54894Y-47438D01*
X54930Y-47463D01*
X54930Y-48018D01*
X54705Y-48242D01*
X54670Y-48235D01*
X54614Y-48235D01*
X54559Y-48245D01*
X54507Y-48266D01*
X54461Y-48297D01*
X54421Y-48336D01*
X54389Y-48382D01*
X54367Y-48433D01*
X54355Y-48488D01*
X54355Y-48544D01*
X54365Y-48599D01*
X54385Y-48651D01*
X54416Y-48698D01*
X54454Y-48738D01*
X54500Y-48770D01*
X53330Y-48770D01*
X53371Y-48711D01*
X53405Y-48634D01*
X53424Y-48553D01*
X53425Y-48458D01*
X53409Y-48376D01*
X53377Y-48299D01*
X53331Y-48230D01*
X53272Y-48171D01*
X53203Y-48124D01*
X53126Y-48092D01*
X53044Y-48075D01*
X52961Y-48075D01*
X52879Y-48090D01*
X52802Y-48122D01*
X52732Y-48167D01*
X52712Y-48187D01*
X52712Y-47813D01*
X52723Y-47825D01*
X52792Y-47873D01*
X52868Y-47906D01*
X52950Y-47924D01*
X53033Y-47926D01*
X53115Y-47911D01*
X53193Y-47881D01*
X53263Y-47836D01*
X53324Y-47779D01*
X53371Y-47711D01*
X53405Y-47634D01*
X53424Y-47553D01*
X53425Y-47458D01*
X53409Y-47376D01*
X53377Y-47299D01*
X53331Y-47230D01*
X53272Y-47171D01*
X53203Y-47124D01*
X53126Y-47092D01*
X53044Y-47075D01*
X52961Y-47075D01*
X52879Y-47090D01*
X52802Y-47122D01*
X52732Y-47167D01*
X52712Y-47187D01*
X52712Y-46813D01*
X52723Y-46825D01*
X52792Y-46873D01*
X52868Y-46906D01*
X52950Y-46924D01*
X53033Y-46926D01*
X53115Y-46911D01*
X53193Y-46881D01*
X53263Y-46836D01*
X53324Y-46779D01*
X53371Y-46711D01*
X53397Y-46650D01*
X55167Y-46650D01*
G36*
X56608Y-42400D02*
X56158Y-42850D01*
X53241Y-42850D01*
X53263Y-42836D01*
X53324Y-42779D01*
X53371Y-42711D01*
X53405Y-42634D01*
X53424Y-42553D01*
X53425Y-42458D01*
X53413Y-42400D01*
X56608Y-42400D01*
X56608Y-42400D01*
G37*
X56608Y-42400D02*
X56158Y-42850D01*
X53241Y-42850D01*
X53263Y-42836D01*
X53324Y-42779D01*
X53371Y-42711D01*
X53405Y-42634D01*
X53424Y-42553D01*
X53425Y-42458D01*
X53413Y-42400D01*
X56608Y-42400D01*
G36*
X57687Y-41288D02*
X57583Y-41288D01*
X57582Y-41288D01*
X57580Y-41288D01*
X57554Y-41290D01*
X57534Y-41296D01*
X57525Y-41299D01*
X57512Y-41306D01*
X57500Y-41312D01*
X57477Y-41331D01*
X57476Y-41332D01*
X56708Y-42100D01*
X53251Y-42100D01*
X53250Y-42100D01*
X53221Y-42103D01*
X53193Y-42111D01*
X53183Y-42115D01*
X53126Y-42092D01*
X53044Y-42075D01*
X52961Y-42075D01*
X52879Y-42090D01*
X52802Y-42122D01*
X52732Y-42167D01*
X52712Y-42187D01*
X52712Y-41813D01*
X52723Y-41825D01*
X52792Y-41873D01*
X52868Y-41906D01*
X52950Y-41924D01*
X53033Y-41926D01*
X53115Y-41911D01*
X53193Y-41881D01*
X53263Y-41836D01*
X53324Y-41779D01*
X53371Y-41711D01*
X53405Y-41634D01*
X53424Y-41553D01*
X53425Y-41458D01*
X53413Y-41400D01*
X57149Y-41400D01*
X57150Y-41400D01*
X57152Y-41399D01*
X57178Y-41398D01*
X57179Y-41397D01*
X57198Y-41391D01*
X57206Y-41389D01*
X57207Y-41389D01*
X57220Y-41382D01*
X57232Y-41376D01*
X57233Y-41375D01*
X57255Y-41357D01*
X57256Y-41356D01*
X57574Y-41037D01*
X57590Y-41118D01*
X57620Y-41196D01*
X57666Y-41266D01*
X57687Y-41288D01*
X57687Y-41288D01*
G37*
X57687Y-41288D02*
X57583Y-41288D01*
X57582Y-41288D01*
X57580Y-41288D01*
X57554Y-41290D01*
X57534Y-41296D01*
X57525Y-41299D01*
X57512Y-41306D01*
X57500Y-41312D01*
X57477Y-41331D01*
X57476Y-41332D01*
X56708Y-42100D01*
X53251Y-42100D01*
X53250Y-42100D01*
X53221Y-42103D01*
X53193Y-42111D01*
X53183Y-42115D01*
X53126Y-42092D01*
X53044Y-42075D01*
X52961Y-42075D01*
X52879Y-42090D01*
X52802Y-42122D01*
X52732Y-42167D01*
X52712Y-42187D01*
X52712Y-41813D01*
X52723Y-41825D01*
X52792Y-41873D01*
X52868Y-41906D01*
X52950Y-41924D01*
X53033Y-41926D01*
X53115Y-41911D01*
X53193Y-41881D01*
X53263Y-41836D01*
X53324Y-41779D01*
X53371Y-41711D01*
X53405Y-41634D01*
X53424Y-41553D01*
X53425Y-41458D01*
X53413Y-41400D01*
X57149Y-41400D01*
X57150Y-41400D01*
X57152Y-41399D01*
X57178Y-41398D01*
X57179Y-41397D01*
X57198Y-41391D01*
X57206Y-41389D01*
X57207Y-41389D01*
X57220Y-41382D01*
X57232Y-41376D01*
X57233Y-41375D01*
X57255Y-41357D01*
X57256Y-41356D01*
X57574Y-41037D01*
X57590Y-41118D01*
X57620Y-41196D01*
X57666Y-41266D01*
X57687Y-41288D01*
G36*
X58083Y-45583D02*
X58044Y-45575D01*
X57961Y-45575D01*
X57879Y-45590D01*
X57802Y-45622D01*
X57732Y-45667D01*
X57673Y-45726D01*
X57626Y-45795D01*
X57593Y-45871D01*
X57576Y-45953D01*
X57574Y-46036D01*
X57590Y-46118D01*
X57612Y-46175D01*
X57438Y-46350D01*
X53398Y-46350D01*
X53377Y-46299D01*
X53331Y-46230D01*
X53272Y-46171D01*
X53203Y-46124D01*
X53126Y-46092D01*
X53044Y-46075D01*
X52961Y-46075D01*
X52879Y-46090D01*
X52802Y-46122D01*
X52732Y-46167D01*
X52712Y-46187D01*
X52712Y-45813D01*
X52723Y-45825D01*
X52792Y-45873D01*
X52868Y-45906D01*
X52950Y-45924D01*
X53033Y-45926D01*
X53115Y-45911D01*
X53193Y-45881D01*
X53263Y-45836D01*
X53324Y-45779D01*
X53371Y-45711D01*
X53405Y-45634D01*
X53424Y-45553D01*
X53425Y-45458D01*
X53409Y-45376D01*
X53377Y-45299D01*
X53331Y-45230D01*
X53272Y-45171D01*
X53203Y-45124D01*
X53126Y-45092D01*
X53044Y-45075D01*
X52961Y-45075D01*
X52879Y-45090D01*
X52802Y-45122D01*
X52732Y-45167D01*
X52712Y-45187D01*
X52712Y-45000D01*
X52824Y-44887D01*
X52868Y-44906D01*
X52950Y-44924D01*
X53033Y-44926D01*
X53115Y-44911D01*
X53193Y-44881D01*
X53263Y-44836D01*
X53324Y-44779D01*
X53371Y-44711D01*
X53405Y-44634D01*
X53424Y-44553D01*
X53425Y-44458D01*
X53409Y-44376D01*
X53377Y-44299D01*
X53331Y-44230D01*
X53272Y-44171D01*
X53203Y-44124D01*
X53126Y-44092D01*
X53044Y-44075D01*
X52961Y-44075D01*
X52879Y-44090D01*
X52802Y-44122D01*
X52732Y-44167D01*
X52673Y-44226D01*
X52626Y-44295D01*
X52593Y-44371D01*
X52576Y-44453D01*
X52574Y-44536D01*
X52590Y-44618D01*
X52612Y-44675D01*
X52570Y-44718D01*
X52570Y-44122D01*
X52810Y-43881D01*
X52868Y-43906D01*
X52950Y-43924D01*
X53033Y-43926D01*
X53115Y-43911D01*
X53193Y-43881D01*
X53263Y-43836D01*
X53324Y-43779D01*
X53371Y-43711D01*
X53405Y-43634D01*
X53424Y-43553D01*
X53425Y-43458D01*
X53409Y-43376D01*
X53377Y-43299D01*
X53331Y-43230D01*
X53272Y-43171D01*
X53241Y-43150D01*
X56138Y-43150D01*
X56192Y-43204D01*
X56181Y-43216D01*
X56149Y-43262D01*
X56127Y-43313D01*
X56115Y-43368D01*
X56115Y-43424D01*
X56125Y-43479D01*
X56145Y-43531D01*
X56176Y-43578D01*
X56214Y-43618D01*
X56260Y-43650D01*
X56312Y-43672D01*
X56366Y-43684D01*
X56422Y-43686D01*
X56477Y-43676D01*
X56529Y-43656D01*
X56576Y-43626D01*
X56617Y-43587D01*
X56649Y-43541D01*
X56672Y-43490D01*
X56684Y-43436D01*
X56685Y-43372D01*
X56674Y-43317D01*
X56653Y-43266D01*
X56622Y-43219D01*
X56582Y-43179D01*
X56541Y-43151D01*
X56539Y-43144D01*
X56539Y-43143D01*
X56525Y-43117D01*
X56507Y-43095D01*
X56506Y-43094D01*
X56505Y-43093D01*
X56422Y-43010D01*
X57617Y-41814D01*
X57593Y-41871D01*
X57576Y-41953D01*
X57574Y-42036D01*
X57590Y-42118D01*
X57620Y-42196D01*
X57666Y-42266D01*
X57723Y-42325D01*
X57792Y-42373D01*
X57868Y-42406D01*
X57950Y-42424D01*
X58033Y-42426D01*
X58083Y-42416D01*
X58076Y-42454D01*
X58074Y-42537D01*
X58082Y-42583D01*
X58044Y-42575D01*
X57961Y-42575D01*
X57879Y-42590D01*
X57802Y-42622D01*
X57732Y-42667D01*
X57673Y-42726D01*
X57626Y-42795D01*
X57593Y-42871D01*
X57576Y-42953D01*
X57574Y-43036D01*
X57590Y-43118D01*
X57620Y-43196D01*
X57666Y-43266D01*
X57723Y-43325D01*
X57760Y-43351D01*
X57459Y-43351D01*
X57430Y-43354D01*
X57402Y-43362D01*
X57376Y-43376D01*
X57354Y-43394D01*
X57352Y-43395D01*
X56897Y-43850D01*
X56162Y-43850D01*
X56142Y-43819D01*
X56102Y-43779D01*
X56056Y-43748D01*
X56005Y-43726D01*
X55950Y-43715D01*
X55894Y-43715D01*
X55839Y-43725D01*
X55787Y-43746D01*
X55741Y-43777D01*
X55701Y-43816D01*
X55669Y-43862D01*
X55647Y-43913D01*
X55635Y-43968D01*
X55635Y-44024D01*
X55645Y-44079D01*
X55665Y-44131D01*
X55696Y-44178D01*
X55734Y-44218D01*
X55780Y-44250D01*
X55832Y-44272D01*
X55886Y-44284D01*
X55942Y-44286D01*
X55997Y-44276D01*
X56049Y-44256D01*
X56096Y-44226D01*
X56137Y-44187D01*
X56162Y-44150D01*
X56959Y-44150D01*
X56960Y-44150D01*
X56962Y-44149D01*
X56988Y-44148D01*
X56989Y-44147D01*
X57008Y-44141D01*
X57016Y-44139D01*
X57017Y-44139D01*
X57030Y-44132D01*
X57042Y-44126D01*
X57043Y-44125D01*
X57065Y-44107D01*
X57066Y-44106D01*
X57521Y-43651D01*
X57756Y-43651D01*
X57732Y-43667D01*
X57673Y-43726D01*
X57626Y-43795D01*
X57593Y-43871D01*
X57576Y-43953D01*
X57574Y-44036D01*
X57590Y-44118D01*
X57620Y-44196D01*
X57666Y-44266D01*
X57723Y-44325D01*
X57792Y-44373D01*
X57868Y-44406D01*
X57950Y-44424D01*
X58033Y-44426D01*
X58083Y-44416D01*
X58076Y-44453D01*
X58074Y-44536D01*
X58083Y-44583D01*
X58044Y-44575D01*
X57961Y-44575D01*
X57879Y-44590D01*
X57802Y-44622D01*
X57732Y-44667D01*
X57673Y-44726D01*
X57626Y-44795D01*
X57593Y-44871D01*
X57576Y-44953D01*
X57574Y-45036D01*
X57590Y-45118D01*
X57620Y-45196D01*
X57666Y-45266D01*
X57723Y-45325D01*
X57792Y-45373D01*
X57868Y-45406D01*
X57950Y-45424D01*
X58033Y-45426D01*
X58083Y-45416D01*
X58076Y-45453D01*
X58074Y-45536D01*
X58083Y-45583D01*
X58083Y-45583D01*
G37*
X58083Y-45583D02*
X58044Y-45575D01*
X57961Y-45575D01*
X57879Y-45590D01*
X57802Y-45622D01*
X57732Y-45667D01*
X57673Y-45726D01*
X57626Y-45795D01*
X57593Y-45871D01*
X57576Y-45953D01*
X57574Y-46036D01*
X57590Y-46118D01*
X57612Y-46175D01*
X57438Y-46350D01*
X53398Y-46350D01*
X53377Y-46299D01*
X53331Y-46230D01*
X53272Y-46171D01*
X53203Y-46124D01*
X53126Y-46092D01*
X53044Y-46075D01*
X52961Y-46075D01*
X52879Y-46090D01*
X52802Y-46122D01*
X52732Y-46167D01*
X52712Y-46187D01*
X52712Y-45813D01*
X52723Y-45825D01*
X52792Y-45873D01*
X52868Y-45906D01*
X52950Y-45924D01*
X53033Y-45926D01*
X53115Y-45911D01*
X53193Y-45881D01*
X53263Y-45836D01*
X53324Y-45779D01*
X53371Y-45711D01*
X53405Y-45634D01*
X53424Y-45553D01*
X53425Y-45458D01*
X53409Y-45376D01*
X53377Y-45299D01*
X53331Y-45230D01*
X53272Y-45171D01*
X53203Y-45124D01*
X53126Y-45092D01*
X53044Y-45075D01*
X52961Y-45075D01*
X52879Y-45090D01*
X52802Y-45122D01*
X52732Y-45167D01*
X52712Y-45187D01*
X52712Y-45000D01*
X52824Y-44887D01*
X52868Y-44906D01*
X52950Y-44924D01*
X53033Y-44926D01*
X53115Y-44911D01*
X53193Y-44881D01*
X53263Y-44836D01*
X53324Y-44779D01*
X53371Y-44711D01*
X53405Y-44634D01*
X53424Y-44553D01*
X53425Y-44458D01*
X53409Y-44376D01*
X53377Y-44299D01*
X53331Y-44230D01*
X53272Y-44171D01*
X53203Y-44124D01*
X53126Y-44092D01*
X53044Y-44075D01*
X52961Y-44075D01*
X52879Y-44090D01*
X52802Y-44122D01*
X52732Y-44167D01*
X52673Y-44226D01*
X52626Y-44295D01*
X52593Y-44371D01*
X52576Y-44453D01*
X52574Y-44536D01*
X52590Y-44618D01*
X52612Y-44675D01*
X52570Y-44718D01*
X52570Y-44122D01*
X52810Y-43881D01*
X52868Y-43906D01*
X52950Y-43924D01*
X53033Y-43926D01*
X53115Y-43911D01*
X53193Y-43881D01*
X53263Y-43836D01*
X53324Y-43779D01*
X53371Y-43711D01*
X53405Y-43634D01*
X53424Y-43553D01*
X53425Y-43458D01*
X53409Y-43376D01*
X53377Y-43299D01*
X53331Y-43230D01*
X53272Y-43171D01*
X53241Y-43150D01*
X56138Y-43150D01*
X56192Y-43204D01*
X56181Y-43216D01*
X56149Y-43262D01*
X56127Y-43313D01*
X56115Y-43368D01*
X56115Y-43424D01*
X56125Y-43479D01*
X56145Y-43531D01*
X56176Y-43578D01*
X56214Y-43618D01*
X56260Y-43650D01*
X56312Y-43672D01*
X56366Y-43684D01*
X56422Y-43686D01*
X56477Y-43676D01*
X56529Y-43656D01*
X56576Y-43626D01*
X56617Y-43587D01*
X56649Y-43541D01*
X56672Y-43490D01*
X56684Y-43436D01*
X56685Y-43372D01*
X56674Y-43317D01*
X56653Y-43266D01*
X56622Y-43219D01*
X56582Y-43179D01*
X56541Y-43151D01*
X56539Y-43144D01*
X56539Y-43143D01*
X56525Y-43117D01*
X56507Y-43095D01*
X56506Y-43094D01*
X56505Y-43093D01*
X56422Y-43010D01*
X57617Y-41814D01*
X57593Y-41871D01*
X57576Y-41953D01*
X57574Y-42036D01*
X57590Y-42118D01*
X57620Y-42196D01*
X57666Y-42266D01*
X57723Y-42325D01*
X57792Y-42373D01*
X57868Y-42406D01*
X57950Y-42424D01*
X58033Y-42426D01*
X58083Y-42416D01*
X58076Y-42454D01*
X58074Y-42537D01*
X58082Y-42583D01*
X58044Y-42575D01*
X57961Y-42575D01*
X57879Y-42590D01*
X57802Y-42622D01*
X57732Y-42667D01*
X57673Y-42726D01*
X57626Y-42795D01*
X57593Y-42871D01*
X57576Y-42953D01*
X57574Y-43036D01*
X57590Y-43118D01*
X57620Y-43196D01*
X57666Y-43266D01*
X57723Y-43325D01*
X57760Y-43351D01*
X57459Y-43351D01*
X57430Y-43354D01*
X57402Y-43362D01*
X57376Y-43376D01*
X57354Y-43394D01*
X57352Y-43395D01*
X56897Y-43850D01*
X56162Y-43850D01*
X56142Y-43819D01*
X56102Y-43779D01*
X56056Y-43748D01*
X56005Y-43726D01*
X55950Y-43715D01*
X55894Y-43715D01*
X55839Y-43725D01*
X55787Y-43746D01*
X55741Y-43777D01*
X55701Y-43816D01*
X55669Y-43862D01*
X55647Y-43913D01*
X55635Y-43968D01*
X55635Y-44024D01*
X55645Y-44079D01*
X55665Y-44131D01*
X55696Y-44178D01*
X55734Y-44218D01*
X55780Y-44250D01*
X55832Y-44272D01*
X55886Y-44284D01*
X55942Y-44286D01*
X55997Y-44276D01*
X56049Y-44256D01*
X56096Y-44226D01*
X56137Y-44187D01*
X56162Y-44150D01*
X56959Y-44150D01*
X56960Y-44150D01*
X56962Y-44149D01*
X56988Y-44148D01*
X56989Y-44147D01*
X57008Y-44141D01*
X57016Y-44139D01*
X57017Y-44139D01*
X57030Y-44132D01*
X57042Y-44126D01*
X57043Y-44125D01*
X57065Y-44107D01*
X57066Y-44106D01*
X57521Y-43651D01*
X57756Y-43651D01*
X57732Y-43667D01*
X57673Y-43726D01*
X57626Y-43795D01*
X57593Y-43871D01*
X57576Y-43953D01*
X57574Y-44036D01*
X57590Y-44118D01*
X57620Y-44196D01*
X57666Y-44266D01*
X57723Y-44325D01*
X57792Y-44373D01*
X57868Y-44406D01*
X57950Y-44424D01*
X58033Y-44426D01*
X58083Y-44416D01*
X58076Y-44453D01*
X58074Y-44536D01*
X58083Y-44583D01*
X58044Y-44575D01*
X57961Y-44575D01*
X57879Y-44590D01*
X57802Y-44622D01*
X57732Y-44667D01*
X57673Y-44726D01*
X57626Y-44795D01*
X57593Y-44871D01*
X57576Y-44953D01*
X57574Y-45036D01*
X57590Y-45118D01*
X57620Y-45196D01*
X57666Y-45266D01*
X57723Y-45325D01*
X57792Y-45373D01*
X57868Y-45406D01*
X57950Y-45424D01*
X58033Y-45426D01*
X58083Y-45416D01*
X58076Y-45453D01*
X58074Y-45536D01*
X58083Y-45583D01*
G36*
X58083Y-46583D02*
X58044Y-46575D01*
X57961Y-46575D01*
X57879Y-46590D01*
X57802Y-46622D01*
X57732Y-46667D01*
X57673Y-46726D01*
X57626Y-46795D01*
X57593Y-46871D01*
X57576Y-46953D01*
X57574Y-47036D01*
X57590Y-47118D01*
X57603Y-47153D01*
X55865Y-47153D01*
X55637Y-46925D01*
X55644Y-46896D01*
X55645Y-46832D01*
X55634Y-46777D01*
X55613Y-46726D01*
X55582Y-46679D01*
X55553Y-46650D01*
X57499Y-46650D01*
X57500Y-46650D01*
X57502Y-46649D01*
X57528Y-46648D01*
X57529Y-46647D01*
X57548Y-46641D01*
X57556Y-46639D01*
X57557Y-46639D01*
X57570Y-46632D01*
X57582Y-46626D01*
X57583Y-46625D01*
X57605Y-46607D01*
X57606Y-46606D01*
X57824Y-46387D01*
X57868Y-46406D01*
X57950Y-46424D01*
X58033Y-46426D01*
X58083Y-46416D01*
X58076Y-46453D01*
X58074Y-46536D01*
X58083Y-46583D01*
X58083Y-46583D01*
G37*
X58083Y-46583D02*
X58044Y-46575D01*
X57961Y-46575D01*
X57879Y-46590D01*
X57802Y-46622D01*
X57732Y-46667D01*
X57673Y-46726D01*
X57626Y-46795D01*
X57593Y-46871D01*
X57576Y-46953D01*
X57574Y-47036D01*
X57590Y-47118D01*
X57603Y-47153D01*
X55865Y-47153D01*
X55637Y-46925D01*
X55644Y-46896D01*
X55645Y-46832D01*
X55634Y-46777D01*
X55613Y-46726D01*
X55582Y-46679D01*
X55553Y-46650D01*
X57499Y-46650D01*
X57500Y-46650D01*
X57502Y-46649D01*
X57528Y-46648D01*
X57529Y-46647D01*
X57548Y-46641D01*
X57556Y-46639D01*
X57557Y-46639D01*
X57570Y-46632D01*
X57582Y-46626D01*
X57583Y-46625D01*
X57605Y-46607D01*
X57606Y-46606D01*
X57824Y-46387D01*
X57868Y-46406D01*
X57950Y-46424D01*
X58033Y-46426D01*
X58083Y-46416D01*
X58076Y-46453D01*
X58074Y-46536D01*
X58083Y-46583D01*
G36*
X62451Y-48396D02*
X61578Y-49270D01*
X58330Y-49270D01*
X58371Y-49211D01*
X58405Y-49134D01*
X58424Y-49053D01*
X58425Y-48958D01*
X58409Y-48876D01*
X58377Y-48799D01*
X58331Y-48730D01*
X58272Y-48671D01*
X58203Y-48624D01*
X58126Y-48592D01*
X58044Y-48575D01*
X57961Y-48575D01*
X57879Y-48590D01*
X57802Y-48622D01*
X57732Y-48667D01*
X57673Y-48726D01*
X57626Y-48795D01*
X57593Y-48871D01*
X57576Y-48953D01*
X57575Y-48963D01*
X57427Y-48815D01*
X57426Y-48814D01*
X57424Y-48812D01*
X57405Y-48796D01*
X57385Y-48785D01*
X57379Y-48782D01*
X57378Y-48781D01*
X57359Y-48775D01*
X57351Y-48773D01*
X57322Y-48770D01*
X57320Y-48770D01*
X55198Y-48770D01*
X55236Y-48746D01*
X55277Y-48707D01*
X55309Y-48661D01*
X55332Y-48610D01*
X55344Y-48556D01*
X55345Y-48492D01*
X55337Y-48454D01*
X55465Y-48327D01*
X55466Y-48326D01*
X55468Y-48323D01*
X55484Y-48305D01*
X55484Y-48304D01*
X55498Y-48279D01*
X55498Y-48278D01*
X55507Y-48251D01*
X55507Y-48250D01*
X55510Y-48222D01*
X55510Y-48220D01*
X55510Y-47222D01*
X55696Y-47408D01*
X55697Y-47409D01*
X55700Y-47411D01*
X55718Y-47427D01*
X55719Y-47427D01*
X55744Y-47441D01*
X55745Y-47441D01*
X55772Y-47450D01*
X55773Y-47450D01*
X55801Y-47453D01*
X55803Y-47453D01*
X57575Y-47453D01*
X57727Y-47605D01*
X57728Y-47606D01*
X57731Y-47608D01*
X57749Y-47624D01*
X57750Y-47624D01*
X57775Y-47638D01*
X57732Y-47667D01*
X57673Y-47726D01*
X57626Y-47795D01*
X57593Y-47871D01*
X57576Y-47953D01*
X57574Y-48036D01*
X57590Y-48118D01*
X57620Y-48196D01*
X57666Y-48266D01*
X57723Y-48325D01*
X57792Y-48373D01*
X57868Y-48406D01*
X57950Y-48424D01*
X58033Y-48426D01*
X58115Y-48411D01*
X58193Y-48381D01*
X58263Y-48336D01*
X58324Y-48279D01*
X58371Y-48211D01*
X58397Y-48150D01*
X58617Y-48150D01*
X58693Y-48226D01*
X58705Y-48235D01*
X58715Y-48244D01*
X58716Y-48244D01*
X58741Y-48258D01*
X58742Y-48258D01*
X58769Y-48267D01*
X58770Y-48267D01*
X58798Y-48270D01*
X58800Y-48270D01*
X62277Y-48270D01*
X62296Y-48298D01*
X62334Y-48338D01*
X62380Y-48370D01*
X62432Y-48392D01*
X62451Y-48396D01*
X62451Y-48396D01*
G37*
X62451Y-48396D02*
X61578Y-49270D01*
X58330Y-49270D01*
X58371Y-49211D01*
X58405Y-49134D01*
X58424Y-49053D01*
X58425Y-48958D01*
X58409Y-48876D01*
X58377Y-48799D01*
X58331Y-48730D01*
X58272Y-48671D01*
X58203Y-48624D01*
X58126Y-48592D01*
X58044Y-48575D01*
X57961Y-48575D01*
X57879Y-48590D01*
X57802Y-48622D01*
X57732Y-48667D01*
X57673Y-48726D01*
X57626Y-48795D01*
X57593Y-48871D01*
X57576Y-48953D01*
X57575Y-48963D01*
X57427Y-48815D01*
X57426Y-48814D01*
X57424Y-48812D01*
X57405Y-48796D01*
X57385Y-48785D01*
X57379Y-48782D01*
X57378Y-48781D01*
X57359Y-48775D01*
X57351Y-48773D01*
X57322Y-48770D01*
X57320Y-48770D01*
X55198Y-48770D01*
X55236Y-48746D01*
X55277Y-48707D01*
X55309Y-48661D01*
X55332Y-48610D01*
X55344Y-48556D01*
X55345Y-48492D01*
X55337Y-48454D01*
X55465Y-48327D01*
X55466Y-48326D01*
X55468Y-48323D01*
X55484Y-48305D01*
X55484Y-48304D01*
X55498Y-48279D01*
X55498Y-48278D01*
X55507Y-48251D01*
X55507Y-48250D01*
X55510Y-48222D01*
X55510Y-48220D01*
X55510Y-47222D01*
X55696Y-47408D01*
X55697Y-47409D01*
X55700Y-47411D01*
X55718Y-47427D01*
X55719Y-47427D01*
X55744Y-47441D01*
X55745Y-47441D01*
X55772Y-47450D01*
X55773Y-47450D01*
X55801Y-47453D01*
X55803Y-47453D01*
X57575Y-47453D01*
X57727Y-47605D01*
X57728Y-47606D01*
X57731Y-47608D01*
X57749Y-47624D01*
X57750Y-47624D01*
X57775Y-47638D01*
X57732Y-47667D01*
X57673Y-47726D01*
X57626Y-47795D01*
X57593Y-47871D01*
X57576Y-47953D01*
X57574Y-48036D01*
X57590Y-48118D01*
X57620Y-48196D01*
X57666Y-48266D01*
X57723Y-48325D01*
X57792Y-48373D01*
X57868Y-48406D01*
X57950Y-48424D01*
X58033Y-48426D01*
X58115Y-48411D01*
X58193Y-48381D01*
X58263Y-48336D01*
X58324Y-48279D01*
X58371Y-48211D01*
X58397Y-48150D01*
X58617Y-48150D01*
X58693Y-48226D01*
X58705Y-48235D01*
X58715Y-48244D01*
X58716Y-48244D01*
X58741Y-48258D01*
X58742Y-48258D01*
X58769Y-48267D01*
X58770Y-48267D01*
X58798Y-48270D01*
X58800Y-48270D01*
X62277Y-48270D01*
X62296Y-48298D01*
X62334Y-48338D01*
X62380Y-48370D01*
X62432Y-48392D01*
X62451Y-48396D01*
G36*
X63612Y-41824D02*
X63593Y-41871D01*
X63576Y-41953D01*
X63574Y-42036D01*
X63583Y-42084D01*
X63543Y-42076D01*
X63460Y-42076D01*
X63378Y-42091D01*
X63301Y-42123D01*
X63231Y-42168D01*
X63172Y-42227D01*
X63125Y-42296D01*
X63092Y-42372D01*
X63075Y-42454D01*
X63073Y-42537D01*
X63089Y-42619D01*
X63119Y-42697D01*
X63165Y-42767D01*
X63222Y-42826D01*
X63291Y-42874D01*
X63367Y-42907D01*
X63449Y-42925D01*
X63532Y-42927D01*
X63583Y-42917D01*
X63576Y-42953D01*
X63574Y-43036D01*
X63583Y-43084D01*
X63543Y-43076D01*
X63460Y-43076D01*
X63378Y-43091D01*
X63301Y-43123D01*
X63231Y-43168D01*
X63172Y-43227D01*
X63125Y-43296D01*
X63092Y-43372D01*
X63075Y-43454D01*
X63073Y-43537D01*
X63089Y-43619D01*
X63119Y-43697D01*
X63165Y-43767D01*
X63222Y-43826D01*
X63291Y-43874D01*
X63367Y-43907D01*
X63449Y-43925D01*
X63532Y-43927D01*
X63583Y-43917D01*
X63576Y-43953D01*
X63574Y-44036D01*
X63583Y-44083D01*
X63543Y-44075D01*
X63460Y-44075D01*
X63378Y-44090D01*
X63301Y-44122D01*
X63231Y-44167D01*
X63172Y-44226D01*
X63125Y-44295D01*
X63092Y-44371D01*
X63075Y-44453D01*
X63073Y-44536D01*
X63089Y-44618D01*
X63111Y-44675D01*
X62815Y-44972D01*
X62814Y-44973D01*
X62812Y-44974D01*
X62796Y-44994D01*
X62785Y-45013D01*
X62781Y-45021D01*
X62775Y-45040D01*
X62773Y-45048D01*
X62770Y-45077D01*
X62770Y-45079D01*
X62770Y-45170D01*
X62702Y-45124D01*
X62625Y-45092D01*
X62543Y-45075D01*
X62460Y-45075D01*
X62378Y-45090D01*
X62301Y-45122D01*
X62231Y-45167D01*
X62172Y-45226D01*
X62125Y-45295D01*
X62092Y-45371D01*
X62075Y-45453D01*
X62073Y-45536D01*
X62089Y-45618D01*
X62119Y-45696D01*
X62165Y-45766D01*
X62222Y-45825D01*
X62291Y-45873D01*
X62367Y-45906D01*
X62449Y-45924D01*
X62532Y-45926D01*
X62614Y-45911D01*
X62692Y-45881D01*
X62762Y-45836D01*
X62770Y-45828D01*
X62770Y-46170D01*
X62702Y-46124D01*
X62625Y-46092D01*
X62543Y-46075D01*
X62460Y-46075D01*
X62378Y-46090D01*
X62301Y-46122D01*
X62231Y-46167D01*
X62172Y-46226D01*
X62125Y-46295D01*
X62092Y-46371D01*
X62075Y-46453D01*
X62073Y-46536D01*
X62089Y-46618D01*
X62119Y-46696D01*
X62165Y-46766D01*
X62222Y-46825D01*
X62291Y-46873D01*
X62367Y-46906D01*
X62449Y-46924D01*
X62532Y-46926D01*
X62614Y-46911D01*
X62692Y-46881D01*
X62762Y-46836D01*
X62770Y-46828D01*
X62770Y-47170D01*
X62702Y-47124D01*
X62625Y-47092D01*
X62543Y-47075D01*
X62460Y-47075D01*
X62378Y-47090D01*
X62301Y-47122D01*
X62231Y-47167D01*
X62172Y-47226D01*
X62125Y-47295D01*
X62092Y-47371D01*
X62075Y-47453D01*
X62073Y-47536D01*
X62089Y-47618D01*
X62119Y-47696D01*
X62165Y-47766D01*
X62222Y-47825D01*
X62291Y-47873D01*
X62343Y-47895D01*
X62341Y-47897D01*
X62301Y-47936D01*
X62277Y-47970D01*
X61240Y-47970D01*
X61323Y-47886D01*
X61367Y-47906D01*
X61449Y-47924D01*
X61532Y-47926D01*
X61614Y-47911D01*
X61692Y-47881D01*
X61762Y-47836D01*
X61823Y-47779D01*
X61870Y-47711D01*
X61904Y-47634D01*
X61923Y-47553D01*
X61924Y-47458D01*
X61908Y-47376D01*
X61876Y-47299D01*
X61830Y-47230D01*
X61771Y-47171D01*
X61702Y-47124D01*
X61625Y-47092D01*
X61543Y-47075D01*
X61460Y-47075D01*
X61378Y-47090D01*
X61301Y-47122D01*
X61231Y-47167D01*
X61172Y-47226D01*
X61125Y-47295D01*
X61092Y-47371D01*
X61075Y-47453D01*
X61073Y-47536D01*
X61089Y-47618D01*
X61110Y-47675D01*
X60958Y-47828D01*
X60926Y-47828D01*
X60926Y-47507D01*
X60925Y-47495D01*
X60925Y-46458D01*
X60909Y-46376D01*
X60877Y-46299D01*
X60831Y-46230D01*
X60772Y-46171D01*
X60703Y-46124D01*
X60626Y-46092D01*
X60544Y-46075D01*
X60461Y-46075D01*
X60379Y-46090D01*
X60302Y-46122D01*
X60232Y-46167D01*
X60173Y-46226D01*
X60126Y-46295D01*
X60093Y-46371D01*
X60076Y-46453D01*
X60074Y-46536D01*
X60090Y-46618D01*
X60120Y-46696D01*
X60166Y-46766D01*
X60223Y-46825D01*
X60292Y-46873D01*
X60368Y-46906D01*
X60450Y-46924D01*
X60533Y-46926D01*
X60615Y-46911D01*
X60693Y-46881D01*
X60763Y-46836D01*
X60824Y-46779D01*
X60871Y-46711D01*
X60905Y-46634D01*
X60924Y-46553D01*
X60925Y-46458D01*
X60925Y-47495D01*
X60919Y-47424D01*
X60897Y-47344D01*
X60859Y-47269D01*
X60851Y-47258D01*
X60789Y-47225D01*
X60775Y-47239D01*
X60775Y-47211D01*
X60742Y-47149D01*
X60669Y-47109D01*
X60590Y-47084D01*
X60507Y-47074D01*
X60424Y-47081D01*
X60344Y-47103D01*
X60269Y-47141D01*
X60258Y-47149D01*
X60225Y-47211D01*
X60500Y-47486D01*
X60775Y-47211D01*
X60775Y-47239D01*
X60514Y-47500D01*
X60789Y-47775D01*
X60851Y-47742D01*
X60891Y-47669D01*
X60916Y-47590D01*
X60926Y-47507D01*
X60926Y-47828D01*
X60754Y-47828D01*
X60775Y-47789D01*
X60500Y-47514D01*
X60486Y-47528D01*
X60486Y-47500D01*
X60211Y-47225D01*
X60149Y-47258D01*
X60109Y-47331D01*
X60084Y-47410D01*
X60074Y-47493D01*
X60081Y-47576D01*
X60103Y-47656D01*
X60141Y-47731D01*
X60149Y-47742D01*
X60211Y-47775D01*
X60486Y-47500D01*
X60486Y-47528D01*
X60225Y-47789D01*
X60245Y-47828D01*
X59771Y-47828D01*
X59824Y-47779D01*
X59871Y-47711D01*
X59905Y-47634D01*
X59924Y-47553D01*
X59925Y-47458D01*
X59925Y-46458D01*
X59925Y-45458D01*
X59909Y-45376D01*
X59877Y-45299D01*
X59831Y-45230D01*
X59772Y-45171D01*
X59703Y-45124D01*
X59626Y-45092D01*
X59544Y-45075D01*
X59461Y-45075D01*
X59379Y-45090D01*
X59302Y-45122D01*
X59232Y-45167D01*
X59173Y-45226D01*
X59126Y-45295D01*
X59093Y-45371D01*
X59076Y-45453D01*
X59074Y-45536D01*
X59090Y-45618D01*
X59120Y-45696D01*
X59166Y-45766D01*
X59223Y-45825D01*
X59292Y-45873D01*
X59368Y-45906D01*
X59450Y-45924D01*
X59533Y-45926D01*
X59615Y-45911D01*
X59693Y-45881D01*
X59763Y-45836D01*
X59824Y-45779D01*
X59871Y-45711D01*
X59905Y-45634D01*
X59924Y-45553D01*
X59925Y-45458D01*
X59925Y-46458D01*
X59909Y-46376D01*
X59877Y-46299D01*
X59831Y-46230D01*
X59772Y-46171D01*
X59703Y-46124D01*
X59626Y-46092D01*
X59544Y-46075D01*
X59461Y-46075D01*
X59379Y-46090D01*
X59302Y-46122D01*
X59232Y-46167D01*
X59173Y-46226D01*
X59126Y-46295D01*
X59093Y-46371D01*
X59076Y-46453D01*
X59074Y-46536D01*
X59090Y-46618D01*
X59120Y-46696D01*
X59166Y-46766D01*
X59223Y-46825D01*
X59292Y-46873D01*
X59368Y-46906D01*
X59450Y-46924D01*
X59533Y-46926D01*
X59615Y-46911D01*
X59693Y-46881D01*
X59763Y-46836D01*
X59824Y-46779D01*
X59871Y-46711D01*
X59905Y-46634D01*
X59924Y-46553D01*
X59925Y-46458D01*
X59925Y-47458D01*
X59909Y-47376D01*
X59877Y-47299D01*
X59831Y-47230D01*
X59772Y-47171D01*
X59703Y-47124D01*
X59626Y-47092D01*
X59544Y-47075D01*
X59461Y-47075D01*
X59379Y-47090D01*
X59302Y-47122D01*
X59232Y-47167D01*
X59173Y-47226D01*
X59126Y-47295D01*
X59093Y-47371D01*
X59076Y-47453D01*
X59074Y-47536D01*
X59090Y-47618D01*
X59120Y-47696D01*
X59166Y-47766D01*
X59223Y-47825D01*
X59227Y-47828D01*
X58920Y-47828D01*
X58487Y-47395D01*
X58486Y-47394D01*
X58484Y-47392D01*
X58465Y-47376D01*
X58445Y-47365D01*
X58439Y-47362D01*
X58438Y-47361D01*
X58419Y-47355D01*
X58411Y-47353D01*
X58382Y-47350D01*
X58380Y-47350D01*
X58241Y-47350D01*
X58263Y-47336D01*
X58324Y-47279D01*
X58371Y-47211D01*
X58405Y-47134D01*
X58424Y-47053D01*
X58425Y-46958D01*
X58416Y-46916D01*
X58450Y-46924D01*
X58533Y-46926D01*
X58615Y-46911D01*
X58693Y-46881D01*
X58763Y-46836D01*
X58824Y-46779D01*
X58871Y-46711D01*
X58905Y-46634D01*
X58924Y-46553D01*
X58925Y-46458D01*
X58909Y-46376D01*
X58877Y-46299D01*
X58831Y-46230D01*
X58772Y-46171D01*
X58703Y-46124D01*
X58626Y-46092D01*
X58544Y-46075D01*
X58461Y-46075D01*
X58416Y-46083D01*
X58424Y-46053D01*
X58425Y-45958D01*
X58416Y-45916D01*
X58450Y-45924D01*
X58533Y-45926D01*
X58615Y-45911D01*
X58693Y-45881D01*
X58763Y-45836D01*
X58824Y-45779D01*
X58871Y-45711D01*
X58905Y-45634D01*
X58924Y-45553D01*
X58925Y-45458D01*
X58909Y-45376D01*
X58877Y-45299D01*
X58831Y-45230D01*
X58772Y-45171D01*
X58703Y-45124D01*
X58626Y-45092D01*
X58544Y-45075D01*
X58461Y-45075D01*
X58416Y-45083D01*
X58424Y-45053D01*
X58425Y-44958D01*
X58416Y-44916D01*
X58450Y-44924D01*
X58533Y-44926D01*
X58615Y-44911D01*
X58693Y-44881D01*
X58763Y-44836D01*
X58824Y-44779D01*
X58871Y-44711D01*
X58905Y-44634D01*
X58924Y-44553D01*
X58925Y-44458D01*
X58909Y-44376D01*
X58877Y-44299D01*
X58831Y-44230D01*
X58772Y-44171D01*
X58703Y-44124D01*
X58626Y-44092D01*
X58544Y-44075D01*
X58461Y-44075D01*
X58416Y-44083D01*
X58424Y-44053D01*
X58425Y-43958D01*
X58417Y-43917D01*
X58450Y-43925D01*
X58533Y-43927D01*
X58615Y-43912D01*
X58693Y-43882D01*
X58763Y-43837D01*
X58824Y-43780D01*
X58871Y-43712D01*
X58905Y-43635D01*
X58924Y-43554D01*
X58925Y-43459D01*
X58909Y-43377D01*
X58877Y-43300D01*
X58831Y-43231D01*
X58772Y-43172D01*
X58703Y-43125D01*
X58626Y-43093D01*
X58544Y-43076D01*
X58461Y-43076D01*
X58416Y-43084D01*
X58424Y-43053D01*
X58425Y-42958D01*
X58417Y-42917D01*
X58450Y-42925D01*
X58533Y-42927D01*
X58615Y-42912D01*
X58693Y-42882D01*
X58763Y-42837D01*
X58824Y-42780D01*
X58871Y-42712D01*
X58905Y-42635D01*
X58924Y-42554D01*
X58925Y-42459D01*
X58909Y-42377D01*
X58877Y-42300D01*
X58831Y-42231D01*
X58772Y-42172D01*
X58703Y-42125D01*
X58626Y-42093D01*
X58544Y-42076D01*
X58461Y-42076D01*
X58416Y-42084D01*
X58424Y-42053D01*
X58425Y-41958D01*
X58409Y-41876D01*
X58377Y-41799D01*
X58331Y-41730D01*
X58618Y-41730D01*
X59073Y-42185D01*
X59074Y-42186D01*
X59077Y-42188D01*
X59095Y-42204D01*
X59096Y-42204D01*
X59110Y-42212D01*
X59121Y-42218D01*
X59122Y-42219D01*
X59141Y-42224D01*
X59149Y-42227D01*
X59150Y-42227D01*
X59171Y-42229D01*
X59126Y-42296D01*
X59093Y-42372D01*
X59076Y-42454D01*
X59074Y-42537D01*
X59090Y-42619D01*
X59120Y-42697D01*
X59166Y-42767D01*
X59223Y-42826D01*
X59292Y-42874D01*
X59368Y-42907D01*
X59450Y-42925D01*
X59533Y-42927D01*
X59615Y-42912D01*
X59693Y-42882D01*
X59763Y-42837D01*
X59824Y-42780D01*
X59850Y-42742D01*
X59850Y-43259D01*
X59831Y-43231D01*
X59772Y-43172D01*
X59703Y-43125D01*
X59626Y-43093D01*
X59544Y-43076D01*
X59461Y-43076D01*
X59379Y-43091D01*
X59302Y-43123D01*
X59232Y-43168D01*
X59173Y-43227D01*
X59126Y-43296D01*
X59093Y-43372D01*
X59076Y-43454D01*
X59074Y-43537D01*
X59090Y-43619D01*
X59120Y-43697D01*
X59166Y-43767D01*
X59223Y-43826D01*
X59292Y-43874D01*
X59368Y-43907D01*
X59450Y-43925D01*
X59533Y-43927D01*
X59615Y-43912D01*
X59693Y-43882D01*
X59763Y-43837D01*
X59824Y-43780D01*
X59850Y-43742D01*
X59850Y-44258D01*
X59831Y-44230D01*
X59772Y-44171D01*
X59703Y-44124D01*
X59626Y-44092D01*
X59544Y-44075D01*
X59461Y-44075D01*
X59379Y-44090D01*
X59302Y-44122D01*
X59232Y-44167D01*
X59173Y-44226D01*
X59126Y-44295D01*
X59093Y-44371D01*
X59076Y-44453D01*
X59074Y-44536D01*
X59090Y-44618D01*
X59120Y-44696D01*
X59166Y-44766D01*
X59223Y-44825D01*
X59292Y-44873D01*
X59368Y-44906D01*
X59450Y-44924D01*
X59533Y-44926D01*
X59615Y-44911D01*
X59693Y-44881D01*
X59763Y-44836D01*
X59824Y-44779D01*
X59850Y-44741D01*
X59850Y-45000D01*
X59850Y-45001D01*
X59850Y-45003D01*
X59852Y-45029D01*
X59858Y-45049D01*
X59861Y-45058D01*
X59868Y-45071D01*
X59874Y-45083D01*
X59875Y-45084D01*
X59893Y-45106D01*
X59894Y-45107D01*
X61111Y-46324D01*
X61092Y-46371D01*
X61075Y-46453D01*
X61073Y-46536D01*
X61089Y-46618D01*
X61119Y-46696D01*
X61165Y-46766D01*
X61222Y-46825D01*
X61291Y-46873D01*
X61367Y-46906D01*
X61449Y-46924D01*
X61532Y-46926D01*
X61614Y-46911D01*
X61692Y-46881D01*
X61762Y-46836D01*
X61823Y-46779D01*
X61870Y-46711D01*
X61904Y-46634D01*
X61923Y-46553D01*
X61924Y-46458D01*
X61908Y-46376D01*
X61876Y-46299D01*
X61830Y-46230D01*
X61771Y-46171D01*
X61702Y-46124D01*
X61625Y-46092D01*
X61543Y-46075D01*
X61460Y-46075D01*
X61378Y-46090D01*
X61323Y-46112D01*
X60150Y-44939D01*
X60150Y-42742D01*
X60166Y-42767D01*
X60223Y-42826D01*
X60292Y-42874D01*
X60368Y-42907D01*
X60450Y-42925D01*
X60533Y-42927D01*
X60615Y-42912D01*
X60693Y-42882D01*
X60763Y-42837D01*
X60824Y-42780D01*
X60850Y-42742D01*
X60850Y-43000D01*
X60850Y-43001D01*
X60850Y-43003D01*
X60852Y-43029D01*
X60858Y-43049D01*
X60861Y-43058D01*
X60868Y-43071D01*
X60874Y-43083D01*
X60875Y-43084D01*
X60893Y-43106D01*
X60894Y-43107D01*
X61579Y-43792D01*
X61565Y-43786D01*
X61510Y-43775D01*
X61454Y-43775D01*
X61399Y-43785D01*
X61347Y-43806D01*
X61301Y-43837D01*
X61261Y-43876D01*
X61229Y-43922D01*
X61207Y-43973D01*
X61195Y-44028D01*
X61195Y-44084D01*
X61202Y-44125D01*
X60745Y-44582D01*
X60710Y-44575D01*
X60654Y-44575D01*
X60599Y-44585D01*
X60547Y-44606D01*
X60501Y-44637D01*
X60461Y-44676D01*
X60429Y-44722D01*
X60407Y-44773D01*
X60395Y-44828D01*
X60395Y-44884D01*
X60405Y-44939D01*
X60425Y-44991D01*
X60456Y-45038D01*
X60494Y-45078D01*
X60540Y-45110D01*
X60592Y-45132D01*
X60646Y-45144D01*
X60702Y-45146D01*
X60757Y-45136D01*
X60809Y-45116D01*
X60856Y-45086D01*
X60897Y-45047D01*
X60929Y-45001D01*
X60952Y-44950D01*
X60964Y-44896D01*
X60965Y-44832D01*
X60957Y-44794D01*
X61414Y-44337D01*
X61446Y-44344D01*
X61502Y-44346D01*
X61557Y-44336D01*
X61609Y-44316D01*
X61656Y-44286D01*
X61697Y-44247D01*
X61729Y-44201D01*
X61752Y-44150D01*
X61764Y-44096D01*
X61765Y-44032D01*
X61754Y-43977D01*
X61747Y-43960D01*
X62111Y-44324D01*
X62092Y-44371D01*
X62075Y-44453D01*
X62073Y-44536D01*
X62089Y-44618D01*
X62119Y-44696D01*
X62165Y-44766D01*
X62222Y-44825D01*
X62291Y-44873D01*
X62367Y-44906D01*
X62449Y-44924D01*
X62532Y-44926D01*
X62614Y-44911D01*
X62692Y-44881D01*
X62762Y-44836D01*
X62823Y-44779D01*
X62870Y-44711D01*
X62904Y-44634D01*
X62923Y-44553D01*
X62924Y-44458D01*
X62924Y-43459D01*
X62924Y-42459D01*
X62924Y-41459D01*
X62908Y-41377D01*
X62876Y-41300D01*
X62830Y-41231D01*
X62771Y-41172D01*
X62702Y-41125D01*
X62625Y-41093D01*
X62543Y-41076D01*
X62460Y-41076D01*
X62378Y-41091D01*
X62301Y-41123D01*
X62231Y-41168D01*
X62172Y-41227D01*
X62125Y-41296D01*
X62092Y-41372D01*
X62075Y-41454D01*
X62073Y-41537D01*
X62089Y-41619D01*
X62119Y-41697D01*
X62165Y-41767D01*
X62222Y-41826D01*
X62291Y-41874D01*
X62367Y-41907D01*
X62449Y-41925D01*
X62532Y-41927D01*
X62614Y-41912D01*
X62692Y-41882D01*
X62762Y-41837D01*
X62823Y-41780D01*
X62870Y-41712D01*
X62904Y-41635D01*
X62923Y-41554D01*
X62924Y-41459D01*
X62924Y-42459D01*
X62908Y-42377D01*
X62876Y-42300D01*
X62830Y-42231D01*
X62771Y-42172D01*
X62702Y-42125D01*
X62625Y-42093D01*
X62543Y-42076D01*
X62460Y-42076D01*
X62378Y-42091D01*
X62301Y-42123D01*
X62231Y-42168D01*
X62172Y-42227D01*
X62125Y-42296D01*
X62092Y-42372D01*
X62075Y-42454D01*
X62073Y-42537D01*
X62089Y-42619D01*
X62119Y-42697D01*
X62165Y-42767D01*
X62222Y-42826D01*
X62291Y-42874D01*
X62367Y-42907D01*
X62449Y-42925D01*
X62532Y-42927D01*
X62614Y-42912D01*
X62692Y-42882D01*
X62762Y-42837D01*
X62823Y-42780D01*
X62870Y-42712D01*
X62904Y-42635D01*
X62923Y-42554D01*
X62924Y-42459D01*
X62924Y-43459D01*
X62908Y-43377D01*
X62876Y-43300D01*
X62830Y-43231D01*
X62771Y-43172D01*
X62702Y-43125D01*
X62625Y-43093D01*
X62543Y-43076D01*
X62460Y-43076D01*
X62378Y-43091D01*
X62301Y-43123D01*
X62231Y-43168D01*
X62172Y-43227D01*
X62125Y-43296D01*
X62092Y-43372D01*
X62075Y-43454D01*
X62073Y-43537D01*
X62089Y-43619D01*
X62119Y-43697D01*
X62165Y-43767D01*
X62222Y-43826D01*
X62291Y-43874D01*
X62367Y-43907D01*
X62449Y-43925D01*
X62532Y-43927D01*
X62614Y-43912D01*
X62692Y-43882D01*
X62762Y-43837D01*
X62823Y-43780D01*
X62870Y-43712D01*
X62904Y-43635D01*
X62923Y-43554D01*
X62924Y-43459D01*
X62924Y-44458D01*
X62908Y-44376D01*
X62876Y-44299D01*
X62830Y-44230D01*
X62771Y-44171D01*
X62702Y-44124D01*
X62625Y-44092D01*
X62543Y-44075D01*
X62460Y-44075D01*
X62378Y-44090D01*
X62323Y-44112D01*
X61924Y-43713D01*
X61924Y-41459D01*
X61908Y-41377D01*
X61876Y-41300D01*
X61830Y-41231D01*
X61771Y-41172D01*
X61702Y-41125D01*
X61625Y-41093D01*
X61543Y-41076D01*
X61460Y-41076D01*
X61378Y-41091D01*
X61301Y-41123D01*
X61231Y-41168D01*
X61172Y-41227D01*
X61125Y-41296D01*
X61092Y-41372D01*
X61075Y-41454D01*
X61073Y-41537D01*
X61089Y-41619D01*
X61119Y-41697D01*
X61165Y-41767D01*
X61222Y-41826D01*
X61291Y-41874D01*
X61367Y-41907D01*
X61449Y-41925D01*
X61532Y-41927D01*
X61614Y-41912D01*
X61692Y-41882D01*
X61762Y-41837D01*
X61823Y-41780D01*
X61870Y-41712D01*
X61904Y-41635D01*
X61923Y-41554D01*
X61924Y-41459D01*
X61924Y-43713D01*
X61150Y-42939D01*
X61150Y-42920D01*
X61152Y-42921D01*
X61173Y-42925D01*
X61194Y-42925D01*
X61825Y-42925D01*
X61846Y-42921D01*
X61866Y-42913D01*
X61883Y-42901D01*
X61899Y-42886D01*
X61911Y-42868D01*
X61919Y-42848D01*
X61923Y-42827D01*
X61923Y-42806D01*
X61923Y-42175D01*
X61919Y-42154D01*
X61911Y-42134D01*
X61899Y-42117D01*
X61884Y-42101D01*
X61866Y-42089D01*
X61846Y-42081D01*
X61825Y-42077D01*
X61804Y-42077D01*
X61173Y-42077D01*
X61152Y-42081D01*
X61132Y-42089D01*
X61115Y-42101D01*
X61099Y-42116D01*
X61087Y-42134D01*
X61086Y-42134D01*
X60847Y-41895D01*
X60846Y-41894D01*
X60844Y-41892D01*
X60825Y-41876D01*
X60805Y-41865D01*
X60799Y-41862D01*
X60798Y-41861D01*
X60779Y-41855D01*
X60771Y-41853D01*
X60742Y-41850D01*
X60763Y-41837D01*
X60824Y-41780D01*
X60871Y-41712D01*
X60905Y-41635D01*
X60924Y-41554D01*
X60925Y-41459D01*
X60909Y-41377D01*
X60877Y-41300D01*
X60831Y-41231D01*
X60772Y-41172D01*
X60703Y-41125D01*
X60626Y-41093D01*
X60544Y-41076D01*
X60461Y-41076D01*
X60379Y-41091D01*
X60302Y-41123D01*
X60232Y-41168D01*
X60173Y-41227D01*
X60126Y-41296D01*
X60093Y-41372D01*
X60076Y-41454D01*
X60074Y-41537D01*
X60090Y-41619D01*
X60120Y-41697D01*
X60166Y-41767D01*
X60223Y-41826D01*
X60257Y-41850D01*
X59862Y-41850D01*
X59845Y-41833D01*
X59844Y-41832D01*
X59842Y-41830D01*
X59823Y-41814D01*
X59803Y-41803D01*
X59800Y-41801D01*
X59824Y-41780D01*
X59871Y-41712D01*
X59905Y-41635D01*
X59924Y-41554D01*
X59925Y-41459D01*
X59909Y-41377D01*
X59877Y-41300D01*
X59831Y-41231D01*
X59772Y-41172D01*
X59703Y-41125D01*
X59626Y-41093D01*
X59544Y-41076D01*
X59461Y-41076D01*
X59379Y-41091D01*
X59302Y-41123D01*
X59232Y-41168D01*
X59173Y-41227D01*
X59126Y-41296D01*
X59093Y-41372D01*
X59076Y-41454D01*
X59074Y-41537D01*
X59080Y-41568D01*
X58845Y-41333D01*
X58844Y-41332D01*
X58842Y-41330D01*
X58823Y-41314D01*
X58803Y-41303D01*
X58797Y-41300D01*
X58796Y-41299D01*
X58777Y-41293D01*
X58769Y-41291D01*
X58740Y-41288D01*
X58738Y-41288D01*
X58314Y-41288D01*
X58324Y-41279D01*
X58371Y-41211D01*
X58405Y-41134D01*
X58424Y-41053D01*
X58425Y-40958D01*
X58409Y-40876D01*
X58377Y-40799D01*
X58331Y-40730D01*
X62518Y-40730D01*
X63612Y-41824D01*
X63612Y-41824D01*
G37*
X63612Y-41824D02*
X63593Y-41871D01*
X63576Y-41953D01*
X63574Y-42036D01*
X63583Y-42084D01*
X63543Y-42076D01*
X63460Y-42076D01*
X63378Y-42091D01*
X63301Y-42123D01*
X63231Y-42168D01*
X63172Y-42227D01*
X63125Y-42296D01*
X63092Y-42372D01*
X63075Y-42454D01*
X63073Y-42537D01*
X63089Y-42619D01*
X63119Y-42697D01*
X63165Y-42767D01*
X63222Y-42826D01*
X63291Y-42874D01*
X63367Y-42907D01*
X63449Y-42925D01*
X63532Y-42927D01*
X63583Y-42917D01*
X63576Y-42953D01*
X63574Y-43036D01*
X63583Y-43084D01*
X63543Y-43076D01*
X63460Y-43076D01*
X63378Y-43091D01*
X63301Y-43123D01*
X63231Y-43168D01*
X63172Y-43227D01*
X63125Y-43296D01*
X63092Y-43372D01*
X63075Y-43454D01*
X63073Y-43537D01*
X63089Y-43619D01*
X63119Y-43697D01*
X63165Y-43767D01*
X63222Y-43826D01*
X63291Y-43874D01*
X63367Y-43907D01*
X63449Y-43925D01*
X63532Y-43927D01*
X63583Y-43917D01*
X63576Y-43953D01*
X63574Y-44036D01*
X63583Y-44083D01*
X63543Y-44075D01*
X63460Y-44075D01*
X63378Y-44090D01*
X63301Y-44122D01*
X63231Y-44167D01*
X63172Y-44226D01*
X63125Y-44295D01*
X63092Y-44371D01*
X63075Y-44453D01*
X63073Y-44536D01*
X63089Y-44618D01*
X63111Y-44675D01*
X62815Y-44972D01*
X62814Y-44973D01*
X62812Y-44974D01*
X62796Y-44994D01*
X62785Y-45013D01*
X62781Y-45021D01*
X62775Y-45040D01*
X62773Y-45048D01*
X62770Y-45077D01*
X62770Y-45079D01*
X62770Y-45170D01*
X62702Y-45124D01*
X62625Y-45092D01*
X62543Y-45075D01*
X62460Y-45075D01*
X62378Y-45090D01*
X62301Y-45122D01*
X62231Y-45167D01*
X62172Y-45226D01*
X62125Y-45295D01*
X62092Y-45371D01*
X62075Y-45453D01*
X62073Y-45536D01*
X62089Y-45618D01*
X62119Y-45696D01*
X62165Y-45766D01*
X62222Y-45825D01*
X62291Y-45873D01*
X62367Y-45906D01*
X62449Y-45924D01*
X62532Y-45926D01*
X62614Y-45911D01*
X62692Y-45881D01*
X62762Y-45836D01*
X62770Y-45828D01*
X62770Y-46170D01*
X62702Y-46124D01*
X62625Y-46092D01*
X62543Y-46075D01*
X62460Y-46075D01*
X62378Y-46090D01*
X62301Y-46122D01*
X62231Y-46167D01*
X62172Y-46226D01*
X62125Y-46295D01*
X62092Y-46371D01*
X62075Y-46453D01*
X62073Y-46536D01*
X62089Y-46618D01*
X62119Y-46696D01*
X62165Y-46766D01*
X62222Y-46825D01*
X62291Y-46873D01*
X62367Y-46906D01*
X62449Y-46924D01*
X62532Y-46926D01*
X62614Y-46911D01*
X62692Y-46881D01*
X62762Y-46836D01*
X62770Y-46828D01*
X62770Y-47170D01*
X62702Y-47124D01*
X62625Y-47092D01*
X62543Y-47075D01*
X62460Y-47075D01*
X62378Y-47090D01*
X62301Y-47122D01*
X62231Y-47167D01*
X62172Y-47226D01*
X62125Y-47295D01*
X62092Y-47371D01*
X62075Y-47453D01*
X62073Y-47536D01*
X62089Y-47618D01*
X62119Y-47696D01*
X62165Y-47766D01*
X62222Y-47825D01*
X62291Y-47873D01*
X62343Y-47895D01*
X62341Y-47897D01*
X62301Y-47936D01*
X62277Y-47970D01*
X61240Y-47970D01*
X61323Y-47886D01*
X61367Y-47906D01*
X61449Y-47924D01*
X61532Y-47926D01*
X61614Y-47911D01*
X61692Y-47881D01*
X61762Y-47836D01*
X61823Y-47779D01*
X61870Y-47711D01*
X61904Y-47634D01*
X61923Y-47553D01*
X61924Y-47458D01*
X61908Y-47376D01*
X61876Y-47299D01*
X61830Y-47230D01*
X61771Y-47171D01*
X61702Y-47124D01*
X61625Y-47092D01*
X61543Y-47075D01*
X61460Y-47075D01*
X61378Y-47090D01*
X61301Y-47122D01*
X61231Y-47167D01*
X61172Y-47226D01*
X61125Y-47295D01*
X61092Y-47371D01*
X61075Y-47453D01*
X61073Y-47536D01*
X61089Y-47618D01*
X61110Y-47675D01*
X60958Y-47828D01*
X60926Y-47828D01*
X60926Y-47507D01*
X60925Y-47495D01*
X60925Y-46458D01*
X60909Y-46376D01*
X60877Y-46299D01*
X60831Y-46230D01*
X60772Y-46171D01*
X60703Y-46124D01*
X60626Y-46092D01*
X60544Y-46075D01*
X60461Y-46075D01*
X60379Y-46090D01*
X60302Y-46122D01*
X60232Y-46167D01*
X60173Y-46226D01*
X60126Y-46295D01*
X60093Y-46371D01*
X60076Y-46453D01*
X60074Y-46536D01*
X60090Y-46618D01*
X60120Y-46696D01*
X60166Y-46766D01*
X60223Y-46825D01*
X60292Y-46873D01*
X60368Y-46906D01*
X60450Y-46924D01*
X60533Y-46926D01*
X60615Y-46911D01*
X60693Y-46881D01*
X60763Y-46836D01*
X60824Y-46779D01*
X60871Y-46711D01*
X60905Y-46634D01*
X60924Y-46553D01*
X60925Y-46458D01*
X60925Y-47495D01*
X60919Y-47424D01*
X60897Y-47344D01*
X60859Y-47269D01*
X60851Y-47258D01*
X60789Y-47225D01*
X60775Y-47239D01*
X60775Y-47211D01*
X60742Y-47149D01*
X60669Y-47109D01*
X60590Y-47084D01*
X60507Y-47074D01*
X60424Y-47081D01*
X60344Y-47103D01*
X60269Y-47141D01*
X60258Y-47149D01*
X60225Y-47211D01*
X60500Y-47486D01*
X60775Y-47211D01*
X60775Y-47239D01*
X60514Y-47500D01*
X60789Y-47775D01*
X60851Y-47742D01*
X60891Y-47669D01*
X60916Y-47590D01*
X60926Y-47507D01*
X60926Y-47828D01*
X60754Y-47828D01*
X60775Y-47789D01*
X60500Y-47514D01*
X60486Y-47528D01*
X60486Y-47500D01*
X60211Y-47225D01*
X60149Y-47258D01*
X60109Y-47331D01*
X60084Y-47410D01*
X60074Y-47493D01*
X60081Y-47576D01*
X60103Y-47656D01*
X60141Y-47731D01*
X60149Y-47742D01*
X60211Y-47775D01*
X60486Y-47500D01*
X60486Y-47528D01*
X60225Y-47789D01*
X60245Y-47828D01*
X59771Y-47828D01*
X59824Y-47779D01*
X59871Y-47711D01*
X59905Y-47634D01*
X59924Y-47553D01*
X59925Y-47458D01*
X59925Y-46458D01*
X59925Y-45458D01*
X59909Y-45376D01*
X59877Y-45299D01*
X59831Y-45230D01*
X59772Y-45171D01*
X59703Y-45124D01*
X59626Y-45092D01*
X59544Y-45075D01*
X59461Y-45075D01*
X59379Y-45090D01*
X59302Y-45122D01*
X59232Y-45167D01*
X59173Y-45226D01*
X59126Y-45295D01*
X59093Y-45371D01*
X59076Y-45453D01*
X59074Y-45536D01*
X59090Y-45618D01*
X59120Y-45696D01*
X59166Y-45766D01*
X59223Y-45825D01*
X59292Y-45873D01*
X59368Y-45906D01*
X59450Y-45924D01*
X59533Y-45926D01*
X59615Y-45911D01*
X59693Y-45881D01*
X59763Y-45836D01*
X59824Y-45779D01*
X59871Y-45711D01*
X59905Y-45634D01*
X59924Y-45553D01*
X59925Y-45458D01*
X59925Y-46458D01*
X59909Y-46376D01*
X59877Y-46299D01*
X59831Y-46230D01*
X59772Y-46171D01*
X59703Y-46124D01*
X59626Y-46092D01*
X59544Y-46075D01*
X59461Y-46075D01*
X59379Y-46090D01*
X59302Y-46122D01*
X59232Y-46167D01*
X59173Y-46226D01*
X59126Y-46295D01*
X59093Y-46371D01*
X59076Y-46453D01*
X59074Y-46536D01*
X59090Y-46618D01*
X59120Y-46696D01*
X59166Y-46766D01*
X59223Y-46825D01*
X59292Y-46873D01*
X59368Y-46906D01*
X59450Y-46924D01*
X59533Y-46926D01*
X59615Y-46911D01*
X59693Y-46881D01*
X59763Y-46836D01*
X59824Y-46779D01*
X59871Y-46711D01*
X59905Y-46634D01*
X59924Y-46553D01*
X59925Y-46458D01*
X59925Y-47458D01*
X59909Y-47376D01*
X59877Y-47299D01*
X59831Y-47230D01*
X59772Y-47171D01*
X59703Y-47124D01*
X59626Y-47092D01*
X59544Y-47075D01*
X59461Y-47075D01*
X59379Y-47090D01*
X59302Y-47122D01*
X59232Y-47167D01*
X59173Y-47226D01*
X59126Y-47295D01*
X59093Y-47371D01*
X59076Y-47453D01*
X59074Y-47536D01*
X59090Y-47618D01*
X59120Y-47696D01*
X59166Y-47766D01*
X59223Y-47825D01*
X59227Y-47828D01*
X58920Y-47828D01*
X58487Y-47395D01*
X58486Y-47394D01*
X58484Y-47392D01*
X58465Y-47376D01*
X58445Y-47365D01*
X58439Y-47362D01*
X58438Y-47361D01*
X58419Y-47355D01*
X58411Y-47353D01*
X58382Y-47350D01*
X58380Y-47350D01*
X58241Y-47350D01*
X58263Y-47336D01*
X58324Y-47279D01*
X58371Y-47211D01*
X58405Y-47134D01*
X58424Y-47053D01*
X58425Y-46958D01*
X58416Y-46916D01*
X58450Y-46924D01*
X58533Y-46926D01*
X58615Y-46911D01*
X58693Y-46881D01*
X58763Y-46836D01*
X58824Y-46779D01*
X58871Y-46711D01*
X58905Y-46634D01*
X58924Y-46553D01*
X58925Y-46458D01*
X58909Y-46376D01*
X58877Y-46299D01*
X58831Y-46230D01*
X58772Y-46171D01*
X58703Y-46124D01*
X58626Y-46092D01*
X58544Y-46075D01*
X58461Y-46075D01*
X58416Y-46083D01*
X58424Y-46053D01*
X58425Y-45958D01*
X58416Y-45916D01*
X58450Y-45924D01*
X58533Y-45926D01*
X58615Y-45911D01*
X58693Y-45881D01*
X58763Y-45836D01*
X58824Y-45779D01*
X58871Y-45711D01*
X58905Y-45634D01*
X58924Y-45553D01*
X58925Y-45458D01*
X58909Y-45376D01*
X58877Y-45299D01*
X58831Y-45230D01*
X58772Y-45171D01*
X58703Y-45124D01*
X58626Y-45092D01*
X58544Y-45075D01*
X58461Y-45075D01*
X58416Y-45083D01*
X58424Y-45053D01*
X58425Y-44958D01*
X58416Y-44916D01*
X58450Y-44924D01*
X58533Y-44926D01*
X58615Y-44911D01*
X58693Y-44881D01*
X58763Y-44836D01*
X58824Y-44779D01*
X58871Y-44711D01*
X58905Y-44634D01*
X58924Y-44553D01*
X58925Y-44458D01*
X58909Y-44376D01*
X58877Y-44299D01*
X58831Y-44230D01*
X58772Y-44171D01*
X58703Y-44124D01*
X58626Y-44092D01*
X58544Y-44075D01*
X58461Y-44075D01*
X58416Y-44083D01*
X58424Y-44053D01*
X58425Y-43958D01*
X58417Y-43917D01*
X58450Y-43925D01*
X58533Y-43927D01*
X58615Y-43912D01*
X58693Y-43882D01*
X58763Y-43837D01*
X58824Y-43780D01*
X58871Y-43712D01*
X58905Y-43635D01*
X58924Y-43554D01*
X58925Y-43459D01*
X58909Y-43377D01*
X58877Y-43300D01*
X58831Y-43231D01*
X58772Y-43172D01*
X58703Y-43125D01*
X58626Y-43093D01*
X58544Y-43076D01*
X58461Y-43076D01*
X58416Y-43084D01*
X58424Y-43053D01*
X58425Y-42958D01*
X58417Y-42917D01*
X58450Y-42925D01*
X58533Y-42927D01*
X58615Y-42912D01*
X58693Y-42882D01*
X58763Y-42837D01*
X58824Y-42780D01*
X58871Y-42712D01*
X58905Y-42635D01*
X58924Y-42554D01*
X58925Y-42459D01*
X58909Y-42377D01*
X58877Y-42300D01*
X58831Y-42231D01*
X58772Y-42172D01*
X58703Y-42125D01*
X58626Y-42093D01*
X58544Y-42076D01*
X58461Y-42076D01*
X58416Y-42084D01*
X58424Y-42053D01*
X58425Y-41958D01*
X58409Y-41876D01*
X58377Y-41799D01*
X58331Y-41730D01*
X58618Y-41730D01*
X59073Y-42185D01*
X59074Y-42186D01*
X59077Y-42188D01*
X59095Y-42204D01*
X59096Y-42204D01*
X59110Y-42212D01*
X59121Y-42218D01*
X59122Y-42219D01*
X59141Y-42224D01*
X59149Y-42227D01*
X59150Y-42227D01*
X59171Y-42229D01*
X59126Y-42296D01*
X59093Y-42372D01*
X59076Y-42454D01*
X59074Y-42537D01*
X59090Y-42619D01*
X59120Y-42697D01*
X59166Y-42767D01*
X59223Y-42826D01*
X59292Y-42874D01*
X59368Y-42907D01*
X59450Y-42925D01*
X59533Y-42927D01*
X59615Y-42912D01*
X59693Y-42882D01*
X59763Y-42837D01*
X59824Y-42780D01*
X59850Y-42742D01*
X59850Y-43259D01*
X59831Y-43231D01*
X59772Y-43172D01*
X59703Y-43125D01*
X59626Y-43093D01*
X59544Y-43076D01*
X59461Y-43076D01*
X59379Y-43091D01*
X59302Y-43123D01*
X59232Y-43168D01*
X59173Y-43227D01*
X59126Y-43296D01*
X59093Y-43372D01*
X59076Y-43454D01*
X59074Y-43537D01*
X59090Y-43619D01*
X59120Y-43697D01*
X59166Y-43767D01*
X59223Y-43826D01*
X59292Y-43874D01*
X59368Y-43907D01*
X59450Y-43925D01*
X59533Y-43927D01*
X59615Y-43912D01*
X59693Y-43882D01*
X59763Y-43837D01*
X59824Y-43780D01*
X59850Y-43742D01*
X59850Y-44258D01*
X59831Y-44230D01*
X59772Y-44171D01*
X59703Y-44124D01*
X59626Y-44092D01*
X59544Y-44075D01*
X59461Y-44075D01*
X59379Y-44090D01*
X59302Y-44122D01*
X59232Y-44167D01*
X59173Y-44226D01*
X59126Y-44295D01*
X59093Y-44371D01*
X59076Y-44453D01*
X59074Y-44536D01*
X59090Y-44618D01*
X59120Y-44696D01*
X59166Y-44766D01*
X59223Y-44825D01*
X59292Y-44873D01*
X59368Y-44906D01*
X59450Y-44924D01*
X59533Y-44926D01*
X59615Y-44911D01*
X59693Y-44881D01*
X59763Y-44836D01*
X59824Y-44779D01*
X59850Y-44741D01*
X59850Y-45000D01*
X59850Y-45001D01*
X59850Y-45003D01*
X59852Y-45029D01*
X59858Y-45049D01*
X59861Y-45058D01*
X59868Y-45071D01*
X59874Y-45083D01*
X59875Y-45084D01*
X59893Y-45106D01*
X59894Y-45107D01*
X61111Y-46324D01*
X61092Y-46371D01*
X61075Y-46453D01*
X61073Y-46536D01*
X61089Y-46618D01*
X61119Y-46696D01*
X61165Y-46766D01*
X61222Y-46825D01*
X61291Y-46873D01*
X61367Y-46906D01*
X61449Y-46924D01*
X61532Y-46926D01*
X61614Y-46911D01*
X61692Y-46881D01*
X61762Y-46836D01*
X61823Y-46779D01*
X61870Y-46711D01*
X61904Y-46634D01*
X61923Y-46553D01*
X61924Y-46458D01*
X61908Y-46376D01*
X61876Y-46299D01*
X61830Y-46230D01*
X61771Y-46171D01*
X61702Y-46124D01*
X61625Y-46092D01*
X61543Y-46075D01*
X61460Y-46075D01*
X61378Y-46090D01*
X61323Y-46112D01*
X60150Y-44939D01*
X60150Y-42742D01*
X60166Y-42767D01*
X60223Y-42826D01*
X60292Y-42874D01*
X60368Y-42907D01*
X60450Y-42925D01*
X60533Y-42927D01*
X60615Y-42912D01*
X60693Y-42882D01*
X60763Y-42837D01*
X60824Y-42780D01*
X60850Y-42742D01*
X60850Y-43000D01*
X60850Y-43001D01*
X60850Y-43003D01*
X60852Y-43029D01*
X60858Y-43049D01*
X60861Y-43058D01*
X60868Y-43071D01*
X60874Y-43083D01*
X60875Y-43084D01*
X60893Y-43106D01*
X60894Y-43107D01*
X61579Y-43792D01*
X61565Y-43786D01*
X61510Y-43775D01*
X61454Y-43775D01*
X61399Y-43785D01*
X61347Y-43806D01*
X61301Y-43837D01*
X61261Y-43876D01*
X61229Y-43922D01*
X61207Y-43973D01*
X61195Y-44028D01*
X61195Y-44084D01*
X61202Y-44125D01*
X60745Y-44582D01*
X60710Y-44575D01*
X60654Y-44575D01*
X60599Y-44585D01*
X60547Y-44606D01*
X60501Y-44637D01*
X60461Y-44676D01*
X60429Y-44722D01*
X60407Y-44773D01*
X60395Y-44828D01*
X60395Y-44884D01*
X60405Y-44939D01*
X60425Y-44991D01*
X60456Y-45038D01*
X60494Y-45078D01*
X60540Y-45110D01*
X60592Y-45132D01*
X60646Y-45144D01*
X60702Y-45146D01*
X60757Y-45136D01*
X60809Y-45116D01*
X60856Y-45086D01*
X60897Y-45047D01*
X60929Y-45001D01*
X60952Y-44950D01*
X60964Y-44896D01*
X60965Y-44832D01*
X60957Y-44794D01*
X61414Y-44337D01*
X61446Y-44344D01*
X61502Y-44346D01*
X61557Y-44336D01*
X61609Y-44316D01*
X61656Y-44286D01*
X61697Y-44247D01*
X61729Y-44201D01*
X61752Y-44150D01*
X61764Y-44096D01*
X61765Y-44032D01*
X61754Y-43977D01*
X61747Y-43960D01*
X62111Y-44324D01*
X62092Y-44371D01*
X62075Y-44453D01*
X62073Y-44536D01*
X62089Y-44618D01*
X62119Y-44696D01*
X62165Y-44766D01*
X62222Y-44825D01*
X62291Y-44873D01*
X62367Y-44906D01*
X62449Y-44924D01*
X62532Y-44926D01*
X62614Y-44911D01*
X62692Y-44881D01*
X62762Y-44836D01*
X62823Y-44779D01*
X62870Y-44711D01*
X62904Y-44634D01*
X62923Y-44553D01*
X62924Y-44458D01*
X62924Y-43459D01*
X62924Y-42459D01*
X62924Y-41459D01*
X62908Y-41377D01*
X62876Y-41300D01*
X62830Y-41231D01*
X62771Y-41172D01*
X62702Y-41125D01*
X62625Y-41093D01*
X62543Y-41076D01*
X62460Y-41076D01*
X62378Y-41091D01*
X62301Y-41123D01*
X62231Y-41168D01*
X62172Y-41227D01*
X62125Y-41296D01*
X62092Y-41372D01*
X62075Y-41454D01*
X62073Y-41537D01*
X62089Y-41619D01*
X62119Y-41697D01*
X62165Y-41767D01*
X62222Y-41826D01*
X62291Y-41874D01*
X62367Y-41907D01*
X62449Y-41925D01*
X62532Y-41927D01*
X62614Y-41912D01*
X62692Y-41882D01*
X62762Y-41837D01*
X62823Y-41780D01*
X62870Y-41712D01*
X62904Y-41635D01*
X62923Y-41554D01*
X62924Y-41459D01*
X62924Y-42459D01*
X62908Y-42377D01*
X62876Y-42300D01*
X62830Y-42231D01*
X62771Y-42172D01*
X62702Y-42125D01*
X62625Y-42093D01*
X62543Y-42076D01*
X62460Y-42076D01*
X62378Y-42091D01*
X62301Y-42123D01*
X62231Y-42168D01*
X62172Y-42227D01*
X62125Y-42296D01*
X62092Y-42372D01*
X62075Y-42454D01*
X62073Y-42537D01*
X62089Y-42619D01*
X62119Y-42697D01*
X62165Y-42767D01*
X62222Y-42826D01*
X62291Y-42874D01*
X62367Y-42907D01*
X62449Y-42925D01*
X62532Y-42927D01*
X62614Y-42912D01*
X62692Y-42882D01*
X62762Y-42837D01*
X62823Y-42780D01*
X62870Y-42712D01*
X62904Y-42635D01*
X62923Y-42554D01*
X62924Y-42459D01*
X62924Y-43459D01*
X62908Y-43377D01*
X62876Y-43300D01*
X62830Y-43231D01*
X62771Y-43172D01*
X62702Y-43125D01*
X62625Y-43093D01*
X62543Y-43076D01*
X62460Y-43076D01*
X62378Y-43091D01*
X62301Y-43123D01*
X62231Y-43168D01*
X62172Y-43227D01*
X62125Y-43296D01*
X62092Y-43372D01*
X62075Y-43454D01*
X62073Y-43537D01*
X62089Y-43619D01*
X62119Y-43697D01*
X62165Y-43767D01*
X62222Y-43826D01*
X62291Y-43874D01*
X62367Y-43907D01*
X62449Y-43925D01*
X62532Y-43927D01*
X62614Y-43912D01*
X62692Y-43882D01*
X62762Y-43837D01*
X62823Y-43780D01*
X62870Y-43712D01*
X62904Y-43635D01*
X62923Y-43554D01*
X62924Y-43459D01*
X62924Y-44458D01*
X62908Y-44376D01*
X62876Y-44299D01*
X62830Y-44230D01*
X62771Y-44171D01*
X62702Y-44124D01*
X62625Y-44092D01*
X62543Y-44075D01*
X62460Y-44075D01*
X62378Y-44090D01*
X62323Y-44112D01*
X61924Y-43713D01*
X61924Y-41459D01*
X61908Y-41377D01*
X61876Y-41300D01*
X61830Y-41231D01*
X61771Y-41172D01*
X61702Y-41125D01*
X61625Y-41093D01*
X61543Y-41076D01*
X61460Y-41076D01*
X61378Y-41091D01*
X61301Y-41123D01*
X61231Y-41168D01*
X61172Y-41227D01*
X61125Y-41296D01*
X61092Y-41372D01*
X61075Y-41454D01*
X61073Y-41537D01*
X61089Y-41619D01*
X61119Y-41697D01*
X61165Y-41767D01*
X61222Y-41826D01*
X61291Y-41874D01*
X61367Y-41907D01*
X61449Y-41925D01*
X61532Y-41927D01*
X61614Y-41912D01*
X61692Y-41882D01*
X61762Y-41837D01*
X61823Y-41780D01*
X61870Y-41712D01*
X61904Y-41635D01*
X61923Y-41554D01*
X61924Y-41459D01*
X61924Y-43713D01*
X61150Y-42939D01*
X61150Y-42920D01*
X61152Y-42921D01*
X61173Y-42925D01*
X61194Y-42925D01*
X61825Y-42925D01*
X61846Y-42921D01*
X61866Y-42913D01*
X61883Y-42901D01*
X61899Y-42886D01*
X61911Y-42868D01*
X61919Y-42848D01*
X61923Y-42827D01*
X61923Y-42806D01*
X61923Y-42175D01*
X61919Y-42154D01*
X61911Y-42134D01*
X61899Y-42117D01*
X61884Y-42101D01*
X61866Y-42089D01*
X61846Y-42081D01*
X61825Y-42077D01*
X61804Y-42077D01*
X61173Y-42077D01*
X61152Y-42081D01*
X61132Y-42089D01*
X61115Y-42101D01*
X61099Y-42116D01*
X61087Y-42134D01*
X61086Y-42134D01*
X60847Y-41895D01*
X60846Y-41894D01*
X60844Y-41892D01*
X60825Y-41876D01*
X60805Y-41865D01*
X60799Y-41862D01*
X60798Y-41861D01*
X60779Y-41855D01*
X60771Y-41853D01*
X60742Y-41850D01*
X60763Y-41837D01*
X60824Y-41780D01*
X60871Y-41712D01*
X60905Y-41635D01*
X60924Y-41554D01*
X60925Y-41459D01*
X60909Y-41377D01*
X60877Y-41300D01*
X60831Y-41231D01*
X60772Y-41172D01*
X60703Y-41125D01*
X60626Y-41093D01*
X60544Y-41076D01*
X60461Y-41076D01*
X60379Y-41091D01*
X60302Y-41123D01*
X60232Y-41168D01*
X60173Y-41227D01*
X60126Y-41296D01*
X60093Y-41372D01*
X60076Y-41454D01*
X60074Y-41537D01*
X60090Y-41619D01*
X60120Y-41697D01*
X60166Y-41767D01*
X60223Y-41826D01*
X60257Y-41850D01*
X59862Y-41850D01*
X59845Y-41833D01*
X59844Y-41832D01*
X59842Y-41830D01*
X59823Y-41814D01*
X59803Y-41803D01*
X59800Y-41801D01*
X59824Y-41780D01*
X59871Y-41712D01*
X59905Y-41635D01*
X59924Y-41554D01*
X59925Y-41459D01*
X59909Y-41377D01*
X59877Y-41300D01*
X59831Y-41231D01*
X59772Y-41172D01*
X59703Y-41125D01*
X59626Y-41093D01*
X59544Y-41076D01*
X59461Y-41076D01*
X59379Y-41091D01*
X59302Y-41123D01*
X59232Y-41168D01*
X59173Y-41227D01*
X59126Y-41296D01*
X59093Y-41372D01*
X59076Y-41454D01*
X59074Y-41537D01*
X59080Y-41568D01*
X58845Y-41333D01*
X58844Y-41332D01*
X58842Y-41330D01*
X58823Y-41314D01*
X58803Y-41303D01*
X58797Y-41300D01*
X58796Y-41299D01*
X58777Y-41293D01*
X58769Y-41291D01*
X58740Y-41288D01*
X58738Y-41288D01*
X58314Y-41288D01*
X58324Y-41279D01*
X58371Y-41211D01*
X58405Y-41134D01*
X58424Y-41053D01*
X58425Y-40958D01*
X58409Y-40876D01*
X58377Y-40799D01*
X58331Y-40730D01*
X62518Y-40730D01*
X63612Y-41824D01*
G36*
X63670Y-47730D02*
X63626Y-47795D01*
X63593Y-47871D01*
X63576Y-47953D01*
X63574Y-48036D01*
X63590Y-48118D01*
X63612Y-48175D01*
X61518Y-50270D01*
X61233Y-50270D01*
X61252Y-50230D01*
X61264Y-50176D01*
X61265Y-50112D01*
X61254Y-50057D01*
X61233Y-50006D01*
X61202Y-49959D01*
X61162Y-49919D01*
X61116Y-49888D01*
X61065Y-49866D01*
X61010Y-49855D01*
X60954Y-49855D01*
X60899Y-49865D01*
X60847Y-49886D01*
X60801Y-49917D01*
X60761Y-49956D01*
X60729Y-50002D01*
X60707Y-50053D01*
X60695Y-50108D01*
X60695Y-50128D01*
X58406Y-50128D01*
X58424Y-50053D01*
X58425Y-49958D01*
X58409Y-49876D01*
X58377Y-49799D01*
X58331Y-49730D01*
X58313Y-49712D01*
X61697Y-49712D01*
X61698Y-49712D01*
X61700Y-49711D01*
X61726Y-49710D01*
X61727Y-49709D01*
X61746Y-49703D01*
X61754Y-49701D01*
X61755Y-49701D01*
X61768Y-49694D01*
X61780Y-49688D01*
X61781Y-49687D01*
X61803Y-49669D01*
X61804Y-49668D01*
X63167Y-48305D01*
X63186Y-48283D01*
X63186Y-48282D01*
X63200Y-48257D01*
X63209Y-48229D01*
X63212Y-48200D01*
X63212Y-48198D01*
X63212Y-47935D01*
X63252Y-47952D01*
X63306Y-47964D01*
X63362Y-47966D01*
X63417Y-47956D01*
X63469Y-47936D01*
X63516Y-47906D01*
X63557Y-47867D01*
X63589Y-47821D01*
X63612Y-47770D01*
X63620Y-47730D01*
X63670Y-47730D01*
X63670Y-47730D01*
G37*
X63670Y-47730D02*
X63626Y-47795D01*
X63593Y-47871D01*
X63576Y-47953D01*
X63574Y-48036D01*
X63590Y-48118D01*
X63612Y-48175D01*
X61518Y-50270D01*
X61233Y-50270D01*
X61252Y-50230D01*
X61264Y-50176D01*
X61265Y-50112D01*
X61254Y-50057D01*
X61233Y-50006D01*
X61202Y-49959D01*
X61162Y-49919D01*
X61116Y-49888D01*
X61065Y-49866D01*
X61010Y-49855D01*
X60954Y-49855D01*
X60899Y-49865D01*
X60847Y-49886D01*
X60801Y-49917D01*
X60761Y-49956D01*
X60729Y-50002D01*
X60707Y-50053D01*
X60695Y-50108D01*
X60695Y-50128D01*
X58406Y-50128D01*
X58424Y-50053D01*
X58425Y-49958D01*
X58409Y-49876D01*
X58377Y-49799D01*
X58331Y-49730D01*
X58313Y-49712D01*
X61697Y-49712D01*
X61698Y-49712D01*
X61700Y-49711D01*
X61726Y-49710D01*
X61727Y-49709D01*
X61746Y-49703D01*
X61754Y-49701D01*
X61755Y-49701D01*
X61768Y-49694D01*
X61780Y-49688D01*
X61781Y-49687D01*
X61803Y-49669D01*
X61804Y-49668D01*
X63167Y-48305D01*
X63186Y-48283D01*
X63186Y-48282D01*
X63200Y-48257D01*
X63209Y-48229D01*
X63212Y-48200D01*
X63212Y-48198D01*
X63212Y-47935D01*
X63252Y-47952D01*
X63306Y-47964D01*
X63362Y-47966D01*
X63417Y-47956D01*
X63469Y-47936D01*
X63516Y-47906D01*
X63557Y-47867D01*
X63589Y-47821D01*
X63612Y-47770D01*
X63620Y-47730D01*
X63670Y-47730D01*
G36*
X63729Y-38670D02*
X63673Y-38726D01*
X63626Y-38795D01*
X63593Y-38871D01*
X63576Y-38953D01*
X63574Y-39036D01*
X63590Y-39118D01*
X63612Y-39175D01*
X63458Y-39330D01*
X58269Y-39330D01*
X58324Y-39279D01*
X58371Y-39211D01*
X58405Y-39134D01*
X58424Y-39053D01*
X58425Y-38958D01*
X58409Y-38876D01*
X58377Y-38799D01*
X58331Y-38730D01*
X58272Y-38671D01*
X58241Y-38650D01*
X59238Y-38650D01*
X59355Y-38767D01*
X59356Y-38768D01*
X59359Y-38770D01*
X59377Y-38786D01*
X59378Y-38786D01*
X59392Y-38794D01*
X59403Y-38800D01*
X59404Y-38801D01*
X59423Y-38806D01*
X59431Y-38809D01*
X59432Y-38809D01*
X59460Y-38812D01*
X59462Y-38812D01*
X61720Y-38812D01*
X61782Y-38874D01*
X61775Y-38908D01*
X61775Y-38964D01*
X61785Y-39019D01*
X61805Y-39071D01*
X61836Y-39118D01*
X61874Y-39158D01*
X61920Y-39190D01*
X61972Y-39212D01*
X62026Y-39224D01*
X62082Y-39226D01*
X62137Y-39216D01*
X62189Y-39196D01*
X62236Y-39166D01*
X62277Y-39127D01*
X62309Y-39081D01*
X62332Y-39030D01*
X62344Y-38976D01*
X62345Y-38912D01*
X62334Y-38857D01*
X62313Y-38806D01*
X62282Y-38759D01*
X62242Y-38719D01*
X62196Y-38688D01*
X62154Y-38670D01*
X63729Y-38670D01*
X63729Y-38670D01*
G37*
X63729Y-38670D02*
X63673Y-38726D01*
X63626Y-38795D01*
X63593Y-38871D01*
X63576Y-38953D01*
X63574Y-39036D01*
X63590Y-39118D01*
X63612Y-39175D01*
X63458Y-39330D01*
X58269Y-39330D01*
X58324Y-39279D01*
X58371Y-39211D01*
X58405Y-39134D01*
X58424Y-39053D01*
X58425Y-38958D01*
X58409Y-38876D01*
X58377Y-38799D01*
X58331Y-38730D01*
X58272Y-38671D01*
X58241Y-38650D01*
X59238Y-38650D01*
X59355Y-38767D01*
X59356Y-38768D01*
X59359Y-38770D01*
X59377Y-38786D01*
X59378Y-38786D01*
X59392Y-38794D01*
X59403Y-38800D01*
X59404Y-38801D01*
X59423Y-38806D01*
X59431Y-38809D01*
X59432Y-38809D01*
X59460Y-38812D01*
X59462Y-38812D01*
X61720Y-38812D01*
X61782Y-38874D01*
X61775Y-38908D01*
X61775Y-38964D01*
X61785Y-39019D01*
X61805Y-39071D01*
X61836Y-39118D01*
X61874Y-39158D01*
X61920Y-39190D01*
X61972Y-39212D01*
X62026Y-39224D01*
X62082Y-39226D01*
X62137Y-39216D01*
X62189Y-39196D01*
X62236Y-39166D01*
X62277Y-39127D01*
X62309Y-39081D01*
X62332Y-39030D01*
X62344Y-38976D01*
X62345Y-38912D01*
X62334Y-38857D01*
X62313Y-38806D01*
X62282Y-38759D01*
X62242Y-38719D01*
X62196Y-38688D01*
X62154Y-38670D01*
X63729Y-38670D01*
G36*
X63758Y-50650D02*
X63732Y-50667D01*
X63673Y-50726D01*
X63626Y-50795D01*
X63593Y-50871D01*
X63576Y-50953D01*
X63574Y-51036D01*
X63590Y-51118D01*
X63620Y-51196D01*
X63666Y-51266D01*
X63669Y-51270D01*
X58482Y-51270D01*
X58386Y-51174D01*
X58405Y-51134D01*
X58424Y-51053D01*
X58425Y-50958D01*
X58409Y-50876D01*
X58377Y-50799D01*
X58331Y-50730D01*
X58313Y-50712D01*
X61637Y-50712D01*
X61638Y-50712D01*
X61640Y-50711D01*
X61666Y-50710D01*
X61667Y-50709D01*
X61686Y-50703D01*
X61694Y-50701D01*
X61695Y-50701D01*
X61708Y-50694D01*
X61720Y-50688D01*
X61721Y-50687D01*
X61743Y-50669D01*
X61744Y-50668D01*
X61827Y-50584D01*
X61845Y-50631D01*
X61876Y-50678D01*
X61914Y-50718D01*
X61960Y-50750D01*
X62012Y-50772D01*
X62066Y-50784D01*
X62122Y-50786D01*
X62177Y-50776D01*
X62229Y-50756D01*
X62276Y-50726D01*
X62317Y-50687D01*
X62342Y-50650D01*
X63758Y-50650D01*
X63758Y-50650D01*
G37*
X63758Y-50650D02*
X63732Y-50667D01*
X63673Y-50726D01*
X63626Y-50795D01*
X63593Y-50871D01*
X63576Y-50953D01*
X63574Y-51036D01*
X63590Y-51118D01*
X63620Y-51196D01*
X63666Y-51266D01*
X63669Y-51270D01*
X58482Y-51270D01*
X58386Y-51174D01*
X58405Y-51134D01*
X58424Y-51053D01*
X58425Y-50958D01*
X58409Y-50876D01*
X58377Y-50799D01*
X58331Y-50730D01*
X58313Y-50712D01*
X61637Y-50712D01*
X61638Y-50712D01*
X61640Y-50711D01*
X61666Y-50710D01*
X61667Y-50709D01*
X61686Y-50703D01*
X61694Y-50701D01*
X61695Y-50701D01*
X61708Y-50694D01*
X61720Y-50688D01*
X61721Y-50687D01*
X61743Y-50669D01*
X61744Y-50668D01*
X61827Y-50584D01*
X61845Y-50631D01*
X61876Y-50678D01*
X61914Y-50718D01*
X61960Y-50750D01*
X62012Y-50772D01*
X62066Y-50784D01*
X62122Y-50786D01*
X62177Y-50776D01*
X62229Y-50756D01*
X62276Y-50726D01*
X62317Y-50687D01*
X62342Y-50650D01*
X63758Y-50650D01*
G36*
X65730Y-50830D02*
X65681Y-50830D01*
X65680Y-50830D01*
X65678Y-50830D01*
X65652Y-50832D01*
X65632Y-50838D01*
X65623Y-50841D01*
X65610Y-50848D01*
X65598Y-50854D01*
X65575Y-50873D01*
X65574Y-50874D01*
X65178Y-51270D01*
X64330Y-51270D01*
X64371Y-51211D01*
X64405Y-51134D01*
X64424Y-51053D01*
X64425Y-50958D01*
X64409Y-50876D01*
X64377Y-50799D01*
X64331Y-50730D01*
X64272Y-50671D01*
X64241Y-50650D01*
X65602Y-50650D01*
X65620Y-50696D01*
X65666Y-50766D01*
X65723Y-50825D01*
X65730Y-50830D01*
X65730Y-50830D01*
G37*
X65730Y-50830D02*
X65681Y-50830D01*
X65680Y-50830D01*
X65678Y-50830D01*
X65652Y-50832D01*
X65632Y-50838D01*
X65623Y-50841D01*
X65610Y-50848D01*
X65598Y-50854D01*
X65575Y-50873D01*
X65574Y-50874D01*
X65178Y-51270D01*
X64330Y-51270D01*
X64371Y-51211D01*
X64405Y-51134D01*
X64424Y-51053D01*
X64425Y-50958D01*
X64409Y-50876D01*
X64377Y-50799D01*
X64331Y-50730D01*
X64272Y-50671D01*
X64241Y-50650D01*
X65602Y-50650D01*
X65620Y-50696D01*
X65666Y-50766D01*
X65723Y-50825D01*
X65730Y-50830D01*
G36*
X69283Y-46182D02*
X69272Y-46171D01*
X69203Y-46124D01*
X69126Y-46092D01*
X69044Y-46075D01*
X68961Y-46075D01*
X68879Y-46090D01*
X68802Y-46122D01*
X68732Y-46167D01*
X68673Y-46226D01*
X68626Y-46295D01*
X68593Y-46371D01*
X68576Y-46453D01*
X68574Y-46536D01*
X68590Y-46618D01*
X68612Y-46675D01*
X68080Y-47208D01*
X64481Y-47208D01*
X64480Y-47208D01*
X64478Y-47208D01*
X64452Y-47210D01*
X64432Y-47216D01*
X64423Y-47219D01*
X64410Y-47226D01*
X64398Y-47232D01*
X64375Y-47251D01*
X64374Y-47252D01*
X64338Y-47288D01*
X64314Y-47288D01*
X64324Y-47279D01*
X64371Y-47211D01*
X64405Y-47134D01*
X64424Y-47053D01*
X64424Y-46996D01*
X64425Y-46999D01*
X64445Y-47051D01*
X64476Y-47098D01*
X64514Y-47138D01*
X64560Y-47170D01*
X64612Y-47192D01*
X64666Y-47204D01*
X64722Y-47206D01*
X64777Y-47196D01*
X64829Y-47176D01*
X64876Y-47146D01*
X64917Y-47107D01*
X64949Y-47061D01*
X64972Y-47010D01*
X64984Y-46956D01*
X64985Y-46892D01*
X64974Y-46837D01*
X64953Y-46786D01*
X64922Y-46739D01*
X64882Y-46699D01*
X64836Y-46668D01*
X64785Y-46646D01*
X64730Y-46635D01*
X64674Y-46635D01*
X64634Y-46642D01*
X64296Y-46304D01*
X64324Y-46279D01*
X64371Y-46211D01*
X64405Y-46134D01*
X64424Y-46053D01*
X64425Y-45958D01*
X64409Y-45876D01*
X64377Y-45799D01*
X64331Y-45730D01*
X64272Y-45671D01*
X64203Y-45624D01*
X64126Y-45592D01*
X64044Y-45575D01*
X63961Y-45575D01*
X63915Y-45583D01*
X63923Y-45553D01*
X63924Y-45458D01*
X63915Y-45416D01*
X63950Y-45424D01*
X64033Y-45426D01*
X64115Y-45411D01*
X64193Y-45381D01*
X64263Y-45336D01*
X64324Y-45279D01*
X64371Y-45211D01*
X64405Y-45134D01*
X64424Y-45053D01*
X64425Y-44958D01*
X64409Y-44876D01*
X64377Y-44799D01*
X64331Y-44730D01*
X64272Y-44671D01*
X64203Y-44624D01*
X64126Y-44592D01*
X64044Y-44575D01*
X63961Y-44575D01*
X63915Y-44583D01*
X63923Y-44553D01*
X63924Y-44458D01*
X63915Y-44416D01*
X63950Y-44424D01*
X64033Y-44426D01*
X64115Y-44411D01*
X64193Y-44381D01*
X64263Y-44336D01*
X64324Y-44279D01*
X64371Y-44211D01*
X64405Y-44134D01*
X64424Y-44053D01*
X64425Y-43958D01*
X64409Y-43876D01*
X64377Y-43799D01*
X64331Y-43730D01*
X64272Y-43671D01*
X64203Y-43624D01*
X64126Y-43592D01*
X64044Y-43575D01*
X63961Y-43575D01*
X63916Y-43583D01*
X63923Y-43554D01*
X63924Y-43459D01*
X63915Y-43416D01*
X63950Y-43424D01*
X64033Y-43426D01*
X64115Y-43411D01*
X64193Y-43381D01*
X64263Y-43336D01*
X64324Y-43279D01*
X64371Y-43211D01*
X64405Y-43134D01*
X64424Y-43053D01*
X64425Y-42958D01*
X64409Y-42876D01*
X64377Y-42799D01*
X64331Y-42730D01*
X64272Y-42671D01*
X64203Y-42624D01*
X64126Y-42592D01*
X64044Y-42575D01*
X63961Y-42575D01*
X63916Y-42583D01*
X63923Y-42554D01*
X63924Y-42459D01*
X63915Y-42416D01*
X63950Y-42424D01*
X64033Y-42426D01*
X64115Y-42411D01*
X64193Y-42381D01*
X64263Y-42336D01*
X64324Y-42279D01*
X64371Y-42211D01*
X64405Y-42134D01*
X64424Y-42053D01*
X64425Y-41958D01*
X64425Y-40958D01*
X64409Y-40876D01*
X64377Y-40799D01*
X64331Y-40730D01*
X64272Y-40671D01*
X64203Y-40624D01*
X64126Y-40592D01*
X64044Y-40575D01*
X63961Y-40575D01*
X63879Y-40590D01*
X63802Y-40622D01*
X63732Y-40667D01*
X63673Y-40726D01*
X63626Y-40795D01*
X63593Y-40871D01*
X63576Y-40953D01*
X63574Y-41036D01*
X63590Y-41118D01*
X63620Y-41196D01*
X63666Y-41266D01*
X63723Y-41325D01*
X63792Y-41373D01*
X63868Y-41406D01*
X63950Y-41424D01*
X64033Y-41426D01*
X64115Y-41411D01*
X64193Y-41381D01*
X64263Y-41336D01*
X64324Y-41279D01*
X64371Y-41211D01*
X64405Y-41134D01*
X64424Y-41053D01*
X64425Y-40958D01*
X64425Y-41958D01*
X64409Y-41876D01*
X64377Y-41799D01*
X64331Y-41730D01*
X64272Y-41671D01*
X64203Y-41624D01*
X64126Y-41592D01*
X64044Y-41575D01*
X63961Y-41575D01*
X63879Y-41590D01*
X63824Y-41612D01*
X62687Y-40475D01*
X62686Y-40474D01*
X62684Y-40472D01*
X62665Y-40456D01*
X62645Y-40445D01*
X62639Y-40442D01*
X62638Y-40441D01*
X62619Y-40435D01*
X62611Y-40433D01*
X62582Y-40430D01*
X62580Y-40430D01*
X57821Y-40430D01*
X57820Y-40430D01*
X57791Y-40433D01*
X57763Y-40441D01*
X57737Y-40455D01*
X57719Y-40469D01*
X57715Y-40473D01*
X57714Y-40474D01*
X57088Y-41100D01*
X53275Y-41100D01*
X53275Y-40789D01*
X53000Y-40514D01*
X52725Y-40789D01*
X52758Y-40851D01*
X52831Y-40891D01*
X52910Y-40916D01*
X52993Y-40926D01*
X53076Y-40919D01*
X53156Y-40897D01*
X53231Y-40859D01*
X53242Y-40851D01*
X53275Y-40789D01*
X53275Y-41100D01*
X53251Y-41100D01*
X53250Y-41100D01*
X53221Y-41103D01*
X53193Y-41111D01*
X53183Y-41115D01*
X53126Y-41092D01*
X53044Y-41075D01*
X52961Y-41075D01*
X52879Y-41090D01*
X52802Y-41122D01*
X52732Y-41167D01*
X52712Y-41187D01*
X52712Y-41062D01*
X52709Y-41034D01*
X52709Y-41033D01*
X52701Y-41006D01*
X52701Y-41005D01*
X52687Y-40979D01*
X52669Y-40957D01*
X52668Y-40956D01*
X52668Y-40955D01*
X52387Y-40674D01*
X52405Y-40634D01*
X52424Y-40553D01*
X52425Y-40458D01*
X52409Y-40376D01*
X52377Y-40299D01*
X52331Y-40230D01*
X52673Y-40230D01*
X52682Y-40239D01*
X52649Y-40258D01*
X52609Y-40331D01*
X52584Y-40410D01*
X52574Y-40493D01*
X52581Y-40576D01*
X52603Y-40656D01*
X52641Y-40731D01*
X52649Y-40742D01*
X52711Y-40775D01*
X52965Y-40521D01*
X52986Y-40500D01*
X53000Y-40486D01*
X53014Y-40500D01*
X53035Y-40521D01*
X53289Y-40775D01*
X53351Y-40742D01*
X53391Y-40669D01*
X53416Y-40590D01*
X53426Y-40507D01*
X53419Y-40424D01*
X53397Y-40344D01*
X53359Y-40269D01*
X53351Y-40258D01*
X53316Y-40240D01*
X53326Y-40230D01*
X57299Y-40230D01*
X57300Y-40230D01*
X57302Y-40229D01*
X57328Y-40228D01*
X57329Y-40227D01*
X57348Y-40221D01*
X57356Y-40219D01*
X57357Y-40219D01*
X57370Y-40212D01*
X57382Y-40206D01*
X57383Y-40205D01*
X57405Y-40187D01*
X57406Y-40186D01*
X57574Y-40017D01*
X57574Y-40036D01*
X57590Y-40118D01*
X57620Y-40196D01*
X57666Y-40266D01*
X57723Y-40325D01*
X57792Y-40373D01*
X57868Y-40406D01*
X57950Y-40424D01*
X58033Y-40426D01*
X58115Y-40411D01*
X58193Y-40381D01*
X58263Y-40336D01*
X58324Y-40279D01*
X58371Y-40211D01*
X58405Y-40134D01*
X58424Y-40053D01*
X58425Y-39958D01*
X58409Y-39876D01*
X58387Y-39824D01*
X58440Y-39772D01*
X63577Y-39772D01*
X63578Y-39772D01*
X63580Y-39771D01*
X63606Y-39770D01*
X63607Y-39769D01*
X63626Y-39763D01*
X63634Y-39761D01*
X63635Y-39761D01*
X63648Y-39754D01*
X63656Y-39749D01*
X63626Y-39795D01*
X63593Y-39871D01*
X63576Y-39953D01*
X63574Y-40036D01*
X63590Y-40118D01*
X63620Y-40196D01*
X63666Y-40266D01*
X63723Y-40325D01*
X63792Y-40373D01*
X63868Y-40406D01*
X63950Y-40424D01*
X64033Y-40426D01*
X64115Y-40411D01*
X64193Y-40381D01*
X64263Y-40336D01*
X64324Y-40279D01*
X64371Y-40211D01*
X64405Y-40134D01*
X64424Y-40053D01*
X64425Y-39958D01*
X64409Y-39876D01*
X64377Y-39799D01*
X64331Y-39730D01*
X64272Y-39671D01*
X64241Y-39650D01*
X64358Y-39650D01*
X67455Y-42747D01*
X67456Y-42748D01*
X67459Y-42750D01*
X67477Y-42766D01*
X67478Y-42766D01*
X67503Y-42780D01*
X67504Y-42780D01*
X67531Y-42789D01*
X67532Y-42789D01*
X67560Y-42792D01*
X67562Y-42792D01*
X68450Y-42792D01*
X68763Y-43105D01*
X68764Y-43106D01*
X68767Y-43108D01*
X68785Y-43124D01*
X68786Y-43124D01*
X68792Y-43128D01*
X68732Y-43167D01*
X68673Y-43226D01*
X68626Y-43295D01*
X68593Y-43371D01*
X68576Y-43453D01*
X68574Y-43536D01*
X68590Y-43618D01*
X68620Y-43696D01*
X68666Y-43766D01*
X68723Y-43825D01*
X68792Y-43873D01*
X68868Y-43906D01*
X68950Y-43924D01*
X69033Y-43926D01*
X69115Y-43911D01*
X69175Y-43887D01*
X69283Y-43995D01*
X69283Y-44182D01*
X69272Y-44171D01*
X69203Y-44124D01*
X69126Y-44092D01*
X69044Y-44075D01*
X68961Y-44075D01*
X68879Y-44090D01*
X68802Y-44122D01*
X68732Y-44167D01*
X68673Y-44226D01*
X68626Y-44295D01*
X68593Y-44371D01*
X68576Y-44453D01*
X68574Y-44536D01*
X68590Y-44618D01*
X68620Y-44696D01*
X68666Y-44766D01*
X68723Y-44825D01*
X68792Y-44873D01*
X68868Y-44906D01*
X68950Y-44924D01*
X69033Y-44926D01*
X69115Y-44911D01*
X69193Y-44881D01*
X69263Y-44836D01*
X69283Y-44817D01*
X69283Y-45182D01*
X69272Y-45171D01*
X69203Y-45124D01*
X69126Y-45092D01*
X69044Y-45075D01*
X68961Y-45075D01*
X68879Y-45090D01*
X68802Y-45122D01*
X68732Y-45167D01*
X68673Y-45226D01*
X68626Y-45295D01*
X68593Y-45371D01*
X68576Y-45453D01*
X68574Y-45536D01*
X68590Y-45618D01*
X68620Y-45696D01*
X68666Y-45766D01*
X68723Y-45825D01*
X68792Y-45873D01*
X68868Y-45906D01*
X68950Y-45924D01*
X69033Y-45926D01*
X69115Y-45911D01*
X69193Y-45881D01*
X69263Y-45836D01*
X69283Y-45817D01*
X69283Y-46182D01*
X69283Y-46182D01*
G37*
X69283Y-46182D02*
X69272Y-46171D01*
X69203Y-46124D01*
X69126Y-46092D01*
X69044Y-46075D01*
X68961Y-46075D01*
X68879Y-46090D01*
X68802Y-46122D01*
X68732Y-46167D01*
X68673Y-46226D01*
X68626Y-46295D01*
X68593Y-46371D01*
X68576Y-46453D01*
X68574Y-46536D01*
X68590Y-46618D01*
X68612Y-46675D01*
X68080Y-47208D01*
X64481Y-47208D01*
X64480Y-47208D01*
X64478Y-47208D01*
X64452Y-47210D01*
X64432Y-47216D01*
X64423Y-47219D01*
X64410Y-47226D01*
X64398Y-47232D01*
X64375Y-47251D01*
X64374Y-47252D01*
X64338Y-47288D01*
X64314Y-47288D01*
X64324Y-47279D01*
X64371Y-47211D01*
X64405Y-47134D01*
X64424Y-47053D01*
X64424Y-46996D01*
X64425Y-46999D01*
X64445Y-47051D01*
X64476Y-47098D01*
X64514Y-47138D01*
X64560Y-47170D01*
X64612Y-47192D01*
X64666Y-47204D01*
X64722Y-47206D01*
X64777Y-47196D01*
X64829Y-47176D01*
X64876Y-47146D01*
X64917Y-47107D01*
X64949Y-47061D01*
X64972Y-47010D01*
X64984Y-46956D01*
X64985Y-46892D01*
X64974Y-46837D01*
X64953Y-46786D01*
X64922Y-46739D01*
X64882Y-46699D01*
X64836Y-46668D01*
X64785Y-46646D01*
X64730Y-46635D01*
X64674Y-46635D01*
X64634Y-46642D01*
X64296Y-46304D01*
X64324Y-46279D01*
X64371Y-46211D01*
X64405Y-46134D01*
X64424Y-46053D01*
X64425Y-45958D01*
X64409Y-45876D01*
X64377Y-45799D01*
X64331Y-45730D01*
X64272Y-45671D01*
X64203Y-45624D01*
X64126Y-45592D01*
X64044Y-45575D01*
X63961Y-45575D01*
X63915Y-45583D01*
X63923Y-45553D01*
X63924Y-45458D01*
X63915Y-45416D01*
X63950Y-45424D01*
X64033Y-45426D01*
X64115Y-45411D01*
X64193Y-45381D01*
X64263Y-45336D01*
X64324Y-45279D01*
X64371Y-45211D01*
X64405Y-45134D01*
X64424Y-45053D01*
X64425Y-44958D01*
X64409Y-44876D01*
X64377Y-44799D01*
X64331Y-44730D01*
X64272Y-44671D01*
X64203Y-44624D01*
X64126Y-44592D01*
X64044Y-44575D01*
X63961Y-44575D01*
X63915Y-44583D01*
X63923Y-44553D01*
X63924Y-44458D01*
X63915Y-44416D01*
X63950Y-44424D01*
X64033Y-44426D01*
X64115Y-44411D01*
X64193Y-44381D01*
X64263Y-44336D01*
X64324Y-44279D01*
X64371Y-44211D01*
X64405Y-44134D01*
X64424Y-44053D01*
X64425Y-43958D01*
X64409Y-43876D01*
X64377Y-43799D01*
X64331Y-43730D01*
X64272Y-43671D01*
X64203Y-43624D01*
X64126Y-43592D01*
X64044Y-43575D01*
X63961Y-43575D01*
X63916Y-43583D01*
X63923Y-43554D01*
X63924Y-43459D01*
X63915Y-43416D01*
X63950Y-43424D01*
X64033Y-43426D01*
X64115Y-43411D01*
X64193Y-43381D01*
X64263Y-43336D01*
X64324Y-43279D01*
X64371Y-43211D01*
X64405Y-43134D01*
X64424Y-43053D01*
X64425Y-42958D01*
X64409Y-42876D01*
X64377Y-42799D01*
X64331Y-42730D01*
X64272Y-42671D01*
X64203Y-42624D01*
X64126Y-42592D01*
X64044Y-42575D01*
X63961Y-42575D01*
X63916Y-42583D01*
X63923Y-42554D01*
X63924Y-42459D01*
X63915Y-42416D01*
X63950Y-42424D01*
X64033Y-42426D01*
X64115Y-42411D01*
X64193Y-42381D01*
X64263Y-42336D01*
X64324Y-42279D01*
X64371Y-42211D01*
X64405Y-42134D01*
X64424Y-42053D01*
X64425Y-41958D01*
X64425Y-40958D01*
X64409Y-40876D01*
X64377Y-40799D01*
X64331Y-40730D01*
X64272Y-40671D01*
X64203Y-40624D01*
X64126Y-40592D01*
X64044Y-40575D01*
X63961Y-40575D01*
X63879Y-40590D01*
X63802Y-40622D01*
X63732Y-40667D01*
X63673Y-40726D01*
X63626Y-40795D01*
X63593Y-40871D01*
X63576Y-40953D01*
X63574Y-41036D01*
X63590Y-41118D01*
X63620Y-41196D01*
X63666Y-41266D01*
X63723Y-41325D01*
X63792Y-41373D01*
X63868Y-41406D01*
X63950Y-41424D01*
X64033Y-41426D01*
X64115Y-41411D01*
X64193Y-41381D01*
X64263Y-41336D01*
X64324Y-41279D01*
X64371Y-41211D01*
X64405Y-41134D01*
X64424Y-41053D01*
X64425Y-40958D01*
X64425Y-41958D01*
X64409Y-41876D01*
X64377Y-41799D01*
X64331Y-41730D01*
X64272Y-41671D01*
X64203Y-41624D01*
X64126Y-41592D01*
X64044Y-41575D01*
X63961Y-41575D01*
X63879Y-41590D01*
X63824Y-41612D01*
X62687Y-40475D01*
X62686Y-40474D01*
X62684Y-40472D01*
X62665Y-40456D01*
X62645Y-40445D01*
X62639Y-40442D01*
X62638Y-40441D01*
X62619Y-40435D01*
X62611Y-40433D01*
X62582Y-40430D01*
X62580Y-40430D01*
X57821Y-40430D01*
X57820Y-40430D01*
X57791Y-40433D01*
X57763Y-40441D01*
X57737Y-40455D01*
X57719Y-40469D01*
X57715Y-40473D01*
X57714Y-40474D01*
X57088Y-41100D01*
X53275Y-41100D01*
X53275Y-40789D01*
X53000Y-40514D01*
X52725Y-40789D01*
X52758Y-40851D01*
X52831Y-40891D01*
X52910Y-40916D01*
X52993Y-40926D01*
X53076Y-40919D01*
X53156Y-40897D01*
X53231Y-40859D01*
X53242Y-40851D01*
X53275Y-40789D01*
X53275Y-41100D01*
X53251Y-41100D01*
X53250Y-41100D01*
X53221Y-41103D01*
X53193Y-41111D01*
X53183Y-41115D01*
X53126Y-41092D01*
X53044Y-41075D01*
X52961Y-41075D01*
X52879Y-41090D01*
X52802Y-41122D01*
X52732Y-41167D01*
X52712Y-41187D01*
X52712Y-41062D01*
X52709Y-41034D01*
X52709Y-41033D01*
X52701Y-41006D01*
X52701Y-41005D01*
X52687Y-40979D01*
X52669Y-40957D01*
X52668Y-40956D01*
X52668Y-40955D01*
X52387Y-40674D01*
X52405Y-40634D01*
X52424Y-40553D01*
X52425Y-40458D01*
X52409Y-40376D01*
X52377Y-40299D01*
X52331Y-40230D01*
X52673Y-40230D01*
X52682Y-40239D01*
X52649Y-40258D01*
X52609Y-40331D01*
X52584Y-40410D01*
X52574Y-40493D01*
X52581Y-40576D01*
X52603Y-40656D01*
X52641Y-40731D01*
X52649Y-40742D01*
X52711Y-40775D01*
X52965Y-40521D01*
X52986Y-40500D01*
X53000Y-40486D01*
X53014Y-40500D01*
X53035Y-40521D01*
X53289Y-40775D01*
X53351Y-40742D01*
X53391Y-40669D01*
X53416Y-40590D01*
X53426Y-40507D01*
X53419Y-40424D01*
X53397Y-40344D01*
X53359Y-40269D01*
X53351Y-40258D01*
X53316Y-40240D01*
X53326Y-40230D01*
X57299Y-40230D01*
X57300Y-40230D01*
X57302Y-40229D01*
X57328Y-40228D01*
X57329Y-40227D01*
X57348Y-40221D01*
X57356Y-40219D01*
X57357Y-40219D01*
X57370Y-40212D01*
X57382Y-40206D01*
X57383Y-40205D01*
X57405Y-40187D01*
X57406Y-40186D01*
X57574Y-40017D01*
X57574Y-40036D01*
X57590Y-40118D01*
X57620Y-40196D01*
X57666Y-40266D01*
X57723Y-40325D01*
X57792Y-40373D01*
X57868Y-40406D01*
X57950Y-40424D01*
X58033Y-40426D01*
X58115Y-40411D01*
X58193Y-40381D01*
X58263Y-40336D01*
X58324Y-40279D01*
X58371Y-40211D01*
X58405Y-40134D01*
X58424Y-40053D01*
X58425Y-39958D01*
X58409Y-39876D01*
X58387Y-39824D01*
X58440Y-39772D01*
X63577Y-39772D01*
X63578Y-39772D01*
X63580Y-39771D01*
X63606Y-39770D01*
X63607Y-39769D01*
X63626Y-39763D01*
X63634Y-39761D01*
X63635Y-39761D01*
X63648Y-39754D01*
X63656Y-39749D01*
X63626Y-39795D01*
X63593Y-39871D01*
X63576Y-39953D01*
X63574Y-40036D01*
X63590Y-40118D01*
X63620Y-40196D01*
X63666Y-40266D01*
X63723Y-40325D01*
X63792Y-40373D01*
X63868Y-40406D01*
X63950Y-40424D01*
X64033Y-40426D01*
X64115Y-40411D01*
X64193Y-40381D01*
X64263Y-40336D01*
X64324Y-40279D01*
X64371Y-40211D01*
X64405Y-40134D01*
X64424Y-40053D01*
X64425Y-39958D01*
X64409Y-39876D01*
X64377Y-39799D01*
X64331Y-39730D01*
X64272Y-39671D01*
X64241Y-39650D01*
X64358Y-39650D01*
X67455Y-42747D01*
X67456Y-42748D01*
X67459Y-42750D01*
X67477Y-42766D01*
X67478Y-42766D01*
X67503Y-42780D01*
X67504Y-42780D01*
X67531Y-42789D01*
X67532Y-42789D01*
X67560Y-42792D01*
X67562Y-42792D01*
X68450Y-42792D01*
X68763Y-43105D01*
X68764Y-43106D01*
X68767Y-43108D01*
X68785Y-43124D01*
X68786Y-43124D01*
X68792Y-43128D01*
X68732Y-43167D01*
X68673Y-43226D01*
X68626Y-43295D01*
X68593Y-43371D01*
X68576Y-43453D01*
X68574Y-43536D01*
X68590Y-43618D01*
X68620Y-43696D01*
X68666Y-43766D01*
X68723Y-43825D01*
X68792Y-43873D01*
X68868Y-43906D01*
X68950Y-43924D01*
X69033Y-43926D01*
X69115Y-43911D01*
X69175Y-43887D01*
X69283Y-43995D01*
X69283Y-44182D01*
X69272Y-44171D01*
X69203Y-44124D01*
X69126Y-44092D01*
X69044Y-44075D01*
X68961Y-44075D01*
X68879Y-44090D01*
X68802Y-44122D01*
X68732Y-44167D01*
X68673Y-44226D01*
X68626Y-44295D01*
X68593Y-44371D01*
X68576Y-44453D01*
X68574Y-44536D01*
X68590Y-44618D01*
X68620Y-44696D01*
X68666Y-44766D01*
X68723Y-44825D01*
X68792Y-44873D01*
X68868Y-44906D01*
X68950Y-44924D01*
X69033Y-44926D01*
X69115Y-44911D01*
X69193Y-44881D01*
X69263Y-44836D01*
X69283Y-44817D01*
X69283Y-45182D01*
X69272Y-45171D01*
X69203Y-45124D01*
X69126Y-45092D01*
X69044Y-45075D01*
X68961Y-45075D01*
X68879Y-45090D01*
X68802Y-45122D01*
X68732Y-45167D01*
X68673Y-45226D01*
X68626Y-45295D01*
X68593Y-45371D01*
X68576Y-45453D01*
X68574Y-45536D01*
X68590Y-45618D01*
X68620Y-45696D01*
X68666Y-45766D01*
X68723Y-45825D01*
X68792Y-45873D01*
X68868Y-45906D01*
X68950Y-45924D01*
X69033Y-45926D01*
X69115Y-45911D01*
X69193Y-45881D01*
X69263Y-45836D01*
X69283Y-45817D01*
X69283Y-46182D01*
G36*
X69283Y-48182D02*
X69272Y-48171D01*
X69203Y-48124D01*
X69126Y-48092D01*
X69044Y-48075D01*
X68961Y-48075D01*
X68879Y-48090D01*
X68802Y-48122D01*
X68732Y-48167D01*
X68673Y-48226D01*
X68626Y-48295D01*
X68593Y-48371D01*
X68576Y-48453D01*
X68574Y-48536D01*
X68590Y-48618D01*
X68620Y-48696D01*
X68666Y-48766D01*
X68723Y-48825D01*
X68792Y-48873D01*
X68868Y-48906D01*
X68950Y-48924D01*
X69033Y-48926D01*
X69115Y-48911D01*
X69134Y-48903D01*
X68405Y-49633D01*
X68404Y-49634D01*
X68402Y-49635D01*
X68386Y-49655D01*
X68375Y-49674D01*
X68371Y-49682D01*
X68365Y-49701D01*
X68363Y-49709D01*
X68360Y-49738D01*
X68360Y-49740D01*
X68360Y-50273D01*
X68331Y-50230D01*
X68272Y-50171D01*
X68203Y-50124D01*
X68126Y-50092D01*
X68044Y-50075D01*
X67961Y-50075D01*
X67879Y-50090D01*
X67825Y-50112D01*
X65457Y-47745D01*
X65456Y-47744D01*
X65454Y-47742D01*
X65435Y-47726D01*
X65415Y-47715D01*
X65409Y-47712D01*
X65408Y-47711D01*
X65389Y-47705D01*
X65381Y-47703D01*
X65352Y-47700D01*
X65350Y-47700D01*
X64782Y-47700D01*
X64762Y-47669D01*
X64743Y-47650D01*
X68602Y-47650D01*
X68620Y-47696D01*
X68666Y-47766D01*
X68723Y-47825D01*
X68792Y-47873D01*
X68868Y-47906D01*
X68950Y-47924D01*
X69033Y-47926D01*
X69115Y-47911D01*
X69193Y-47881D01*
X69263Y-47836D01*
X69283Y-47817D01*
X69283Y-48182D01*
X69283Y-48182D01*
G37*
X69283Y-48182D02*
X69272Y-48171D01*
X69203Y-48124D01*
X69126Y-48092D01*
X69044Y-48075D01*
X68961Y-48075D01*
X68879Y-48090D01*
X68802Y-48122D01*
X68732Y-48167D01*
X68673Y-48226D01*
X68626Y-48295D01*
X68593Y-48371D01*
X68576Y-48453D01*
X68574Y-48536D01*
X68590Y-48618D01*
X68620Y-48696D01*
X68666Y-48766D01*
X68723Y-48825D01*
X68792Y-48873D01*
X68868Y-48906D01*
X68950Y-48924D01*
X69033Y-48926D01*
X69115Y-48911D01*
X69134Y-48903D01*
X68405Y-49633D01*
X68404Y-49634D01*
X68402Y-49635D01*
X68386Y-49655D01*
X68375Y-49674D01*
X68371Y-49682D01*
X68365Y-49701D01*
X68363Y-49709D01*
X68360Y-49738D01*
X68360Y-49740D01*
X68360Y-50273D01*
X68331Y-50230D01*
X68272Y-50171D01*
X68203Y-50124D01*
X68126Y-50092D01*
X68044Y-50075D01*
X67961Y-50075D01*
X67879Y-50090D01*
X67825Y-50112D01*
X65457Y-47745D01*
X65456Y-47744D01*
X65454Y-47742D01*
X65435Y-47726D01*
X65415Y-47715D01*
X65409Y-47712D01*
X65408Y-47711D01*
X65389Y-47705D01*
X65381Y-47703D01*
X65352Y-47700D01*
X65350Y-47700D01*
X64782Y-47700D01*
X64762Y-47669D01*
X64743Y-47650D01*
X68602Y-47650D01*
X68620Y-47696D01*
X68666Y-47766D01*
X68723Y-47825D01*
X68792Y-47873D01*
X68868Y-47906D01*
X68950Y-47924D01*
X69033Y-47926D01*
X69115Y-47911D01*
X69193Y-47881D01*
X69263Y-47836D01*
X69283Y-47817D01*
X69283Y-48182D01*
G36*
X70720Y-52720D02*
X70426Y-52720D01*
X70426Y-51507D01*
X70426Y-50507D01*
X70419Y-50424D01*
X70397Y-50344D01*
X70359Y-50269D01*
X70351Y-50258D01*
X70289Y-50225D01*
X70014Y-50500D01*
X70289Y-50775D01*
X70351Y-50742D01*
X70391Y-50669D01*
X70416Y-50590D01*
X70426Y-50507D01*
X70426Y-51507D01*
X70419Y-51424D01*
X70397Y-51344D01*
X70359Y-51269D01*
X70351Y-51258D01*
X70289Y-51225D01*
X70275Y-51239D01*
X70275Y-51211D01*
X70275Y-50789D01*
X70000Y-50514D01*
X69986Y-50528D01*
X69725Y-50789D01*
X69758Y-50851D01*
X69831Y-50891D01*
X69910Y-50916D01*
X69993Y-50926D01*
X70076Y-50919D01*
X70156Y-50897D01*
X70231Y-50859D01*
X70242Y-50851D01*
X70275Y-50789D01*
X70275Y-51211D01*
X70242Y-51149D01*
X70169Y-51109D01*
X70090Y-51084D01*
X70007Y-51074D01*
X69924Y-51081D01*
X69844Y-51103D01*
X69769Y-51141D01*
X69758Y-51149D01*
X69725Y-51211D01*
X70000Y-51486D01*
X70275Y-51211D01*
X70275Y-51239D01*
X70014Y-51500D01*
X70289Y-51775D01*
X70351Y-51742D01*
X70391Y-51669D01*
X70416Y-51590D01*
X70426Y-51507D01*
X70426Y-52720D01*
X70275Y-52720D01*
X70275Y-51789D01*
X70000Y-51514D01*
X69986Y-51528D01*
X69986Y-51500D01*
X69711Y-51225D01*
X69649Y-51258D01*
X69609Y-51331D01*
X69584Y-51410D01*
X69574Y-51493D01*
X69581Y-51576D01*
X69603Y-51656D01*
X69641Y-51731D01*
X69649Y-51742D01*
X69711Y-51775D01*
X69986Y-51500D01*
X69986Y-51528D01*
X69725Y-51789D01*
X69758Y-51851D01*
X69831Y-51891D01*
X69910Y-51916D01*
X69993Y-51926D01*
X70076Y-51919D01*
X70156Y-51897D01*
X70231Y-51859D01*
X70242Y-51851D01*
X70275Y-51789D01*
X70275Y-52720D01*
X69425Y-52720D01*
X69425Y-51458D01*
X69409Y-51376D01*
X69377Y-51299D01*
X69331Y-51230D01*
X69272Y-51171D01*
X69203Y-51124D01*
X69126Y-51092D01*
X69044Y-51075D01*
X68961Y-51075D01*
X68879Y-51090D01*
X68802Y-51122D01*
X68732Y-51167D01*
X68673Y-51226D01*
X68626Y-51295D01*
X68593Y-51371D01*
X68576Y-51453D01*
X68574Y-51536D01*
X68590Y-51618D01*
X68620Y-51696D01*
X68666Y-51766D01*
X68723Y-51825D01*
X68792Y-51873D01*
X68868Y-51906D01*
X68950Y-51924D01*
X69033Y-51926D01*
X69115Y-51911D01*
X69193Y-51881D01*
X69263Y-51836D01*
X69324Y-51779D01*
X69371Y-51711D01*
X69405Y-51634D01*
X69424Y-51553D01*
X69425Y-51458D01*
X69425Y-52720D01*
X58426Y-52720D01*
X58275Y-52720D01*
X58275Y-52289D01*
X58000Y-52014D01*
X57986Y-52028D01*
X57725Y-52289D01*
X57758Y-52351D01*
X57831Y-52391D01*
X57910Y-52416D01*
X57993Y-52426D01*
X58076Y-52419D01*
X58156Y-52397D01*
X58231Y-52359D01*
X58242Y-52351D01*
X58275Y-52289D01*
X58275Y-52720D01*
X51280Y-52720D01*
X51280Y-48392D01*
X51288Y-48400D01*
X51288Y-48737D01*
X51288Y-48738D01*
X51288Y-48740D01*
X51290Y-48766D01*
X51296Y-48786D01*
X51299Y-48795D01*
X51306Y-48808D01*
X51312Y-48820D01*
X51313Y-48821D01*
X51331Y-48843D01*
X51332Y-48844D01*
X51850Y-49362D01*
X51850Y-50102D01*
X51802Y-50122D01*
X51732Y-50167D01*
X51673Y-50226D01*
X51626Y-50295D01*
X51593Y-50371D01*
X51576Y-50453D01*
X51574Y-50536D01*
X51590Y-50618D01*
X51620Y-50696D01*
X51666Y-50766D01*
X51723Y-50825D01*
X51792Y-50873D01*
X51850Y-50898D01*
X51850Y-51076D01*
X51674Y-51076D01*
X51653Y-51080D01*
X51633Y-51088D01*
X51616Y-51100D01*
X51600Y-51115D01*
X51588Y-51133D01*
X51580Y-51153D01*
X51576Y-51174D01*
X51576Y-51195D01*
X51576Y-51826D01*
X51580Y-51847D01*
X51588Y-51867D01*
X51600Y-51884D01*
X51615Y-51900D01*
X51633Y-51912D01*
X51653Y-51920D01*
X51674Y-51924D01*
X51695Y-51924D01*
X52326Y-51924D01*
X52347Y-51920D01*
X52367Y-51912D01*
X52384Y-51900D01*
X52400Y-51885D01*
X52412Y-51867D01*
X52420Y-51847D01*
X52424Y-51826D01*
X52424Y-51805D01*
X52424Y-51174D01*
X52420Y-51153D01*
X52412Y-51133D01*
X52400Y-51116D01*
X52385Y-51100D01*
X52367Y-51088D01*
X52347Y-51080D01*
X52326Y-51076D01*
X52305Y-51076D01*
X52150Y-51076D01*
X52150Y-50897D01*
X52193Y-50881D01*
X52263Y-50836D01*
X52324Y-50779D01*
X52371Y-50711D01*
X52405Y-50634D01*
X52424Y-50553D01*
X52425Y-50458D01*
X52409Y-50376D01*
X52377Y-50299D01*
X52331Y-50230D01*
X52272Y-50171D01*
X52203Y-50124D01*
X52150Y-50101D01*
X52150Y-49300D01*
X52147Y-49272D01*
X52147Y-49271D01*
X52139Y-49244D01*
X52139Y-49243D01*
X52125Y-49217D01*
X52107Y-49195D01*
X52106Y-49194D01*
X52106Y-49193D01*
X51992Y-49080D01*
X52368Y-49080D01*
X52597Y-49309D01*
X52598Y-49310D01*
X52601Y-49312D01*
X52619Y-49328D01*
X52620Y-49328D01*
X52645Y-49342D01*
X52646Y-49342D01*
X52673Y-49351D01*
X52674Y-49351D01*
X52702Y-49354D01*
X52704Y-49354D01*
X57141Y-49354D01*
X57612Y-49825D01*
X57593Y-49871D01*
X57576Y-49953D01*
X57574Y-50036D01*
X57590Y-50118D01*
X57620Y-50196D01*
X57666Y-50266D01*
X57669Y-50270D01*
X56841Y-50270D01*
X56840Y-50270D01*
X56838Y-50270D01*
X56812Y-50272D01*
X56792Y-50278D01*
X56783Y-50281D01*
X56770Y-50288D01*
X56758Y-50294D01*
X56735Y-50313D01*
X56734Y-50314D01*
X56397Y-50650D01*
X56405Y-50634D01*
X56424Y-50553D01*
X56425Y-50458D01*
X56409Y-50376D01*
X56377Y-50299D01*
X56331Y-50230D01*
X56272Y-50171D01*
X56203Y-50124D01*
X56126Y-50092D01*
X56044Y-50075D01*
X55961Y-50075D01*
X55879Y-50090D01*
X55802Y-50122D01*
X55732Y-50167D01*
X55673Y-50226D01*
X55626Y-50295D01*
X55593Y-50371D01*
X55576Y-50453D01*
X55574Y-50536D01*
X55590Y-50618D01*
X55620Y-50696D01*
X55666Y-50766D01*
X55669Y-50770D01*
X55326Y-50770D01*
X55316Y-50759D01*
X55351Y-50742D01*
X55391Y-50669D01*
X55416Y-50590D01*
X55426Y-50507D01*
X55419Y-50424D01*
X55397Y-50344D01*
X55359Y-50269D01*
X55351Y-50258D01*
X55289Y-50225D01*
X55275Y-50239D01*
X55275Y-50211D01*
X55242Y-50149D01*
X55169Y-50109D01*
X55090Y-50084D01*
X55007Y-50074D01*
X54924Y-50081D01*
X54844Y-50103D01*
X54769Y-50141D01*
X54758Y-50149D01*
X54725Y-50211D01*
X55000Y-50486D01*
X55275Y-50211D01*
X55275Y-50239D01*
X55035Y-50479D01*
X55014Y-50500D01*
X55000Y-50514D01*
X54986Y-50500D01*
X54965Y-50479D01*
X54711Y-50225D01*
X54649Y-50258D01*
X54609Y-50331D01*
X54584Y-50410D01*
X54574Y-50493D01*
X54581Y-50576D01*
X54603Y-50656D01*
X54641Y-50731D01*
X54649Y-50742D01*
X54682Y-50760D01*
X54673Y-50770D01*
X54330Y-50770D01*
X54371Y-50711D01*
X54405Y-50634D01*
X54424Y-50553D01*
X54425Y-50458D01*
X54409Y-50376D01*
X54377Y-50299D01*
X54331Y-50230D01*
X54272Y-50171D01*
X54203Y-50124D01*
X54126Y-50092D01*
X54044Y-50075D01*
X53961Y-50075D01*
X53879Y-50090D01*
X53802Y-50122D01*
X53732Y-50167D01*
X53673Y-50226D01*
X53626Y-50295D01*
X53593Y-50371D01*
X53576Y-50453D01*
X53574Y-50536D01*
X53590Y-50618D01*
X53620Y-50696D01*
X53666Y-50766D01*
X53669Y-50770D01*
X53462Y-50770D01*
X53381Y-50688D01*
X53405Y-50634D01*
X53424Y-50553D01*
X53425Y-50458D01*
X53409Y-50376D01*
X53377Y-50299D01*
X53331Y-50230D01*
X53272Y-50171D01*
X53203Y-50124D01*
X53126Y-50092D01*
X53044Y-50075D01*
X52961Y-50075D01*
X52879Y-50090D01*
X52802Y-50122D01*
X52732Y-50167D01*
X52673Y-50226D01*
X52626Y-50295D01*
X52593Y-50371D01*
X52576Y-50453D01*
X52574Y-50536D01*
X52590Y-50618D01*
X52620Y-50696D01*
X52666Y-50766D01*
X52723Y-50825D01*
X52792Y-50873D01*
X52868Y-50906D01*
X52950Y-50924D01*
X53033Y-50926D01*
X53115Y-50911D01*
X53160Y-50893D01*
X53258Y-50991D01*
X53148Y-51101D01*
X53126Y-51092D01*
X53044Y-51075D01*
X52961Y-51075D01*
X52879Y-51090D01*
X52802Y-51122D01*
X52732Y-51167D01*
X52673Y-51226D01*
X52626Y-51295D01*
X52593Y-51371D01*
X52576Y-51453D01*
X52574Y-51536D01*
X52590Y-51618D01*
X52620Y-51696D01*
X52666Y-51766D01*
X52723Y-51825D01*
X52792Y-51873D01*
X52868Y-51906D01*
X52950Y-51924D01*
X53033Y-51926D01*
X53115Y-51911D01*
X53193Y-51881D01*
X53263Y-51836D01*
X53324Y-51779D01*
X53371Y-51711D01*
X53405Y-51634D01*
X53424Y-51553D01*
X53425Y-51458D01*
X53409Y-51376D01*
X53377Y-51299D01*
X53376Y-51298D01*
X53462Y-51212D01*
X53687Y-51212D01*
X53673Y-51226D01*
X53626Y-51295D01*
X53593Y-51371D01*
X53576Y-51453D01*
X53574Y-51536D01*
X53590Y-51618D01*
X53620Y-51696D01*
X53666Y-51766D01*
X53723Y-51825D01*
X53792Y-51873D01*
X53868Y-51906D01*
X53950Y-51924D01*
X54033Y-51926D01*
X54115Y-51911D01*
X54193Y-51881D01*
X54263Y-51836D01*
X54324Y-51779D01*
X54371Y-51711D01*
X54405Y-51634D01*
X54424Y-51553D01*
X54425Y-51458D01*
X54409Y-51376D01*
X54377Y-51299D01*
X54331Y-51230D01*
X54313Y-51212D01*
X54685Y-51212D01*
X54670Y-51227D01*
X54682Y-51239D01*
X54649Y-51258D01*
X54609Y-51331D01*
X54584Y-51410D01*
X54574Y-51493D01*
X54581Y-51576D01*
X54603Y-51656D01*
X54641Y-51731D01*
X54649Y-51742D01*
X54711Y-51775D01*
X54965Y-51521D01*
X54986Y-51500D01*
X55000Y-51486D01*
X55014Y-51500D01*
X55035Y-51521D01*
X55289Y-51775D01*
X55351Y-51742D01*
X55391Y-51669D01*
X55416Y-51590D01*
X55426Y-51507D01*
X55419Y-51424D01*
X55397Y-51344D01*
X55359Y-51269D01*
X55351Y-51258D01*
X55317Y-51239D01*
X55330Y-51227D01*
X55315Y-51212D01*
X55687Y-51212D01*
X55673Y-51226D01*
X55626Y-51295D01*
X55593Y-51371D01*
X55576Y-51453D01*
X55574Y-51536D01*
X55590Y-51618D01*
X55620Y-51696D01*
X55666Y-51766D01*
X55723Y-51825D01*
X55792Y-51873D01*
X55868Y-51906D01*
X55950Y-51924D01*
X56033Y-51926D01*
X56115Y-51911D01*
X56193Y-51881D01*
X56263Y-51836D01*
X56324Y-51779D01*
X56371Y-51711D01*
X56405Y-51634D01*
X56424Y-51553D01*
X56425Y-51458D01*
X56409Y-51376D01*
X56377Y-51299D01*
X56331Y-51230D01*
X56313Y-51212D01*
X56397Y-51212D01*
X56398Y-51212D01*
X56400Y-51211D01*
X56426Y-51210D01*
X56427Y-51209D01*
X56446Y-51203D01*
X56454Y-51201D01*
X56455Y-51201D01*
X56468Y-51194D01*
X56480Y-51188D01*
X56481Y-51187D01*
X56503Y-51169D01*
X56504Y-51168D01*
X56960Y-50712D01*
X57687Y-50712D01*
X57673Y-50726D01*
X57626Y-50795D01*
X57593Y-50871D01*
X57576Y-50953D01*
X57574Y-51036D01*
X57590Y-51118D01*
X57620Y-51196D01*
X57666Y-51266D01*
X57723Y-51325D01*
X57792Y-51373D01*
X57868Y-51406D01*
X57895Y-51412D01*
X57058Y-51412D01*
X57029Y-51415D01*
X57001Y-51423D01*
X56975Y-51437D01*
X56953Y-51455D01*
X56952Y-51456D01*
X56951Y-51457D01*
X56458Y-51950D01*
X55426Y-51950D01*
X55342Y-51950D01*
X55322Y-51919D01*
X55282Y-51879D01*
X55242Y-51851D01*
X55275Y-51789D01*
X55000Y-51514D01*
X54986Y-51528D01*
X54725Y-51789D01*
X54758Y-51851D01*
X54831Y-51891D01*
X54888Y-51909D01*
X54881Y-51916D01*
X54849Y-51962D01*
X54827Y-52013D01*
X54815Y-52068D01*
X54815Y-52124D01*
X54825Y-52179D01*
X54845Y-52231D01*
X54876Y-52278D01*
X54914Y-52318D01*
X54960Y-52350D01*
X55012Y-52372D01*
X55066Y-52384D01*
X55122Y-52386D01*
X55177Y-52376D01*
X55229Y-52356D01*
X55276Y-52326D01*
X55317Y-52287D01*
X55342Y-52250D01*
X56519Y-52250D01*
X56520Y-52250D01*
X56522Y-52249D01*
X56548Y-52248D01*
X56549Y-52247D01*
X56568Y-52241D01*
X56576Y-52239D01*
X56577Y-52239D01*
X56590Y-52232D01*
X56602Y-52226D01*
X56603Y-52225D01*
X56625Y-52207D01*
X56626Y-52206D01*
X57120Y-51712D01*
X57685Y-51712D01*
X57670Y-51727D01*
X57682Y-51739D01*
X57649Y-51758D01*
X57609Y-51831D01*
X57584Y-51910D01*
X57574Y-51993D01*
X57581Y-52076D01*
X57603Y-52156D01*
X57641Y-52231D01*
X57649Y-52242D01*
X57711Y-52275D01*
X57965Y-52021D01*
X57986Y-52000D01*
X58000Y-51986D01*
X58014Y-52000D01*
X58035Y-52021D01*
X58289Y-52275D01*
X58351Y-52242D01*
X58391Y-52169D01*
X58416Y-52090D01*
X58426Y-52007D01*
X58419Y-51924D01*
X58397Y-51844D01*
X58359Y-51769D01*
X58351Y-51758D01*
X58317Y-51739D01*
X58330Y-51727D01*
X58315Y-51712D01*
X63687Y-51712D01*
X63673Y-51726D01*
X63626Y-51795D01*
X63593Y-51871D01*
X63576Y-51953D01*
X63574Y-52036D01*
X63590Y-52118D01*
X63620Y-52196D01*
X63666Y-52266D01*
X63723Y-52325D01*
X63792Y-52373D01*
X63868Y-52406D01*
X63950Y-52424D01*
X64033Y-52426D01*
X64115Y-52411D01*
X64193Y-52381D01*
X64263Y-52336D01*
X64324Y-52279D01*
X64371Y-52211D01*
X64405Y-52134D01*
X64424Y-52053D01*
X64425Y-51958D01*
X64409Y-51876D01*
X64377Y-51799D01*
X64331Y-51730D01*
X64313Y-51712D01*
X65576Y-51712D01*
X65576Y-51826D01*
X65580Y-51847D01*
X65588Y-51867D01*
X65600Y-51884D01*
X65615Y-51900D01*
X65633Y-51912D01*
X65653Y-51920D01*
X65674Y-51924D01*
X65695Y-51924D01*
X66326Y-51924D01*
X66347Y-51920D01*
X66367Y-51912D01*
X66384Y-51900D01*
X66400Y-51885D01*
X66412Y-51867D01*
X66420Y-51847D01*
X66424Y-51826D01*
X66424Y-51805D01*
X66424Y-51174D01*
X66420Y-51153D01*
X66419Y-51151D01*
X66606Y-51338D01*
X66593Y-51371D01*
X66576Y-51453D01*
X66574Y-51536D01*
X66590Y-51618D01*
X66620Y-51696D01*
X66666Y-51766D01*
X66723Y-51825D01*
X66792Y-51873D01*
X66868Y-51906D01*
X66950Y-51924D01*
X67033Y-51926D01*
X67115Y-51911D01*
X67193Y-51881D01*
X67263Y-51836D01*
X67324Y-51779D01*
X67371Y-51711D01*
X67405Y-51634D01*
X67424Y-51553D01*
X67425Y-51458D01*
X67425Y-50458D01*
X67409Y-50376D01*
X67377Y-50299D01*
X67331Y-50230D01*
X67272Y-50171D01*
X67203Y-50124D01*
X67126Y-50092D01*
X67044Y-50075D01*
X66961Y-50075D01*
X66879Y-50090D01*
X66802Y-50122D01*
X66732Y-50167D01*
X66673Y-50226D01*
X66626Y-50295D01*
X66593Y-50371D01*
X66576Y-50453D01*
X66574Y-50536D01*
X66590Y-50618D01*
X66620Y-50696D01*
X66666Y-50766D01*
X66723Y-50825D01*
X66792Y-50873D01*
X66868Y-50906D01*
X66950Y-50924D01*
X67033Y-50926D01*
X67115Y-50911D01*
X67193Y-50881D01*
X67263Y-50836D01*
X67324Y-50779D01*
X67371Y-50711D01*
X67405Y-50634D01*
X67424Y-50553D01*
X67425Y-50458D01*
X67425Y-51458D01*
X67409Y-51376D01*
X67377Y-51299D01*
X67331Y-51230D01*
X67272Y-51171D01*
X67203Y-51124D01*
X67126Y-51092D01*
X67044Y-51075D01*
X66961Y-51075D01*
X66879Y-51090D01*
X66810Y-51118D01*
X66567Y-50875D01*
X66566Y-50874D01*
X66564Y-50872D01*
X66545Y-50856D01*
X66525Y-50845D01*
X66519Y-50842D01*
X66518Y-50841D01*
X66499Y-50835D01*
X66491Y-50833D01*
X66462Y-50830D01*
X66460Y-50830D01*
X66269Y-50830D01*
X66324Y-50779D01*
X66371Y-50711D01*
X66405Y-50634D01*
X66424Y-50553D01*
X66425Y-50458D01*
X66409Y-50376D01*
X66377Y-50299D01*
X66331Y-50230D01*
X66272Y-50171D01*
X66203Y-50124D01*
X66126Y-50092D01*
X66044Y-50075D01*
X65961Y-50075D01*
X65879Y-50090D01*
X65802Y-50122D01*
X65732Y-50167D01*
X65673Y-50226D01*
X65626Y-50295D01*
X65602Y-50350D01*
X64241Y-50350D01*
X64263Y-50336D01*
X64324Y-50279D01*
X64371Y-50211D01*
X64405Y-50134D01*
X64424Y-50053D01*
X64425Y-49958D01*
X64409Y-49876D01*
X64377Y-49799D01*
X64331Y-49730D01*
X64272Y-49671D01*
X64203Y-49624D01*
X64126Y-49592D01*
X64044Y-49575D01*
X63961Y-49575D01*
X63879Y-49590D01*
X63802Y-49622D01*
X63732Y-49667D01*
X63673Y-49726D01*
X63626Y-49795D01*
X63593Y-49871D01*
X63576Y-49953D01*
X63574Y-50036D01*
X63590Y-50118D01*
X63620Y-50196D01*
X63666Y-50266D01*
X63723Y-50325D01*
X63758Y-50350D01*
X62342Y-50350D01*
X62322Y-50319D01*
X62282Y-50279D01*
X62236Y-50248D01*
X62185Y-50226D01*
X63262Y-49150D01*
X63602Y-49150D01*
X63620Y-49196D01*
X63666Y-49266D01*
X63723Y-49325D01*
X63792Y-49373D01*
X63868Y-49406D01*
X63950Y-49424D01*
X64033Y-49426D01*
X64115Y-49411D01*
X64193Y-49381D01*
X64263Y-49336D01*
X64324Y-49279D01*
X64371Y-49211D01*
X64405Y-49134D01*
X64424Y-49053D01*
X64425Y-48958D01*
X64409Y-48876D01*
X64377Y-48799D01*
X64331Y-48730D01*
X64272Y-48671D01*
X64203Y-48624D01*
X64126Y-48592D01*
X64044Y-48575D01*
X63961Y-48575D01*
X63879Y-48590D01*
X63802Y-48622D01*
X63732Y-48667D01*
X63673Y-48726D01*
X63626Y-48795D01*
X63602Y-48850D01*
X63362Y-48850D01*
X63824Y-48387D01*
X63868Y-48406D01*
X63950Y-48424D01*
X64033Y-48426D01*
X64115Y-48411D01*
X64193Y-48381D01*
X64263Y-48336D01*
X64324Y-48279D01*
X64371Y-48211D01*
X64405Y-48134D01*
X64411Y-48104D01*
X64452Y-48122D01*
X64506Y-48134D01*
X64562Y-48136D01*
X64617Y-48126D01*
X64669Y-48106D01*
X64716Y-48076D01*
X64757Y-48037D01*
X64782Y-48000D01*
X65287Y-48000D01*
X67612Y-50325D01*
X67593Y-50371D01*
X67576Y-50453D01*
X67574Y-50536D01*
X67590Y-50618D01*
X67620Y-50696D01*
X67666Y-50766D01*
X67723Y-50825D01*
X67792Y-50873D01*
X67868Y-50906D01*
X67950Y-50924D01*
X68033Y-50926D01*
X68115Y-50911D01*
X68193Y-50881D01*
X68263Y-50836D01*
X68324Y-50779D01*
X68360Y-50726D01*
X68360Y-50928D01*
X68175Y-51112D01*
X68126Y-51092D01*
X68044Y-51075D01*
X67961Y-51075D01*
X67879Y-51090D01*
X67802Y-51122D01*
X67732Y-51167D01*
X67673Y-51226D01*
X67626Y-51295D01*
X67593Y-51371D01*
X67576Y-51453D01*
X67574Y-51536D01*
X67590Y-51618D01*
X67620Y-51696D01*
X67666Y-51766D01*
X67723Y-51825D01*
X67792Y-51873D01*
X67868Y-51906D01*
X67950Y-51924D01*
X68033Y-51926D01*
X68115Y-51911D01*
X68193Y-51881D01*
X68263Y-51836D01*
X68324Y-51779D01*
X68371Y-51711D01*
X68405Y-51634D01*
X68424Y-51553D01*
X68425Y-51458D01*
X68409Y-51376D01*
X68387Y-51324D01*
X68615Y-51097D01*
X68616Y-51096D01*
X68618Y-51093D01*
X68634Y-51075D01*
X68634Y-51074D01*
X68648Y-51049D01*
X68648Y-51048D01*
X68657Y-51021D01*
X68657Y-51020D01*
X68660Y-50992D01*
X68660Y-50990D01*
X68660Y-50756D01*
X68666Y-50766D01*
X68723Y-50825D01*
X68792Y-50873D01*
X68868Y-50906D01*
X68950Y-50924D01*
X69033Y-50926D01*
X69115Y-50911D01*
X69193Y-50881D01*
X69263Y-50836D01*
X69324Y-50779D01*
X69371Y-50711D01*
X69405Y-50634D01*
X69424Y-50553D01*
X69425Y-50458D01*
X69409Y-50376D01*
X69377Y-50299D01*
X69331Y-50230D01*
X69272Y-50171D01*
X69203Y-50124D01*
X69126Y-50092D01*
X69044Y-50075D01*
X68961Y-50075D01*
X68879Y-50090D01*
X68802Y-50122D01*
X68732Y-50167D01*
X68673Y-50226D01*
X68660Y-50245D01*
X68660Y-49802D01*
X69538Y-48924D01*
X69539Y-48923D01*
X69541Y-48920D01*
X69557Y-48902D01*
X69557Y-48901D01*
X69571Y-48876D01*
X69571Y-48875D01*
X69580Y-48848D01*
X69580Y-48847D01*
X69583Y-48819D01*
X69583Y-48817D01*
X69583Y-48582D01*
X69590Y-48618D01*
X69620Y-48696D01*
X69666Y-48766D01*
X69723Y-48825D01*
X69792Y-48873D01*
X69835Y-48892D01*
X69821Y-48902D01*
X69781Y-48941D01*
X69749Y-48987D01*
X69727Y-49038D01*
X69715Y-49093D01*
X69715Y-49149D01*
X69725Y-49204D01*
X69745Y-49256D01*
X69776Y-49303D01*
X69814Y-49343D01*
X69860Y-49375D01*
X69912Y-49397D01*
X69943Y-49404D01*
X69705Y-49642D01*
X69670Y-49635D01*
X69614Y-49635D01*
X69559Y-49645D01*
X69507Y-49666D01*
X69461Y-49697D01*
X69421Y-49736D01*
X69389Y-49782D01*
X69367Y-49833D01*
X69355Y-49888D01*
X69355Y-49944D01*
X69365Y-49999D01*
X69385Y-50051D01*
X69416Y-50098D01*
X69454Y-50138D01*
X69500Y-50170D01*
X69552Y-50192D01*
X69606Y-50204D01*
X69662Y-50206D01*
X69697Y-50199D01*
X69670Y-50227D01*
X69682Y-50239D01*
X69649Y-50258D01*
X69609Y-50331D01*
X69584Y-50410D01*
X69574Y-50493D01*
X69581Y-50576D01*
X69603Y-50656D01*
X69641Y-50731D01*
X69649Y-50742D01*
X69711Y-50775D01*
X69965Y-50521D01*
X69986Y-50500D01*
X70000Y-50486D01*
X70021Y-50465D01*
X70275Y-50211D01*
X70242Y-50149D01*
X70169Y-50109D01*
X70090Y-50084D01*
X70007Y-50074D01*
X69924Y-50081D01*
X69863Y-50097D01*
X69889Y-50061D01*
X69912Y-50010D01*
X69924Y-49956D01*
X69925Y-49892D01*
X69917Y-49854D01*
X70672Y-49100D01*
X70691Y-49078D01*
X70691Y-49077D01*
X70705Y-49052D01*
X70714Y-49024D01*
X70717Y-48995D01*
X70717Y-48993D01*
X70717Y-42147D01*
X70714Y-42119D01*
X70714Y-42118D01*
X70706Y-42091D01*
X70706Y-42090D01*
X70692Y-42064D01*
X70674Y-42042D01*
X70673Y-42041D01*
X70672Y-42040D01*
X70570Y-41938D01*
X70570Y-40920D01*
X70567Y-40892D01*
X70567Y-40891D01*
X70559Y-40863D01*
X70545Y-40837D01*
X70527Y-40815D01*
X70526Y-40814D01*
X70525Y-40813D01*
X70386Y-40674D01*
X70405Y-40634D01*
X70424Y-40553D01*
X70425Y-40458D01*
X70425Y-39458D01*
X70409Y-39376D01*
X70377Y-39299D01*
X70331Y-39230D01*
X70272Y-39171D01*
X70203Y-39124D01*
X70126Y-39092D01*
X70044Y-39075D01*
X69961Y-39075D01*
X69879Y-39090D01*
X69802Y-39122D01*
X69732Y-39167D01*
X69673Y-39226D01*
X69626Y-39295D01*
X69593Y-39371D01*
X69576Y-39453D01*
X69574Y-39536D01*
X69590Y-39618D01*
X69620Y-39696D01*
X69666Y-39766D01*
X69723Y-39825D01*
X69792Y-39873D01*
X69868Y-39906D01*
X69950Y-39924D01*
X70033Y-39926D01*
X70115Y-39911D01*
X70193Y-39881D01*
X70263Y-39836D01*
X70324Y-39779D01*
X70371Y-39711D01*
X70405Y-39634D01*
X70424Y-39553D01*
X70425Y-39458D01*
X70425Y-40458D01*
X70409Y-40376D01*
X70377Y-40299D01*
X70331Y-40230D01*
X70272Y-40171D01*
X70203Y-40124D01*
X70126Y-40092D01*
X70044Y-40075D01*
X69961Y-40075D01*
X69879Y-40090D01*
X69802Y-40122D01*
X69732Y-40167D01*
X69673Y-40226D01*
X69626Y-40295D01*
X69593Y-40371D01*
X69576Y-40453D01*
X69574Y-40536D01*
X69590Y-40618D01*
X69620Y-40696D01*
X69666Y-40766D01*
X69723Y-40825D01*
X69792Y-40873D01*
X69868Y-40906D01*
X69950Y-40924D01*
X70033Y-40926D01*
X70115Y-40911D01*
X70175Y-40887D01*
X70270Y-40982D01*
X70270Y-41169D01*
X70203Y-41124D01*
X70126Y-41092D01*
X70044Y-41075D01*
X69961Y-41075D01*
X69879Y-41090D01*
X69802Y-41122D01*
X69732Y-41167D01*
X69673Y-41226D01*
X69626Y-41295D01*
X69593Y-41371D01*
X69576Y-41453D01*
X69574Y-41536D01*
X69590Y-41618D01*
X69620Y-41696D01*
X69666Y-41766D01*
X69723Y-41825D01*
X69792Y-41873D01*
X69856Y-41900D01*
X69858Y-41908D01*
X69861Y-41917D01*
X69868Y-41930D01*
X69874Y-41942D01*
X69875Y-41943D01*
X69893Y-41965D01*
X69894Y-41966D01*
X70003Y-42075D01*
X69961Y-42075D01*
X69879Y-42090D01*
X69802Y-42122D01*
X69732Y-42167D01*
X69673Y-42226D01*
X69626Y-42295D01*
X69593Y-42371D01*
X69576Y-42453D01*
X69574Y-42536D01*
X69590Y-42618D01*
X69620Y-42696D01*
X69666Y-42766D01*
X69723Y-42825D01*
X69792Y-42873D01*
X69868Y-42906D01*
X69950Y-42924D01*
X70033Y-42926D01*
X70115Y-42911D01*
X70193Y-42881D01*
X70263Y-42836D01*
X70275Y-42824D01*
X70275Y-43174D01*
X70272Y-43171D01*
X70203Y-43124D01*
X70126Y-43092D01*
X70044Y-43075D01*
X69961Y-43075D01*
X69879Y-43090D01*
X69802Y-43122D01*
X69732Y-43167D01*
X69691Y-43207D01*
X69682Y-43195D01*
X69681Y-43194D01*
X69382Y-42895D01*
X69381Y-42894D01*
X69379Y-42892D01*
X69360Y-42876D01*
X69340Y-42865D01*
X69334Y-42862D01*
X69333Y-42861D01*
X69314Y-42855D01*
X69306Y-42853D01*
X69277Y-42850D01*
X69275Y-42850D01*
X69241Y-42850D01*
X69263Y-42836D01*
X69324Y-42779D01*
X69371Y-42711D01*
X69405Y-42634D01*
X69424Y-42553D01*
X69425Y-42458D01*
X69425Y-41458D01*
X69425Y-40458D01*
X69424Y-40452D01*
X69424Y-39826D01*
X69424Y-39805D01*
X69424Y-39174D01*
X69420Y-39153D01*
X69412Y-39133D01*
X69400Y-39116D01*
X69385Y-39100D01*
X69367Y-39088D01*
X69347Y-39080D01*
X69326Y-39076D01*
X69305Y-39076D01*
X68674Y-39076D01*
X68653Y-39080D01*
X68633Y-39088D01*
X68616Y-39100D01*
X68600Y-39115D01*
X68588Y-39133D01*
X68580Y-39153D01*
X68576Y-39174D01*
X68576Y-39195D01*
X68576Y-39826D01*
X68580Y-39847D01*
X68588Y-39867D01*
X68600Y-39884D01*
X68615Y-39900D01*
X68633Y-39912D01*
X68653Y-39920D01*
X68674Y-39924D01*
X68695Y-39924D01*
X69326Y-39924D01*
X69347Y-39920D01*
X69367Y-39912D01*
X69384Y-39900D01*
X69400Y-39885D01*
X69412Y-39867D01*
X69420Y-39847D01*
X69424Y-39826D01*
X69424Y-40452D01*
X69409Y-40376D01*
X69377Y-40299D01*
X69331Y-40230D01*
X69272Y-40171D01*
X69203Y-40124D01*
X69126Y-40092D01*
X69044Y-40075D01*
X68961Y-40075D01*
X68879Y-40090D01*
X68802Y-40122D01*
X68732Y-40167D01*
X68673Y-40226D01*
X68626Y-40295D01*
X68593Y-40371D01*
X68576Y-40453D01*
X68574Y-40536D01*
X68590Y-40618D01*
X68620Y-40696D01*
X68666Y-40766D01*
X68723Y-40825D01*
X68792Y-40873D01*
X68868Y-40906D01*
X68950Y-40924D01*
X69033Y-40926D01*
X69115Y-40911D01*
X69193Y-40881D01*
X69263Y-40836D01*
X69324Y-40779D01*
X69371Y-40711D01*
X69405Y-40634D01*
X69424Y-40553D01*
X69425Y-40458D01*
X69425Y-41458D01*
X69409Y-41376D01*
X69377Y-41299D01*
X69331Y-41230D01*
X69272Y-41171D01*
X69203Y-41124D01*
X69126Y-41092D01*
X69044Y-41075D01*
X68961Y-41075D01*
X68879Y-41090D01*
X68802Y-41122D01*
X68732Y-41167D01*
X68673Y-41226D01*
X68626Y-41295D01*
X68593Y-41371D01*
X68576Y-41453D01*
X68574Y-41536D01*
X68590Y-41618D01*
X68620Y-41696D01*
X68666Y-41766D01*
X68723Y-41825D01*
X68792Y-41873D01*
X68868Y-41906D01*
X68950Y-41924D01*
X69033Y-41926D01*
X69115Y-41911D01*
X69193Y-41881D01*
X69263Y-41836D01*
X69324Y-41779D01*
X69371Y-41711D01*
X69405Y-41634D01*
X69424Y-41553D01*
X69425Y-41458D01*
X69425Y-42458D01*
X69409Y-42376D01*
X69377Y-42299D01*
X69331Y-42230D01*
X69272Y-42171D01*
X69203Y-42124D01*
X69126Y-42092D01*
X69044Y-42075D01*
X68961Y-42075D01*
X68879Y-42090D01*
X68802Y-42122D01*
X68732Y-42167D01*
X68673Y-42226D01*
X68626Y-42295D01*
X68602Y-42350D01*
X67682Y-42350D01*
X64590Y-39258D01*
X64590Y-38841D01*
X64590Y-38840D01*
X64587Y-38812D01*
X64587Y-38811D01*
X64579Y-38784D01*
X64579Y-38783D01*
X64565Y-38758D01*
X64565Y-38757D01*
X64550Y-38739D01*
X64547Y-38735D01*
X64546Y-38734D01*
X64227Y-38415D01*
X64226Y-38414D01*
X64224Y-38412D01*
X64205Y-38396D01*
X64185Y-38385D01*
X64183Y-38384D01*
X64193Y-38381D01*
X64263Y-38336D01*
X64324Y-38279D01*
X64371Y-38211D01*
X64405Y-38134D01*
X64424Y-38053D01*
X64425Y-37958D01*
X64425Y-36958D01*
X64409Y-36876D01*
X64377Y-36799D01*
X64331Y-36730D01*
X64272Y-36671D01*
X64203Y-36624D01*
X64126Y-36592D01*
X64044Y-36575D01*
X63961Y-36575D01*
X63879Y-36590D01*
X63802Y-36622D01*
X63732Y-36667D01*
X63673Y-36726D01*
X63626Y-36795D01*
X63593Y-36871D01*
X63576Y-36953D01*
X63574Y-37036D01*
X63590Y-37118D01*
X63620Y-37196D01*
X63666Y-37266D01*
X63723Y-37325D01*
X63792Y-37373D01*
X63868Y-37406D01*
X63950Y-37424D01*
X64033Y-37426D01*
X64115Y-37411D01*
X64193Y-37381D01*
X64263Y-37336D01*
X64324Y-37279D01*
X64371Y-37211D01*
X64405Y-37134D01*
X64424Y-37053D01*
X64425Y-36958D01*
X64425Y-37958D01*
X64409Y-37876D01*
X64377Y-37799D01*
X64331Y-37730D01*
X64272Y-37671D01*
X64203Y-37624D01*
X64126Y-37592D01*
X64044Y-37575D01*
X63961Y-37575D01*
X63879Y-37590D01*
X63802Y-37622D01*
X63732Y-37667D01*
X63673Y-37726D01*
X63626Y-37795D01*
X63593Y-37871D01*
X63576Y-37953D01*
X63574Y-38036D01*
X63590Y-38118D01*
X63620Y-38196D01*
X63666Y-38266D01*
X63723Y-38325D01*
X63787Y-38370D01*
X59582Y-38370D01*
X58424Y-37212D01*
X58424Y-36674D01*
X58420Y-36653D01*
X58412Y-36633D01*
X58400Y-36616D01*
X58385Y-36600D01*
X58367Y-36588D01*
X58347Y-36580D01*
X58326Y-36576D01*
X58305Y-36576D01*
X57674Y-36576D01*
X57653Y-36580D01*
X57633Y-36588D01*
X57616Y-36600D01*
X57600Y-36615D01*
X57588Y-36633D01*
X57580Y-36653D01*
X57576Y-36674D01*
X57576Y-36695D01*
X57576Y-37326D01*
X57580Y-37347D01*
X57588Y-37367D01*
X57600Y-37384D01*
X57615Y-37400D01*
X57633Y-37412D01*
X57653Y-37420D01*
X57674Y-37424D01*
X57695Y-37424D01*
X58212Y-37424D01*
X59138Y-38350D01*
X58241Y-38350D01*
X58263Y-38336D01*
X58324Y-38279D01*
X58371Y-38211D01*
X58405Y-38134D01*
X58424Y-38053D01*
X58425Y-37958D01*
X58409Y-37876D01*
X58377Y-37799D01*
X58331Y-37730D01*
X58272Y-37671D01*
X58203Y-37624D01*
X58126Y-37592D01*
X58044Y-37575D01*
X57961Y-37575D01*
X57879Y-37590D01*
X57802Y-37622D01*
X57732Y-37667D01*
X57673Y-37726D01*
X57626Y-37795D01*
X57593Y-37871D01*
X57576Y-37953D01*
X57574Y-38036D01*
X57590Y-38118D01*
X57620Y-38196D01*
X57666Y-38266D01*
X57723Y-38325D01*
X57758Y-38350D01*
X57642Y-38350D01*
X57622Y-38319D01*
X57582Y-38279D01*
X57536Y-38248D01*
X57485Y-38226D01*
X57430Y-38215D01*
X57374Y-38215D01*
X57319Y-38225D01*
X57267Y-38246D01*
X57221Y-38277D01*
X57181Y-38316D01*
X57149Y-38362D01*
X57127Y-38413D01*
X57115Y-38468D01*
X57115Y-38524D01*
X57125Y-38579D01*
X57145Y-38631D01*
X57176Y-38678D01*
X57214Y-38718D01*
X57260Y-38750D01*
X57312Y-38772D01*
X57366Y-38784D01*
X57422Y-38786D01*
X57477Y-38776D01*
X57529Y-38756D01*
X57576Y-38726D01*
X57617Y-38687D01*
X57642Y-38650D01*
X57758Y-38650D01*
X57732Y-38667D01*
X57673Y-38726D01*
X57626Y-38795D01*
X57593Y-38871D01*
X57576Y-38953D01*
X57574Y-39036D01*
X57590Y-39118D01*
X57620Y-39196D01*
X57666Y-39266D01*
X57723Y-39325D01*
X57792Y-39373D01*
X57794Y-39373D01*
X57794Y-39374D01*
X57238Y-39930D01*
X53425Y-39930D01*
X53425Y-39458D01*
X53409Y-39376D01*
X53377Y-39299D01*
X53331Y-39230D01*
X53272Y-39171D01*
X53203Y-39124D01*
X53126Y-39092D01*
X53044Y-39075D01*
X52961Y-39075D01*
X52879Y-39090D01*
X52802Y-39122D01*
X52732Y-39167D01*
X52673Y-39226D01*
X52626Y-39295D01*
X52593Y-39371D01*
X52576Y-39453D01*
X52574Y-39536D01*
X52590Y-39618D01*
X52620Y-39696D01*
X52666Y-39766D01*
X52723Y-39825D01*
X52792Y-39873D01*
X52868Y-39906D01*
X52950Y-39924D01*
X53033Y-39926D01*
X53115Y-39911D01*
X53193Y-39881D01*
X53263Y-39836D01*
X53324Y-39779D01*
X53371Y-39711D01*
X53405Y-39634D01*
X53424Y-39553D01*
X53425Y-39458D01*
X53425Y-39930D01*
X51982Y-39930D01*
X51988Y-39924D01*
X52326Y-39924D01*
X52347Y-39920D01*
X52367Y-39912D01*
X52384Y-39900D01*
X52400Y-39885D01*
X52412Y-39867D01*
X52420Y-39847D01*
X52424Y-39826D01*
X52424Y-39805D01*
X52424Y-39174D01*
X52420Y-39153D01*
X52412Y-39133D01*
X52400Y-39116D01*
X52385Y-39100D01*
X52367Y-39088D01*
X52347Y-39080D01*
X52326Y-39076D01*
X52305Y-39076D01*
X51674Y-39076D01*
X51653Y-39080D01*
X51633Y-39088D01*
X51616Y-39100D01*
X51600Y-39115D01*
X51588Y-39133D01*
X51580Y-39153D01*
X51576Y-39174D01*
X51576Y-39195D01*
X51576Y-39826D01*
X51580Y-39847D01*
X51588Y-39867D01*
X51600Y-39884D01*
X51601Y-39885D01*
X51332Y-40156D01*
X51330Y-40157D01*
X51314Y-40177D01*
X51303Y-40196D01*
X51299Y-40204D01*
X51293Y-40223D01*
X51291Y-40231D01*
X51288Y-40260D01*
X51288Y-40262D01*
X51288Y-40757D01*
X51288Y-40758D01*
X51288Y-40760D01*
X51290Y-40786D01*
X51296Y-40806D01*
X51299Y-40815D01*
X51306Y-40828D01*
X51312Y-40840D01*
X51313Y-40841D01*
X51331Y-40863D01*
X51332Y-40864D01*
X51430Y-40962D01*
X51430Y-42657D01*
X51280Y-42807D01*
X51280Y-36280D01*
X70720Y-36280D01*
X70720Y-52720D01*
X70720Y-52720D01*
G37*
X70720Y-52720D02*
X70426Y-52720D01*
X70426Y-51507D01*
X70426Y-50507D01*
X70419Y-50424D01*
X70397Y-50344D01*
X70359Y-50269D01*
X70351Y-50258D01*
X70289Y-50225D01*
X70014Y-50500D01*
X70289Y-50775D01*
X70351Y-50742D01*
X70391Y-50669D01*
X70416Y-50590D01*
X70426Y-50507D01*
X70426Y-51507D01*
X70419Y-51424D01*
X70397Y-51344D01*
X70359Y-51269D01*
X70351Y-51258D01*
X70289Y-51225D01*
X70275Y-51239D01*
X70275Y-51211D01*
X70275Y-50789D01*
X70000Y-50514D01*
X69986Y-50528D01*
X69725Y-50789D01*
X69758Y-50851D01*
X69831Y-50891D01*
X69910Y-50916D01*
X69993Y-50926D01*
X70076Y-50919D01*
X70156Y-50897D01*
X70231Y-50859D01*
X70242Y-50851D01*
X70275Y-50789D01*
X70275Y-51211D01*
X70242Y-51149D01*
X70169Y-51109D01*
X70090Y-51084D01*
X70007Y-51074D01*
X69924Y-51081D01*
X69844Y-51103D01*
X69769Y-51141D01*
X69758Y-51149D01*
X69725Y-51211D01*
X70000Y-51486D01*
X70275Y-51211D01*
X70275Y-51239D01*
X70014Y-51500D01*
X70289Y-51775D01*
X70351Y-51742D01*
X70391Y-51669D01*
X70416Y-51590D01*
X70426Y-51507D01*
X70426Y-52720D01*
X70275Y-52720D01*
X70275Y-51789D01*
X70000Y-51514D01*
X69986Y-51528D01*
X69986Y-51500D01*
X69711Y-51225D01*
X69649Y-51258D01*
X69609Y-51331D01*
X69584Y-51410D01*
X69574Y-51493D01*
X69581Y-51576D01*
X69603Y-51656D01*
X69641Y-51731D01*
X69649Y-51742D01*
X69711Y-51775D01*
X69986Y-51500D01*
X69986Y-51528D01*
X69725Y-51789D01*
X69758Y-51851D01*
X69831Y-51891D01*
X69910Y-51916D01*
X69993Y-51926D01*
X70076Y-51919D01*
X70156Y-51897D01*
X70231Y-51859D01*
X70242Y-51851D01*
X70275Y-51789D01*
X70275Y-52720D01*
X69425Y-52720D01*
X69425Y-51458D01*
X69409Y-51376D01*
X69377Y-51299D01*
X69331Y-51230D01*
X69272Y-51171D01*
X69203Y-51124D01*
X69126Y-51092D01*
X69044Y-51075D01*
X68961Y-51075D01*
X68879Y-51090D01*
X68802Y-51122D01*
X68732Y-51167D01*
X68673Y-51226D01*
X68626Y-51295D01*
X68593Y-51371D01*
X68576Y-51453D01*
X68574Y-51536D01*
X68590Y-51618D01*
X68620Y-51696D01*
X68666Y-51766D01*
X68723Y-51825D01*
X68792Y-51873D01*
X68868Y-51906D01*
X68950Y-51924D01*
X69033Y-51926D01*
X69115Y-51911D01*
X69193Y-51881D01*
X69263Y-51836D01*
X69324Y-51779D01*
X69371Y-51711D01*
X69405Y-51634D01*
X69424Y-51553D01*
X69425Y-51458D01*
X69425Y-52720D01*
X58426Y-52720D01*
X58275Y-52720D01*
X58275Y-52289D01*
X58000Y-52014D01*
X57986Y-52028D01*
X57725Y-52289D01*
X57758Y-52351D01*
X57831Y-52391D01*
X57910Y-52416D01*
X57993Y-52426D01*
X58076Y-52419D01*
X58156Y-52397D01*
X58231Y-52359D01*
X58242Y-52351D01*
X58275Y-52289D01*
X58275Y-52720D01*
X51280Y-52720D01*
X51280Y-48392D01*
X51288Y-48400D01*
X51288Y-48737D01*
X51288Y-48738D01*
X51288Y-48740D01*
X51290Y-48766D01*
X51296Y-48786D01*
X51299Y-48795D01*
X51306Y-48808D01*
X51312Y-48820D01*
X51313Y-48821D01*
X51331Y-48843D01*
X51332Y-48844D01*
X51850Y-49362D01*
X51850Y-50102D01*
X51802Y-50122D01*
X51732Y-50167D01*
X51673Y-50226D01*
X51626Y-50295D01*
X51593Y-50371D01*
X51576Y-50453D01*
X51574Y-50536D01*
X51590Y-50618D01*
X51620Y-50696D01*
X51666Y-50766D01*
X51723Y-50825D01*
X51792Y-50873D01*
X51850Y-50898D01*
X51850Y-51076D01*
X51674Y-51076D01*
X51653Y-51080D01*
X51633Y-51088D01*
X51616Y-51100D01*
X51600Y-51115D01*
X51588Y-51133D01*
X51580Y-51153D01*
X51576Y-51174D01*
X51576Y-51195D01*
X51576Y-51826D01*
X51580Y-51847D01*
X51588Y-51867D01*
X51600Y-51884D01*
X51615Y-51900D01*
X51633Y-51912D01*
X51653Y-51920D01*
X51674Y-51924D01*
X51695Y-51924D01*
X52326Y-51924D01*
X52347Y-51920D01*
X52367Y-51912D01*
X52384Y-51900D01*
X52400Y-51885D01*
X52412Y-51867D01*
X52420Y-51847D01*
X52424Y-51826D01*
X52424Y-51805D01*
X52424Y-51174D01*
X52420Y-51153D01*
X52412Y-51133D01*
X52400Y-51116D01*
X52385Y-51100D01*
X52367Y-51088D01*
X52347Y-51080D01*
X52326Y-51076D01*
X52305Y-51076D01*
X52150Y-51076D01*
X52150Y-50897D01*
X52193Y-50881D01*
X52263Y-50836D01*
X52324Y-50779D01*
X52371Y-50711D01*
X52405Y-50634D01*
X52424Y-50553D01*
X52425Y-50458D01*
X52409Y-50376D01*
X52377Y-50299D01*
X52331Y-50230D01*
X52272Y-50171D01*
X52203Y-50124D01*
X52150Y-50101D01*
X52150Y-49300D01*
X52147Y-49272D01*
X52147Y-49271D01*
X52139Y-49244D01*
X52139Y-49243D01*
X52125Y-49217D01*
X52107Y-49195D01*
X52106Y-49194D01*
X52106Y-49193D01*
X51992Y-49080D01*
X52368Y-49080D01*
X52597Y-49309D01*
X52598Y-49310D01*
X52601Y-49312D01*
X52619Y-49328D01*
X52620Y-49328D01*
X52645Y-49342D01*
X52646Y-49342D01*
X52673Y-49351D01*
X52674Y-49351D01*
X52702Y-49354D01*
X52704Y-49354D01*
X57141Y-49354D01*
X57612Y-49825D01*
X57593Y-49871D01*
X57576Y-49953D01*
X57574Y-50036D01*
X57590Y-50118D01*
X57620Y-50196D01*
X57666Y-50266D01*
X57669Y-50270D01*
X56841Y-50270D01*
X56840Y-50270D01*
X56838Y-50270D01*
X56812Y-50272D01*
X56792Y-50278D01*
X56783Y-50281D01*
X56770Y-50288D01*
X56758Y-50294D01*
X56735Y-50313D01*
X56734Y-50314D01*
X56397Y-50650D01*
X56405Y-50634D01*
X56424Y-50553D01*
X56425Y-50458D01*
X56409Y-50376D01*
X56377Y-50299D01*
X56331Y-50230D01*
X56272Y-50171D01*
X56203Y-50124D01*
X56126Y-50092D01*
X56044Y-50075D01*
X55961Y-50075D01*
X55879Y-50090D01*
X55802Y-50122D01*
X55732Y-50167D01*
X55673Y-50226D01*
X55626Y-50295D01*
X55593Y-50371D01*
X55576Y-50453D01*
X55574Y-50536D01*
X55590Y-50618D01*
X55620Y-50696D01*
X55666Y-50766D01*
X55669Y-50770D01*
X55326Y-50770D01*
X55316Y-50759D01*
X55351Y-50742D01*
X55391Y-50669D01*
X55416Y-50590D01*
X55426Y-50507D01*
X55419Y-50424D01*
X55397Y-50344D01*
X55359Y-50269D01*
X55351Y-50258D01*
X55289Y-50225D01*
X55275Y-50239D01*
X55275Y-50211D01*
X55242Y-50149D01*
X55169Y-50109D01*
X55090Y-50084D01*
X55007Y-50074D01*
X54924Y-50081D01*
X54844Y-50103D01*
X54769Y-50141D01*
X54758Y-50149D01*
X54725Y-50211D01*
X55000Y-50486D01*
X55275Y-50211D01*
X55275Y-50239D01*
X55035Y-50479D01*
X55014Y-50500D01*
X55000Y-50514D01*
X54986Y-50500D01*
X54965Y-50479D01*
X54711Y-50225D01*
X54649Y-50258D01*
X54609Y-50331D01*
X54584Y-50410D01*
X54574Y-50493D01*
X54581Y-50576D01*
X54603Y-50656D01*
X54641Y-50731D01*
X54649Y-50742D01*
X54682Y-50760D01*
X54673Y-50770D01*
X54330Y-50770D01*
X54371Y-50711D01*
X54405Y-50634D01*
X54424Y-50553D01*
X54425Y-50458D01*
X54409Y-50376D01*
X54377Y-50299D01*
X54331Y-50230D01*
X54272Y-50171D01*
X54203Y-50124D01*
X54126Y-50092D01*
X54044Y-50075D01*
X53961Y-50075D01*
X53879Y-50090D01*
X53802Y-50122D01*
X53732Y-50167D01*
X53673Y-50226D01*
X53626Y-50295D01*
X53593Y-50371D01*
X53576Y-50453D01*
X53574Y-50536D01*
X53590Y-50618D01*
X53620Y-50696D01*
X53666Y-50766D01*
X53669Y-50770D01*
X53462Y-50770D01*
X53381Y-50688D01*
X53405Y-50634D01*
X53424Y-50553D01*
X53425Y-50458D01*
X53409Y-50376D01*
X53377Y-50299D01*
X53331Y-50230D01*
X53272Y-50171D01*
X53203Y-50124D01*
X53126Y-50092D01*
X53044Y-50075D01*
X52961Y-50075D01*
X52879Y-50090D01*
X52802Y-50122D01*
X52732Y-50167D01*
X52673Y-50226D01*
X52626Y-50295D01*
X52593Y-50371D01*
X52576Y-50453D01*
X52574Y-50536D01*
X52590Y-50618D01*
X52620Y-50696D01*
X52666Y-50766D01*
X52723Y-50825D01*
X52792Y-50873D01*
X52868Y-50906D01*
X52950Y-50924D01*
X53033Y-50926D01*
X53115Y-50911D01*
X53160Y-50893D01*
X53258Y-50991D01*
X53148Y-51101D01*
X53126Y-51092D01*
X53044Y-51075D01*
X52961Y-51075D01*
X52879Y-51090D01*
X52802Y-51122D01*
X52732Y-51167D01*
X52673Y-51226D01*
X52626Y-51295D01*
X52593Y-51371D01*
X52576Y-51453D01*
X52574Y-51536D01*
X52590Y-51618D01*
X52620Y-51696D01*
X52666Y-51766D01*
X52723Y-51825D01*
X52792Y-51873D01*
X52868Y-51906D01*
X52950Y-51924D01*
X53033Y-51926D01*
X53115Y-51911D01*
X53193Y-51881D01*
X53263Y-51836D01*
X53324Y-51779D01*
X53371Y-51711D01*
X53405Y-51634D01*
X53424Y-51553D01*
X53425Y-51458D01*
X53409Y-51376D01*
X53377Y-51299D01*
X53376Y-51298D01*
X53462Y-51212D01*
X53687Y-51212D01*
X53673Y-51226D01*
X53626Y-51295D01*
X53593Y-51371D01*
X53576Y-51453D01*
X53574Y-51536D01*
X53590Y-51618D01*
X53620Y-51696D01*
X53666Y-51766D01*
X53723Y-51825D01*
X53792Y-51873D01*
X53868Y-51906D01*
X53950Y-51924D01*
X54033Y-51926D01*
X54115Y-51911D01*
X54193Y-51881D01*
X54263Y-51836D01*
X54324Y-51779D01*
X54371Y-51711D01*
X54405Y-51634D01*
X54424Y-51553D01*
X54425Y-51458D01*
X54409Y-51376D01*
X54377Y-51299D01*
X54331Y-51230D01*
X54313Y-51212D01*
X54685Y-51212D01*
X54670Y-51227D01*
X54682Y-51239D01*
X54649Y-51258D01*
X54609Y-51331D01*
X54584Y-51410D01*
X54574Y-51493D01*
X54581Y-51576D01*
X54603Y-51656D01*
X54641Y-51731D01*
X54649Y-51742D01*
X54711Y-51775D01*
X54965Y-51521D01*
X54986Y-51500D01*
X55000Y-51486D01*
X55014Y-51500D01*
X55035Y-51521D01*
X55289Y-51775D01*
X55351Y-51742D01*
X55391Y-51669D01*
X55416Y-51590D01*
X55426Y-51507D01*
X55419Y-51424D01*
X55397Y-51344D01*
X55359Y-51269D01*
X55351Y-51258D01*
X55317Y-51239D01*
X55330Y-51227D01*
X55315Y-51212D01*
X55687Y-51212D01*
X55673Y-51226D01*
X55626Y-51295D01*
X55593Y-51371D01*
X55576Y-51453D01*
X55574Y-51536D01*
X55590Y-51618D01*
X55620Y-51696D01*
X55666Y-51766D01*
X55723Y-51825D01*
X55792Y-51873D01*
X55868Y-51906D01*
X55950Y-51924D01*
X56033Y-51926D01*
X56115Y-51911D01*
X56193Y-51881D01*
X56263Y-51836D01*
X56324Y-51779D01*
X56371Y-51711D01*
X56405Y-51634D01*
X56424Y-51553D01*
X56425Y-51458D01*
X56409Y-51376D01*
X56377Y-51299D01*
X56331Y-51230D01*
X56313Y-51212D01*
X56397Y-51212D01*
X56398Y-51212D01*
X56400Y-51211D01*
X56426Y-51210D01*
X56427Y-51209D01*
X56446Y-51203D01*
X56454Y-51201D01*
X56455Y-51201D01*
X56468Y-51194D01*
X56480Y-51188D01*
X56481Y-51187D01*
X56503Y-51169D01*
X56504Y-51168D01*
X56960Y-50712D01*
X57687Y-50712D01*
X57673Y-50726D01*
X57626Y-50795D01*
X57593Y-50871D01*
X57576Y-50953D01*
X57574Y-51036D01*
X57590Y-51118D01*
X57620Y-51196D01*
X57666Y-51266D01*
X57723Y-51325D01*
X57792Y-51373D01*
X57868Y-51406D01*
X57895Y-51412D01*
X57058Y-51412D01*
X57029Y-51415D01*
X57001Y-51423D01*
X56975Y-51437D01*
X56953Y-51455D01*
X56952Y-51456D01*
X56951Y-51457D01*
X56458Y-51950D01*
X55426Y-51950D01*
X55342Y-51950D01*
X55322Y-51919D01*
X55282Y-51879D01*
X55242Y-51851D01*
X55275Y-51789D01*
X55000Y-51514D01*
X54986Y-51528D01*
X54725Y-51789D01*
X54758Y-51851D01*
X54831Y-51891D01*
X54888Y-51909D01*
X54881Y-51916D01*
X54849Y-51962D01*
X54827Y-52013D01*
X54815Y-52068D01*
X54815Y-52124D01*
X54825Y-52179D01*
X54845Y-52231D01*
X54876Y-52278D01*
X54914Y-52318D01*
X54960Y-52350D01*
X55012Y-52372D01*
X55066Y-52384D01*
X55122Y-52386D01*
X55177Y-52376D01*
X55229Y-52356D01*
X55276Y-52326D01*
X55317Y-52287D01*
X55342Y-52250D01*
X56519Y-52250D01*
X56520Y-52250D01*
X56522Y-52249D01*
X56548Y-52248D01*
X56549Y-52247D01*
X56568Y-52241D01*
X56576Y-52239D01*
X56577Y-52239D01*
X56590Y-52232D01*
X56602Y-52226D01*
X56603Y-52225D01*
X56625Y-52207D01*
X56626Y-52206D01*
X57120Y-51712D01*
X57685Y-51712D01*
X57670Y-51727D01*
X57682Y-51739D01*
X57649Y-51758D01*
X57609Y-51831D01*
X57584Y-51910D01*
X57574Y-51993D01*
X57581Y-52076D01*
X57603Y-52156D01*
X57641Y-52231D01*
X57649Y-52242D01*
X57711Y-52275D01*
X57965Y-52021D01*
X57986Y-52000D01*
X58000Y-51986D01*
X58014Y-52000D01*
X58035Y-52021D01*
X58289Y-52275D01*
X58351Y-52242D01*
X58391Y-52169D01*
X58416Y-52090D01*
X58426Y-52007D01*
X58419Y-51924D01*
X58397Y-51844D01*
X58359Y-51769D01*
X58351Y-51758D01*
X58317Y-51739D01*
X58330Y-51727D01*
X58315Y-51712D01*
X63687Y-51712D01*
X63673Y-51726D01*
X63626Y-51795D01*
X63593Y-51871D01*
X63576Y-51953D01*
X63574Y-52036D01*
X63590Y-52118D01*
X63620Y-52196D01*
X63666Y-52266D01*
X63723Y-52325D01*
X63792Y-52373D01*
X63868Y-52406D01*
X63950Y-52424D01*
X64033Y-52426D01*
X64115Y-52411D01*
X64193Y-52381D01*
X64263Y-52336D01*
X64324Y-52279D01*
X64371Y-52211D01*
X64405Y-52134D01*
X64424Y-52053D01*
X64425Y-51958D01*
X64409Y-51876D01*
X64377Y-51799D01*
X64331Y-51730D01*
X64313Y-51712D01*
X65576Y-51712D01*
X65576Y-51826D01*
X65580Y-51847D01*
X65588Y-51867D01*
X65600Y-51884D01*
X65615Y-51900D01*
X65633Y-51912D01*
X65653Y-51920D01*
X65674Y-51924D01*
X65695Y-51924D01*
X66326Y-51924D01*
X66347Y-51920D01*
X66367Y-51912D01*
X66384Y-51900D01*
X66400Y-51885D01*
X66412Y-51867D01*
X66420Y-51847D01*
X66424Y-51826D01*
X66424Y-51805D01*
X66424Y-51174D01*
X66420Y-51153D01*
X66419Y-51151D01*
X66606Y-51338D01*
X66593Y-51371D01*
X66576Y-51453D01*
X66574Y-51536D01*
X66590Y-51618D01*
X66620Y-51696D01*
X66666Y-51766D01*
X66723Y-51825D01*
X66792Y-51873D01*
X66868Y-51906D01*
X66950Y-51924D01*
X67033Y-51926D01*
X67115Y-51911D01*
X67193Y-51881D01*
X67263Y-51836D01*
X67324Y-51779D01*
X67371Y-51711D01*
X67405Y-51634D01*
X67424Y-51553D01*
X67425Y-51458D01*
X67425Y-50458D01*
X67409Y-50376D01*
X67377Y-50299D01*
X67331Y-50230D01*
X67272Y-50171D01*
X67203Y-50124D01*
X67126Y-50092D01*
X67044Y-50075D01*
X66961Y-50075D01*
X66879Y-50090D01*
X66802Y-50122D01*
X66732Y-50167D01*
X66673Y-50226D01*
X66626Y-50295D01*
X66593Y-50371D01*
X66576Y-50453D01*
X66574Y-50536D01*
X66590Y-50618D01*
X66620Y-50696D01*
X66666Y-50766D01*
X66723Y-50825D01*
X66792Y-50873D01*
X66868Y-50906D01*
X66950Y-50924D01*
X67033Y-50926D01*
X67115Y-50911D01*
X67193Y-50881D01*
X67263Y-50836D01*
X67324Y-50779D01*
X67371Y-50711D01*
X67405Y-50634D01*
X67424Y-50553D01*
X67425Y-50458D01*
X67425Y-51458D01*
X67409Y-51376D01*
X67377Y-51299D01*
X67331Y-51230D01*
X67272Y-51171D01*
X67203Y-51124D01*
X67126Y-51092D01*
X67044Y-51075D01*
X66961Y-51075D01*
X66879Y-51090D01*
X66810Y-51118D01*
X66567Y-50875D01*
X66566Y-50874D01*
X66564Y-50872D01*
X66545Y-50856D01*
X66525Y-50845D01*
X66519Y-50842D01*
X66518Y-50841D01*
X66499Y-50835D01*
X66491Y-50833D01*
X66462Y-50830D01*
X66460Y-50830D01*
X66269Y-50830D01*
X66324Y-50779D01*
X66371Y-50711D01*
X66405Y-50634D01*
X66424Y-50553D01*
X66425Y-50458D01*
X66409Y-50376D01*
X66377Y-50299D01*
X66331Y-50230D01*
X66272Y-50171D01*
X66203Y-50124D01*
X66126Y-50092D01*
X66044Y-50075D01*
X65961Y-50075D01*
X65879Y-50090D01*
X65802Y-50122D01*
X65732Y-50167D01*
X65673Y-50226D01*
X65626Y-50295D01*
X65602Y-50350D01*
X64241Y-50350D01*
X64263Y-50336D01*
X64324Y-50279D01*
X64371Y-50211D01*
X64405Y-50134D01*
X64424Y-50053D01*
X64425Y-49958D01*
X64409Y-49876D01*
X64377Y-49799D01*
X64331Y-49730D01*
X64272Y-49671D01*
X64203Y-49624D01*
X64126Y-49592D01*
X64044Y-49575D01*
X63961Y-49575D01*
X63879Y-49590D01*
X63802Y-49622D01*
X63732Y-49667D01*
X63673Y-49726D01*
X63626Y-49795D01*
X63593Y-49871D01*
X63576Y-49953D01*
X63574Y-50036D01*
X63590Y-50118D01*
X63620Y-50196D01*
X63666Y-50266D01*
X63723Y-50325D01*
X63758Y-50350D01*
X62342Y-50350D01*
X62322Y-50319D01*
X62282Y-50279D01*
X62236Y-50248D01*
X62185Y-50226D01*
X63262Y-49150D01*
X63602Y-49150D01*
X63620Y-49196D01*
X63666Y-49266D01*
X63723Y-49325D01*
X63792Y-49373D01*
X63868Y-49406D01*
X63950Y-49424D01*
X64033Y-49426D01*
X64115Y-49411D01*
X64193Y-49381D01*
X64263Y-49336D01*
X64324Y-49279D01*
X64371Y-49211D01*
X64405Y-49134D01*
X64424Y-49053D01*
X64425Y-48958D01*
X64409Y-48876D01*
X64377Y-48799D01*
X64331Y-48730D01*
X64272Y-48671D01*
X64203Y-48624D01*
X64126Y-48592D01*
X64044Y-48575D01*
X63961Y-48575D01*
X63879Y-48590D01*
X63802Y-48622D01*
X63732Y-48667D01*
X63673Y-48726D01*
X63626Y-48795D01*
X63602Y-48850D01*
X63362Y-48850D01*
X63824Y-48387D01*
X63868Y-48406D01*
X63950Y-48424D01*
X64033Y-48426D01*
X64115Y-48411D01*
X64193Y-48381D01*
X64263Y-48336D01*
X64324Y-48279D01*
X64371Y-48211D01*
X64405Y-48134D01*
X64411Y-48104D01*
X64452Y-48122D01*
X64506Y-48134D01*
X64562Y-48136D01*
X64617Y-48126D01*
X64669Y-48106D01*
X64716Y-48076D01*
X64757Y-48037D01*
X64782Y-48000D01*
X65287Y-48000D01*
X67612Y-50325D01*
X67593Y-50371D01*
X67576Y-50453D01*
X67574Y-50536D01*
X67590Y-50618D01*
X67620Y-50696D01*
X67666Y-50766D01*
X67723Y-50825D01*
X67792Y-50873D01*
X67868Y-50906D01*
X67950Y-50924D01*
X68033Y-50926D01*
X68115Y-50911D01*
X68193Y-50881D01*
X68263Y-50836D01*
X68324Y-50779D01*
X68360Y-50726D01*
X68360Y-50928D01*
X68175Y-51112D01*
X68126Y-51092D01*
X68044Y-51075D01*
X67961Y-51075D01*
X67879Y-51090D01*
X67802Y-51122D01*
X67732Y-51167D01*
X67673Y-51226D01*
X67626Y-51295D01*
X67593Y-51371D01*
X67576Y-51453D01*
X67574Y-51536D01*
X67590Y-51618D01*
X67620Y-51696D01*
X67666Y-51766D01*
X67723Y-51825D01*
X67792Y-51873D01*
X67868Y-51906D01*
X67950Y-51924D01*
X68033Y-51926D01*
X68115Y-51911D01*
X68193Y-51881D01*
X68263Y-51836D01*
X68324Y-51779D01*
X68371Y-51711D01*
X68405Y-51634D01*
X68424Y-51553D01*
X68425Y-51458D01*
X68409Y-51376D01*
X68387Y-51324D01*
X68615Y-51097D01*
X68616Y-51096D01*
X68618Y-51093D01*
X68634Y-51075D01*
X68634Y-51074D01*
X68648Y-51049D01*
X68648Y-51048D01*
X68657Y-51021D01*
X68657Y-51020D01*
X68660Y-50992D01*
X68660Y-50990D01*
X68660Y-50756D01*
X68666Y-50766D01*
X68723Y-50825D01*
X68792Y-50873D01*
X68868Y-50906D01*
X68950Y-50924D01*
X69033Y-50926D01*
X69115Y-50911D01*
X69193Y-50881D01*
X69263Y-50836D01*
X69324Y-50779D01*
X69371Y-50711D01*
X69405Y-50634D01*
X69424Y-50553D01*
X69425Y-50458D01*
X69409Y-50376D01*
X69377Y-50299D01*
X69331Y-50230D01*
X69272Y-50171D01*
X69203Y-50124D01*
X69126Y-50092D01*
X69044Y-50075D01*
X68961Y-50075D01*
X68879Y-50090D01*
X68802Y-50122D01*
X68732Y-50167D01*
X68673Y-50226D01*
X68660Y-50245D01*
X68660Y-49802D01*
X69538Y-48924D01*
X69539Y-48923D01*
X69541Y-48920D01*
X69557Y-48902D01*
X69557Y-48901D01*
X69571Y-48876D01*
X69571Y-48875D01*
X69580Y-48848D01*
X69580Y-48847D01*
X69583Y-48819D01*
X69583Y-48817D01*
X69583Y-48582D01*
X69590Y-48618D01*
X69620Y-48696D01*
X69666Y-48766D01*
X69723Y-48825D01*
X69792Y-48873D01*
X69835Y-48892D01*
X69821Y-48902D01*
X69781Y-48941D01*
X69749Y-48987D01*
X69727Y-49038D01*
X69715Y-49093D01*
X69715Y-49149D01*
X69725Y-49204D01*
X69745Y-49256D01*
X69776Y-49303D01*
X69814Y-49343D01*
X69860Y-49375D01*
X69912Y-49397D01*
X69943Y-49404D01*
X69705Y-49642D01*
X69670Y-49635D01*
X69614Y-49635D01*
X69559Y-49645D01*
X69507Y-49666D01*
X69461Y-49697D01*
X69421Y-49736D01*
X69389Y-49782D01*
X69367Y-49833D01*
X69355Y-49888D01*
X69355Y-49944D01*
X69365Y-49999D01*
X69385Y-50051D01*
X69416Y-50098D01*
X69454Y-50138D01*
X69500Y-50170D01*
X69552Y-50192D01*
X69606Y-50204D01*
X69662Y-50206D01*
X69697Y-50199D01*
X69670Y-50227D01*
X69682Y-50239D01*
X69649Y-50258D01*
X69609Y-50331D01*
X69584Y-50410D01*
X69574Y-50493D01*
X69581Y-50576D01*
X69603Y-50656D01*
X69641Y-50731D01*
X69649Y-50742D01*
X69711Y-50775D01*
X69965Y-50521D01*
X69986Y-50500D01*
X70000Y-50486D01*
X70021Y-50465D01*
X70275Y-50211D01*
X70242Y-50149D01*
X70169Y-50109D01*
X70090Y-50084D01*
X70007Y-50074D01*
X69924Y-50081D01*
X69863Y-50097D01*
X69889Y-50061D01*
X69912Y-50010D01*
X69924Y-49956D01*
X69925Y-49892D01*
X69917Y-49854D01*
X70672Y-49100D01*
X70691Y-49078D01*
X70691Y-49077D01*
X70705Y-49052D01*
X70714Y-49024D01*
X70717Y-48995D01*
X70717Y-48993D01*
X70717Y-42147D01*
X70714Y-42119D01*
X70714Y-42118D01*
X70706Y-42091D01*
X70706Y-42090D01*
X70692Y-42064D01*
X70674Y-42042D01*
X70673Y-42041D01*
X70672Y-42040D01*
X70570Y-41938D01*
X70570Y-40920D01*
X70567Y-40892D01*
X70567Y-40891D01*
X70559Y-40863D01*
X70545Y-40837D01*
X70527Y-40815D01*
X70526Y-40814D01*
X70525Y-40813D01*
X70386Y-40674D01*
X70405Y-40634D01*
X70424Y-40553D01*
X70425Y-40458D01*
X70425Y-39458D01*
X70409Y-39376D01*
X70377Y-39299D01*
X70331Y-39230D01*
X70272Y-39171D01*
X70203Y-39124D01*
X70126Y-39092D01*
X70044Y-39075D01*
X69961Y-39075D01*
X69879Y-39090D01*
X69802Y-39122D01*
X69732Y-39167D01*
X69673Y-39226D01*
X69626Y-39295D01*
X69593Y-39371D01*
X69576Y-39453D01*
X69574Y-39536D01*
X69590Y-39618D01*
X69620Y-39696D01*
X69666Y-39766D01*
X69723Y-39825D01*
X69792Y-39873D01*
X69868Y-39906D01*
X69950Y-39924D01*
X70033Y-39926D01*
X70115Y-39911D01*
X70193Y-39881D01*
X70263Y-39836D01*
X70324Y-39779D01*
X70371Y-39711D01*
X70405Y-39634D01*
X70424Y-39553D01*
X70425Y-39458D01*
X70425Y-40458D01*
X70409Y-40376D01*
X70377Y-40299D01*
X70331Y-40230D01*
X70272Y-40171D01*
X70203Y-40124D01*
X70126Y-40092D01*
X70044Y-40075D01*
X69961Y-40075D01*
X69879Y-40090D01*
X69802Y-40122D01*
X69732Y-40167D01*
X69673Y-40226D01*
X69626Y-40295D01*
X69593Y-40371D01*
X69576Y-40453D01*
X69574Y-40536D01*
X69590Y-40618D01*
X69620Y-40696D01*
X69666Y-40766D01*
X69723Y-40825D01*
X69792Y-40873D01*
X69868Y-40906D01*
X69950Y-40924D01*
X70033Y-40926D01*
X70115Y-40911D01*
X70175Y-40887D01*
X70270Y-40982D01*
X70270Y-41169D01*
X70203Y-41124D01*
X70126Y-41092D01*
X70044Y-41075D01*
X69961Y-41075D01*
X69879Y-41090D01*
X69802Y-41122D01*
X69732Y-41167D01*
X69673Y-41226D01*
X69626Y-41295D01*
X69593Y-41371D01*
X69576Y-41453D01*
X69574Y-41536D01*
X69590Y-41618D01*
X69620Y-41696D01*
X69666Y-41766D01*
X69723Y-41825D01*
X69792Y-41873D01*
X69856Y-41900D01*
X69858Y-41908D01*
X69861Y-41917D01*
X69868Y-41930D01*
X69874Y-41942D01*
X69875Y-41943D01*
X69893Y-41965D01*
X69894Y-41966D01*
X70003Y-42075D01*
X69961Y-42075D01*
X69879Y-42090D01*
X69802Y-42122D01*
X69732Y-42167D01*
X69673Y-42226D01*
X69626Y-42295D01*
X69593Y-42371D01*
X69576Y-42453D01*
X69574Y-42536D01*
X69590Y-42618D01*
X69620Y-42696D01*
X69666Y-42766D01*
X69723Y-42825D01*
X69792Y-42873D01*
X69868Y-42906D01*
X69950Y-42924D01*
X70033Y-42926D01*
X70115Y-42911D01*
X70193Y-42881D01*
X70263Y-42836D01*
X70275Y-42824D01*
X70275Y-43174D01*
X70272Y-43171D01*
X70203Y-43124D01*
X70126Y-43092D01*
X70044Y-43075D01*
X69961Y-43075D01*
X69879Y-43090D01*
X69802Y-43122D01*
X69732Y-43167D01*
X69691Y-43207D01*
X69682Y-43195D01*
X69681Y-43194D01*
X69382Y-42895D01*
X69381Y-42894D01*
X69379Y-42892D01*
X69360Y-42876D01*
X69340Y-42865D01*
X69334Y-42862D01*
X69333Y-42861D01*
X69314Y-42855D01*
X69306Y-42853D01*
X69277Y-42850D01*
X69275Y-42850D01*
X69241Y-42850D01*
X69263Y-42836D01*
X69324Y-42779D01*
X69371Y-42711D01*
X69405Y-42634D01*
X69424Y-42553D01*
X69425Y-42458D01*
X69425Y-41458D01*
X69425Y-40458D01*
X69424Y-40452D01*
X69424Y-39826D01*
X69424Y-39805D01*
X69424Y-39174D01*
X69420Y-39153D01*
X69412Y-39133D01*
X69400Y-39116D01*
X69385Y-39100D01*
X69367Y-39088D01*
X69347Y-39080D01*
X69326Y-39076D01*
X69305Y-39076D01*
X68674Y-39076D01*
X68653Y-39080D01*
X68633Y-39088D01*
X68616Y-39100D01*
X68600Y-39115D01*
X68588Y-39133D01*
X68580Y-39153D01*
X68576Y-39174D01*
X68576Y-39195D01*
X68576Y-39826D01*
X68580Y-39847D01*
X68588Y-39867D01*
X68600Y-39884D01*
X68615Y-39900D01*
X68633Y-39912D01*
X68653Y-39920D01*
X68674Y-39924D01*
X68695Y-39924D01*
X69326Y-39924D01*
X69347Y-39920D01*
X69367Y-39912D01*
X69384Y-39900D01*
X69400Y-39885D01*
X69412Y-39867D01*
X69420Y-39847D01*
X69424Y-39826D01*
X69424Y-40452D01*
X69409Y-40376D01*
X69377Y-40299D01*
X69331Y-40230D01*
X69272Y-40171D01*
X69203Y-40124D01*
X69126Y-40092D01*
X69044Y-40075D01*
X68961Y-40075D01*
X68879Y-40090D01*
X68802Y-40122D01*
X68732Y-40167D01*
X68673Y-40226D01*
X68626Y-40295D01*
X68593Y-40371D01*
X68576Y-40453D01*
X68574Y-40536D01*
X68590Y-40618D01*
X68620Y-40696D01*
X68666Y-40766D01*
X68723Y-40825D01*
X68792Y-40873D01*
X68868Y-40906D01*
X68950Y-40924D01*
X69033Y-40926D01*
X69115Y-40911D01*
X69193Y-40881D01*
X69263Y-40836D01*
X69324Y-40779D01*
X69371Y-40711D01*
X69405Y-40634D01*
X69424Y-40553D01*
X69425Y-40458D01*
X69425Y-41458D01*
X69409Y-41376D01*
X69377Y-41299D01*
X69331Y-41230D01*
X69272Y-41171D01*
X69203Y-41124D01*
X69126Y-41092D01*
X69044Y-41075D01*
X68961Y-41075D01*
X68879Y-41090D01*
X68802Y-41122D01*
X68732Y-41167D01*
X68673Y-41226D01*
X68626Y-41295D01*
X68593Y-41371D01*
X68576Y-41453D01*
X68574Y-41536D01*
X68590Y-41618D01*
X68620Y-41696D01*
X68666Y-41766D01*
X68723Y-41825D01*
X68792Y-41873D01*
X68868Y-41906D01*
X68950Y-41924D01*
X69033Y-41926D01*
X69115Y-41911D01*
X69193Y-41881D01*
X69263Y-41836D01*
X69324Y-41779D01*
X69371Y-41711D01*
X69405Y-41634D01*
X69424Y-41553D01*
X69425Y-41458D01*
X69425Y-42458D01*
X69409Y-42376D01*
X69377Y-42299D01*
X69331Y-42230D01*
X69272Y-42171D01*
X69203Y-42124D01*
X69126Y-42092D01*
X69044Y-42075D01*
X68961Y-42075D01*
X68879Y-42090D01*
X68802Y-42122D01*
X68732Y-42167D01*
X68673Y-42226D01*
X68626Y-42295D01*
X68602Y-42350D01*
X67682Y-42350D01*
X64590Y-39258D01*
X64590Y-38841D01*
X64590Y-38840D01*
X64587Y-38812D01*
X64587Y-38811D01*
X64579Y-38784D01*
X64579Y-38783D01*
X64565Y-38758D01*
X64565Y-38757D01*
X64550Y-38739D01*
X64547Y-38735D01*
X64546Y-38734D01*
X64227Y-38415D01*
X64226Y-38414D01*
X64224Y-38412D01*
X64205Y-38396D01*
X64185Y-38385D01*
X64183Y-38384D01*
X64193Y-38381D01*
X64263Y-38336D01*
X64324Y-38279D01*
X64371Y-38211D01*
X64405Y-38134D01*
X64424Y-38053D01*
X64425Y-37958D01*
X64425Y-36958D01*
X64409Y-36876D01*
X64377Y-36799D01*
X64331Y-36730D01*
X64272Y-36671D01*
X64203Y-36624D01*
X64126Y-36592D01*
X64044Y-36575D01*
X63961Y-36575D01*
X63879Y-36590D01*
X63802Y-36622D01*
X63732Y-36667D01*
X63673Y-36726D01*
X63626Y-36795D01*
X63593Y-36871D01*
X63576Y-36953D01*
X63574Y-37036D01*
X63590Y-37118D01*
X63620Y-37196D01*
X63666Y-37266D01*
X63723Y-37325D01*
X63792Y-37373D01*
X63868Y-37406D01*
X63950Y-37424D01*
X64033Y-37426D01*
X64115Y-37411D01*
X64193Y-37381D01*
X64263Y-37336D01*
X64324Y-37279D01*
X64371Y-37211D01*
X64405Y-37134D01*
X64424Y-37053D01*
X64425Y-36958D01*
X64425Y-37958D01*
X64409Y-37876D01*
X64377Y-37799D01*
X64331Y-37730D01*
X64272Y-37671D01*
X64203Y-37624D01*
X64126Y-37592D01*
X64044Y-37575D01*
X63961Y-37575D01*
X63879Y-37590D01*
X63802Y-37622D01*
X63732Y-37667D01*
X63673Y-37726D01*
X63626Y-37795D01*
X63593Y-37871D01*
X63576Y-37953D01*
X63574Y-38036D01*
X63590Y-38118D01*
X63620Y-38196D01*
X63666Y-38266D01*
X63723Y-38325D01*
X63787Y-38370D01*
X59582Y-38370D01*
X58424Y-37212D01*
X58424Y-36674D01*
X58420Y-36653D01*
X58412Y-36633D01*
X58400Y-36616D01*
X58385Y-36600D01*
X58367Y-36588D01*
X58347Y-36580D01*
X58326Y-36576D01*
X58305Y-36576D01*
X57674Y-36576D01*
X57653Y-36580D01*
X57633Y-36588D01*
X57616Y-36600D01*
X57600Y-36615D01*
X57588Y-36633D01*
X57580Y-36653D01*
X57576Y-36674D01*
X57576Y-36695D01*
X57576Y-37326D01*
X57580Y-37347D01*
X57588Y-37367D01*
X57600Y-37384D01*
X57615Y-37400D01*
X57633Y-37412D01*
X57653Y-37420D01*
X57674Y-37424D01*
X57695Y-37424D01*
X58212Y-37424D01*
X59138Y-38350D01*
X58241Y-38350D01*
X58263Y-38336D01*
X58324Y-38279D01*
X58371Y-38211D01*
X58405Y-38134D01*
X58424Y-38053D01*
X58425Y-37958D01*
X58409Y-37876D01*
X58377Y-37799D01*
X58331Y-37730D01*
X58272Y-37671D01*
X58203Y-37624D01*
X58126Y-37592D01*
X58044Y-37575D01*
X57961Y-37575D01*
X57879Y-37590D01*
X57802Y-37622D01*
X57732Y-37667D01*
X57673Y-37726D01*
X57626Y-37795D01*
X57593Y-37871D01*
X57576Y-37953D01*
X57574Y-38036D01*
X57590Y-38118D01*
X57620Y-38196D01*
X57666Y-38266D01*
X57723Y-38325D01*
X57758Y-38350D01*
X57642Y-38350D01*
X57622Y-38319D01*
X57582Y-38279D01*
X57536Y-38248D01*
X57485Y-38226D01*
X57430Y-38215D01*
X57374Y-38215D01*
X57319Y-38225D01*
X57267Y-38246D01*
X57221Y-38277D01*
X57181Y-38316D01*
X57149Y-38362D01*
X57127Y-38413D01*
X57115Y-38468D01*
X57115Y-38524D01*
X57125Y-38579D01*
X57145Y-38631D01*
X57176Y-38678D01*
X57214Y-38718D01*
X57260Y-38750D01*
X57312Y-38772D01*
X57366Y-38784D01*
X57422Y-38786D01*
X57477Y-38776D01*
X57529Y-38756D01*
X57576Y-38726D01*
X57617Y-38687D01*
X57642Y-38650D01*
X57758Y-38650D01*
X57732Y-38667D01*
X57673Y-38726D01*
X57626Y-38795D01*
X57593Y-38871D01*
X57576Y-38953D01*
X57574Y-39036D01*
X57590Y-39118D01*
X57620Y-39196D01*
X57666Y-39266D01*
X57723Y-39325D01*
X57792Y-39373D01*
X57794Y-39373D01*
X57794Y-39374D01*
X57238Y-39930D01*
X53425Y-39930D01*
X53425Y-39458D01*
X53409Y-39376D01*
X53377Y-39299D01*
X53331Y-39230D01*
X53272Y-39171D01*
X53203Y-39124D01*
X53126Y-39092D01*
X53044Y-39075D01*
X52961Y-39075D01*
X52879Y-39090D01*
X52802Y-39122D01*
X52732Y-39167D01*
X52673Y-39226D01*
X52626Y-39295D01*
X52593Y-39371D01*
X52576Y-39453D01*
X52574Y-39536D01*
X52590Y-39618D01*
X52620Y-39696D01*
X52666Y-39766D01*
X52723Y-39825D01*
X52792Y-39873D01*
X52868Y-39906D01*
X52950Y-39924D01*
X53033Y-39926D01*
X53115Y-39911D01*
X53193Y-39881D01*
X53263Y-39836D01*
X53324Y-39779D01*
X53371Y-39711D01*
X53405Y-39634D01*
X53424Y-39553D01*
X53425Y-39458D01*
X53425Y-39930D01*
X51982Y-39930D01*
X51988Y-39924D01*
X52326Y-39924D01*
X52347Y-39920D01*
X52367Y-39912D01*
X52384Y-39900D01*
X52400Y-39885D01*
X52412Y-39867D01*
X52420Y-39847D01*
X52424Y-39826D01*
X52424Y-39805D01*
X52424Y-39174D01*
X52420Y-39153D01*
X52412Y-39133D01*
X52400Y-39116D01*
X52385Y-39100D01*
X52367Y-39088D01*
X52347Y-39080D01*
X52326Y-39076D01*
X52305Y-39076D01*
X51674Y-39076D01*
X51653Y-39080D01*
X51633Y-39088D01*
X51616Y-39100D01*
X51600Y-39115D01*
X51588Y-39133D01*
X51580Y-39153D01*
X51576Y-39174D01*
X51576Y-39195D01*
X51576Y-39826D01*
X51580Y-39847D01*
X51588Y-39867D01*
X51600Y-39884D01*
X51601Y-39885D01*
X51332Y-40156D01*
X51330Y-40157D01*
X51314Y-40177D01*
X51303Y-40196D01*
X51299Y-40204D01*
X51293Y-40223D01*
X51291Y-40231D01*
X51288Y-40260D01*
X51288Y-40262D01*
X51288Y-40757D01*
X51288Y-40758D01*
X51288Y-40760D01*
X51290Y-40786D01*
X51296Y-40806D01*
X51299Y-40815D01*
X51306Y-40828D01*
X51312Y-40840D01*
X51313Y-40841D01*
X51331Y-40863D01*
X51332Y-40864D01*
X51430Y-40962D01*
X51430Y-42657D01*
X51280Y-42807D01*
X51280Y-36280D01*
X70720Y-36280D01*
X70720Y-52720D01*
M02*
