G04 (created by PCBNEW-RS274X (2012-01-19 BZR 3256)-stable) date Tue 02 Jul 2013 11:49:59 AM CDT*
G01*
G70*
G90*
%MOIN*%
G04 Gerber Fmt 3.4, Leading zero omitted, Abs format*
%FSLAX34Y34*%
G04 APERTURE LIST*
%ADD10C,0.006000*%
%ADD11C,0.015000*%
%ADD12R,0.086700X0.098500*%
%ADD13R,0.063000X0.063000*%
%ADD14C,0.063000*%
%ADD15R,0.050000X0.044900*%
%ADD16C,0.035000*%
%ADD17C,0.008000*%
G04 APERTURE END LIST*
G54D10*
G54D11*
X51000Y-53000D02*
X51000Y-49500D01*
X71000Y-53000D02*
X51000Y-53000D01*
X71000Y-49500D02*
X71000Y-53000D01*
X51000Y-49500D02*
X51000Y-36000D01*
X71000Y-36000D02*
X71000Y-49500D01*
X51000Y-36000D02*
X71000Y-36000D01*
G54D12*
X66000Y-38924D03*
X66000Y-37074D03*
G54D13*
X58000Y-37000D03*
G54D14*
X58000Y-38000D03*
X58000Y-39000D03*
X58000Y-40000D03*
X58000Y-41000D03*
X58000Y-42000D03*
X58000Y-43000D03*
X58000Y-44000D03*
X58000Y-45000D03*
X58000Y-46000D03*
X58000Y-47000D03*
X58000Y-48000D03*
X58000Y-49000D03*
X58000Y-50000D03*
X58000Y-51000D03*
X58000Y-52000D03*
X64000Y-52000D03*
X64000Y-51000D03*
X64000Y-50000D03*
X64000Y-49000D03*
X64000Y-48000D03*
X64000Y-47000D03*
X64000Y-46000D03*
X64000Y-45000D03*
X64000Y-44000D03*
X64000Y-43000D03*
X64000Y-42000D03*
X64000Y-41000D03*
X64000Y-40000D03*
X64000Y-39000D03*
X64000Y-38000D03*
X64000Y-37000D03*
G54D13*
X52000Y-51500D03*
G54D14*
X52000Y-50500D03*
X53000Y-51500D03*
X53000Y-50500D03*
X54000Y-51500D03*
X54000Y-50500D03*
X55000Y-51500D03*
X55000Y-50500D03*
X56000Y-51500D03*
X56000Y-50500D03*
G54D13*
X66000Y-51500D03*
G54D14*
X66000Y-50500D03*
X67000Y-51500D03*
X67000Y-50500D03*
X68000Y-51500D03*
X68000Y-50500D03*
X69000Y-51500D03*
X69000Y-50500D03*
X70000Y-51500D03*
X70000Y-50500D03*
G54D15*
X67500Y-37626D03*
X67500Y-38376D03*
G54D13*
X61499Y-42501D03*
G54D14*
X60500Y-41501D03*
X60500Y-42501D03*
X59500Y-41501D03*
X58500Y-42501D03*
X59500Y-42501D03*
X58500Y-43501D03*
X59500Y-43501D03*
X58500Y-44500D03*
X59500Y-44500D03*
X58500Y-45500D03*
X59500Y-45500D03*
X58500Y-46500D03*
X59500Y-47500D03*
X59500Y-46500D03*
X60500Y-47500D03*
X60500Y-46500D03*
X61499Y-47500D03*
X61499Y-46500D03*
X62499Y-47500D03*
X63499Y-46500D03*
X62499Y-46500D03*
X63499Y-45500D03*
X62499Y-45500D03*
X63499Y-44500D03*
X62499Y-44500D03*
X63499Y-43501D03*
X62499Y-43501D03*
X63499Y-42501D03*
X62499Y-41501D03*
X62499Y-42501D03*
X61499Y-41501D03*
G54D13*
X52000Y-39500D03*
G54D14*
X53000Y-39500D03*
X52000Y-40500D03*
X53000Y-40500D03*
X52000Y-41500D03*
X53000Y-41500D03*
X52000Y-42500D03*
X53000Y-42500D03*
X52000Y-43500D03*
X53000Y-43500D03*
X52000Y-44500D03*
X53000Y-44500D03*
X52000Y-45500D03*
X53000Y-45500D03*
X52000Y-46500D03*
X53000Y-46500D03*
X52000Y-47500D03*
X53000Y-47500D03*
X52000Y-48500D03*
X53000Y-48500D03*
G54D13*
X69000Y-39500D03*
G54D14*
X70000Y-39500D03*
X69000Y-40500D03*
X70000Y-40500D03*
X69000Y-41500D03*
X70000Y-41500D03*
X69000Y-42500D03*
X70000Y-42500D03*
X69000Y-43500D03*
X70000Y-43500D03*
X69000Y-44500D03*
X70000Y-44500D03*
X69000Y-45500D03*
X70000Y-45500D03*
X69000Y-46500D03*
X70000Y-46500D03*
X69000Y-47500D03*
X70000Y-47500D03*
X69000Y-48500D03*
X70000Y-48500D03*
G54D16*
X55100Y-52100D03*
X60980Y-50140D03*
X62100Y-50500D03*
X69640Y-49920D03*
X55360Y-46860D03*
X55060Y-48520D03*
X56400Y-43400D03*
X55080Y-47220D03*
X54640Y-48520D03*
X61480Y-44060D03*
X60680Y-44860D03*
X64540Y-47850D03*
X64700Y-46920D03*
X63480Y-47280D03*
X63340Y-47680D03*
X62520Y-48120D03*
X70000Y-49125D03*
X55920Y-44000D03*
X62060Y-38940D03*
X57400Y-38500D03*
X70500Y-52500D03*
X53500Y-52500D03*
X67540Y-38380D03*
X54000Y-40750D03*
X51500Y-38500D03*
X57500Y-36500D03*
X62500Y-52500D03*
X54000Y-41750D03*
X51500Y-51000D03*
X68000Y-40000D03*
X53500Y-36500D03*
X57000Y-43500D03*
X61500Y-36500D03*
X65000Y-36500D03*
X56800Y-48600D03*
X56750Y-45750D03*
X57000Y-47000D03*
X54000Y-48500D03*
X67000Y-36500D03*
X65200Y-40940D03*
X54000Y-42600D03*
X54000Y-43500D03*
X51500Y-36500D03*
X54000Y-46000D03*
X68500Y-36500D03*
X60250Y-48750D03*
X65890Y-40300D03*
X54000Y-44500D03*
X55500Y-36500D03*
X70500Y-36500D03*
X59500Y-36500D03*
X56750Y-40750D03*
X56750Y-41750D03*
X70500Y-38500D03*
X65970Y-38910D03*
X70500Y-40000D03*
X57250Y-42500D03*
X54000Y-47000D03*
X61850Y-43300D03*
X66000Y-48000D03*
X59200Y-39000D03*
X59900Y-39900D03*
X61500Y-50000D03*
X61300Y-45400D03*
X66500Y-47000D03*
X65500Y-43000D03*
X63000Y-39000D03*
X68000Y-45500D03*
X60700Y-40900D03*
X68000Y-43500D03*
X62250Y-40000D03*
X60400Y-44300D03*
X67700Y-42100D03*
X61850Y-44350D03*
X65250Y-45250D03*
X66500Y-52500D03*
X63300Y-40800D03*
X64500Y-52500D03*
X68500Y-52500D03*
X64600Y-50800D03*
X60400Y-45800D03*
X65500Y-46500D03*
X54000Y-39250D03*
X57500Y-52500D03*
X53500Y-38250D03*
X68000Y-47000D03*
X68000Y-44500D03*
X68000Y-49000D03*
X51500Y-52500D03*
X55500Y-52500D03*
X51500Y-49500D03*
X63500Y-36500D03*
X57200Y-46200D03*
X60900Y-43400D03*
X65250Y-49000D03*
X63000Y-41900D03*
X56800Y-47600D03*
X59750Y-51000D03*
X59250Y-48750D03*
X65250Y-50000D03*
X68000Y-41500D03*
X62500Y-51000D03*
X61500Y-39000D03*
X61900Y-40900D03*
X62800Y-50000D03*
X58700Y-49900D03*
X59500Y-52500D03*
X55500Y-39250D03*
X55500Y-38250D03*
G54D17*
X59500Y-41501D02*
X59500Y-41500D01*
X59500Y-41500D02*
X58000Y-40000D01*
X63722Y-41278D02*
X64000Y-41000D01*
X63357Y-42020D02*
X63357Y-41543D01*
X70420Y-46280D02*
X70420Y-47080D01*
X64582Y-41142D02*
X64582Y-40762D01*
X63000Y-43000D02*
X63000Y-42377D01*
X63560Y-40180D02*
X64000Y-40620D01*
X63357Y-41543D02*
X63622Y-41278D01*
X63560Y-39840D02*
X63820Y-39580D01*
X70574Y-46126D02*
X70420Y-46280D01*
X64440Y-39820D02*
X64200Y-39580D01*
X70218Y-43918D02*
X70574Y-44274D01*
X70420Y-47080D02*
X70000Y-47500D01*
X70218Y-43918D02*
X67358Y-43918D01*
X62499Y-43501D02*
X63000Y-43000D01*
X63560Y-40180D02*
X63560Y-39840D01*
X64000Y-40620D02*
X64000Y-41000D01*
X64440Y-40620D02*
X64440Y-39820D01*
X63000Y-42377D02*
X63357Y-42020D01*
X67358Y-43918D02*
X64582Y-41142D01*
X64200Y-39580D02*
X63820Y-39580D01*
X64582Y-40762D02*
X64440Y-40620D01*
X70574Y-44274D02*
X70574Y-46126D01*
X63622Y-41278D02*
X63722Y-41278D01*
X67300Y-44060D02*
X64420Y-41180D01*
X70160Y-44060D02*
X70432Y-44332D01*
X64180Y-41420D02*
X63680Y-41420D01*
X70432Y-46068D02*
X70000Y-46500D01*
X64440Y-41160D02*
X64420Y-41180D01*
X64000Y-40380D02*
X64440Y-40820D01*
X64420Y-41180D02*
X64180Y-41420D01*
X64000Y-40000D02*
X64000Y-40380D01*
X64440Y-40820D02*
X64440Y-41160D01*
X70432Y-44332D02*
X70432Y-46068D01*
X63680Y-41420D02*
X63499Y-41601D01*
X70160Y-44060D02*
X67300Y-44060D01*
X63499Y-41601D02*
X63499Y-42501D01*
X51580Y-40320D02*
X51580Y-41704D01*
X60500Y-42501D02*
X60481Y-42501D01*
X51820Y-40080D02*
X56920Y-40080D01*
X60481Y-42501D02*
X60000Y-42020D01*
X51820Y-40080D02*
X51580Y-40320D01*
X52000Y-46360D02*
X52000Y-46500D01*
X51442Y-41842D02*
X51442Y-45802D01*
X60000Y-41000D02*
X58000Y-39000D01*
X51580Y-41704D02*
X51442Y-41842D01*
X60000Y-42020D02*
X60000Y-41000D01*
X51442Y-45802D02*
X52000Y-46360D01*
X56920Y-40080D02*
X58000Y-39000D01*
X57560Y-39240D02*
X57560Y-38820D01*
X51300Y-45860D02*
X51580Y-46140D01*
X51762Y-39938D02*
X56862Y-39938D01*
X56862Y-39938D02*
X57560Y-39240D01*
X58440Y-39240D02*
X58440Y-38820D01*
X51438Y-40262D02*
X51438Y-41646D01*
X51580Y-47080D02*
X52000Y-47500D01*
X60500Y-41501D02*
X60500Y-41300D01*
X60500Y-41300D02*
X58440Y-39240D01*
X51438Y-41646D02*
X51300Y-41784D01*
X51300Y-41784D02*
X51300Y-45860D01*
X51580Y-46140D02*
X51580Y-47080D01*
X58000Y-38380D02*
X58000Y-38000D01*
X58440Y-38820D02*
X58000Y-38380D01*
X51762Y-39938D02*
X51438Y-40262D01*
X57560Y-38820D02*
X58000Y-38380D01*
X63418Y-39782D02*
X64000Y-39200D01*
X63418Y-40142D02*
X62499Y-41061D01*
X63418Y-39782D02*
X63418Y-40142D01*
X62499Y-41061D02*
X62499Y-41501D01*
X64000Y-39200D02*
X64000Y-39000D01*
X57560Y-48060D02*
X57560Y-48180D01*
X52200Y-46000D02*
X52420Y-46220D01*
X58000Y-49000D02*
X55690Y-49000D01*
X54510Y-51710D02*
X54900Y-52100D01*
X58220Y-47500D02*
X57880Y-47500D01*
X52420Y-46220D02*
X52420Y-47760D01*
X51840Y-46000D02*
X52200Y-46000D01*
X51584Y-45744D02*
X51840Y-46000D01*
X58000Y-48620D02*
X58000Y-49000D01*
X54510Y-50180D02*
X54510Y-51710D01*
X57560Y-47820D02*
X57880Y-47500D01*
X57560Y-48180D02*
X58000Y-48620D01*
X57442Y-48062D02*
X57444Y-48060D01*
X58500Y-47220D02*
X58220Y-47500D01*
X57444Y-48060D02*
X57560Y-48060D01*
X51984Y-41500D02*
X51584Y-41900D01*
X57560Y-47820D02*
X57560Y-48060D01*
X58500Y-47220D02*
X58500Y-46500D01*
X52722Y-48062D02*
X52420Y-47760D01*
X54900Y-52100D02*
X55100Y-52100D01*
X55690Y-49000D02*
X54510Y-50180D01*
X51584Y-41900D02*
X51584Y-45744D01*
X52722Y-48062D02*
X57442Y-48062D01*
X52000Y-41500D02*
X51984Y-41500D01*
X61340Y-50500D02*
X62100Y-50500D01*
X59500Y-47500D02*
X59100Y-47500D01*
X60980Y-50140D02*
X61340Y-50500D01*
X59100Y-47500D02*
X58622Y-47978D01*
X58622Y-47978D02*
X58622Y-49378D01*
X58622Y-49378D02*
X58000Y-50000D01*
X58000Y-51000D02*
X58220Y-51000D01*
X69630Y-49910D02*
X67790Y-49910D01*
X69640Y-49920D02*
X69630Y-49910D01*
X59920Y-46920D02*
X59500Y-46500D01*
X58220Y-51000D02*
X59920Y-49300D01*
X67420Y-50280D02*
X67420Y-51080D01*
X59920Y-49300D02*
X59920Y-46920D01*
X67420Y-51080D02*
X67000Y-51500D01*
X67790Y-49910D02*
X67420Y-50280D01*
X63418Y-50618D02*
X63560Y-50760D01*
X60500Y-46500D02*
X60660Y-46500D01*
X61560Y-48000D02*
X61320Y-48000D01*
X70420Y-47280D02*
X70420Y-49280D01*
X69528Y-49640D02*
X69400Y-49768D01*
X63418Y-49858D02*
X61560Y-48000D01*
X69400Y-49768D02*
X67732Y-49768D01*
X70420Y-43920D02*
X70420Y-42320D01*
X61000Y-46840D02*
X61000Y-47680D01*
X70716Y-46184D02*
X70562Y-46338D01*
X70420Y-42320D02*
X70100Y-42000D01*
X70060Y-49640D02*
X69528Y-49640D01*
X70716Y-44216D02*
X70420Y-43920D01*
X69500Y-42000D02*
X69000Y-41500D01*
X63418Y-49858D02*
X63418Y-50618D01*
X64000Y-52000D02*
X65020Y-50980D01*
X70716Y-44216D02*
X70716Y-46184D01*
X60660Y-46500D02*
X61000Y-46840D01*
X63560Y-51560D02*
X64000Y-52000D01*
X66520Y-50980D02*
X67000Y-50500D01*
X70562Y-47138D02*
X70420Y-47280D01*
X61000Y-47680D02*
X61320Y-48000D01*
X63560Y-50760D02*
X63560Y-51560D01*
X70420Y-49280D02*
X70060Y-49640D01*
X70100Y-42000D02*
X69500Y-42000D01*
X65020Y-50980D02*
X66520Y-50980D01*
X67732Y-49768D02*
X67000Y-50500D01*
X70562Y-46338D02*
X70562Y-47138D01*
X52500Y-45000D02*
X54000Y-45000D01*
X55360Y-46360D02*
X55360Y-46860D01*
X52500Y-45000D02*
X52000Y-45500D01*
X54000Y-50490D02*
X54000Y-50500D01*
X61499Y-47739D02*
X61499Y-47500D01*
X54782Y-49708D02*
X54000Y-50490D01*
X54782Y-48780D02*
X54782Y-49708D01*
X54000Y-45000D02*
X55360Y-46360D01*
X55060Y-48520D02*
X55042Y-48520D01*
X63560Y-50560D02*
X64000Y-51000D01*
X63560Y-49800D02*
X63560Y-50560D01*
X63560Y-49800D02*
X61499Y-47739D01*
X55042Y-48520D02*
X54782Y-48780D01*
X64000Y-50000D02*
X63960Y-50000D01*
X61980Y-48020D02*
X61980Y-46981D01*
X53800Y-50060D02*
X53500Y-50360D01*
X54640Y-48520D02*
X54640Y-49650D01*
X54000Y-51220D02*
X53500Y-50720D01*
X56400Y-46400D02*
X56400Y-43400D01*
X54230Y-50060D02*
X53800Y-50060D01*
X54640Y-49650D02*
X54230Y-50060D01*
X55580Y-47220D02*
X56400Y-46400D01*
X53500Y-50360D02*
X53500Y-50720D01*
X61980Y-46981D02*
X61499Y-46500D01*
X63960Y-50000D02*
X61980Y-48020D01*
X55080Y-47220D02*
X55580Y-47220D01*
X54000Y-51220D02*
X54000Y-51500D01*
X69505Y-46000D02*
X67000Y-46000D01*
X70000Y-45505D02*
X69505Y-46000D01*
X62499Y-47500D02*
X62500Y-47500D01*
X70000Y-45500D02*
X70000Y-45505D01*
X67000Y-46000D02*
X64000Y-49000D01*
X62500Y-47500D02*
X64000Y-49000D01*
X70000Y-44500D02*
X69500Y-45000D01*
X66220Y-45000D02*
X64410Y-46810D01*
X64410Y-46810D02*
X64420Y-46820D01*
X64420Y-47580D02*
X64000Y-48000D01*
X64420Y-46820D02*
X64420Y-47580D01*
X69500Y-45000D02*
X66220Y-45000D01*
X64100Y-46500D02*
X64410Y-46810D01*
X63499Y-46500D02*
X64100Y-46500D01*
X61020Y-40020D02*
X58000Y-37000D01*
X59062Y-47322D02*
X59060Y-47320D01*
X60680Y-44860D02*
X60100Y-45440D01*
X58480Y-49260D02*
X58480Y-47920D01*
X61480Y-44060D02*
X61499Y-44041D01*
X61499Y-44041D02*
X61499Y-42501D01*
X60100Y-45640D02*
X59740Y-46000D01*
X58240Y-49500D02*
X58480Y-49260D01*
X59062Y-47320D02*
X59062Y-46198D01*
X59062Y-46198D02*
X59260Y-46000D01*
X56000Y-50480D02*
X56980Y-49500D01*
X59260Y-46000D02*
X59740Y-46000D01*
X59060Y-47320D02*
X59062Y-47320D01*
X61499Y-42499D02*
X61020Y-42020D01*
X61499Y-42501D02*
X61499Y-42499D01*
X56980Y-49500D02*
X58240Y-49500D01*
X59062Y-47338D02*
X59062Y-47322D01*
X56000Y-50500D02*
X56000Y-50480D01*
X60100Y-45440D02*
X60100Y-45640D01*
X58480Y-47920D02*
X59062Y-47338D01*
X61020Y-42020D02*
X61020Y-40020D01*
X64000Y-38340D02*
X65640Y-39980D01*
X68080Y-42040D02*
X68080Y-42580D01*
X62499Y-42501D02*
X62000Y-42002D01*
X63276Y-39724D02*
X63560Y-39440D01*
X63560Y-38780D02*
X63560Y-39440D01*
X64000Y-38340D02*
X63560Y-38780D01*
X64000Y-38000D02*
X64000Y-38340D01*
X66020Y-39980D02*
X68080Y-42040D01*
X65640Y-39980D02*
X66020Y-39980D01*
X68080Y-42580D02*
X69000Y-43500D01*
X63276Y-40084D02*
X63276Y-39724D01*
X62000Y-41360D02*
X63276Y-40084D01*
X62000Y-42002D02*
X62000Y-41360D01*
X63300Y-45000D02*
X62800Y-45500D01*
X62800Y-45500D02*
X62499Y-45500D01*
X69000Y-44500D02*
X68998Y-44500D01*
X64142Y-44858D02*
X64000Y-45000D01*
X68998Y-44500D02*
X68640Y-44858D01*
X64000Y-45000D02*
X63300Y-45000D01*
X68640Y-44858D02*
X64142Y-44858D01*
X69000Y-45500D02*
X68998Y-45500D01*
X63900Y-48500D02*
X64300Y-48500D01*
X64000Y-47400D02*
X64000Y-47000D01*
X66942Y-45858D02*
X64300Y-48500D01*
X68640Y-45858D02*
X66942Y-45858D01*
X64000Y-47000D02*
X62999Y-47000D01*
X63900Y-48500D02*
X63580Y-48180D01*
X63580Y-47820D02*
X64000Y-47400D01*
X68998Y-45500D02*
X68640Y-45858D01*
X62999Y-47000D02*
X62499Y-46500D01*
X63580Y-48180D02*
X63580Y-47820D01*
X64420Y-42420D02*
X64000Y-42000D01*
X64420Y-43180D02*
X64420Y-42420D01*
X64099Y-43501D02*
X64420Y-43180D01*
X63499Y-43501D02*
X64099Y-43501D01*
X64000Y-43000D02*
X63300Y-43000D01*
X63300Y-43000D02*
X63040Y-43260D01*
X63040Y-43959D02*
X62499Y-44500D01*
X63040Y-43260D02*
X63040Y-43959D01*
X64700Y-47690D02*
X64700Y-46920D01*
X63500Y-45500D02*
X64000Y-46000D01*
X63499Y-45500D02*
X63500Y-45500D01*
X64540Y-47850D02*
X64700Y-47690D01*
X64000Y-44000D02*
X63999Y-44000D01*
X63999Y-44000D02*
X63499Y-44500D01*
X61792Y-44793D02*
X61792Y-45792D01*
X63460Y-47260D02*
X63060Y-47260D01*
X58999Y-42000D02*
X59500Y-42501D01*
X61792Y-45792D02*
X62062Y-46062D01*
X62738Y-46938D02*
X62337Y-46938D01*
X63060Y-47260D02*
X62738Y-46938D01*
X62337Y-46938D02*
X62062Y-46663D01*
X63480Y-47280D02*
X63460Y-47260D01*
X62062Y-46663D02*
X62062Y-46062D01*
X59500Y-42501D02*
X61792Y-44793D01*
X58000Y-42000D02*
X58999Y-42000D01*
X57580Y-42180D02*
X57901Y-42501D01*
X58000Y-41000D02*
X58000Y-41080D01*
X58000Y-41080D02*
X57580Y-41500D01*
X63280Y-47680D02*
X63340Y-47680D01*
X62279Y-47080D02*
X61920Y-46721D01*
X59799Y-43000D02*
X61650Y-44851D01*
X61920Y-46721D02*
X61920Y-46120D01*
X57901Y-42501D02*
X58500Y-42501D01*
X61650Y-44851D02*
X61650Y-45850D01*
X57580Y-41500D02*
X57580Y-42180D01*
X59799Y-43000D02*
X58999Y-43000D01*
X61650Y-45850D02*
X61920Y-46120D01*
X62680Y-47080D02*
X63280Y-47680D01*
X58999Y-43000D02*
X58500Y-42501D01*
X62279Y-47080D02*
X62680Y-47080D01*
X69630Y-49495D02*
X67585Y-49495D01*
X58920Y-45900D02*
X59320Y-45500D01*
X67580Y-49500D02*
X63660Y-49500D01*
X67585Y-49495D02*
X67580Y-49500D01*
X62520Y-48360D02*
X62520Y-48120D01*
X63660Y-49500D02*
X62520Y-48360D01*
X70000Y-49125D02*
X69630Y-49495D01*
X59320Y-45500D02*
X59500Y-45500D01*
X58920Y-47280D02*
X58920Y-45900D01*
X58200Y-48000D02*
X58920Y-47280D01*
X58000Y-48000D02*
X58200Y-48000D01*
X57260Y-47920D02*
X52780Y-47920D01*
X58000Y-47180D02*
X58000Y-47000D01*
X57880Y-45500D02*
X58500Y-45500D01*
X52562Y-47702D02*
X52562Y-45938D01*
X52562Y-45938D02*
X53000Y-45500D01*
X58000Y-47000D02*
X58000Y-46700D01*
X57580Y-45800D02*
X57880Y-45500D01*
X58000Y-46700D02*
X57580Y-46280D01*
X57580Y-46280D02*
X57580Y-45800D01*
X57260Y-47920D02*
X58000Y-47180D01*
X52780Y-47920D02*
X52562Y-47702D01*
X58620Y-46000D02*
X59000Y-45620D01*
X59000Y-45000D02*
X59500Y-44500D01*
X59000Y-45620D02*
X59000Y-45000D01*
X58000Y-46000D02*
X58620Y-46000D01*
X58000Y-45000D02*
X58500Y-44500D01*
X53000Y-47500D02*
X55500Y-47500D01*
X55500Y-47500D02*
X58000Y-45000D01*
X52480Y-43000D02*
X57000Y-43000D01*
X59001Y-44000D02*
X59500Y-43501D01*
X58000Y-44000D02*
X59001Y-44000D01*
X52000Y-43480D02*
X52480Y-43000D01*
X52000Y-43500D02*
X52000Y-43480D01*
X57000Y-43000D02*
X58000Y-44000D01*
X55920Y-44000D02*
X52500Y-44000D01*
X52500Y-44000D02*
X52000Y-44500D01*
X58000Y-43001D02*
X58500Y-43501D01*
X58000Y-43000D02*
X58000Y-43001D01*
X61499Y-41501D02*
X61499Y-39501D01*
X52000Y-39500D02*
X52840Y-38660D01*
X52840Y-38660D02*
X56280Y-38660D01*
X66948Y-37074D02*
X67500Y-37626D01*
X66950Y-37076D02*
X67500Y-37626D01*
X64000Y-37000D02*
X65926Y-37000D01*
X64000Y-37000D02*
X65924Y-37000D01*
X56280Y-38660D02*
X56440Y-38500D01*
X66000Y-37076D02*
X66950Y-37076D01*
X56440Y-38500D02*
X57400Y-38500D01*
X65924Y-37000D02*
X66000Y-37076D01*
X65926Y-37000D02*
X66000Y-37074D01*
X66000Y-37074D02*
X66948Y-37074D01*
X61499Y-39501D02*
X62060Y-38940D01*
X62060Y-38940D02*
X64000Y-37000D01*
X60100Y-49900D02*
X58000Y-52000D01*
X64500Y-52500D02*
X64460Y-52540D01*
X70500Y-52000D02*
X70500Y-52500D01*
X64460Y-52540D02*
X62500Y-52540D01*
X53250Y-40750D02*
X54000Y-40750D01*
X70000Y-51500D02*
X70500Y-52000D01*
X62550Y-50250D02*
X62800Y-50000D01*
X57200Y-46800D02*
X57000Y-47000D01*
X62500Y-52540D02*
X62500Y-51000D01*
X57000Y-45500D02*
X56750Y-45750D01*
X55500Y-51760D02*
X55500Y-51000D01*
X56750Y-41750D02*
X56750Y-40750D01*
X65000Y-36500D02*
X63500Y-36500D01*
X53250Y-40750D02*
X53000Y-40500D01*
X60100Y-48750D02*
X60250Y-48750D01*
X53500Y-52500D02*
X51500Y-52500D01*
X62500Y-50250D02*
X62500Y-51000D01*
X65986Y-38926D02*
X67374Y-38926D01*
X62500Y-52500D02*
X62500Y-52540D01*
X67374Y-38926D02*
X67500Y-38800D01*
X55500Y-51000D02*
X55000Y-50500D01*
X67540Y-38380D02*
X67536Y-38376D01*
X58020Y-52000D02*
X58560Y-52540D01*
X67536Y-38376D02*
X67500Y-38376D01*
X65250Y-49000D02*
X68000Y-49000D01*
X67500Y-38800D02*
X67500Y-38376D01*
X57200Y-46200D02*
X57200Y-46800D01*
X51500Y-51000D02*
X51500Y-49500D01*
X55360Y-51920D02*
X55660Y-51920D01*
X54000Y-41750D02*
X54000Y-40750D01*
X65200Y-40940D02*
X65840Y-40300D01*
X56750Y-41750D02*
X57250Y-42250D01*
X57000Y-45500D02*
X57000Y-43500D01*
X55000Y-51500D02*
X55000Y-51560D01*
X68500Y-36500D02*
X67000Y-36500D01*
X58000Y-52000D02*
X58020Y-52000D01*
X57700Y-52300D02*
X56040Y-52300D01*
X56750Y-40750D02*
X54000Y-40750D01*
X63000Y-39000D02*
X63000Y-39250D01*
X60100Y-49900D02*
X60100Y-47900D01*
X58000Y-52000D02*
X57700Y-52300D01*
X61500Y-36500D02*
X59500Y-36500D01*
X61300Y-45000D02*
X60600Y-44300D01*
X62250Y-40550D02*
X61900Y-40900D01*
X53500Y-36500D02*
X51500Y-36500D01*
X55660Y-51920D02*
X55500Y-51760D01*
X70500Y-38500D02*
X70500Y-36500D01*
X68500Y-36500D02*
X70500Y-36500D01*
X55000Y-51560D02*
X55360Y-51920D01*
X54000Y-42600D02*
X54000Y-41750D01*
X54000Y-47000D02*
X54000Y-46000D01*
X57250Y-42250D02*
X57250Y-42500D01*
X65970Y-38910D02*
X65986Y-38926D01*
X56040Y-52300D02*
X55660Y-51920D01*
X65250Y-50150D02*
X64600Y-50800D01*
X60700Y-40700D02*
X59900Y-39900D01*
X65250Y-48750D02*
X65250Y-49000D01*
X60700Y-40900D02*
X60700Y-40700D01*
X60400Y-45800D02*
X60900Y-45800D01*
X61300Y-45400D02*
X61300Y-45000D01*
X59250Y-49350D02*
X58700Y-49900D01*
X60500Y-47300D02*
X60000Y-46800D01*
X63000Y-41100D02*
X63000Y-41900D01*
X66000Y-47500D02*
X66000Y-48000D01*
X57500Y-36500D02*
X55500Y-36500D01*
X68960Y-52540D02*
X70000Y-51500D01*
X59900Y-39900D02*
X59900Y-39700D01*
X68500Y-52500D02*
X68500Y-52540D01*
X60000Y-46800D02*
X60000Y-46200D01*
X62250Y-50000D02*
X61500Y-50000D01*
X61300Y-45400D02*
X60900Y-45800D01*
X59250Y-48750D02*
X59250Y-49350D01*
X68500Y-52540D02*
X68500Y-52500D01*
X64500Y-52500D02*
X66500Y-52500D01*
X68500Y-52500D02*
X68500Y-52540D01*
X60500Y-47500D02*
X60500Y-47300D01*
X63300Y-40800D02*
X63000Y-41100D01*
X61850Y-43300D02*
X61850Y-44350D01*
X60600Y-44300D02*
X60400Y-44300D01*
X60000Y-46200D02*
X60400Y-45800D01*
X62500Y-50250D02*
X62550Y-50250D01*
X59500Y-51250D02*
X59750Y-51000D01*
X68000Y-41500D02*
X68000Y-40000D01*
X68000Y-49000D02*
X68000Y-47000D01*
X59500Y-51250D02*
X59500Y-52500D01*
X57000Y-47400D02*
X56800Y-47600D01*
X53500Y-36500D02*
X53500Y-38250D01*
X59900Y-39700D02*
X59200Y-39000D01*
X66000Y-48000D02*
X65250Y-48750D01*
X67700Y-42100D02*
X67700Y-43200D01*
X60250Y-48750D02*
X61500Y-50000D01*
X65840Y-40300D02*
X65890Y-40300D01*
X67700Y-43200D02*
X68000Y-43500D01*
X61500Y-36500D02*
X61500Y-39000D01*
X62500Y-50250D02*
X62250Y-50000D01*
X62250Y-40000D02*
X62250Y-40550D01*
X63000Y-39250D02*
X62250Y-40000D01*
X60100Y-47900D02*
X60500Y-47500D01*
X68500Y-52540D02*
X68960Y-52540D01*
X58560Y-52540D02*
X68500Y-52540D01*
X66500Y-47000D02*
X66000Y-47500D01*
X57000Y-47000D02*
X57000Y-47400D01*
X57500Y-52500D02*
X55500Y-52500D01*
X65250Y-50000D02*
X65250Y-50150D01*
G54D10*
G36*
X55210Y-46617D02*
X55181Y-46637D01*
X55141Y-46676D01*
X55109Y-46722D01*
X55087Y-46773D01*
X55075Y-46828D01*
X55075Y-46884D01*
X55084Y-46935D01*
X55054Y-46935D01*
X54999Y-46945D01*
X54947Y-46966D01*
X54901Y-46997D01*
X54861Y-47036D01*
X54829Y-47082D01*
X54807Y-47133D01*
X54795Y-47188D01*
X54795Y-47244D01*
X54805Y-47299D01*
X54824Y-47350D01*
X53398Y-47350D01*
X53377Y-47299D01*
X53331Y-47230D01*
X53272Y-47171D01*
X53203Y-47124D01*
X53126Y-47092D01*
X53044Y-47075D01*
X52961Y-47075D01*
X52879Y-47090D01*
X52802Y-47122D01*
X52732Y-47167D01*
X52712Y-47187D01*
X52712Y-46813D01*
X52723Y-46825D01*
X52792Y-46873D01*
X52868Y-46906D01*
X52950Y-46924D01*
X53033Y-46926D01*
X53115Y-46911D01*
X53193Y-46881D01*
X53263Y-46836D01*
X53324Y-46779D01*
X53371Y-46711D01*
X53405Y-46634D01*
X53424Y-46553D01*
X53425Y-46458D01*
X53409Y-46376D01*
X53377Y-46299D01*
X53331Y-46230D01*
X53272Y-46171D01*
X53203Y-46124D01*
X53126Y-46092D01*
X53044Y-46075D01*
X52961Y-46075D01*
X52879Y-46090D01*
X52802Y-46122D01*
X52732Y-46167D01*
X52712Y-46187D01*
X52712Y-46000D01*
X52824Y-45887D01*
X52868Y-45906D01*
X52950Y-45924D01*
X53033Y-45926D01*
X53115Y-45911D01*
X53193Y-45881D01*
X53263Y-45836D01*
X53324Y-45779D01*
X53371Y-45711D01*
X53405Y-45634D01*
X53424Y-45553D01*
X53425Y-45458D01*
X53409Y-45376D01*
X53377Y-45299D01*
X53331Y-45230D01*
X53272Y-45171D01*
X53241Y-45150D01*
X53938Y-45150D01*
X55210Y-46422D01*
X55210Y-46617D01*
X55210Y-46617D01*
G37*
X55210Y-46617D02*
X55181Y-46637D01*
X55141Y-46676D01*
X55109Y-46722D01*
X55087Y-46773D01*
X55075Y-46828D01*
X55075Y-46884D01*
X55084Y-46935D01*
X55054Y-46935D01*
X54999Y-46945D01*
X54947Y-46966D01*
X54901Y-46997D01*
X54861Y-47036D01*
X54829Y-47082D01*
X54807Y-47133D01*
X54795Y-47188D01*
X54795Y-47244D01*
X54805Y-47299D01*
X54824Y-47350D01*
X53398Y-47350D01*
X53377Y-47299D01*
X53331Y-47230D01*
X53272Y-47171D01*
X53203Y-47124D01*
X53126Y-47092D01*
X53044Y-47075D01*
X52961Y-47075D01*
X52879Y-47090D01*
X52802Y-47122D01*
X52732Y-47167D01*
X52712Y-47187D01*
X52712Y-46813D01*
X52723Y-46825D01*
X52792Y-46873D01*
X52868Y-46906D01*
X52950Y-46924D01*
X53033Y-46926D01*
X53115Y-46911D01*
X53193Y-46881D01*
X53263Y-46836D01*
X53324Y-46779D01*
X53371Y-46711D01*
X53405Y-46634D01*
X53424Y-46553D01*
X53425Y-46458D01*
X53409Y-46376D01*
X53377Y-46299D01*
X53331Y-46230D01*
X53272Y-46171D01*
X53203Y-46124D01*
X53126Y-46092D01*
X53044Y-46075D01*
X52961Y-46075D01*
X52879Y-46090D01*
X52802Y-46122D01*
X52732Y-46167D01*
X52712Y-46187D01*
X52712Y-46000D01*
X52824Y-45887D01*
X52868Y-45906D01*
X52950Y-45924D01*
X53033Y-45926D01*
X53115Y-45911D01*
X53193Y-45881D01*
X53263Y-45836D01*
X53324Y-45779D01*
X53371Y-45711D01*
X53405Y-45634D01*
X53424Y-45553D01*
X53425Y-45458D01*
X53409Y-45376D01*
X53377Y-45299D01*
X53331Y-45230D01*
X53272Y-45171D01*
X53241Y-45150D01*
X53938Y-45150D01*
X55210Y-46422D01*
X55210Y-46617D01*
G36*
X56261Y-43150D02*
X56221Y-43177D01*
X56181Y-43216D01*
X56149Y-43262D01*
X56127Y-43313D01*
X56115Y-43368D01*
X56115Y-43424D01*
X56125Y-43479D01*
X56145Y-43531D01*
X56176Y-43578D01*
X56214Y-43618D01*
X56250Y-43643D01*
X56250Y-46337D01*
X55627Y-46960D01*
X55632Y-46950D01*
X55644Y-46896D01*
X55645Y-46832D01*
X55634Y-46777D01*
X55613Y-46726D01*
X55582Y-46679D01*
X55542Y-46639D01*
X55510Y-46617D01*
X55510Y-46361D01*
X55510Y-46360D01*
X55509Y-46358D01*
X55508Y-46332D01*
X55507Y-46331D01*
X55501Y-46312D01*
X55499Y-46304D01*
X55499Y-46303D01*
X55492Y-46290D01*
X55486Y-46278D01*
X55485Y-46277D01*
X55467Y-46255D01*
X55466Y-46254D01*
X54107Y-44895D01*
X54106Y-44894D01*
X54104Y-44892D01*
X54085Y-44876D01*
X54065Y-44865D01*
X54059Y-44862D01*
X54058Y-44861D01*
X54039Y-44855D01*
X54031Y-44853D01*
X54002Y-44850D01*
X54000Y-44850D01*
X53241Y-44850D01*
X53263Y-44836D01*
X53324Y-44779D01*
X53371Y-44711D01*
X53405Y-44634D01*
X53424Y-44553D01*
X53425Y-44458D01*
X53409Y-44376D01*
X53377Y-44299D01*
X53331Y-44230D01*
X53272Y-44171D01*
X53241Y-44150D01*
X55677Y-44150D01*
X55696Y-44178D01*
X55734Y-44218D01*
X55780Y-44250D01*
X55832Y-44272D01*
X55886Y-44284D01*
X55942Y-44286D01*
X55997Y-44276D01*
X56049Y-44256D01*
X56096Y-44226D01*
X56137Y-44187D01*
X56169Y-44141D01*
X56192Y-44090D01*
X56204Y-44036D01*
X56205Y-43972D01*
X56194Y-43917D01*
X56173Y-43866D01*
X56142Y-43819D01*
X56102Y-43779D01*
X56056Y-43748D01*
X56005Y-43726D01*
X55950Y-43715D01*
X55894Y-43715D01*
X55839Y-43725D01*
X55787Y-43746D01*
X55741Y-43777D01*
X55701Y-43816D01*
X55677Y-43850D01*
X53241Y-43850D01*
X53263Y-43836D01*
X53324Y-43779D01*
X53371Y-43711D01*
X53405Y-43634D01*
X53424Y-43553D01*
X53425Y-43458D01*
X53409Y-43376D01*
X53377Y-43299D01*
X53331Y-43230D01*
X53272Y-43171D01*
X53241Y-43150D01*
X56261Y-43150D01*
X56261Y-43150D01*
G37*
X56261Y-43150D02*
X56221Y-43177D01*
X56181Y-43216D01*
X56149Y-43262D01*
X56127Y-43313D01*
X56115Y-43368D01*
X56115Y-43424D01*
X56125Y-43479D01*
X56145Y-43531D01*
X56176Y-43578D01*
X56214Y-43618D01*
X56250Y-43643D01*
X56250Y-46337D01*
X55627Y-46960D01*
X55632Y-46950D01*
X55644Y-46896D01*
X55645Y-46832D01*
X55634Y-46777D01*
X55613Y-46726D01*
X55582Y-46679D01*
X55542Y-46639D01*
X55510Y-46617D01*
X55510Y-46361D01*
X55510Y-46360D01*
X55509Y-46358D01*
X55508Y-46332D01*
X55507Y-46331D01*
X55501Y-46312D01*
X55499Y-46304D01*
X55499Y-46303D01*
X55492Y-46290D01*
X55486Y-46278D01*
X55485Y-46277D01*
X55467Y-46255D01*
X55466Y-46254D01*
X54107Y-44895D01*
X54106Y-44894D01*
X54104Y-44892D01*
X54085Y-44876D01*
X54065Y-44865D01*
X54059Y-44862D01*
X54058Y-44861D01*
X54039Y-44855D01*
X54031Y-44853D01*
X54002Y-44850D01*
X54000Y-44850D01*
X53241Y-44850D01*
X53263Y-44836D01*
X53324Y-44779D01*
X53371Y-44711D01*
X53405Y-44634D01*
X53424Y-44553D01*
X53425Y-44458D01*
X53409Y-44376D01*
X53377Y-44299D01*
X53331Y-44230D01*
X53272Y-44171D01*
X53241Y-44150D01*
X55677Y-44150D01*
X55696Y-44178D01*
X55734Y-44218D01*
X55780Y-44250D01*
X55832Y-44272D01*
X55886Y-44284D01*
X55942Y-44286D01*
X55997Y-44276D01*
X56049Y-44256D01*
X56096Y-44226D01*
X56137Y-44187D01*
X56169Y-44141D01*
X56192Y-44090D01*
X56204Y-44036D01*
X56205Y-43972D01*
X56194Y-43917D01*
X56173Y-43866D01*
X56142Y-43819D01*
X56102Y-43779D01*
X56056Y-43748D01*
X56005Y-43726D01*
X55950Y-43715D01*
X55894Y-43715D01*
X55839Y-43725D01*
X55787Y-43746D01*
X55741Y-43777D01*
X55701Y-43816D01*
X55677Y-43850D01*
X53241Y-43850D01*
X53263Y-43836D01*
X53324Y-43779D01*
X53371Y-43711D01*
X53405Y-43634D01*
X53424Y-43553D01*
X53425Y-43458D01*
X53409Y-43376D01*
X53377Y-43299D01*
X53331Y-43230D01*
X53272Y-43171D01*
X53241Y-43150D01*
X56261Y-43150D01*
G36*
X57414Y-38785D02*
X57413Y-38789D01*
X57410Y-38818D01*
X57410Y-38820D01*
X57410Y-39178D01*
X56800Y-39788D01*
X53314Y-39788D01*
X53324Y-39779D01*
X53371Y-39711D01*
X53405Y-39634D01*
X53424Y-39553D01*
X53425Y-39458D01*
X53409Y-39376D01*
X53377Y-39299D01*
X53331Y-39230D01*
X53272Y-39171D01*
X53203Y-39124D01*
X53126Y-39092D01*
X53044Y-39075D01*
X52961Y-39075D01*
X52879Y-39090D01*
X52802Y-39122D01*
X52732Y-39167D01*
X52673Y-39226D01*
X52626Y-39295D01*
X52593Y-39371D01*
X52576Y-39453D01*
X52574Y-39536D01*
X52590Y-39618D01*
X52620Y-39696D01*
X52666Y-39766D01*
X52687Y-39788D01*
X52424Y-39788D01*
X52424Y-39288D01*
X52902Y-38810D01*
X56279Y-38810D01*
X56280Y-38810D01*
X56282Y-38809D01*
X56308Y-38808D01*
X56309Y-38807D01*
X56328Y-38801D01*
X56336Y-38799D01*
X56337Y-38799D01*
X56350Y-38792D01*
X56362Y-38786D01*
X56363Y-38785D01*
X56385Y-38767D01*
X56386Y-38766D01*
X56502Y-38650D01*
X57157Y-38650D01*
X57176Y-38678D01*
X57214Y-38718D01*
X57260Y-38750D01*
X57312Y-38772D01*
X57366Y-38784D01*
X57414Y-38785D01*
X57414Y-38785D01*
G37*
X57414Y-38785D02*
X57413Y-38789D01*
X57410Y-38818D01*
X57410Y-38820D01*
X57410Y-39178D01*
X56800Y-39788D01*
X53314Y-39788D01*
X53324Y-39779D01*
X53371Y-39711D01*
X53405Y-39634D01*
X53424Y-39553D01*
X53425Y-39458D01*
X53409Y-39376D01*
X53377Y-39299D01*
X53331Y-39230D01*
X53272Y-39171D01*
X53203Y-39124D01*
X53126Y-39092D01*
X53044Y-39075D01*
X52961Y-39075D01*
X52879Y-39090D01*
X52802Y-39122D01*
X52732Y-39167D01*
X52673Y-39226D01*
X52626Y-39295D01*
X52593Y-39371D01*
X52576Y-39453D01*
X52574Y-39536D01*
X52590Y-39618D01*
X52620Y-39696D01*
X52666Y-39766D01*
X52687Y-39788D01*
X52424Y-39788D01*
X52424Y-39288D01*
X52902Y-38810D01*
X56279Y-38810D01*
X56280Y-38810D01*
X56282Y-38809D01*
X56308Y-38808D01*
X56309Y-38807D01*
X56328Y-38801D01*
X56336Y-38799D01*
X56337Y-38799D01*
X56350Y-38792D01*
X56362Y-38786D01*
X56363Y-38785D01*
X56385Y-38767D01*
X56386Y-38766D01*
X56502Y-38650D01*
X57157Y-38650D01*
X57176Y-38678D01*
X57214Y-38718D01*
X57260Y-38750D01*
X57312Y-38772D01*
X57366Y-38784D01*
X57414Y-38785D01*
G36*
X57746Y-46658D02*
X57732Y-46667D01*
X57673Y-46726D01*
X57626Y-46795D01*
X57593Y-46871D01*
X57576Y-46953D01*
X57574Y-47036D01*
X57590Y-47118D01*
X57620Y-47196D01*
X57666Y-47266D01*
X57683Y-47284D01*
X57198Y-47770D01*
X53330Y-47770D01*
X53371Y-47711D01*
X53397Y-47650D01*
X55499Y-47650D01*
X55500Y-47650D01*
X55502Y-47649D01*
X55528Y-47648D01*
X55529Y-47647D01*
X55548Y-47641D01*
X55556Y-47639D01*
X55557Y-47639D01*
X55570Y-47632D01*
X55582Y-47626D01*
X55583Y-47625D01*
X55605Y-47607D01*
X55606Y-47606D01*
X57431Y-45780D01*
X57430Y-45798D01*
X57430Y-45800D01*
X57430Y-46279D01*
X57430Y-46280D01*
X57430Y-46282D01*
X57432Y-46308D01*
X57438Y-46328D01*
X57441Y-46337D01*
X57448Y-46350D01*
X57454Y-46362D01*
X57455Y-46363D01*
X57473Y-46385D01*
X57474Y-46386D01*
X57746Y-46658D01*
X57746Y-46658D01*
G37*
X57746Y-46658D02*
X57732Y-46667D01*
X57673Y-46726D01*
X57626Y-46795D01*
X57593Y-46871D01*
X57576Y-46953D01*
X57574Y-47036D01*
X57590Y-47118D01*
X57620Y-47196D01*
X57666Y-47266D01*
X57683Y-47284D01*
X57198Y-47770D01*
X53330Y-47770D01*
X53371Y-47711D01*
X53397Y-47650D01*
X55499Y-47650D01*
X55500Y-47650D01*
X55502Y-47649D01*
X55528Y-47648D01*
X55529Y-47647D01*
X55548Y-47641D01*
X55556Y-47639D01*
X55557Y-47639D01*
X55570Y-47632D01*
X55582Y-47626D01*
X55583Y-47625D01*
X55605Y-47607D01*
X55606Y-47606D01*
X57431Y-45780D01*
X57430Y-45798D01*
X57430Y-45800D01*
X57430Y-46279D01*
X57430Y-46280D01*
X57430Y-46282D01*
X57432Y-46308D01*
X57438Y-46328D01*
X57441Y-46337D01*
X57448Y-46350D01*
X57454Y-46362D01*
X57455Y-46363D01*
X57473Y-46385D01*
X57474Y-46386D01*
X57746Y-46658D01*
G36*
X58083Y-44583D02*
X58044Y-44575D01*
X57961Y-44575D01*
X57879Y-44590D01*
X57802Y-44622D01*
X57732Y-44667D01*
X57673Y-44726D01*
X57626Y-44795D01*
X57593Y-44871D01*
X57576Y-44953D01*
X57574Y-45036D01*
X57590Y-45118D01*
X57612Y-45175D01*
X56550Y-46238D01*
X56550Y-43642D01*
X56576Y-43626D01*
X56617Y-43587D01*
X56649Y-43541D01*
X56672Y-43490D01*
X56684Y-43436D01*
X56685Y-43372D01*
X56674Y-43317D01*
X56653Y-43266D01*
X56622Y-43219D01*
X56582Y-43179D01*
X56538Y-43150D01*
X56938Y-43150D01*
X57612Y-43824D01*
X57593Y-43871D01*
X57576Y-43953D01*
X57574Y-44036D01*
X57590Y-44118D01*
X57620Y-44196D01*
X57666Y-44266D01*
X57723Y-44325D01*
X57792Y-44373D01*
X57868Y-44406D01*
X57950Y-44424D01*
X58033Y-44426D01*
X58083Y-44416D01*
X58076Y-44453D01*
X58074Y-44536D01*
X58083Y-44583D01*
X58083Y-44583D01*
G37*
X58083Y-44583D02*
X58044Y-44575D01*
X57961Y-44575D01*
X57879Y-44590D01*
X57802Y-44622D01*
X57732Y-44667D01*
X57673Y-44726D01*
X57626Y-44795D01*
X57593Y-44871D01*
X57576Y-44953D01*
X57574Y-45036D01*
X57590Y-45118D01*
X57612Y-45175D01*
X56550Y-46238D01*
X56550Y-43642D01*
X56576Y-43626D01*
X56617Y-43587D01*
X56649Y-43541D01*
X56672Y-43490D01*
X56684Y-43436D01*
X56685Y-43372D01*
X56674Y-43317D01*
X56653Y-43266D01*
X56622Y-43219D01*
X56582Y-43179D01*
X56538Y-43150D01*
X56938Y-43150D01*
X57612Y-43824D01*
X57593Y-43871D01*
X57576Y-43953D01*
X57574Y-44036D01*
X57590Y-44118D01*
X57620Y-44196D01*
X57666Y-44266D01*
X57723Y-44325D01*
X57792Y-44373D01*
X57868Y-44406D01*
X57950Y-44424D01*
X58033Y-44426D01*
X58083Y-44416D01*
X58076Y-44453D01*
X58074Y-44536D01*
X58083Y-44583D01*
G36*
X61349Y-43805D02*
X61347Y-43806D01*
X61301Y-43837D01*
X61261Y-43876D01*
X61229Y-43922D01*
X61207Y-43973D01*
X61202Y-43991D01*
X59886Y-42675D01*
X59905Y-42635D01*
X59924Y-42554D01*
X59925Y-42459D01*
X59909Y-42377D01*
X59877Y-42300D01*
X59831Y-42231D01*
X59772Y-42172D01*
X59703Y-42125D01*
X59626Y-42093D01*
X59544Y-42076D01*
X59461Y-42076D01*
X59379Y-42091D01*
X59324Y-42113D01*
X59106Y-41895D01*
X59105Y-41894D01*
X59103Y-41892D01*
X59084Y-41876D01*
X59064Y-41865D01*
X59058Y-41862D01*
X59057Y-41861D01*
X59038Y-41855D01*
X59030Y-41853D01*
X59001Y-41850D01*
X58999Y-41850D01*
X58398Y-41850D01*
X58377Y-41799D01*
X58331Y-41730D01*
X58272Y-41671D01*
X58203Y-41624D01*
X58126Y-41592D01*
X58044Y-41575D01*
X57961Y-41575D01*
X57879Y-41590D01*
X57802Y-41622D01*
X57732Y-41667D01*
X57730Y-41669D01*
X57730Y-41562D01*
X57882Y-41409D01*
X57950Y-41424D01*
X58033Y-41426D01*
X58115Y-41411D01*
X58193Y-41381D01*
X58263Y-41336D01*
X58324Y-41279D01*
X58371Y-41211D01*
X58405Y-41134D01*
X58424Y-41053D01*
X58425Y-40958D01*
X58409Y-40876D01*
X58377Y-40799D01*
X58331Y-40730D01*
X58272Y-40671D01*
X58203Y-40624D01*
X58126Y-40592D01*
X58044Y-40575D01*
X57961Y-40575D01*
X57879Y-40590D01*
X57802Y-40622D01*
X57732Y-40667D01*
X57673Y-40726D01*
X57626Y-40795D01*
X57593Y-40871D01*
X57576Y-40953D01*
X57574Y-41036D01*
X57590Y-41118D01*
X57620Y-41196D01*
X57640Y-41227D01*
X57475Y-41393D01*
X57474Y-41394D01*
X57472Y-41395D01*
X57456Y-41415D01*
X57445Y-41434D01*
X57441Y-41442D01*
X57435Y-41461D01*
X57433Y-41469D01*
X57430Y-41498D01*
X57430Y-41500D01*
X57430Y-42179D01*
X57430Y-42180D01*
X57430Y-42182D01*
X57432Y-42208D01*
X57438Y-42228D01*
X57441Y-42237D01*
X57448Y-42250D01*
X57454Y-42262D01*
X57455Y-42263D01*
X57473Y-42285D01*
X57474Y-42286D01*
X57794Y-42606D01*
X57809Y-42618D01*
X57809Y-42619D01*
X57802Y-42622D01*
X57732Y-42667D01*
X57673Y-42726D01*
X57626Y-42795D01*
X57593Y-42871D01*
X57576Y-42953D01*
X57574Y-43036D01*
X57590Y-43118D01*
X57620Y-43196D01*
X57666Y-43266D01*
X57723Y-43325D01*
X57792Y-43373D01*
X57868Y-43406D01*
X57950Y-43424D01*
X58033Y-43426D01*
X58083Y-43416D01*
X58076Y-43454D01*
X58074Y-43537D01*
X58082Y-43583D01*
X58044Y-43575D01*
X57961Y-43575D01*
X57879Y-43590D01*
X57824Y-43612D01*
X57107Y-42895D01*
X57106Y-42894D01*
X57104Y-42892D01*
X57085Y-42876D01*
X57065Y-42865D01*
X57059Y-42862D01*
X57058Y-42861D01*
X57039Y-42855D01*
X57031Y-42853D01*
X57002Y-42850D01*
X57000Y-42850D01*
X53241Y-42850D01*
X53263Y-42836D01*
X53324Y-42779D01*
X53371Y-42711D01*
X53405Y-42634D01*
X53424Y-42553D01*
X53425Y-42458D01*
X53425Y-41458D01*
X53409Y-41376D01*
X53377Y-41299D01*
X53331Y-41230D01*
X53275Y-41174D01*
X53275Y-40789D01*
X53000Y-40514D01*
X52725Y-40789D01*
X52758Y-40851D01*
X52831Y-40891D01*
X52910Y-40916D01*
X52993Y-40926D01*
X53076Y-40919D01*
X53156Y-40897D01*
X53231Y-40859D01*
X53242Y-40851D01*
X53275Y-40789D01*
X53275Y-41174D01*
X53272Y-41171D01*
X53203Y-41124D01*
X53126Y-41092D01*
X53044Y-41075D01*
X52961Y-41075D01*
X52879Y-41090D01*
X52802Y-41122D01*
X52732Y-41167D01*
X52673Y-41226D01*
X52626Y-41295D01*
X52593Y-41371D01*
X52576Y-41453D01*
X52574Y-41536D01*
X52590Y-41618D01*
X52620Y-41696D01*
X52666Y-41766D01*
X52723Y-41825D01*
X52792Y-41873D01*
X52868Y-41906D01*
X52950Y-41924D01*
X53033Y-41926D01*
X53115Y-41911D01*
X53193Y-41881D01*
X53263Y-41836D01*
X53324Y-41779D01*
X53371Y-41711D01*
X53405Y-41634D01*
X53424Y-41553D01*
X53425Y-41458D01*
X53425Y-42458D01*
X53409Y-42376D01*
X53377Y-42299D01*
X53331Y-42230D01*
X53272Y-42171D01*
X53203Y-42124D01*
X53126Y-42092D01*
X53044Y-42075D01*
X52961Y-42075D01*
X52879Y-42090D01*
X52802Y-42122D01*
X52732Y-42167D01*
X52673Y-42226D01*
X52626Y-42295D01*
X52593Y-42371D01*
X52576Y-42453D01*
X52574Y-42536D01*
X52590Y-42618D01*
X52620Y-42696D01*
X52666Y-42766D01*
X52723Y-42825D01*
X52758Y-42850D01*
X52480Y-42850D01*
X52451Y-42853D01*
X52423Y-42861D01*
X52397Y-42875D01*
X52375Y-42893D01*
X52374Y-42894D01*
X52373Y-42895D01*
X52161Y-43106D01*
X52126Y-43092D01*
X52044Y-43075D01*
X51961Y-43075D01*
X51879Y-43090D01*
X51802Y-43122D01*
X51734Y-43165D01*
X51734Y-42832D01*
X51792Y-42873D01*
X51868Y-42906D01*
X51950Y-42924D01*
X52033Y-42926D01*
X52115Y-42911D01*
X52193Y-42881D01*
X52263Y-42836D01*
X52324Y-42779D01*
X52371Y-42711D01*
X52405Y-42634D01*
X52424Y-42553D01*
X52425Y-42458D01*
X52409Y-42376D01*
X52377Y-42299D01*
X52331Y-42230D01*
X52272Y-42171D01*
X52203Y-42124D01*
X52126Y-42092D01*
X52044Y-42075D01*
X51961Y-42075D01*
X51879Y-42090D01*
X51802Y-42122D01*
X51734Y-42165D01*
X51734Y-41962D01*
X51813Y-41882D01*
X51868Y-41906D01*
X51950Y-41924D01*
X52033Y-41926D01*
X52115Y-41911D01*
X52193Y-41881D01*
X52263Y-41836D01*
X52324Y-41779D01*
X52371Y-41711D01*
X52405Y-41634D01*
X52424Y-41553D01*
X52425Y-41458D01*
X52409Y-41376D01*
X52377Y-41299D01*
X52331Y-41230D01*
X52272Y-41171D01*
X52203Y-41124D01*
X52126Y-41092D01*
X52044Y-41075D01*
X51961Y-41075D01*
X51879Y-41090D01*
X51802Y-41122D01*
X51732Y-41167D01*
X51730Y-41169D01*
X51730Y-40829D01*
X51792Y-40873D01*
X51868Y-40906D01*
X51950Y-40924D01*
X52033Y-40926D01*
X52115Y-40911D01*
X52193Y-40881D01*
X52263Y-40836D01*
X52324Y-40779D01*
X52371Y-40711D01*
X52405Y-40634D01*
X52424Y-40553D01*
X52425Y-40458D01*
X52409Y-40376D01*
X52377Y-40299D01*
X52331Y-40230D01*
X52673Y-40230D01*
X52682Y-40239D01*
X52649Y-40258D01*
X52609Y-40331D01*
X52584Y-40410D01*
X52574Y-40493D01*
X52581Y-40576D01*
X52603Y-40656D01*
X52641Y-40731D01*
X52649Y-40742D01*
X52711Y-40775D01*
X52965Y-40521D01*
X52986Y-40500D01*
X53000Y-40486D01*
X53014Y-40500D01*
X53035Y-40521D01*
X53289Y-40775D01*
X53351Y-40742D01*
X53391Y-40669D01*
X53416Y-40590D01*
X53426Y-40507D01*
X53419Y-40424D01*
X53397Y-40344D01*
X53359Y-40269D01*
X53351Y-40258D01*
X53316Y-40240D01*
X53326Y-40230D01*
X56919Y-40230D01*
X56920Y-40230D01*
X56922Y-40229D01*
X56948Y-40228D01*
X56949Y-40227D01*
X56968Y-40221D01*
X56976Y-40219D01*
X56977Y-40219D01*
X56990Y-40212D01*
X57002Y-40206D01*
X57003Y-40205D01*
X57025Y-40187D01*
X57026Y-40186D01*
X57824Y-39387D01*
X57868Y-39406D01*
X57950Y-39424D01*
X58033Y-39426D01*
X58115Y-39411D01*
X58175Y-39387D01*
X59850Y-41062D01*
X59850Y-41259D01*
X59831Y-41231D01*
X59772Y-41172D01*
X59703Y-41125D01*
X59626Y-41093D01*
X59544Y-41076D01*
X59461Y-41076D01*
X59379Y-41091D01*
X59325Y-41113D01*
X58386Y-40174D01*
X58405Y-40134D01*
X58424Y-40053D01*
X58425Y-39958D01*
X58409Y-39876D01*
X58377Y-39799D01*
X58331Y-39730D01*
X58272Y-39671D01*
X58203Y-39624D01*
X58126Y-39592D01*
X58044Y-39575D01*
X57961Y-39575D01*
X57879Y-39590D01*
X57802Y-39622D01*
X57732Y-39667D01*
X57673Y-39726D01*
X57626Y-39795D01*
X57593Y-39871D01*
X57576Y-39953D01*
X57574Y-40036D01*
X57590Y-40118D01*
X57620Y-40196D01*
X57666Y-40266D01*
X57723Y-40325D01*
X57792Y-40373D01*
X57868Y-40406D01*
X57950Y-40424D01*
X58033Y-40426D01*
X58115Y-40411D01*
X58175Y-40387D01*
X59113Y-41325D01*
X59093Y-41372D01*
X59076Y-41454D01*
X59074Y-41537D01*
X59090Y-41619D01*
X59120Y-41697D01*
X59166Y-41767D01*
X59223Y-41826D01*
X59292Y-41874D01*
X59368Y-41907D01*
X59450Y-41925D01*
X59533Y-41927D01*
X59615Y-41912D01*
X59693Y-41882D01*
X59763Y-41837D01*
X59824Y-41780D01*
X59850Y-41742D01*
X59850Y-42019D01*
X59850Y-42020D01*
X59850Y-42022D01*
X59852Y-42048D01*
X59858Y-42068D01*
X59861Y-42077D01*
X59868Y-42090D01*
X59874Y-42102D01*
X59875Y-42103D01*
X59893Y-42125D01*
X59894Y-42126D01*
X60107Y-42339D01*
X60093Y-42372D01*
X60076Y-42454D01*
X60074Y-42537D01*
X60090Y-42619D01*
X60120Y-42697D01*
X60166Y-42767D01*
X60223Y-42826D01*
X60292Y-42874D01*
X60368Y-42907D01*
X60450Y-42925D01*
X60533Y-42927D01*
X60615Y-42912D01*
X60693Y-42882D01*
X60763Y-42837D01*
X60824Y-42780D01*
X60871Y-42712D01*
X60905Y-42635D01*
X60924Y-42554D01*
X60925Y-42459D01*
X60909Y-42377D01*
X60877Y-42300D01*
X60831Y-42231D01*
X60772Y-42172D01*
X60703Y-42125D01*
X60626Y-42093D01*
X60544Y-42076D01*
X60461Y-42076D01*
X60379Y-42091D01*
X60311Y-42119D01*
X60150Y-41958D01*
X60150Y-41742D01*
X60166Y-41767D01*
X60223Y-41826D01*
X60292Y-41874D01*
X60368Y-41907D01*
X60450Y-41925D01*
X60533Y-41927D01*
X60615Y-41912D01*
X60693Y-41882D01*
X60763Y-41837D01*
X60824Y-41780D01*
X60870Y-41713D01*
X60870Y-42019D01*
X60870Y-42020D01*
X60870Y-42022D01*
X60872Y-42048D01*
X60878Y-42068D01*
X60881Y-42077D01*
X60888Y-42090D01*
X60894Y-42102D01*
X60895Y-42103D01*
X60913Y-42125D01*
X60914Y-42126D01*
X61075Y-42287D01*
X61075Y-42827D01*
X61079Y-42848D01*
X61087Y-42868D01*
X61099Y-42885D01*
X61114Y-42901D01*
X61132Y-42913D01*
X61152Y-42921D01*
X61173Y-42925D01*
X61194Y-42925D01*
X61349Y-42925D01*
X61349Y-43805D01*
X61349Y-43805D01*
G37*
X61349Y-43805D02*
X61347Y-43806D01*
X61301Y-43837D01*
X61261Y-43876D01*
X61229Y-43922D01*
X61207Y-43973D01*
X61202Y-43991D01*
X59886Y-42675D01*
X59905Y-42635D01*
X59924Y-42554D01*
X59925Y-42459D01*
X59909Y-42377D01*
X59877Y-42300D01*
X59831Y-42231D01*
X59772Y-42172D01*
X59703Y-42125D01*
X59626Y-42093D01*
X59544Y-42076D01*
X59461Y-42076D01*
X59379Y-42091D01*
X59324Y-42113D01*
X59106Y-41895D01*
X59105Y-41894D01*
X59103Y-41892D01*
X59084Y-41876D01*
X59064Y-41865D01*
X59058Y-41862D01*
X59057Y-41861D01*
X59038Y-41855D01*
X59030Y-41853D01*
X59001Y-41850D01*
X58999Y-41850D01*
X58398Y-41850D01*
X58377Y-41799D01*
X58331Y-41730D01*
X58272Y-41671D01*
X58203Y-41624D01*
X58126Y-41592D01*
X58044Y-41575D01*
X57961Y-41575D01*
X57879Y-41590D01*
X57802Y-41622D01*
X57732Y-41667D01*
X57730Y-41669D01*
X57730Y-41562D01*
X57882Y-41409D01*
X57950Y-41424D01*
X58033Y-41426D01*
X58115Y-41411D01*
X58193Y-41381D01*
X58263Y-41336D01*
X58324Y-41279D01*
X58371Y-41211D01*
X58405Y-41134D01*
X58424Y-41053D01*
X58425Y-40958D01*
X58409Y-40876D01*
X58377Y-40799D01*
X58331Y-40730D01*
X58272Y-40671D01*
X58203Y-40624D01*
X58126Y-40592D01*
X58044Y-40575D01*
X57961Y-40575D01*
X57879Y-40590D01*
X57802Y-40622D01*
X57732Y-40667D01*
X57673Y-40726D01*
X57626Y-40795D01*
X57593Y-40871D01*
X57576Y-40953D01*
X57574Y-41036D01*
X57590Y-41118D01*
X57620Y-41196D01*
X57640Y-41227D01*
X57475Y-41393D01*
X57474Y-41394D01*
X57472Y-41395D01*
X57456Y-41415D01*
X57445Y-41434D01*
X57441Y-41442D01*
X57435Y-41461D01*
X57433Y-41469D01*
X57430Y-41498D01*
X57430Y-41500D01*
X57430Y-42179D01*
X57430Y-42180D01*
X57430Y-42182D01*
X57432Y-42208D01*
X57438Y-42228D01*
X57441Y-42237D01*
X57448Y-42250D01*
X57454Y-42262D01*
X57455Y-42263D01*
X57473Y-42285D01*
X57474Y-42286D01*
X57794Y-42606D01*
X57809Y-42618D01*
X57809Y-42619D01*
X57802Y-42622D01*
X57732Y-42667D01*
X57673Y-42726D01*
X57626Y-42795D01*
X57593Y-42871D01*
X57576Y-42953D01*
X57574Y-43036D01*
X57590Y-43118D01*
X57620Y-43196D01*
X57666Y-43266D01*
X57723Y-43325D01*
X57792Y-43373D01*
X57868Y-43406D01*
X57950Y-43424D01*
X58033Y-43426D01*
X58083Y-43416D01*
X58076Y-43454D01*
X58074Y-43537D01*
X58082Y-43583D01*
X58044Y-43575D01*
X57961Y-43575D01*
X57879Y-43590D01*
X57824Y-43612D01*
X57107Y-42895D01*
X57106Y-42894D01*
X57104Y-42892D01*
X57085Y-42876D01*
X57065Y-42865D01*
X57059Y-42862D01*
X57058Y-42861D01*
X57039Y-42855D01*
X57031Y-42853D01*
X57002Y-42850D01*
X57000Y-42850D01*
X53241Y-42850D01*
X53263Y-42836D01*
X53324Y-42779D01*
X53371Y-42711D01*
X53405Y-42634D01*
X53424Y-42553D01*
X53425Y-42458D01*
X53425Y-41458D01*
X53409Y-41376D01*
X53377Y-41299D01*
X53331Y-41230D01*
X53275Y-41174D01*
X53275Y-40789D01*
X53000Y-40514D01*
X52725Y-40789D01*
X52758Y-40851D01*
X52831Y-40891D01*
X52910Y-40916D01*
X52993Y-40926D01*
X53076Y-40919D01*
X53156Y-40897D01*
X53231Y-40859D01*
X53242Y-40851D01*
X53275Y-40789D01*
X53275Y-41174D01*
X53272Y-41171D01*
X53203Y-41124D01*
X53126Y-41092D01*
X53044Y-41075D01*
X52961Y-41075D01*
X52879Y-41090D01*
X52802Y-41122D01*
X52732Y-41167D01*
X52673Y-41226D01*
X52626Y-41295D01*
X52593Y-41371D01*
X52576Y-41453D01*
X52574Y-41536D01*
X52590Y-41618D01*
X52620Y-41696D01*
X52666Y-41766D01*
X52723Y-41825D01*
X52792Y-41873D01*
X52868Y-41906D01*
X52950Y-41924D01*
X53033Y-41926D01*
X53115Y-41911D01*
X53193Y-41881D01*
X53263Y-41836D01*
X53324Y-41779D01*
X53371Y-41711D01*
X53405Y-41634D01*
X53424Y-41553D01*
X53425Y-41458D01*
X53425Y-42458D01*
X53409Y-42376D01*
X53377Y-42299D01*
X53331Y-42230D01*
X53272Y-42171D01*
X53203Y-42124D01*
X53126Y-42092D01*
X53044Y-42075D01*
X52961Y-42075D01*
X52879Y-42090D01*
X52802Y-42122D01*
X52732Y-42167D01*
X52673Y-42226D01*
X52626Y-42295D01*
X52593Y-42371D01*
X52576Y-42453D01*
X52574Y-42536D01*
X52590Y-42618D01*
X52620Y-42696D01*
X52666Y-42766D01*
X52723Y-42825D01*
X52758Y-42850D01*
X52480Y-42850D01*
X52451Y-42853D01*
X52423Y-42861D01*
X52397Y-42875D01*
X52375Y-42893D01*
X52374Y-42894D01*
X52373Y-42895D01*
X52161Y-43106D01*
X52126Y-43092D01*
X52044Y-43075D01*
X51961Y-43075D01*
X51879Y-43090D01*
X51802Y-43122D01*
X51734Y-43165D01*
X51734Y-42832D01*
X51792Y-42873D01*
X51868Y-42906D01*
X51950Y-42924D01*
X52033Y-42926D01*
X52115Y-42911D01*
X52193Y-42881D01*
X52263Y-42836D01*
X52324Y-42779D01*
X52371Y-42711D01*
X52405Y-42634D01*
X52424Y-42553D01*
X52425Y-42458D01*
X52409Y-42376D01*
X52377Y-42299D01*
X52331Y-42230D01*
X52272Y-42171D01*
X52203Y-42124D01*
X52126Y-42092D01*
X52044Y-42075D01*
X51961Y-42075D01*
X51879Y-42090D01*
X51802Y-42122D01*
X51734Y-42165D01*
X51734Y-41962D01*
X51813Y-41882D01*
X51868Y-41906D01*
X51950Y-41924D01*
X52033Y-41926D01*
X52115Y-41911D01*
X52193Y-41881D01*
X52263Y-41836D01*
X52324Y-41779D01*
X52371Y-41711D01*
X52405Y-41634D01*
X52424Y-41553D01*
X52425Y-41458D01*
X52409Y-41376D01*
X52377Y-41299D01*
X52331Y-41230D01*
X52272Y-41171D01*
X52203Y-41124D01*
X52126Y-41092D01*
X52044Y-41075D01*
X51961Y-41075D01*
X51879Y-41090D01*
X51802Y-41122D01*
X51732Y-41167D01*
X51730Y-41169D01*
X51730Y-40829D01*
X51792Y-40873D01*
X51868Y-40906D01*
X51950Y-40924D01*
X52033Y-40926D01*
X52115Y-40911D01*
X52193Y-40881D01*
X52263Y-40836D01*
X52324Y-40779D01*
X52371Y-40711D01*
X52405Y-40634D01*
X52424Y-40553D01*
X52425Y-40458D01*
X52409Y-40376D01*
X52377Y-40299D01*
X52331Y-40230D01*
X52673Y-40230D01*
X52682Y-40239D01*
X52649Y-40258D01*
X52609Y-40331D01*
X52584Y-40410D01*
X52574Y-40493D01*
X52581Y-40576D01*
X52603Y-40656D01*
X52641Y-40731D01*
X52649Y-40742D01*
X52711Y-40775D01*
X52965Y-40521D01*
X52986Y-40500D01*
X53000Y-40486D01*
X53014Y-40500D01*
X53035Y-40521D01*
X53289Y-40775D01*
X53351Y-40742D01*
X53391Y-40669D01*
X53416Y-40590D01*
X53426Y-40507D01*
X53419Y-40424D01*
X53397Y-40344D01*
X53359Y-40269D01*
X53351Y-40258D01*
X53316Y-40240D01*
X53326Y-40230D01*
X56919Y-40230D01*
X56920Y-40230D01*
X56922Y-40229D01*
X56948Y-40228D01*
X56949Y-40227D01*
X56968Y-40221D01*
X56976Y-40219D01*
X56977Y-40219D01*
X56990Y-40212D01*
X57002Y-40206D01*
X57003Y-40205D01*
X57025Y-40187D01*
X57026Y-40186D01*
X57824Y-39387D01*
X57868Y-39406D01*
X57950Y-39424D01*
X58033Y-39426D01*
X58115Y-39411D01*
X58175Y-39387D01*
X59850Y-41062D01*
X59850Y-41259D01*
X59831Y-41231D01*
X59772Y-41172D01*
X59703Y-41125D01*
X59626Y-41093D01*
X59544Y-41076D01*
X59461Y-41076D01*
X59379Y-41091D01*
X59325Y-41113D01*
X58386Y-40174D01*
X58405Y-40134D01*
X58424Y-40053D01*
X58425Y-39958D01*
X58409Y-39876D01*
X58377Y-39799D01*
X58331Y-39730D01*
X58272Y-39671D01*
X58203Y-39624D01*
X58126Y-39592D01*
X58044Y-39575D01*
X57961Y-39575D01*
X57879Y-39590D01*
X57802Y-39622D01*
X57732Y-39667D01*
X57673Y-39726D01*
X57626Y-39795D01*
X57593Y-39871D01*
X57576Y-39953D01*
X57574Y-40036D01*
X57590Y-40118D01*
X57620Y-40196D01*
X57666Y-40266D01*
X57723Y-40325D01*
X57792Y-40373D01*
X57868Y-40406D01*
X57950Y-40424D01*
X58033Y-40426D01*
X58115Y-40411D01*
X58175Y-40387D01*
X59113Y-41325D01*
X59093Y-41372D01*
X59076Y-41454D01*
X59074Y-41537D01*
X59090Y-41619D01*
X59120Y-41697D01*
X59166Y-41767D01*
X59223Y-41826D01*
X59292Y-41874D01*
X59368Y-41907D01*
X59450Y-41925D01*
X59533Y-41927D01*
X59615Y-41912D01*
X59693Y-41882D01*
X59763Y-41837D01*
X59824Y-41780D01*
X59850Y-41742D01*
X59850Y-42019D01*
X59850Y-42020D01*
X59850Y-42022D01*
X59852Y-42048D01*
X59858Y-42068D01*
X59861Y-42077D01*
X59868Y-42090D01*
X59874Y-42102D01*
X59875Y-42103D01*
X59893Y-42125D01*
X59894Y-42126D01*
X60107Y-42339D01*
X60093Y-42372D01*
X60076Y-42454D01*
X60074Y-42537D01*
X60090Y-42619D01*
X60120Y-42697D01*
X60166Y-42767D01*
X60223Y-42826D01*
X60292Y-42874D01*
X60368Y-42907D01*
X60450Y-42925D01*
X60533Y-42927D01*
X60615Y-42912D01*
X60693Y-42882D01*
X60763Y-42837D01*
X60824Y-42780D01*
X60871Y-42712D01*
X60905Y-42635D01*
X60924Y-42554D01*
X60925Y-42459D01*
X60909Y-42377D01*
X60877Y-42300D01*
X60831Y-42231D01*
X60772Y-42172D01*
X60703Y-42125D01*
X60626Y-42093D01*
X60544Y-42076D01*
X60461Y-42076D01*
X60379Y-42091D01*
X60311Y-42119D01*
X60150Y-41958D01*
X60150Y-41742D01*
X60166Y-41767D01*
X60223Y-41826D01*
X60292Y-41874D01*
X60368Y-41907D01*
X60450Y-41925D01*
X60533Y-41927D01*
X60615Y-41912D01*
X60693Y-41882D01*
X60763Y-41837D01*
X60824Y-41780D01*
X60870Y-41713D01*
X60870Y-42019D01*
X60870Y-42020D01*
X60870Y-42022D01*
X60872Y-42048D01*
X60878Y-42068D01*
X60881Y-42077D01*
X60888Y-42090D01*
X60894Y-42102D01*
X60895Y-42103D01*
X60913Y-42125D01*
X60914Y-42126D01*
X61075Y-42287D01*
X61075Y-42827D01*
X61079Y-42848D01*
X61087Y-42868D01*
X61099Y-42885D01*
X61114Y-42901D01*
X61132Y-42913D01*
X61152Y-42921D01*
X61173Y-42925D01*
X61194Y-42925D01*
X61349Y-42925D01*
X61349Y-43805D01*
G36*
X63583Y-46083D02*
X63543Y-46075D01*
X63460Y-46075D01*
X63378Y-46090D01*
X63301Y-46122D01*
X63231Y-46167D01*
X63172Y-46226D01*
X63125Y-46295D01*
X63092Y-46371D01*
X63075Y-46453D01*
X63073Y-46536D01*
X63089Y-46618D01*
X63119Y-46696D01*
X63165Y-46766D01*
X63222Y-46825D01*
X63257Y-46850D01*
X63061Y-46850D01*
X62885Y-46674D01*
X62904Y-46634D01*
X62923Y-46553D01*
X62924Y-46458D01*
X62908Y-46376D01*
X62876Y-46299D01*
X62830Y-46230D01*
X62771Y-46171D01*
X62702Y-46124D01*
X62625Y-46092D01*
X62543Y-46075D01*
X62460Y-46075D01*
X62378Y-46090D01*
X62301Y-46122D01*
X62231Y-46167D01*
X62212Y-46186D01*
X62212Y-46062D01*
X62209Y-46034D01*
X62209Y-46033D01*
X62201Y-46006D01*
X62201Y-46005D01*
X62187Y-45979D01*
X62169Y-45957D01*
X62168Y-45956D01*
X62167Y-45955D01*
X61942Y-45730D01*
X61942Y-44794D01*
X61942Y-44793D01*
X61941Y-44791D01*
X61940Y-44765D01*
X61939Y-44764D01*
X61933Y-44745D01*
X61931Y-44737D01*
X61931Y-44736D01*
X61924Y-44723D01*
X61918Y-44711D01*
X61917Y-44710D01*
X61899Y-44688D01*
X61898Y-44687D01*
X61548Y-44337D01*
X61557Y-44336D01*
X61609Y-44316D01*
X61656Y-44286D01*
X61697Y-44247D01*
X61729Y-44201D01*
X61752Y-44150D01*
X61764Y-44096D01*
X61765Y-44032D01*
X61754Y-43977D01*
X61733Y-43926D01*
X61702Y-43879D01*
X61662Y-43839D01*
X61649Y-43830D01*
X61649Y-42925D01*
X61825Y-42925D01*
X61846Y-42921D01*
X61866Y-42913D01*
X61883Y-42901D01*
X61899Y-42886D01*
X61911Y-42868D01*
X61919Y-42848D01*
X61923Y-42827D01*
X61923Y-42806D01*
X61923Y-42175D01*
X61919Y-42154D01*
X61911Y-42134D01*
X61899Y-42117D01*
X61884Y-42101D01*
X61866Y-42089D01*
X61846Y-42081D01*
X61825Y-42077D01*
X61804Y-42077D01*
X61289Y-42077D01*
X61170Y-41958D01*
X61170Y-41772D01*
X61222Y-41826D01*
X61291Y-41874D01*
X61367Y-41907D01*
X61449Y-41925D01*
X61532Y-41927D01*
X61614Y-41912D01*
X61692Y-41882D01*
X61762Y-41837D01*
X61823Y-41780D01*
X61850Y-41740D01*
X61850Y-42001D01*
X61850Y-42002D01*
X61850Y-42004D01*
X61852Y-42030D01*
X61858Y-42050D01*
X61861Y-42059D01*
X61868Y-42072D01*
X61874Y-42084D01*
X61875Y-42085D01*
X61893Y-42107D01*
X61894Y-42108D01*
X62111Y-42326D01*
X62092Y-42372D01*
X62075Y-42454D01*
X62073Y-42537D01*
X62089Y-42619D01*
X62119Y-42697D01*
X62165Y-42767D01*
X62222Y-42826D01*
X62291Y-42874D01*
X62367Y-42907D01*
X62449Y-42925D01*
X62532Y-42927D01*
X62614Y-42912D01*
X62692Y-42882D01*
X62762Y-42837D01*
X62823Y-42780D01*
X62850Y-42740D01*
X62850Y-42938D01*
X62674Y-43113D01*
X62625Y-43093D01*
X62543Y-43076D01*
X62460Y-43076D01*
X62378Y-43091D01*
X62301Y-43123D01*
X62231Y-43168D01*
X62172Y-43227D01*
X62125Y-43296D01*
X62092Y-43372D01*
X62075Y-43454D01*
X62073Y-43537D01*
X62089Y-43619D01*
X62119Y-43697D01*
X62165Y-43767D01*
X62222Y-43826D01*
X62291Y-43874D01*
X62367Y-43907D01*
X62449Y-43925D01*
X62532Y-43927D01*
X62614Y-43912D01*
X62692Y-43882D01*
X62762Y-43837D01*
X62823Y-43780D01*
X62870Y-43712D01*
X62890Y-43666D01*
X62890Y-43897D01*
X62674Y-44112D01*
X62625Y-44092D01*
X62543Y-44075D01*
X62460Y-44075D01*
X62378Y-44090D01*
X62301Y-44122D01*
X62231Y-44167D01*
X62172Y-44226D01*
X62125Y-44295D01*
X62092Y-44371D01*
X62075Y-44453D01*
X62073Y-44536D01*
X62089Y-44618D01*
X62119Y-44696D01*
X62165Y-44766D01*
X62222Y-44825D01*
X62291Y-44873D01*
X62367Y-44906D01*
X62449Y-44924D01*
X62532Y-44926D01*
X62614Y-44911D01*
X62692Y-44881D01*
X62762Y-44836D01*
X62823Y-44779D01*
X62870Y-44711D01*
X62904Y-44634D01*
X62923Y-44553D01*
X62924Y-44458D01*
X62908Y-44376D01*
X62886Y-44324D01*
X63145Y-44066D01*
X63146Y-44065D01*
X63148Y-44062D01*
X63164Y-44044D01*
X63164Y-44043D01*
X63172Y-44029D01*
X63178Y-44018D01*
X63179Y-44017D01*
X63184Y-43998D01*
X63187Y-43990D01*
X63187Y-43989D01*
X63190Y-43961D01*
X63190Y-43959D01*
X63190Y-43792D01*
X63222Y-43826D01*
X63291Y-43874D01*
X63367Y-43907D01*
X63449Y-43925D01*
X63532Y-43927D01*
X63583Y-43917D01*
X63576Y-43953D01*
X63574Y-44036D01*
X63583Y-44083D01*
X63543Y-44075D01*
X63460Y-44075D01*
X63378Y-44090D01*
X63301Y-44122D01*
X63231Y-44167D01*
X63172Y-44226D01*
X63125Y-44295D01*
X63092Y-44371D01*
X63075Y-44453D01*
X63073Y-44536D01*
X63089Y-44618D01*
X63119Y-44696D01*
X63165Y-44766D01*
X63222Y-44825D01*
X63264Y-44854D01*
X63252Y-44858D01*
X63243Y-44861D01*
X63230Y-44868D01*
X63218Y-44874D01*
X63195Y-44893D01*
X63194Y-44894D01*
X62841Y-45246D01*
X62830Y-45230D01*
X62771Y-45171D01*
X62702Y-45124D01*
X62625Y-45092D01*
X62543Y-45075D01*
X62460Y-45075D01*
X62378Y-45090D01*
X62301Y-45122D01*
X62231Y-45167D01*
X62172Y-45226D01*
X62125Y-45295D01*
X62092Y-45371D01*
X62075Y-45453D01*
X62073Y-45536D01*
X62089Y-45618D01*
X62119Y-45696D01*
X62165Y-45766D01*
X62222Y-45825D01*
X62291Y-45873D01*
X62367Y-45906D01*
X62449Y-45924D01*
X62532Y-45926D01*
X62614Y-45911D01*
X62692Y-45881D01*
X62762Y-45836D01*
X62823Y-45779D01*
X62870Y-45711D01*
X62904Y-45634D01*
X62911Y-45600D01*
X63079Y-45432D01*
X63075Y-45453D01*
X63073Y-45536D01*
X63089Y-45618D01*
X63119Y-45696D01*
X63165Y-45766D01*
X63222Y-45825D01*
X63291Y-45873D01*
X63367Y-45906D01*
X63449Y-45924D01*
X63532Y-45926D01*
X63583Y-45916D01*
X63576Y-45953D01*
X63574Y-46036D01*
X63583Y-46083D01*
X63583Y-46083D01*
G37*
X63583Y-46083D02*
X63543Y-46075D01*
X63460Y-46075D01*
X63378Y-46090D01*
X63301Y-46122D01*
X63231Y-46167D01*
X63172Y-46226D01*
X63125Y-46295D01*
X63092Y-46371D01*
X63075Y-46453D01*
X63073Y-46536D01*
X63089Y-46618D01*
X63119Y-46696D01*
X63165Y-46766D01*
X63222Y-46825D01*
X63257Y-46850D01*
X63061Y-46850D01*
X62885Y-46674D01*
X62904Y-46634D01*
X62923Y-46553D01*
X62924Y-46458D01*
X62908Y-46376D01*
X62876Y-46299D01*
X62830Y-46230D01*
X62771Y-46171D01*
X62702Y-46124D01*
X62625Y-46092D01*
X62543Y-46075D01*
X62460Y-46075D01*
X62378Y-46090D01*
X62301Y-46122D01*
X62231Y-46167D01*
X62212Y-46186D01*
X62212Y-46062D01*
X62209Y-46034D01*
X62209Y-46033D01*
X62201Y-46006D01*
X62201Y-46005D01*
X62187Y-45979D01*
X62169Y-45957D01*
X62168Y-45956D01*
X62167Y-45955D01*
X61942Y-45730D01*
X61942Y-44794D01*
X61942Y-44793D01*
X61941Y-44791D01*
X61940Y-44765D01*
X61939Y-44764D01*
X61933Y-44745D01*
X61931Y-44737D01*
X61931Y-44736D01*
X61924Y-44723D01*
X61918Y-44711D01*
X61917Y-44710D01*
X61899Y-44688D01*
X61898Y-44687D01*
X61548Y-44337D01*
X61557Y-44336D01*
X61609Y-44316D01*
X61656Y-44286D01*
X61697Y-44247D01*
X61729Y-44201D01*
X61752Y-44150D01*
X61764Y-44096D01*
X61765Y-44032D01*
X61754Y-43977D01*
X61733Y-43926D01*
X61702Y-43879D01*
X61662Y-43839D01*
X61649Y-43830D01*
X61649Y-42925D01*
X61825Y-42925D01*
X61846Y-42921D01*
X61866Y-42913D01*
X61883Y-42901D01*
X61899Y-42886D01*
X61911Y-42868D01*
X61919Y-42848D01*
X61923Y-42827D01*
X61923Y-42806D01*
X61923Y-42175D01*
X61919Y-42154D01*
X61911Y-42134D01*
X61899Y-42117D01*
X61884Y-42101D01*
X61866Y-42089D01*
X61846Y-42081D01*
X61825Y-42077D01*
X61804Y-42077D01*
X61289Y-42077D01*
X61170Y-41958D01*
X61170Y-41772D01*
X61222Y-41826D01*
X61291Y-41874D01*
X61367Y-41907D01*
X61449Y-41925D01*
X61532Y-41927D01*
X61614Y-41912D01*
X61692Y-41882D01*
X61762Y-41837D01*
X61823Y-41780D01*
X61850Y-41740D01*
X61850Y-42001D01*
X61850Y-42002D01*
X61850Y-42004D01*
X61852Y-42030D01*
X61858Y-42050D01*
X61861Y-42059D01*
X61868Y-42072D01*
X61874Y-42084D01*
X61875Y-42085D01*
X61893Y-42107D01*
X61894Y-42108D01*
X62111Y-42326D01*
X62092Y-42372D01*
X62075Y-42454D01*
X62073Y-42537D01*
X62089Y-42619D01*
X62119Y-42697D01*
X62165Y-42767D01*
X62222Y-42826D01*
X62291Y-42874D01*
X62367Y-42907D01*
X62449Y-42925D01*
X62532Y-42927D01*
X62614Y-42912D01*
X62692Y-42882D01*
X62762Y-42837D01*
X62823Y-42780D01*
X62850Y-42740D01*
X62850Y-42938D01*
X62674Y-43113D01*
X62625Y-43093D01*
X62543Y-43076D01*
X62460Y-43076D01*
X62378Y-43091D01*
X62301Y-43123D01*
X62231Y-43168D01*
X62172Y-43227D01*
X62125Y-43296D01*
X62092Y-43372D01*
X62075Y-43454D01*
X62073Y-43537D01*
X62089Y-43619D01*
X62119Y-43697D01*
X62165Y-43767D01*
X62222Y-43826D01*
X62291Y-43874D01*
X62367Y-43907D01*
X62449Y-43925D01*
X62532Y-43927D01*
X62614Y-43912D01*
X62692Y-43882D01*
X62762Y-43837D01*
X62823Y-43780D01*
X62870Y-43712D01*
X62890Y-43666D01*
X62890Y-43897D01*
X62674Y-44112D01*
X62625Y-44092D01*
X62543Y-44075D01*
X62460Y-44075D01*
X62378Y-44090D01*
X62301Y-44122D01*
X62231Y-44167D01*
X62172Y-44226D01*
X62125Y-44295D01*
X62092Y-44371D01*
X62075Y-44453D01*
X62073Y-44536D01*
X62089Y-44618D01*
X62119Y-44696D01*
X62165Y-44766D01*
X62222Y-44825D01*
X62291Y-44873D01*
X62367Y-44906D01*
X62449Y-44924D01*
X62532Y-44926D01*
X62614Y-44911D01*
X62692Y-44881D01*
X62762Y-44836D01*
X62823Y-44779D01*
X62870Y-44711D01*
X62904Y-44634D01*
X62923Y-44553D01*
X62924Y-44458D01*
X62908Y-44376D01*
X62886Y-44324D01*
X63145Y-44066D01*
X63146Y-44065D01*
X63148Y-44062D01*
X63164Y-44044D01*
X63164Y-44043D01*
X63172Y-44029D01*
X63178Y-44018D01*
X63179Y-44017D01*
X63184Y-43998D01*
X63187Y-43990D01*
X63187Y-43989D01*
X63190Y-43961D01*
X63190Y-43959D01*
X63190Y-43792D01*
X63222Y-43826D01*
X63291Y-43874D01*
X63367Y-43907D01*
X63449Y-43925D01*
X63532Y-43927D01*
X63583Y-43917D01*
X63576Y-43953D01*
X63574Y-44036D01*
X63583Y-44083D01*
X63543Y-44075D01*
X63460Y-44075D01*
X63378Y-44090D01*
X63301Y-44122D01*
X63231Y-44167D01*
X63172Y-44226D01*
X63125Y-44295D01*
X63092Y-44371D01*
X63075Y-44453D01*
X63073Y-44536D01*
X63089Y-44618D01*
X63119Y-44696D01*
X63165Y-44766D01*
X63222Y-44825D01*
X63264Y-44854D01*
X63252Y-44858D01*
X63243Y-44861D01*
X63230Y-44868D01*
X63218Y-44874D01*
X63195Y-44893D01*
X63194Y-44894D01*
X62841Y-45246D01*
X62830Y-45230D01*
X62771Y-45171D01*
X62702Y-45124D01*
X62625Y-45092D01*
X62543Y-45075D01*
X62460Y-45075D01*
X62378Y-45090D01*
X62301Y-45122D01*
X62231Y-45167D01*
X62172Y-45226D01*
X62125Y-45295D01*
X62092Y-45371D01*
X62075Y-45453D01*
X62073Y-45536D01*
X62089Y-45618D01*
X62119Y-45696D01*
X62165Y-45766D01*
X62222Y-45825D01*
X62291Y-45873D01*
X62367Y-45906D01*
X62449Y-45924D01*
X62532Y-45926D01*
X62614Y-45911D01*
X62692Y-45881D01*
X62762Y-45836D01*
X62823Y-45779D01*
X62870Y-45711D01*
X62904Y-45634D01*
X62911Y-45600D01*
X63079Y-45432D01*
X63075Y-45453D01*
X63073Y-45536D01*
X63089Y-45618D01*
X63119Y-45696D01*
X63165Y-45766D01*
X63222Y-45825D01*
X63291Y-45873D01*
X63367Y-45906D01*
X63449Y-45924D01*
X63532Y-45926D01*
X63583Y-45916D01*
X63576Y-45953D01*
X63574Y-46036D01*
X63583Y-46083D01*
G36*
X63794Y-40626D02*
X63732Y-40667D01*
X63673Y-40726D01*
X63626Y-40795D01*
X63593Y-40871D01*
X63576Y-40953D01*
X63574Y-41036D01*
X63590Y-41118D01*
X63594Y-41130D01*
X63593Y-41131D01*
X63565Y-41139D01*
X63539Y-41153D01*
X63517Y-41171D01*
X63515Y-41172D01*
X63251Y-41437D01*
X63249Y-41438D01*
X63233Y-41458D01*
X63222Y-41477D01*
X63218Y-41485D01*
X63212Y-41504D01*
X63210Y-41512D01*
X63207Y-41541D01*
X63207Y-41543D01*
X63207Y-41958D01*
X62895Y-42270D01*
X62894Y-42271D01*
X62892Y-42272D01*
X62876Y-42292D01*
X62873Y-42296D01*
X62830Y-42231D01*
X62771Y-42172D01*
X62702Y-42125D01*
X62625Y-42093D01*
X62543Y-42076D01*
X62460Y-42076D01*
X62378Y-42091D01*
X62323Y-42113D01*
X62150Y-41939D01*
X62150Y-41744D01*
X62165Y-41767D01*
X62222Y-41826D01*
X62291Y-41874D01*
X62367Y-41907D01*
X62449Y-41925D01*
X62532Y-41927D01*
X62614Y-41912D01*
X62692Y-41882D01*
X62762Y-41837D01*
X62823Y-41780D01*
X62870Y-41712D01*
X62904Y-41635D01*
X62923Y-41554D01*
X62924Y-41459D01*
X62908Y-41377D01*
X62876Y-41300D01*
X62830Y-41231D01*
X62771Y-41172D01*
X62702Y-41125D01*
X62663Y-41108D01*
X63470Y-40302D01*
X63794Y-40626D01*
X63794Y-40626D01*
G37*
X63794Y-40626D02*
X63732Y-40667D01*
X63673Y-40726D01*
X63626Y-40795D01*
X63593Y-40871D01*
X63576Y-40953D01*
X63574Y-41036D01*
X63590Y-41118D01*
X63594Y-41130D01*
X63593Y-41131D01*
X63565Y-41139D01*
X63539Y-41153D01*
X63517Y-41171D01*
X63515Y-41172D01*
X63251Y-41437D01*
X63249Y-41438D01*
X63233Y-41458D01*
X63222Y-41477D01*
X63218Y-41485D01*
X63212Y-41504D01*
X63210Y-41512D01*
X63207Y-41541D01*
X63207Y-41543D01*
X63207Y-41958D01*
X62895Y-42270D01*
X62894Y-42271D01*
X62892Y-42272D01*
X62876Y-42292D01*
X62873Y-42296D01*
X62830Y-42231D01*
X62771Y-42172D01*
X62702Y-42125D01*
X62625Y-42093D01*
X62543Y-42076D01*
X62460Y-42076D01*
X62378Y-42091D01*
X62323Y-42113D01*
X62150Y-41939D01*
X62150Y-41744D01*
X62165Y-41767D01*
X62222Y-41826D01*
X62291Y-41874D01*
X62367Y-41907D01*
X62449Y-41925D01*
X62532Y-41927D01*
X62614Y-41912D01*
X62692Y-41882D01*
X62762Y-41837D01*
X62823Y-41780D01*
X62870Y-41712D01*
X62904Y-41635D01*
X62923Y-41554D01*
X62924Y-41459D01*
X62908Y-41377D01*
X62876Y-41300D01*
X62830Y-41231D01*
X62771Y-41172D01*
X62702Y-41125D01*
X62663Y-41108D01*
X63470Y-40302D01*
X63794Y-40626D01*
G36*
X65999Y-45008D02*
X64409Y-46597D01*
X64207Y-46395D01*
X64206Y-46394D01*
X64204Y-46392D01*
X64191Y-46381D01*
X64193Y-46381D01*
X64263Y-46336D01*
X64324Y-46279D01*
X64371Y-46211D01*
X64405Y-46134D01*
X64424Y-46053D01*
X64425Y-45958D01*
X64409Y-45876D01*
X64377Y-45799D01*
X64331Y-45730D01*
X64272Y-45671D01*
X64203Y-45624D01*
X64126Y-45592D01*
X64044Y-45575D01*
X63961Y-45575D01*
X63915Y-45583D01*
X63923Y-45553D01*
X63924Y-45458D01*
X63915Y-45416D01*
X63950Y-45424D01*
X64033Y-45426D01*
X64115Y-45411D01*
X64193Y-45381D01*
X64263Y-45336D01*
X64324Y-45279D01*
X64371Y-45211D01*
X64405Y-45134D01*
X64424Y-45053D01*
X64424Y-45008D01*
X65999Y-45008D01*
X65999Y-45008D01*
G37*
X65999Y-45008D02*
X64409Y-46597D01*
X64207Y-46395D01*
X64206Y-46394D01*
X64204Y-46392D01*
X64191Y-46381D01*
X64193Y-46381D01*
X64263Y-46336D01*
X64324Y-46279D01*
X64371Y-46211D01*
X64405Y-46134D01*
X64424Y-46053D01*
X64425Y-45958D01*
X64409Y-45876D01*
X64377Y-45799D01*
X64331Y-45730D01*
X64272Y-45671D01*
X64203Y-45624D01*
X64126Y-45592D01*
X64044Y-45575D01*
X63961Y-45575D01*
X63915Y-45583D01*
X63923Y-45553D01*
X63924Y-45458D01*
X63915Y-45416D01*
X63950Y-45424D01*
X64033Y-45426D01*
X64115Y-45411D01*
X64193Y-45381D01*
X64263Y-45336D01*
X64324Y-45279D01*
X64371Y-45211D01*
X64405Y-45134D01*
X64424Y-45053D01*
X64424Y-45008D01*
X65999Y-45008D01*
G36*
X67646Y-49645D02*
X67627Y-49661D01*
X67626Y-49662D01*
X67175Y-50112D01*
X67126Y-50092D01*
X67044Y-50075D01*
X66961Y-50075D01*
X66879Y-50090D01*
X66802Y-50122D01*
X66732Y-50167D01*
X66673Y-50226D01*
X66626Y-50295D01*
X66593Y-50371D01*
X66576Y-50453D01*
X66574Y-50536D01*
X66590Y-50618D01*
X66612Y-50675D01*
X66458Y-50830D01*
X66269Y-50830D01*
X66324Y-50779D01*
X66371Y-50711D01*
X66405Y-50634D01*
X66424Y-50553D01*
X66425Y-50458D01*
X66409Y-50376D01*
X66377Y-50299D01*
X66331Y-50230D01*
X66272Y-50171D01*
X66203Y-50124D01*
X66126Y-50092D01*
X66044Y-50075D01*
X65961Y-50075D01*
X65879Y-50090D01*
X65802Y-50122D01*
X65732Y-50167D01*
X65673Y-50226D01*
X65626Y-50295D01*
X65593Y-50371D01*
X65576Y-50453D01*
X65574Y-50536D01*
X65590Y-50618D01*
X65620Y-50696D01*
X65666Y-50766D01*
X65723Y-50825D01*
X65730Y-50830D01*
X65021Y-50830D01*
X65020Y-50830D01*
X64991Y-50833D01*
X64963Y-50841D01*
X64950Y-50848D01*
X64938Y-50854D01*
X64915Y-50873D01*
X64914Y-50874D01*
X64175Y-51612D01*
X64126Y-51592D01*
X64044Y-51575D01*
X63961Y-51575D01*
X63879Y-51590D01*
X63824Y-51612D01*
X63710Y-51498D01*
X63710Y-51311D01*
X63723Y-51325D01*
X63792Y-51373D01*
X63868Y-51406D01*
X63950Y-51424D01*
X64033Y-51426D01*
X64115Y-51411D01*
X64193Y-51381D01*
X64263Y-51336D01*
X64324Y-51279D01*
X64371Y-51211D01*
X64405Y-51134D01*
X64424Y-51053D01*
X64425Y-50958D01*
X64409Y-50876D01*
X64377Y-50799D01*
X64331Y-50730D01*
X64272Y-50671D01*
X64203Y-50624D01*
X64126Y-50592D01*
X64044Y-50575D01*
X63961Y-50575D01*
X63879Y-50590D01*
X63824Y-50612D01*
X63710Y-50498D01*
X63710Y-50311D01*
X63723Y-50325D01*
X63792Y-50373D01*
X63868Y-50406D01*
X63950Y-50424D01*
X64033Y-50426D01*
X64115Y-50411D01*
X64193Y-50381D01*
X64263Y-50336D01*
X64324Y-50279D01*
X64371Y-50211D01*
X64405Y-50134D01*
X64424Y-50053D01*
X64425Y-49958D01*
X64409Y-49876D01*
X64377Y-49799D01*
X64331Y-49730D01*
X64272Y-49671D01*
X64241Y-49650D01*
X67579Y-49650D01*
X67580Y-49650D01*
X67582Y-49649D01*
X67608Y-49648D01*
X67609Y-49647D01*
X67616Y-49645D01*
X67617Y-49645D01*
X67646Y-49645D01*
X67646Y-49645D01*
G37*
X67646Y-49645D02*
X67627Y-49661D01*
X67626Y-49662D01*
X67175Y-50112D01*
X67126Y-50092D01*
X67044Y-50075D01*
X66961Y-50075D01*
X66879Y-50090D01*
X66802Y-50122D01*
X66732Y-50167D01*
X66673Y-50226D01*
X66626Y-50295D01*
X66593Y-50371D01*
X66576Y-50453D01*
X66574Y-50536D01*
X66590Y-50618D01*
X66612Y-50675D01*
X66458Y-50830D01*
X66269Y-50830D01*
X66324Y-50779D01*
X66371Y-50711D01*
X66405Y-50634D01*
X66424Y-50553D01*
X66425Y-50458D01*
X66409Y-50376D01*
X66377Y-50299D01*
X66331Y-50230D01*
X66272Y-50171D01*
X66203Y-50124D01*
X66126Y-50092D01*
X66044Y-50075D01*
X65961Y-50075D01*
X65879Y-50090D01*
X65802Y-50122D01*
X65732Y-50167D01*
X65673Y-50226D01*
X65626Y-50295D01*
X65593Y-50371D01*
X65576Y-50453D01*
X65574Y-50536D01*
X65590Y-50618D01*
X65620Y-50696D01*
X65666Y-50766D01*
X65723Y-50825D01*
X65730Y-50830D01*
X65021Y-50830D01*
X65020Y-50830D01*
X64991Y-50833D01*
X64963Y-50841D01*
X64950Y-50848D01*
X64938Y-50854D01*
X64915Y-50873D01*
X64914Y-50874D01*
X64175Y-51612D01*
X64126Y-51592D01*
X64044Y-51575D01*
X63961Y-51575D01*
X63879Y-51590D01*
X63824Y-51612D01*
X63710Y-51498D01*
X63710Y-51311D01*
X63723Y-51325D01*
X63792Y-51373D01*
X63868Y-51406D01*
X63950Y-51424D01*
X64033Y-51426D01*
X64115Y-51411D01*
X64193Y-51381D01*
X64263Y-51336D01*
X64324Y-51279D01*
X64371Y-51211D01*
X64405Y-51134D01*
X64424Y-51053D01*
X64425Y-50958D01*
X64409Y-50876D01*
X64377Y-50799D01*
X64331Y-50730D01*
X64272Y-50671D01*
X64203Y-50624D01*
X64126Y-50592D01*
X64044Y-50575D01*
X63961Y-50575D01*
X63879Y-50590D01*
X63824Y-50612D01*
X63710Y-50498D01*
X63710Y-50311D01*
X63723Y-50325D01*
X63792Y-50373D01*
X63868Y-50406D01*
X63950Y-50424D01*
X64033Y-50426D01*
X64115Y-50411D01*
X64193Y-50381D01*
X64263Y-50336D01*
X64324Y-50279D01*
X64371Y-50211D01*
X64405Y-50134D01*
X64424Y-50053D01*
X64425Y-49958D01*
X64409Y-49876D01*
X64377Y-49799D01*
X64331Y-49730D01*
X64272Y-49671D01*
X64241Y-49650D01*
X67579Y-49650D01*
X67580Y-49650D01*
X67582Y-49649D01*
X67608Y-49648D01*
X67609Y-49647D01*
X67616Y-49645D01*
X67617Y-49645D01*
X67646Y-49645D01*
G36*
X68667Y-43768D02*
X67420Y-43768D01*
X64732Y-41080D01*
X64732Y-40762D01*
X64729Y-40734D01*
X64729Y-40733D01*
X64721Y-40706D01*
X64721Y-40705D01*
X64707Y-40679D01*
X64689Y-40657D01*
X64688Y-40656D01*
X64687Y-40655D01*
X64590Y-40558D01*
X64590Y-39821D01*
X64590Y-39820D01*
X64587Y-39792D01*
X64587Y-39791D01*
X64579Y-39764D01*
X64579Y-39763D01*
X64572Y-39750D01*
X64566Y-39738D01*
X64565Y-39737D01*
X64547Y-39715D01*
X64546Y-39714D01*
X64307Y-39475D01*
X64306Y-39474D01*
X64304Y-39472D01*
X64285Y-39456D01*
X64265Y-39445D01*
X64259Y-39442D01*
X64258Y-39441D01*
X64239Y-39435D01*
X64231Y-39433D01*
X64202Y-39430D01*
X64200Y-39430D01*
X63982Y-39430D01*
X63987Y-39424D01*
X64033Y-39426D01*
X64115Y-39411D01*
X64193Y-39381D01*
X64263Y-39336D01*
X64324Y-39279D01*
X64371Y-39211D01*
X64405Y-39134D01*
X64424Y-39053D01*
X64424Y-38976D01*
X65533Y-40085D01*
X65534Y-40086D01*
X65537Y-40088D01*
X65555Y-40104D01*
X65556Y-40104D01*
X65581Y-40118D01*
X65582Y-40118D01*
X65609Y-40127D01*
X65610Y-40127D01*
X65638Y-40130D01*
X65640Y-40130D01*
X65958Y-40130D01*
X67930Y-42102D01*
X67930Y-42579D01*
X67930Y-42580D01*
X67930Y-42582D01*
X67932Y-42608D01*
X67938Y-42628D01*
X67941Y-42637D01*
X67948Y-42650D01*
X67954Y-42662D01*
X67955Y-42663D01*
X67973Y-42685D01*
X67974Y-42686D01*
X68612Y-43324D01*
X68593Y-43371D01*
X68576Y-43453D01*
X68574Y-43536D01*
X68590Y-43618D01*
X68620Y-43696D01*
X68666Y-43766D01*
X68667Y-43768D01*
X68667Y-43768D01*
G37*
X68667Y-43768D02*
X67420Y-43768D01*
X64732Y-41080D01*
X64732Y-40762D01*
X64729Y-40734D01*
X64729Y-40733D01*
X64721Y-40706D01*
X64721Y-40705D01*
X64707Y-40679D01*
X64689Y-40657D01*
X64688Y-40656D01*
X64687Y-40655D01*
X64590Y-40558D01*
X64590Y-39821D01*
X64590Y-39820D01*
X64587Y-39792D01*
X64587Y-39791D01*
X64579Y-39764D01*
X64579Y-39763D01*
X64572Y-39750D01*
X64566Y-39738D01*
X64565Y-39737D01*
X64547Y-39715D01*
X64546Y-39714D01*
X64307Y-39475D01*
X64306Y-39474D01*
X64304Y-39472D01*
X64285Y-39456D01*
X64265Y-39445D01*
X64259Y-39442D01*
X64258Y-39441D01*
X64239Y-39435D01*
X64231Y-39433D01*
X64202Y-39430D01*
X64200Y-39430D01*
X63982Y-39430D01*
X63987Y-39424D01*
X64033Y-39426D01*
X64115Y-39411D01*
X64193Y-39381D01*
X64263Y-39336D01*
X64324Y-39279D01*
X64371Y-39211D01*
X64405Y-39134D01*
X64424Y-39053D01*
X64424Y-38976D01*
X65533Y-40085D01*
X65534Y-40086D01*
X65537Y-40088D01*
X65555Y-40104D01*
X65556Y-40104D01*
X65581Y-40118D01*
X65582Y-40118D01*
X65609Y-40127D01*
X65610Y-40127D01*
X65638Y-40130D01*
X65640Y-40130D01*
X65958Y-40130D01*
X67930Y-42102D01*
X67930Y-42579D01*
X67930Y-42580D01*
X67930Y-42582D01*
X67932Y-42608D01*
X67938Y-42628D01*
X67941Y-42637D01*
X67948Y-42650D01*
X67954Y-42662D01*
X67955Y-42663D01*
X67973Y-42685D01*
X67974Y-42686D01*
X68612Y-43324D01*
X68593Y-43371D01*
X68576Y-43453D01*
X68574Y-43536D01*
X68590Y-43618D01*
X68620Y-43696D01*
X68666Y-43766D01*
X68667Y-43768D01*
G36*
X68689Y-44210D02*
X68673Y-44226D01*
X68626Y-44295D01*
X68593Y-44371D01*
X68576Y-44453D01*
X68574Y-44536D01*
X68590Y-44618D01*
X68611Y-44674D01*
X68578Y-44708D01*
X64309Y-44708D01*
X64272Y-44671D01*
X64203Y-44624D01*
X64126Y-44592D01*
X64044Y-44575D01*
X63961Y-44575D01*
X63915Y-44583D01*
X63923Y-44553D01*
X63924Y-44458D01*
X63915Y-44416D01*
X63950Y-44424D01*
X64033Y-44426D01*
X64115Y-44411D01*
X64193Y-44381D01*
X64263Y-44336D01*
X64324Y-44279D01*
X64371Y-44211D01*
X64405Y-44134D01*
X64424Y-44053D01*
X64425Y-43958D01*
X64409Y-43876D01*
X64377Y-43799D01*
X64331Y-43730D01*
X64272Y-43671D01*
X64203Y-43624D01*
X64190Y-43618D01*
X64204Y-43608D01*
X64205Y-43607D01*
X64525Y-43287D01*
X64544Y-43265D01*
X64544Y-43264D01*
X64558Y-43239D01*
X64567Y-43211D01*
X64570Y-43182D01*
X64570Y-43180D01*
X64570Y-42420D01*
X64567Y-42392D01*
X64567Y-42391D01*
X64559Y-42363D01*
X64545Y-42337D01*
X64527Y-42315D01*
X64526Y-42314D01*
X64525Y-42313D01*
X64386Y-42174D01*
X64405Y-42134D01*
X64424Y-42053D01*
X64425Y-41958D01*
X64409Y-41876D01*
X64377Y-41799D01*
X64331Y-41730D01*
X64272Y-41671D01*
X64203Y-41624D01*
X64126Y-41592D01*
X64044Y-41575D01*
X63961Y-41575D01*
X63879Y-41590D01*
X63802Y-41622D01*
X63732Y-41667D01*
X63673Y-41726D01*
X63649Y-41761D01*
X63649Y-41663D01*
X63742Y-41570D01*
X64179Y-41570D01*
X64180Y-41570D01*
X64182Y-41569D01*
X64208Y-41568D01*
X64209Y-41567D01*
X64228Y-41561D01*
X64236Y-41559D01*
X64237Y-41559D01*
X64250Y-41552D01*
X64262Y-41546D01*
X64263Y-41545D01*
X64285Y-41527D01*
X64286Y-41526D01*
X64420Y-41392D01*
X67193Y-44165D01*
X67215Y-44184D01*
X67216Y-44184D01*
X67241Y-44198D01*
X67269Y-44207D01*
X67298Y-44210D01*
X67300Y-44210D01*
X68689Y-44210D01*
X68689Y-44210D01*
G37*
X68689Y-44210D02*
X68673Y-44226D01*
X68626Y-44295D01*
X68593Y-44371D01*
X68576Y-44453D01*
X68574Y-44536D01*
X68590Y-44618D01*
X68611Y-44674D01*
X68578Y-44708D01*
X64309Y-44708D01*
X64272Y-44671D01*
X64203Y-44624D01*
X64126Y-44592D01*
X64044Y-44575D01*
X63961Y-44575D01*
X63915Y-44583D01*
X63923Y-44553D01*
X63924Y-44458D01*
X63915Y-44416D01*
X63950Y-44424D01*
X64033Y-44426D01*
X64115Y-44411D01*
X64193Y-44381D01*
X64263Y-44336D01*
X64324Y-44279D01*
X64371Y-44211D01*
X64405Y-44134D01*
X64424Y-44053D01*
X64425Y-43958D01*
X64409Y-43876D01*
X64377Y-43799D01*
X64331Y-43730D01*
X64272Y-43671D01*
X64203Y-43624D01*
X64190Y-43618D01*
X64204Y-43608D01*
X64205Y-43607D01*
X64525Y-43287D01*
X64544Y-43265D01*
X64544Y-43264D01*
X64558Y-43239D01*
X64567Y-43211D01*
X64570Y-43182D01*
X64570Y-43180D01*
X64570Y-42420D01*
X64567Y-42392D01*
X64567Y-42391D01*
X64559Y-42363D01*
X64545Y-42337D01*
X64527Y-42315D01*
X64526Y-42314D01*
X64525Y-42313D01*
X64386Y-42174D01*
X64405Y-42134D01*
X64424Y-42053D01*
X64425Y-41958D01*
X64409Y-41876D01*
X64377Y-41799D01*
X64331Y-41730D01*
X64272Y-41671D01*
X64203Y-41624D01*
X64126Y-41592D01*
X64044Y-41575D01*
X63961Y-41575D01*
X63879Y-41590D01*
X63802Y-41622D01*
X63732Y-41667D01*
X63673Y-41726D01*
X63649Y-41761D01*
X63649Y-41663D01*
X63742Y-41570D01*
X64179Y-41570D01*
X64180Y-41570D01*
X64182Y-41569D01*
X64208Y-41568D01*
X64209Y-41567D01*
X64228Y-41561D01*
X64236Y-41559D01*
X64237Y-41559D01*
X64250Y-41552D01*
X64262Y-41546D01*
X64263Y-41545D01*
X64285Y-41527D01*
X64286Y-41526D01*
X64420Y-41392D01*
X67193Y-44165D01*
X67215Y-44184D01*
X67216Y-44184D01*
X67241Y-44198D01*
X67269Y-44207D01*
X67298Y-44210D01*
X67300Y-44210D01*
X68689Y-44210D01*
G36*
X68758Y-45150D02*
X68732Y-45167D01*
X68673Y-45226D01*
X68626Y-45295D01*
X68593Y-45371D01*
X68576Y-45453D01*
X68574Y-45536D01*
X68590Y-45618D01*
X68611Y-45674D01*
X68578Y-45708D01*
X66943Y-45708D01*
X66942Y-45708D01*
X66940Y-45708D01*
X66914Y-45710D01*
X66894Y-45716D01*
X66885Y-45719D01*
X66872Y-45726D01*
X66860Y-45732D01*
X66837Y-45751D01*
X66836Y-45752D01*
X64838Y-47748D01*
X64847Y-47721D01*
X64847Y-47720D01*
X64850Y-47692D01*
X64850Y-47690D01*
X64850Y-47162D01*
X64876Y-47146D01*
X64917Y-47107D01*
X64949Y-47061D01*
X64972Y-47010D01*
X64984Y-46956D01*
X64985Y-46892D01*
X64974Y-46837D01*
X64953Y-46786D01*
X64922Y-46739D01*
X64882Y-46699D01*
X64836Y-46668D01*
X64785Y-46646D01*
X66282Y-45150D01*
X68758Y-45150D01*
X68758Y-45150D01*
G37*
X68758Y-45150D02*
X68732Y-45167D01*
X68673Y-45226D01*
X68626Y-45295D01*
X68593Y-45371D01*
X68576Y-45453D01*
X68574Y-45536D01*
X68590Y-45618D01*
X68611Y-45674D01*
X68578Y-45708D01*
X66943Y-45708D01*
X66942Y-45708D01*
X66940Y-45708D01*
X66914Y-45710D01*
X66894Y-45716D01*
X66885Y-45719D01*
X66872Y-45726D01*
X66860Y-45732D01*
X66837Y-45751D01*
X66836Y-45752D01*
X64838Y-47748D01*
X64847Y-47721D01*
X64847Y-47720D01*
X64850Y-47692D01*
X64850Y-47690D01*
X64850Y-47162D01*
X64876Y-47146D01*
X64917Y-47107D01*
X64949Y-47061D01*
X64972Y-47010D01*
X64984Y-46956D01*
X64985Y-46892D01*
X64974Y-46837D01*
X64953Y-46786D01*
X64922Y-46739D01*
X64882Y-46699D01*
X64836Y-46668D01*
X64785Y-46646D01*
X66282Y-45150D01*
X68758Y-45150D01*
G36*
X70282Y-46006D02*
X70175Y-46112D01*
X70126Y-46092D01*
X70044Y-46075D01*
X69961Y-46075D01*
X69879Y-46090D01*
X69802Y-46122D01*
X69732Y-46167D01*
X69673Y-46226D01*
X69626Y-46295D01*
X69593Y-46371D01*
X69576Y-46453D01*
X69574Y-46536D01*
X69590Y-46618D01*
X69620Y-46696D01*
X69666Y-46766D01*
X69723Y-46825D01*
X69792Y-46873D01*
X69868Y-46906D01*
X69950Y-46924D01*
X70033Y-46926D01*
X70115Y-46911D01*
X70193Y-46881D01*
X70263Y-46836D01*
X70270Y-46829D01*
X70270Y-47018D01*
X70175Y-47112D01*
X70126Y-47092D01*
X70044Y-47075D01*
X69961Y-47075D01*
X69879Y-47090D01*
X69802Y-47122D01*
X69732Y-47167D01*
X69673Y-47226D01*
X69626Y-47295D01*
X69593Y-47371D01*
X69576Y-47453D01*
X69574Y-47536D01*
X69590Y-47618D01*
X69620Y-47696D01*
X69666Y-47766D01*
X69723Y-47825D01*
X69792Y-47873D01*
X69868Y-47906D01*
X69950Y-47924D01*
X70033Y-47926D01*
X70115Y-47911D01*
X70193Y-47881D01*
X70263Y-47836D01*
X70270Y-47829D01*
X70270Y-48169D01*
X70203Y-48124D01*
X70126Y-48092D01*
X70044Y-48075D01*
X69961Y-48075D01*
X69879Y-48090D01*
X69802Y-48122D01*
X69732Y-48167D01*
X69673Y-48226D01*
X69626Y-48295D01*
X69593Y-48371D01*
X69576Y-48453D01*
X69574Y-48536D01*
X69590Y-48618D01*
X69620Y-48696D01*
X69666Y-48766D01*
X69723Y-48825D01*
X69792Y-48873D01*
X69835Y-48892D01*
X69821Y-48902D01*
X69781Y-48941D01*
X69749Y-48987D01*
X69727Y-49038D01*
X69715Y-49093D01*
X69715Y-49149D01*
X69722Y-49190D01*
X69568Y-49345D01*
X69425Y-49345D01*
X69425Y-48458D01*
X69425Y-47458D01*
X69409Y-47376D01*
X69377Y-47299D01*
X69331Y-47230D01*
X69272Y-47171D01*
X69203Y-47124D01*
X69126Y-47092D01*
X69044Y-47075D01*
X68961Y-47075D01*
X68879Y-47090D01*
X68802Y-47122D01*
X68732Y-47167D01*
X68673Y-47226D01*
X68626Y-47295D01*
X68593Y-47371D01*
X68576Y-47453D01*
X68574Y-47536D01*
X68590Y-47618D01*
X68620Y-47696D01*
X68666Y-47766D01*
X68723Y-47825D01*
X68792Y-47873D01*
X68868Y-47906D01*
X68950Y-47924D01*
X69033Y-47926D01*
X69115Y-47911D01*
X69193Y-47881D01*
X69263Y-47836D01*
X69324Y-47779D01*
X69371Y-47711D01*
X69405Y-47634D01*
X69424Y-47553D01*
X69425Y-47458D01*
X69425Y-48458D01*
X69409Y-48376D01*
X69377Y-48299D01*
X69331Y-48230D01*
X69272Y-48171D01*
X69203Y-48124D01*
X69126Y-48092D01*
X69044Y-48075D01*
X68961Y-48075D01*
X68879Y-48090D01*
X68802Y-48122D01*
X68732Y-48167D01*
X68673Y-48226D01*
X68626Y-48295D01*
X68593Y-48371D01*
X68576Y-48453D01*
X68574Y-48536D01*
X68590Y-48618D01*
X68620Y-48696D01*
X68666Y-48766D01*
X68723Y-48825D01*
X68792Y-48873D01*
X68868Y-48906D01*
X68950Y-48924D01*
X69033Y-48926D01*
X69115Y-48911D01*
X69193Y-48881D01*
X69263Y-48836D01*
X69324Y-48779D01*
X69371Y-48711D01*
X69405Y-48634D01*
X69424Y-48553D01*
X69425Y-48458D01*
X69425Y-49345D01*
X67586Y-49345D01*
X67585Y-49345D01*
X67583Y-49345D01*
X67557Y-49347D01*
X67547Y-49350D01*
X64241Y-49350D01*
X64263Y-49336D01*
X64324Y-49279D01*
X64371Y-49211D01*
X64405Y-49134D01*
X64424Y-49053D01*
X64425Y-48958D01*
X64409Y-48876D01*
X64387Y-48824D01*
X67062Y-46150D01*
X68758Y-46150D01*
X68732Y-46167D01*
X68673Y-46226D01*
X68626Y-46295D01*
X68593Y-46371D01*
X68576Y-46453D01*
X68574Y-46536D01*
X68590Y-46618D01*
X68620Y-46696D01*
X68666Y-46766D01*
X68723Y-46825D01*
X68792Y-46873D01*
X68868Y-46906D01*
X68950Y-46924D01*
X69033Y-46926D01*
X69115Y-46911D01*
X69193Y-46881D01*
X69263Y-46836D01*
X69324Y-46779D01*
X69371Y-46711D01*
X69405Y-46634D01*
X69424Y-46553D01*
X69425Y-46458D01*
X69409Y-46376D01*
X69377Y-46299D01*
X69331Y-46230D01*
X69272Y-46171D01*
X69241Y-46150D01*
X69504Y-46150D01*
X69505Y-46150D01*
X69507Y-46149D01*
X69533Y-46148D01*
X69534Y-46147D01*
X69553Y-46141D01*
X69561Y-46139D01*
X69562Y-46139D01*
X69575Y-46132D01*
X69587Y-46126D01*
X69588Y-46125D01*
X69610Y-46107D01*
X69611Y-46106D01*
X69828Y-45888D01*
X69868Y-45906D01*
X69950Y-45924D01*
X70033Y-45926D01*
X70115Y-45911D01*
X70193Y-45881D01*
X70263Y-45836D01*
X70282Y-45818D01*
X70282Y-46006D01*
X70282Y-46006D01*
G37*
X70282Y-46006D02*
X70175Y-46112D01*
X70126Y-46092D01*
X70044Y-46075D01*
X69961Y-46075D01*
X69879Y-46090D01*
X69802Y-46122D01*
X69732Y-46167D01*
X69673Y-46226D01*
X69626Y-46295D01*
X69593Y-46371D01*
X69576Y-46453D01*
X69574Y-46536D01*
X69590Y-46618D01*
X69620Y-46696D01*
X69666Y-46766D01*
X69723Y-46825D01*
X69792Y-46873D01*
X69868Y-46906D01*
X69950Y-46924D01*
X70033Y-46926D01*
X70115Y-46911D01*
X70193Y-46881D01*
X70263Y-46836D01*
X70270Y-46829D01*
X70270Y-47018D01*
X70175Y-47112D01*
X70126Y-47092D01*
X70044Y-47075D01*
X69961Y-47075D01*
X69879Y-47090D01*
X69802Y-47122D01*
X69732Y-47167D01*
X69673Y-47226D01*
X69626Y-47295D01*
X69593Y-47371D01*
X69576Y-47453D01*
X69574Y-47536D01*
X69590Y-47618D01*
X69620Y-47696D01*
X69666Y-47766D01*
X69723Y-47825D01*
X69792Y-47873D01*
X69868Y-47906D01*
X69950Y-47924D01*
X70033Y-47926D01*
X70115Y-47911D01*
X70193Y-47881D01*
X70263Y-47836D01*
X70270Y-47829D01*
X70270Y-48169D01*
X70203Y-48124D01*
X70126Y-48092D01*
X70044Y-48075D01*
X69961Y-48075D01*
X69879Y-48090D01*
X69802Y-48122D01*
X69732Y-48167D01*
X69673Y-48226D01*
X69626Y-48295D01*
X69593Y-48371D01*
X69576Y-48453D01*
X69574Y-48536D01*
X69590Y-48618D01*
X69620Y-48696D01*
X69666Y-48766D01*
X69723Y-48825D01*
X69792Y-48873D01*
X69835Y-48892D01*
X69821Y-48902D01*
X69781Y-48941D01*
X69749Y-48987D01*
X69727Y-49038D01*
X69715Y-49093D01*
X69715Y-49149D01*
X69722Y-49190D01*
X69568Y-49345D01*
X69425Y-49345D01*
X69425Y-48458D01*
X69425Y-47458D01*
X69409Y-47376D01*
X69377Y-47299D01*
X69331Y-47230D01*
X69272Y-47171D01*
X69203Y-47124D01*
X69126Y-47092D01*
X69044Y-47075D01*
X68961Y-47075D01*
X68879Y-47090D01*
X68802Y-47122D01*
X68732Y-47167D01*
X68673Y-47226D01*
X68626Y-47295D01*
X68593Y-47371D01*
X68576Y-47453D01*
X68574Y-47536D01*
X68590Y-47618D01*
X68620Y-47696D01*
X68666Y-47766D01*
X68723Y-47825D01*
X68792Y-47873D01*
X68868Y-47906D01*
X68950Y-47924D01*
X69033Y-47926D01*
X69115Y-47911D01*
X69193Y-47881D01*
X69263Y-47836D01*
X69324Y-47779D01*
X69371Y-47711D01*
X69405Y-47634D01*
X69424Y-47553D01*
X69425Y-47458D01*
X69425Y-48458D01*
X69409Y-48376D01*
X69377Y-48299D01*
X69331Y-48230D01*
X69272Y-48171D01*
X69203Y-48124D01*
X69126Y-48092D01*
X69044Y-48075D01*
X68961Y-48075D01*
X68879Y-48090D01*
X68802Y-48122D01*
X68732Y-48167D01*
X68673Y-48226D01*
X68626Y-48295D01*
X68593Y-48371D01*
X68576Y-48453D01*
X68574Y-48536D01*
X68590Y-48618D01*
X68620Y-48696D01*
X68666Y-48766D01*
X68723Y-48825D01*
X68792Y-48873D01*
X68868Y-48906D01*
X68950Y-48924D01*
X69033Y-48926D01*
X69115Y-48911D01*
X69193Y-48881D01*
X69263Y-48836D01*
X69324Y-48779D01*
X69371Y-48711D01*
X69405Y-48634D01*
X69424Y-48553D01*
X69425Y-48458D01*
X69425Y-49345D01*
X67586Y-49345D01*
X67585Y-49345D01*
X67583Y-49345D01*
X67557Y-49347D01*
X67547Y-49350D01*
X64241Y-49350D01*
X64263Y-49336D01*
X64324Y-49279D01*
X64371Y-49211D01*
X64405Y-49134D01*
X64424Y-49053D01*
X64425Y-48958D01*
X64409Y-48876D01*
X64387Y-48824D01*
X67062Y-46150D01*
X68758Y-46150D01*
X68732Y-46167D01*
X68673Y-46226D01*
X68626Y-46295D01*
X68593Y-46371D01*
X68576Y-46453D01*
X68574Y-46536D01*
X68590Y-46618D01*
X68620Y-46696D01*
X68666Y-46766D01*
X68723Y-46825D01*
X68792Y-46873D01*
X68868Y-46906D01*
X68950Y-46924D01*
X69033Y-46926D01*
X69115Y-46911D01*
X69193Y-46881D01*
X69263Y-46836D01*
X69324Y-46779D01*
X69371Y-46711D01*
X69405Y-46634D01*
X69424Y-46553D01*
X69425Y-46458D01*
X69409Y-46376D01*
X69377Y-46299D01*
X69331Y-46230D01*
X69272Y-46171D01*
X69241Y-46150D01*
X69504Y-46150D01*
X69505Y-46150D01*
X69507Y-46149D01*
X69533Y-46148D01*
X69534Y-46147D01*
X69553Y-46141D01*
X69561Y-46139D01*
X69562Y-46139D01*
X69575Y-46132D01*
X69587Y-46126D01*
X69588Y-46125D01*
X69610Y-46107D01*
X69611Y-46106D01*
X69828Y-45888D01*
X69868Y-45906D01*
X69950Y-45924D01*
X70033Y-45926D01*
X70115Y-45911D01*
X70193Y-45881D01*
X70263Y-45836D01*
X70282Y-45818D01*
X70282Y-46006D01*
G36*
X70720Y-44008D02*
X70570Y-43858D01*
X70570Y-42321D01*
X70570Y-42320D01*
X70567Y-42292D01*
X70567Y-42291D01*
X70559Y-42264D01*
X70559Y-42263D01*
X70545Y-42238D01*
X70545Y-42237D01*
X70530Y-42219D01*
X70527Y-42215D01*
X70526Y-42214D01*
X70207Y-41895D01*
X70206Y-41894D01*
X70204Y-41892D01*
X70191Y-41881D01*
X70193Y-41881D01*
X70263Y-41836D01*
X70324Y-41779D01*
X70371Y-41711D01*
X70405Y-41634D01*
X70424Y-41553D01*
X70425Y-41458D01*
X70425Y-40458D01*
X70425Y-39458D01*
X70409Y-39376D01*
X70377Y-39299D01*
X70331Y-39230D01*
X70272Y-39171D01*
X70203Y-39124D01*
X70126Y-39092D01*
X70044Y-39075D01*
X69961Y-39075D01*
X69879Y-39090D01*
X69802Y-39122D01*
X69732Y-39167D01*
X69673Y-39226D01*
X69626Y-39295D01*
X69593Y-39371D01*
X69576Y-39453D01*
X69574Y-39536D01*
X69590Y-39618D01*
X69620Y-39696D01*
X69666Y-39766D01*
X69723Y-39825D01*
X69792Y-39873D01*
X69868Y-39906D01*
X69950Y-39924D01*
X70033Y-39926D01*
X70115Y-39911D01*
X70193Y-39881D01*
X70263Y-39836D01*
X70324Y-39779D01*
X70371Y-39711D01*
X70405Y-39634D01*
X70424Y-39553D01*
X70425Y-39458D01*
X70425Y-40458D01*
X70409Y-40376D01*
X70377Y-40299D01*
X70331Y-40230D01*
X70272Y-40171D01*
X70203Y-40124D01*
X70126Y-40092D01*
X70044Y-40075D01*
X69961Y-40075D01*
X69879Y-40090D01*
X69802Y-40122D01*
X69732Y-40167D01*
X69673Y-40226D01*
X69626Y-40295D01*
X69593Y-40371D01*
X69576Y-40453D01*
X69574Y-40536D01*
X69590Y-40618D01*
X69620Y-40696D01*
X69666Y-40766D01*
X69723Y-40825D01*
X69792Y-40873D01*
X69868Y-40906D01*
X69950Y-40924D01*
X70033Y-40926D01*
X70115Y-40911D01*
X70193Y-40881D01*
X70263Y-40836D01*
X70324Y-40779D01*
X70371Y-40711D01*
X70405Y-40634D01*
X70424Y-40553D01*
X70425Y-40458D01*
X70425Y-41458D01*
X70409Y-41376D01*
X70377Y-41299D01*
X70331Y-41230D01*
X70272Y-41171D01*
X70203Y-41124D01*
X70126Y-41092D01*
X70044Y-41075D01*
X69961Y-41075D01*
X69879Y-41090D01*
X69802Y-41122D01*
X69732Y-41167D01*
X69673Y-41226D01*
X69626Y-41295D01*
X69593Y-41371D01*
X69576Y-41453D01*
X69574Y-41536D01*
X69590Y-41618D01*
X69620Y-41696D01*
X69666Y-41766D01*
X69723Y-41825D01*
X69758Y-41850D01*
X69562Y-41850D01*
X69386Y-41674D01*
X69405Y-41634D01*
X69424Y-41553D01*
X69425Y-41458D01*
X69425Y-40458D01*
X69424Y-40452D01*
X69424Y-39826D01*
X69424Y-39805D01*
X69424Y-39174D01*
X69420Y-39153D01*
X69412Y-39133D01*
X69400Y-39116D01*
X69385Y-39100D01*
X69367Y-39088D01*
X69347Y-39080D01*
X69326Y-39076D01*
X69305Y-39076D01*
X68674Y-39076D01*
X68653Y-39080D01*
X68633Y-39088D01*
X68616Y-39100D01*
X68600Y-39115D01*
X68588Y-39133D01*
X68580Y-39153D01*
X68576Y-39174D01*
X68576Y-39195D01*
X68576Y-39826D01*
X68580Y-39847D01*
X68588Y-39867D01*
X68600Y-39884D01*
X68615Y-39900D01*
X68633Y-39912D01*
X68653Y-39920D01*
X68674Y-39924D01*
X68695Y-39924D01*
X69326Y-39924D01*
X69347Y-39920D01*
X69367Y-39912D01*
X69384Y-39900D01*
X69400Y-39885D01*
X69412Y-39867D01*
X69420Y-39847D01*
X69424Y-39826D01*
X69424Y-40452D01*
X69409Y-40376D01*
X69377Y-40299D01*
X69331Y-40230D01*
X69272Y-40171D01*
X69203Y-40124D01*
X69126Y-40092D01*
X69044Y-40075D01*
X68961Y-40075D01*
X68879Y-40090D01*
X68802Y-40122D01*
X68732Y-40167D01*
X68673Y-40226D01*
X68626Y-40295D01*
X68593Y-40371D01*
X68576Y-40453D01*
X68574Y-40536D01*
X68590Y-40618D01*
X68620Y-40696D01*
X68666Y-40766D01*
X68723Y-40825D01*
X68792Y-40873D01*
X68868Y-40906D01*
X68950Y-40924D01*
X69033Y-40926D01*
X69115Y-40911D01*
X69193Y-40881D01*
X69263Y-40836D01*
X69324Y-40779D01*
X69371Y-40711D01*
X69405Y-40634D01*
X69424Y-40553D01*
X69425Y-40458D01*
X69425Y-41458D01*
X69409Y-41376D01*
X69377Y-41299D01*
X69331Y-41230D01*
X69272Y-41171D01*
X69203Y-41124D01*
X69126Y-41092D01*
X69044Y-41075D01*
X68961Y-41075D01*
X68879Y-41090D01*
X68802Y-41122D01*
X68732Y-41167D01*
X68673Y-41226D01*
X68626Y-41295D01*
X68593Y-41371D01*
X68576Y-41453D01*
X68574Y-41536D01*
X68590Y-41618D01*
X68620Y-41696D01*
X68666Y-41766D01*
X68723Y-41825D01*
X68792Y-41873D01*
X68868Y-41906D01*
X68950Y-41924D01*
X69033Y-41926D01*
X69115Y-41911D01*
X69175Y-41887D01*
X69393Y-42105D01*
X69394Y-42106D01*
X69397Y-42108D01*
X69415Y-42124D01*
X69416Y-42124D01*
X69430Y-42132D01*
X69441Y-42138D01*
X69442Y-42139D01*
X69461Y-42144D01*
X69469Y-42147D01*
X69470Y-42147D01*
X69498Y-42150D01*
X69500Y-42150D01*
X69758Y-42150D01*
X69732Y-42167D01*
X69673Y-42226D01*
X69626Y-42295D01*
X69593Y-42371D01*
X69576Y-42453D01*
X69574Y-42536D01*
X69590Y-42618D01*
X69620Y-42696D01*
X69666Y-42766D01*
X69723Y-42825D01*
X69792Y-42873D01*
X69868Y-42906D01*
X69950Y-42924D01*
X70033Y-42926D01*
X70115Y-42911D01*
X70193Y-42881D01*
X70263Y-42836D01*
X70270Y-42829D01*
X70270Y-43169D01*
X70203Y-43124D01*
X70126Y-43092D01*
X70044Y-43075D01*
X69961Y-43075D01*
X69879Y-43090D01*
X69802Y-43122D01*
X69732Y-43167D01*
X69673Y-43226D01*
X69626Y-43295D01*
X69593Y-43371D01*
X69576Y-43453D01*
X69574Y-43536D01*
X69590Y-43618D01*
X69620Y-43696D01*
X69666Y-43766D01*
X69667Y-43768D01*
X69331Y-43768D01*
X69371Y-43711D01*
X69405Y-43634D01*
X69424Y-43553D01*
X69425Y-43458D01*
X69425Y-42458D01*
X69409Y-42376D01*
X69377Y-42299D01*
X69331Y-42230D01*
X69272Y-42171D01*
X69203Y-42124D01*
X69126Y-42092D01*
X69044Y-42075D01*
X68961Y-42075D01*
X68879Y-42090D01*
X68802Y-42122D01*
X68732Y-42167D01*
X68673Y-42226D01*
X68626Y-42295D01*
X68593Y-42371D01*
X68576Y-42453D01*
X68574Y-42536D01*
X68590Y-42618D01*
X68620Y-42696D01*
X68666Y-42766D01*
X68723Y-42825D01*
X68792Y-42873D01*
X68868Y-42906D01*
X68950Y-42924D01*
X69033Y-42926D01*
X69115Y-42911D01*
X69193Y-42881D01*
X69263Y-42836D01*
X69324Y-42779D01*
X69371Y-42711D01*
X69405Y-42634D01*
X69424Y-42553D01*
X69425Y-42458D01*
X69425Y-43458D01*
X69409Y-43376D01*
X69377Y-43299D01*
X69331Y-43230D01*
X69272Y-43171D01*
X69203Y-43124D01*
X69126Y-43092D01*
X69044Y-43075D01*
X68961Y-43075D01*
X68879Y-43090D01*
X68824Y-43112D01*
X68230Y-42518D01*
X68230Y-42041D01*
X68230Y-42040D01*
X68229Y-42038D01*
X68228Y-42012D01*
X68227Y-42011D01*
X68221Y-41992D01*
X68219Y-41984D01*
X68219Y-41983D01*
X68212Y-41970D01*
X68206Y-41958D01*
X68205Y-41957D01*
X68187Y-41935D01*
X68186Y-41934D01*
X67860Y-41608D01*
X67860Y-38413D01*
X67860Y-38339D01*
X67859Y-38162D01*
X67859Y-38141D01*
X67855Y-38120D01*
X67847Y-38100D01*
X67835Y-38082D01*
X67819Y-38067D01*
X67802Y-38055D01*
X67782Y-38047D01*
X67761Y-38043D01*
X67537Y-38042D01*
X67510Y-38069D01*
X67510Y-38366D01*
X67833Y-38366D01*
X67860Y-38339D01*
X67860Y-38413D01*
X67833Y-38386D01*
X67510Y-38386D01*
X67510Y-38683D01*
X67537Y-38710D01*
X67761Y-38709D01*
X67782Y-38705D01*
X67802Y-38697D01*
X67819Y-38685D01*
X67835Y-38670D01*
X67847Y-38652D01*
X67855Y-38632D01*
X67859Y-38611D01*
X67859Y-38590D01*
X67860Y-38413D01*
X67860Y-41608D01*
X67490Y-41238D01*
X67490Y-38683D01*
X67490Y-38386D01*
X67490Y-38366D01*
X67490Y-38069D01*
X67463Y-38042D01*
X67239Y-38043D01*
X67218Y-38047D01*
X67198Y-38055D01*
X67181Y-38067D01*
X67165Y-38082D01*
X67153Y-38100D01*
X67145Y-38120D01*
X67141Y-38141D01*
X67141Y-38162D01*
X67140Y-38339D01*
X67167Y-38366D01*
X67490Y-38366D01*
X67490Y-38386D01*
X67167Y-38386D01*
X67140Y-38413D01*
X67141Y-38590D01*
X67141Y-38611D01*
X67145Y-38632D01*
X67153Y-38652D01*
X67165Y-38670D01*
X67181Y-38685D01*
X67198Y-38697D01*
X67218Y-38705D01*
X67239Y-38709D01*
X67463Y-38710D01*
X67490Y-38683D01*
X67490Y-41238D01*
X66543Y-40291D01*
X66543Y-38961D01*
X66543Y-38887D01*
X66542Y-38442D01*
X66542Y-38421D01*
X66538Y-38400D01*
X66530Y-38380D01*
X66518Y-38362D01*
X66502Y-38347D01*
X66485Y-38335D01*
X66465Y-38327D01*
X66444Y-38323D01*
X66037Y-38322D01*
X66010Y-38349D01*
X66010Y-38914D01*
X66516Y-38914D01*
X66543Y-38887D01*
X66543Y-38961D01*
X66516Y-38934D01*
X66010Y-38934D01*
X66010Y-39499D01*
X66037Y-39526D01*
X66444Y-39525D01*
X66465Y-39521D01*
X66485Y-39513D01*
X66502Y-39501D01*
X66518Y-39486D01*
X66530Y-39468D01*
X66538Y-39448D01*
X66542Y-39427D01*
X66542Y-39406D01*
X66543Y-38961D01*
X66543Y-40291D01*
X66127Y-39875D01*
X66126Y-39874D01*
X66124Y-39872D01*
X66105Y-39856D01*
X66085Y-39845D01*
X66079Y-39842D01*
X66078Y-39841D01*
X66059Y-39835D01*
X66051Y-39833D01*
X66022Y-39830D01*
X66020Y-39830D01*
X65990Y-39830D01*
X65990Y-39499D01*
X65990Y-38934D01*
X65990Y-38914D01*
X65990Y-38349D01*
X65963Y-38322D01*
X65556Y-38323D01*
X65535Y-38327D01*
X65515Y-38335D01*
X65498Y-38347D01*
X65482Y-38362D01*
X65470Y-38380D01*
X65462Y-38400D01*
X65458Y-38421D01*
X65458Y-38442D01*
X65457Y-38887D01*
X65484Y-38914D01*
X65990Y-38914D01*
X65990Y-38934D01*
X65484Y-38934D01*
X65457Y-38961D01*
X65458Y-39406D01*
X65458Y-39427D01*
X65462Y-39448D01*
X65470Y-39468D01*
X65482Y-39486D01*
X65498Y-39501D01*
X65515Y-39513D01*
X65535Y-39521D01*
X65556Y-39525D01*
X65963Y-39526D01*
X65990Y-39499D01*
X65990Y-39830D01*
X65702Y-39830D01*
X64229Y-38357D01*
X64263Y-38336D01*
X64324Y-38279D01*
X64371Y-38211D01*
X64405Y-38134D01*
X64424Y-38053D01*
X64425Y-37958D01*
X64409Y-37876D01*
X64377Y-37799D01*
X64331Y-37730D01*
X64272Y-37671D01*
X64203Y-37624D01*
X64126Y-37592D01*
X64044Y-37575D01*
X63961Y-37575D01*
X63879Y-37590D01*
X63802Y-37622D01*
X63732Y-37667D01*
X63673Y-37726D01*
X63626Y-37795D01*
X63593Y-37871D01*
X63576Y-37953D01*
X63574Y-38036D01*
X63590Y-38118D01*
X63620Y-38196D01*
X63666Y-38266D01*
X63723Y-38325D01*
X63770Y-38357D01*
X63455Y-38673D01*
X63454Y-38674D01*
X63452Y-38675D01*
X63436Y-38695D01*
X63425Y-38714D01*
X63421Y-38722D01*
X63415Y-38741D01*
X63413Y-38749D01*
X63410Y-38778D01*
X63410Y-38780D01*
X63410Y-39377D01*
X63170Y-39618D01*
X63168Y-39619D01*
X63152Y-39639D01*
X63141Y-39658D01*
X63137Y-39666D01*
X63131Y-39685D01*
X63129Y-39693D01*
X63126Y-39722D01*
X63126Y-39724D01*
X63126Y-40022D01*
X61895Y-41253D01*
X61894Y-41254D01*
X61892Y-41255D01*
X61876Y-41275D01*
X61868Y-41288D01*
X61830Y-41231D01*
X61771Y-41172D01*
X61702Y-41125D01*
X61649Y-41102D01*
X61649Y-39563D01*
X61994Y-39217D01*
X62026Y-39224D01*
X62082Y-39226D01*
X62137Y-39216D01*
X62189Y-39196D01*
X62236Y-39166D01*
X62277Y-39127D01*
X62309Y-39081D01*
X62332Y-39030D01*
X62344Y-38976D01*
X62345Y-38912D01*
X62337Y-38874D01*
X63824Y-37387D01*
X63868Y-37406D01*
X63950Y-37424D01*
X64033Y-37426D01*
X64115Y-37411D01*
X64193Y-37381D01*
X64263Y-37336D01*
X64324Y-37279D01*
X64371Y-37211D01*
X64397Y-37150D01*
X65458Y-37150D01*
X65458Y-37577D01*
X65462Y-37598D01*
X65470Y-37618D01*
X65482Y-37635D01*
X65497Y-37651D01*
X65515Y-37663D01*
X65535Y-37671D01*
X65556Y-37675D01*
X65577Y-37675D01*
X66444Y-37675D01*
X66465Y-37671D01*
X66485Y-37663D01*
X66502Y-37651D01*
X66518Y-37636D01*
X66530Y-37618D01*
X66538Y-37598D01*
X66542Y-37577D01*
X66542Y-37556D01*
X66542Y-37226D01*
X66887Y-37226D01*
X66888Y-37226D01*
X67141Y-37479D01*
X67141Y-37861D01*
X67145Y-37882D01*
X67153Y-37902D01*
X67165Y-37919D01*
X67180Y-37935D01*
X67198Y-37947D01*
X67218Y-37955D01*
X67239Y-37959D01*
X67260Y-37959D01*
X67761Y-37959D01*
X67782Y-37955D01*
X67802Y-37947D01*
X67819Y-37935D01*
X67835Y-37920D01*
X67847Y-37902D01*
X67855Y-37882D01*
X67859Y-37861D01*
X67859Y-37840D01*
X67859Y-37391D01*
X67855Y-37370D01*
X67847Y-37350D01*
X67835Y-37333D01*
X67820Y-37317D01*
X67802Y-37305D01*
X67782Y-37297D01*
X67761Y-37293D01*
X67740Y-37293D01*
X67379Y-37293D01*
X67057Y-36971D01*
X67056Y-36970D01*
X67055Y-36969D01*
X67054Y-36968D01*
X67052Y-36966D01*
X67035Y-36952D01*
X67033Y-36950D01*
X67013Y-36939D01*
X67007Y-36936D01*
X67006Y-36935D01*
X66987Y-36929D01*
X66979Y-36927D01*
X66950Y-36924D01*
X66948Y-36924D01*
X66542Y-36924D01*
X66542Y-36571D01*
X66538Y-36550D01*
X66530Y-36530D01*
X66518Y-36513D01*
X66503Y-36497D01*
X66485Y-36485D01*
X66465Y-36477D01*
X66444Y-36473D01*
X66423Y-36473D01*
X65556Y-36473D01*
X65535Y-36477D01*
X65515Y-36485D01*
X65498Y-36497D01*
X65482Y-36512D01*
X65470Y-36530D01*
X65462Y-36550D01*
X65458Y-36571D01*
X65458Y-36592D01*
X65458Y-36850D01*
X64398Y-36850D01*
X64377Y-36799D01*
X64331Y-36730D01*
X64272Y-36671D01*
X64203Y-36624D01*
X64126Y-36592D01*
X64044Y-36575D01*
X63961Y-36575D01*
X63879Y-36590D01*
X63802Y-36622D01*
X63732Y-36667D01*
X63673Y-36726D01*
X63626Y-36795D01*
X63593Y-36871D01*
X63576Y-36953D01*
X63574Y-37036D01*
X63590Y-37118D01*
X63612Y-37175D01*
X62125Y-38662D01*
X62090Y-38655D01*
X62034Y-38655D01*
X61979Y-38665D01*
X61927Y-38686D01*
X61881Y-38717D01*
X61841Y-38756D01*
X61809Y-38802D01*
X61787Y-38853D01*
X61775Y-38908D01*
X61775Y-38964D01*
X61782Y-39005D01*
X61394Y-39394D01*
X61393Y-39395D01*
X61391Y-39396D01*
X61375Y-39416D01*
X61364Y-39435D01*
X61360Y-39443D01*
X61354Y-39462D01*
X61352Y-39470D01*
X61349Y-39499D01*
X61349Y-39501D01*
X61349Y-41103D01*
X61301Y-41123D01*
X61231Y-41168D01*
X61172Y-41227D01*
X61170Y-41229D01*
X61170Y-40020D01*
X61167Y-39992D01*
X61167Y-39991D01*
X61159Y-39963D01*
X61145Y-39937D01*
X61127Y-39915D01*
X61126Y-39914D01*
X61125Y-39913D01*
X58424Y-37212D01*
X58424Y-36674D01*
X58420Y-36653D01*
X58412Y-36633D01*
X58400Y-36616D01*
X58385Y-36600D01*
X58367Y-36588D01*
X58347Y-36580D01*
X58326Y-36576D01*
X58305Y-36576D01*
X57674Y-36576D01*
X57653Y-36580D01*
X57633Y-36588D01*
X57616Y-36600D01*
X57600Y-36615D01*
X57588Y-36633D01*
X57580Y-36653D01*
X57576Y-36674D01*
X57576Y-36695D01*
X57576Y-37326D01*
X57580Y-37347D01*
X57588Y-37367D01*
X57600Y-37384D01*
X57615Y-37400D01*
X57633Y-37412D01*
X57653Y-37420D01*
X57674Y-37424D01*
X57695Y-37424D01*
X58212Y-37424D01*
X60870Y-40082D01*
X60870Y-41289D01*
X60831Y-41231D01*
X60772Y-41172D01*
X60703Y-41125D01*
X60626Y-41093D01*
X60544Y-41076D01*
X60488Y-41076D01*
X58590Y-39178D01*
X58590Y-38821D01*
X58590Y-38820D01*
X58589Y-38818D01*
X58588Y-38792D01*
X58587Y-38791D01*
X58581Y-38772D01*
X58579Y-38764D01*
X58579Y-38763D01*
X58572Y-38750D01*
X58566Y-38738D01*
X58565Y-38737D01*
X58547Y-38715D01*
X58546Y-38714D01*
X58205Y-38373D01*
X58263Y-38336D01*
X58324Y-38279D01*
X58371Y-38211D01*
X58405Y-38134D01*
X58424Y-38053D01*
X58425Y-37958D01*
X58409Y-37876D01*
X58377Y-37799D01*
X58331Y-37730D01*
X58272Y-37671D01*
X58203Y-37624D01*
X58126Y-37592D01*
X58044Y-37575D01*
X57961Y-37575D01*
X57879Y-37590D01*
X57802Y-37622D01*
X57732Y-37667D01*
X57673Y-37726D01*
X57626Y-37795D01*
X57593Y-37871D01*
X57576Y-37953D01*
X57574Y-38036D01*
X57590Y-38118D01*
X57620Y-38196D01*
X57666Y-38266D01*
X57723Y-38325D01*
X57792Y-38373D01*
X57794Y-38373D01*
X57684Y-38483D01*
X57685Y-38472D01*
X57674Y-38417D01*
X57653Y-38366D01*
X57622Y-38319D01*
X57582Y-38279D01*
X57536Y-38248D01*
X57485Y-38226D01*
X57430Y-38215D01*
X57374Y-38215D01*
X57319Y-38225D01*
X57267Y-38246D01*
X57221Y-38277D01*
X57181Y-38316D01*
X57157Y-38350D01*
X56441Y-38350D01*
X56440Y-38350D01*
X56438Y-38350D01*
X56412Y-38352D01*
X56392Y-38358D01*
X56383Y-38361D01*
X56370Y-38368D01*
X56358Y-38374D01*
X56335Y-38393D01*
X56334Y-38394D01*
X56218Y-38510D01*
X52840Y-38510D01*
X52811Y-38513D01*
X52783Y-38521D01*
X52757Y-38535D01*
X52735Y-38553D01*
X52734Y-38554D01*
X52733Y-38555D01*
X52212Y-39076D01*
X51674Y-39076D01*
X51653Y-39080D01*
X51633Y-39088D01*
X51616Y-39100D01*
X51600Y-39115D01*
X51588Y-39133D01*
X51580Y-39153D01*
X51576Y-39174D01*
X51576Y-39195D01*
X51576Y-39826D01*
X51580Y-39847D01*
X51588Y-39867D01*
X51600Y-39884D01*
X51601Y-39886D01*
X51333Y-40155D01*
X51332Y-40156D01*
X51330Y-40157D01*
X51314Y-40177D01*
X51303Y-40196D01*
X51299Y-40204D01*
X51293Y-40223D01*
X51291Y-40231D01*
X51288Y-40260D01*
X51288Y-40262D01*
X51288Y-41584D01*
X51280Y-41592D01*
X51280Y-36280D01*
X70720Y-36280D01*
X70720Y-44008D01*
X70720Y-44008D01*
G37*
X70720Y-44008D02*
X70570Y-43858D01*
X70570Y-42321D01*
X70570Y-42320D01*
X70567Y-42292D01*
X70567Y-42291D01*
X70559Y-42264D01*
X70559Y-42263D01*
X70545Y-42238D01*
X70545Y-42237D01*
X70530Y-42219D01*
X70527Y-42215D01*
X70526Y-42214D01*
X70207Y-41895D01*
X70206Y-41894D01*
X70204Y-41892D01*
X70191Y-41881D01*
X70193Y-41881D01*
X70263Y-41836D01*
X70324Y-41779D01*
X70371Y-41711D01*
X70405Y-41634D01*
X70424Y-41553D01*
X70425Y-41458D01*
X70425Y-40458D01*
X70425Y-39458D01*
X70409Y-39376D01*
X70377Y-39299D01*
X70331Y-39230D01*
X70272Y-39171D01*
X70203Y-39124D01*
X70126Y-39092D01*
X70044Y-39075D01*
X69961Y-39075D01*
X69879Y-39090D01*
X69802Y-39122D01*
X69732Y-39167D01*
X69673Y-39226D01*
X69626Y-39295D01*
X69593Y-39371D01*
X69576Y-39453D01*
X69574Y-39536D01*
X69590Y-39618D01*
X69620Y-39696D01*
X69666Y-39766D01*
X69723Y-39825D01*
X69792Y-39873D01*
X69868Y-39906D01*
X69950Y-39924D01*
X70033Y-39926D01*
X70115Y-39911D01*
X70193Y-39881D01*
X70263Y-39836D01*
X70324Y-39779D01*
X70371Y-39711D01*
X70405Y-39634D01*
X70424Y-39553D01*
X70425Y-39458D01*
X70425Y-40458D01*
X70409Y-40376D01*
X70377Y-40299D01*
X70331Y-40230D01*
X70272Y-40171D01*
X70203Y-40124D01*
X70126Y-40092D01*
X70044Y-40075D01*
X69961Y-40075D01*
X69879Y-40090D01*
X69802Y-40122D01*
X69732Y-40167D01*
X69673Y-40226D01*
X69626Y-40295D01*
X69593Y-40371D01*
X69576Y-40453D01*
X69574Y-40536D01*
X69590Y-40618D01*
X69620Y-40696D01*
X69666Y-40766D01*
X69723Y-40825D01*
X69792Y-40873D01*
X69868Y-40906D01*
X69950Y-40924D01*
X70033Y-40926D01*
X70115Y-40911D01*
X70193Y-40881D01*
X70263Y-40836D01*
X70324Y-40779D01*
X70371Y-40711D01*
X70405Y-40634D01*
X70424Y-40553D01*
X70425Y-40458D01*
X70425Y-41458D01*
X70409Y-41376D01*
X70377Y-41299D01*
X70331Y-41230D01*
X70272Y-41171D01*
X70203Y-41124D01*
X70126Y-41092D01*
X70044Y-41075D01*
X69961Y-41075D01*
X69879Y-41090D01*
X69802Y-41122D01*
X69732Y-41167D01*
X69673Y-41226D01*
X69626Y-41295D01*
X69593Y-41371D01*
X69576Y-41453D01*
X69574Y-41536D01*
X69590Y-41618D01*
X69620Y-41696D01*
X69666Y-41766D01*
X69723Y-41825D01*
X69758Y-41850D01*
X69562Y-41850D01*
X69386Y-41674D01*
X69405Y-41634D01*
X69424Y-41553D01*
X69425Y-41458D01*
X69425Y-40458D01*
X69424Y-40452D01*
X69424Y-39826D01*
X69424Y-39805D01*
X69424Y-39174D01*
X69420Y-39153D01*
X69412Y-39133D01*
X69400Y-39116D01*
X69385Y-39100D01*
X69367Y-39088D01*
X69347Y-39080D01*
X69326Y-39076D01*
X69305Y-39076D01*
X68674Y-39076D01*
X68653Y-39080D01*
X68633Y-39088D01*
X68616Y-39100D01*
X68600Y-39115D01*
X68588Y-39133D01*
X68580Y-39153D01*
X68576Y-39174D01*
X68576Y-39195D01*
X68576Y-39826D01*
X68580Y-39847D01*
X68588Y-39867D01*
X68600Y-39884D01*
X68615Y-39900D01*
X68633Y-39912D01*
X68653Y-39920D01*
X68674Y-39924D01*
X68695Y-39924D01*
X69326Y-39924D01*
X69347Y-39920D01*
X69367Y-39912D01*
X69384Y-39900D01*
X69400Y-39885D01*
X69412Y-39867D01*
X69420Y-39847D01*
X69424Y-39826D01*
X69424Y-40452D01*
X69409Y-40376D01*
X69377Y-40299D01*
X69331Y-40230D01*
X69272Y-40171D01*
X69203Y-40124D01*
X69126Y-40092D01*
X69044Y-40075D01*
X68961Y-40075D01*
X68879Y-40090D01*
X68802Y-40122D01*
X68732Y-40167D01*
X68673Y-40226D01*
X68626Y-40295D01*
X68593Y-40371D01*
X68576Y-40453D01*
X68574Y-40536D01*
X68590Y-40618D01*
X68620Y-40696D01*
X68666Y-40766D01*
X68723Y-40825D01*
X68792Y-40873D01*
X68868Y-40906D01*
X68950Y-40924D01*
X69033Y-40926D01*
X69115Y-40911D01*
X69193Y-40881D01*
X69263Y-40836D01*
X69324Y-40779D01*
X69371Y-40711D01*
X69405Y-40634D01*
X69424Y-40553D01*
X69425Y-40458D01*
X69425Y-41458D01*
X69409Y-41376D01*
X69377Y-41299D01*
X69331Y-41230D01*
X69272Y-41171D01*
X69203Y-41124D01*
X69126Y-41092D01*
X69044Y-41075D01*
X68961Y-41075D01*
X68879Y-41090D01*
X68802Y-41122D01*
X68732Y-41167D01*
X68673Y-41226D01*
X68626Y-41295D01*
X68593Y-41371D01*
X68576Y-41453D01*
X68574Y-41536D01*
X68590Y-41618D01*
X68620Y-41696D01*
X68666Y-41766D01*
X68723Y-41825D01*
X68792Y-41873D01*
X68868Y-41906D01*
X68950Y-41924D01*
X69033Y-41926D01*
X69115Y-41911D01*
X69175Y-41887D01*
X69393Y-42105D01*
X69394Y-42106D01*
X69397Y-42108D01*
X69415Y-42124D01*
X69416Y-42124D01*
X69430Y-42132D01*
X69441Y-42138D01*
X69442Y-42139D01*
X69461Y-42144D01*
X69469Y-42147D01*
X69470Y-42147D01*
X69498Y-42150D01*
X69500Y-42150D01*
X69758Y-42150D01*
X69732Y-42167D01*
X69673Y-42226D01*
X69626Y-42295D01*
X69593Y-42371D01*
X69576Y-42453D01*
X69574Y-42536D01*
X69590Y-42618D01*
X69620Y-42696D01*
X69666Y-42766D01*
X69723Y-42825D01*
X69792Y-42873D01*
X69868Y-42906D01*
X69950Y-42924D01*
X70033Y-42926D01*
X70115Y-42911D01*
X70193Y-42881D01*
X70263Y-42836D01*
X70270Y-42829D01*
X70270Y-43169D01*
X70203Y-43124D01*
X70126Y-43092D01*
X70044Y-43075D01*
X69961Y-43075D01*
X69879Y-43090D01*
X69802Y-43122D01*
X69732Y-43167D01*
X69673Y-43226D01*
X69626Y-43295D01*
X69593Y-43371D01*
X69576Y-43453D01*
X69574Y-43536D01*
X69590Y-43618D01*
X69620Y-43696D01*
X69666Y-43766D01*
X69667Y-43768D01*
X69331Y-43768D01*
X69371Y-43711D01*
X69405Y-43634D01*
X69424Y-43553D01*
X69425Y-43458D01*
X69425Y-42458D01*
X69409Y-42376D01*
X69377Y-42299D01*
X69331Y-42230D01*
X69272Y-42171D01*
X69203Y-42124D01*
X69126Y-42092D01*
X69044Y-42075D01*
X68961Y-42075D01*
X68879Y-42090D01*
X68802Y-42122D01*
X68732Y-42167D01*
X68673Y-42226D01*
X68626Y-42295D01*
X68593Y-42371D01*
X68576Y-42453D01*
X68574Y-42536D01*
X68590Y-42618D01*
X68620Y-42696D01*
X68666Y-42766D01*
X68723Y-42825D01*
X68792Y-42873D01*
X68868Y-42906D01*
X68950Y-42924D01*
X69033Y-42926D01*
X69115Y-42911D01*
X69193Y-42881D01*
X69263Y-42836D01*
X69324Y-42779D01*
X69371Y-42711D01*
X69405Y-42634D01*
X69424Y-42553D01*
X69425Y-42458D01*
X69425Y-43458D01*
X69409Y-43376D01*
X69377Y-43299D01*
X69331Y-43230D01*
X69272Y-43171D01*
X69203Y-43124D01*
X69126Y-43092D01*
X69044Y-43075D01*
X68961Y-43075D01*
X68879Y-43090D01*
X68824Y-43112D01*
X68230Y-42518D01*
X68230Y-42041D01*
X68230Y-42040D01*
X68229Y-42038D01*
X68228Y-42012D01*
X68227Y-42011D01*
X68221Y-41992D01*
X68219Y-41984D01*
X68219Y-41983D01*
X68212Y-41970D01*
X68206Y-41958D01*
X68205Y-41957D01*
X68187Y-41935D01*
X68186Y-41934D01*
X67860Y-41608D01*
X67860Y-38413D01*
X67860Y-38339D01*
X67859Y-38162D01*
X67859Y-38141D01*
X67855Y-38120D01*
X67847Y-38100D01*
X67835Y-38082D01*
X67819Y-38067D01*
X67802Y-38055D01*
X67782Y-38047D01*
X67761Y-38043D01*
X67537Y-38042D01*
X67510Y-38069D01*
X67510Y-38366D01*
X67833Y-38366D01*
X67860Y-38339D01*
X67860Y-38413D01*
X67833Y-38386D01*
X67510Y-38386D01*
X67510Y-38683D01*
X67537Y-38710D01*
X67761Y-38709D01*
X67782Y-38705D01*
X67802Y-38697D01*
X67819Y-38685D01*
X67835Y-38670D01*
X67847Y-38652D01*
X67855Y-38632D01*
X67859Y-38611D01*
X67859Y-38590D01*
X67860Y-38413D01*
X67860Y-41608D01*
X67490Y-41238D01*
X67490Y-38683D01*
X67490Y-38386D01*
X67490Y-38366D01*
X67490Y-38069D01*
X67463Y-38042D01*
X67239Y-38043D01*
X67218Y-38047D01*
X67198Y-38055D01*
X67181Y-38067D01*
X67165Y-38082D01*
X67153Y-38100D01*
X67145Y-38120D01*
X67141Y-38141D01*
X67141Y-38162D01*
X67140Y-38339D01*
X67167Y-38366D01*
X67490Y-38366D01*
X67490Y-38386D01*
X67167Y-38386D01*
X67140Y-38413D01*
X67141Y-38590D01*
X67141Y-38611D01*
X67145Y-38632D01*
X67153Y-38652D01*
X67165Y-38670D01*
X67181Y-38685D01*
X67198Y-38697D01*
X67218Y-38705D01*
X67239Y-38709D01*
X67463Y-38710D01*
X67490Y-38683D01*
X67490Y-41238D01*
X66543Y-40291D01*
X66543Y-38961D01*
X66543Y-38887D01*
X66542Y-38442D01*
X66542Y-38421D01*
X66538Y-38400D01*
X66530Y-38380D01*
X66518Y-38362D01*
X66502Y-38347D01*
X66485Y-38335D01*
X66465Y-38327D01*
X66444Y-38323D01*
X66037Y-38322D01*
X66010Y-38349D01*
X66010Y-38914D01*
X66516Y-38914D01*
X66543Y-38887D01*
X66543Y-38961D01*
X66516Y-38934D01*
X66010Y-38934D01*
X66010Y-39499D01*
X66037Y-39526D01*
X66444Y-39525D01*
X66465Y-39521D01*
X66485Y-39513D01*
X66502Y-39501D01*
X66518Y-39486D01*
X66530Y-39468D01*
X66538Y-39448D01*
X66542Y-39427D01*
X66542Y-39406D01*
X66543Y-38961D01*
X66543Y-40291D01*
X66127Y-39875D01*
X66126Y-39874D01*
X66124Y-39872D01*
X66105Y-39856D01*
X66085Y-39845D01*
X66079Y-39842D01*
X66078Y-39841D01*
X66059Y-39835D01*
X66051Y-39833D01*
X66022Y-39830D01*
X66020Y-39830D01*
X65990Y-39830D01*
X65990Y-39499D01*
X65990Y-38934D01*
X65990Y-38914D01*
X65990Y-38349D01*
X65963Y-38322D01*
X65556Y-38323D01*
X65535Y-38327D01*
X65515Y-38335D01*
X65498Y-38347D01*
X65482Y-38362D01*
X65470Y-38380D01*
X65462Y-38400D01*
X65458Y-38421D01*
X65458Y-38442D01*
X65457Y-38887D01*
X65484Y-38914D01*
X65990Y-38914D01*
X65990Y-38934D01*
X65484Y-38934D01*
X65457Y-38961D01*
X65458Y-39406D01*
X65458Y-39427D01*
X65462Y-39448D01*
X65470Y-39468D01*
X65482Y-39486D01*
X65498Y-39501D01*
X65515Y-39513D01*
X65535Y-39521D01*
X65556Y-39525D01*
X65963Y-39526D01*
X65990Y-39499D01*
X65990Y-39830D01*
X65702Y-39830D01*
X64229Y-38357D01*
X64263Y-38336D01*
X64324Y-38279D01*
X64371Y-38211D01*
X64405Y-38134D01*
X64424Y-38053D01*
X64425Y-37958D01*
X64409Y-37876D01*
X64377Y-37799D01*
X64331Y-37730D01*
X64272Y-37671D01*
X64203Y-37624D01*
X64126Y-37592D01*
X64044Y-37575D01*
X63961Y-37575D01*
X63879Y-37590D01*
X63802Y-37622D01*
X63732Y-37667D01*
X63673Y-37726D01*
X63626Y-37795D01*
X63593Y-37871D01*
X63576Y-37953D01*
X63574Y-38036D01*
X63590Y-38118D01*
X63620Y-38196D01*
X63666Y-38266D01*
X63723Y-38325D01*
X63770Y-38357D01*
X63455Y-38673D01*
X63454Y-38674D01*
X63452Y-38675D01*
X63436Y-38695D01*
X63425Y-38714D01*
X63421Y-38722D01*
X63415Y-38741D01*
X63413Y-38749D01*
X63410Y-38778D01*
X63410Y-38780D01*
X63410Y-39377D01*
X63170Y-39618D01*
X63168Y-39619D01*
X63152Y-39639D01*
X63141Y-39658D01*
X63137Y-39666D01*
X63131Y-39685D01*
X63129Y-39693D01*
X63126Y-39722D01*
X63126Y-39724D01*
X63126Y-40022D01*
X61895Y-41253D01*
X61894Y-41254D01*
X61892Y-41255D01*
X61876Y-41275D01*
X61868Y-41288D01*
X61830Y-41231D01*
X61771Y-41172D01*
X61702Y-41125D01*
X61649Y-41102D01*
X61649Y-39563D01*
X61994Y-39217D01*
X62026Y-39224D01*
X62082Y-39226D01*
X62137Y-39216D01*
X62189Y-39196D01*
X62236Y-39166D01*
X62277Y-39127D01*
X62309Y-39081D01*
X62332Y-39030D01*
X62344Y-38976D01*
X62345Y-38912D01*
X62337Y-38874D01*
X63824Y-37387D01*
X63868Y-37406D01*
X63950Y-37424D01*
X64033Y-37426D01*
X64115Y-37411D01*
X64193Y-37381D01*
X64263Y-37336D01*
X64324Y-37279D01*
X64371Y-37211D01*
X64397Y-37150D01*
X65458Y-37150D01*
X65458Y-37577D01*
X65462Y-37598D01*
X65470Y-37618D01*
X65482Y-37635D01*
X65497Y-37651D01*
X65515Y-37663D01*
X65535Y-37671D01*
X65556Y-37675D01*
X65577Y-37675D01*
X66444Y-37675D01*
X66465Y-37671D01*
X66485Y-37663D01*
X66502Y-37651D01*
X66518Y-37636D01*
X66530Y-37618D01*
X66538Y-37598D01*
X66542Y-37577D01*
X66542Y-37556D01*
X66542Y-37226D01*
X66887Y-37226D01*
X66888Y-37226D01*
X67141Y-37479D01*
X67141Y-37861D01*
X67145Y-37882D01*
X67153Y-37902D01*
X67165Y-37919D01*
X67180Y-37935D01*
X67198Y-37947D01*
X67218Y-37955D01*
X67239Y-37959D01*
X67260Y-37959D01*
X67761Y-37959D01*
X67782Y-37955D01*
X67802Y-37947D01*
X67819Y-37935D01*
X67835Y-37920D01*
X67847Y-37902D01*
X67855Y-37882D01*
X67859Y-37861D01*
X67859Y-37840D01*
X67859Y-37391D01*
X67855Y-37370D01*
X67847Y-37350D01*
X67835Y-37333D01*
X67820Y-37317D01*
X67802Y-37305D01*
X67782Y-37297D01*
X67761Y-37293D01*
X67740Y-37293D01*
X67379Y-37293D01*
X67057Y-36971D01*
X67056Y-36970D01*
X67055Y-36969D01*
X67054Y-36968D01*
X67052Y-36966D01*
X67035Y-36952D01*
X67033Y-36950D01*
X67013Y-36939D01*
X67007Y-36936D01*
X67006Y-36935D01*
X66987Y-36929D01*
X66979Y-36927D01*
X66950Y-36924D01*
X66948Y-36924D01*
X66542Y-36924D01*
X66542Y-36571D01*
X66538Y-36550D01*
X66530Y-36530D01*
X66518Y-36513D01*
X66503Y-36497D01*
X66485Y-36485D01*
X66465Y-36477D01*
X66444Y-36473D01*
X66423Y-36473D01*
X65556Y-36473D01*
X65535Y-36477D01*
X65515Y-36485D01*
X65498Y-36497D01*
X65482Y-36512D01*
X65470Y-36530D01*
X65462Y-36550D01*
X65458Y-36571D01*
X65458Y-36592D01*
X65458Y-36850D01*
X64398Y-36850D01*
X64377Y-36799D01*
X64331Y-36730D01*
X64272Y-36671D01*
X64203Y-36624D01*
X64126Y-36592D01*
X64044Y-36575D01*
X63961Y-36575D01*
X63879Y-36590D01*
X63802Y-36622D01*
X63732Y-36667D01*
X63673Y-36726D01*
X63626Y-36795D01*
X63593Y-36871D01*
X63576Y-36953D01*
X63574Y-37036D01*
X63590Y-37118D01*
X63612Y-37175D01*
X62125Y-38662D01*
X62090Y-38655D01*
X62034Y-38655D01*
X61979Y-38665D01*
X61927Y-38686D01*
X61881Y-38717D01*
X61841Y-38756D01*
X61809Y-38802D01*
X61787Y-38853D01*
X61775Y-38908D01*
X61775Y-38964D01*
X61782Y-39005D01*
X61394Y-39394D01*
X61393Y-39395D01*
X61391Y-39396D01*
X61375Y-39416D01*
X61364Y-39435D01*
X61360Y-39443D01*
X61354Y-39462D01*
X61352Y-39470D01*
X61349Y-39499D01*
X61349Y-39501D01*
X61349Y-41103D01*
X61301Y-41123D01*
X61231Y-41168D01*
X61172Y-41227D01*
X61170Y-41229D01*
X61170Y-40020D01*
X61167Y-39992D01*
X61167Y-39991D01*
X61159Y-39963D01*
X61145Y-39937D01*
X61127Y-39915D01*
X61126Y-39914D01*
X61125Y-39913D01*
X58424Y-37212D01*
X58424Y-36674D01*
X58420Y-36653D01*
X58412Y-36633D01*
X58400Y-36616D01*
X58385Y-36600D01*
X58367Y-36588D01*
X58347Y-36580D01*
X58326Y-36576D01*
X58305Y-36576D01*
X57674Y-36576D01*
X57653Y-36580D01*
X57633Y-36588D01*
X57616Y-36600D01*
X57600Y-36615D01*
X57588Y-36633D01*
X57580Y-36653D01*
X57576Y-36674D01*
X57576Y-36695D01*
X57576Y-37326D01*
X57580Y-37347D01*
X57588Y-37367D01*
X57600Y-37384D01*
X57615Y-37400D01*
X57633Y-37412D01*
X57653Y-37420D01*
X57674Y-37424D01*
X57695Y-37424D01*
X58212Y-37424D01*
X60870Y-40082D01*
X60870Y-41289D01*
X60831Y-41231D01*
X60772Y-41172D01*
X60703Y-41125D01*
X60626Y-41093D01*
X60544Y-41076D01*
X60488Y-41076D01*
X58590Y-39178D01*
X58590Y-38821D01*
X58590Y-38820D01*
X58589Y-38818D01*
X58588Y-38792D01*
X58587Y-38791D01*
X58581Y-38772D01*
X58579Y-38764D01*
X58579Y-38763D01*
X58572Y-38750D01*
X58566Y-38738D01*
X58565Y-38737D01*
X58547Y-38715D01*
X58546Y-38714D01*
X58205Y-38373D01*
X58263Y-38336D01*
X58324Y-38279D01*
X58371Y-38211D01*
X58405Y-38134D01*
X58424Y-38053D01*
X58425Y-37958D01*
X58409Y-37876D01*
X58377Y-37799D01*
X58331Y-37730D01*
X58272Y-37671D01*
X58203Y-37624D01*
X58126Y-37592D01*
X58044Y-37575D01*
X57961Y-37575D01*
X57879Y-37590D01*
X57802Y-37622D01*
X57732Y-37667D01*
X57673Y-37726D01*
X57626Y-37795D01*
X57593Y-37871D01*
X57576Y-37953D01*
X57574Y-38036D01*
X57590Y-38118D01*
X57620Y-38196D01*
X57666Y-38266D01*
X57723Y-38325D01*
X57792Y-38373D01*
X57794Y-38373D01*
X57684Y-38483D01*
X57685Y-38472D01*
X57674Y-38417D01*
X57653Y-38366D01*
X57622Y-38319D01*
X57582Y-38279D01*
X57536Y-38248D01*
X57485Y-38226D01*
X57430Y-38215D01*
X57374Y-38215D01*
X57319Y-38225D01*
X57267Y-38246D01*
X57221Y-38277D01*
X57181Y-38316D01*
X57157Y-38350D01*
X56441Y-38350D01*
X56440Y-38350D01*
X56438Y-38350D01*
X56412Y-38352D01*
X56392Y-38358D01*
X56383Y-38361D01*
X56370Y-38368D01*
X56358Y-38374D01*
X56335Y-38393D01*
X56334Y-38394D01*
X56218Y-38510D01*
X52840Y-38510D01*
X52811Y-38513D01*
X52783Y-38521D01*
X52757Y-38535D01*
X52735Y-38553D01*
X52734Y-38554D01*
X52733Y-38555D01*
X52212Y-39076D01*
X51674Y-39076D01*
X51653Y-39080D01*
X51633Y-39088D01*
X51616Y-39100D01*
X51600Y-39115D01*
X51588Y-39133D01*
X51580Y-39153D01*
X51576Y-39174D01*
X51576Y-39195D01*
X51576Y-39826D01*
X51580Y-39847D01*
X51588Y-39867D01*
X51600Y-39884D01*
X51601Y-39886D01*
X51333Y-40155D01*
X51332Y-40156D01*
X51330Y-40157D01*
X51314Y-40177D01*
X51303Y-40196D01*
X51299Y-40204D01*
X51293Y-40223D01*
X51291Y-40231D01*
X51288Y-40260D01*
X51288Y-40262D01*
X51288Y-41584D01*
X51280Y-41592D01*
X51280Y-36280D01*
X70720Y-36280D01*
X70720Y-44008D01*
G36*
X70720Y-52720D02*
X70426Y-52720D01*
X70426Y-51507D01*
X70426Y-50507D01*
X70419Y-50424D01*
X70397Y-50344D01*
X70359Y-50269D01*
X70351Y-50258D01*
X70289Y-50225D01*
X70014Y-50500D01*
X70289Y-50775D01*
X70351Y-50742D01*
X70391Y-50669D01*
X70416Y-50590D01*
X70426Y-50507D01*
X70426Y-51507D01*
X70419Y-51424D01*
X70397Y-51344D01*
X70359Y-51269D01*
X70351Y-51258D01*
X70289Y-51225D01*
X70275Y-51239D01*
X70275Y-51211D01*
X70275Y-50789D01*
X70000Y-50514D01*
X69986Y-50528D01*
X69725Y-50789D01*
X69758Y-50851D01*
X69831Y-50891D01*
X69910Y-50916D01*
X69993Y-50926D01*
X70076Y-50919D01*
X70156Y-50897D01*
X70231Y-50859D01*
X70242Y-50851D01*
X70275Y-50789D01*
X70275Y-51211D01*
X70242Y-51149D01*
X70169Y-51109D01*
X70090Y-51084D01*
X70007Y-51074D01*
X69924Y-51081D01*
X69844Y-51103D01*
X69769Y-51141D01*
X69758Y-51149D01*
X69725Y-51211D01*
X70000Y-51486D01*
X70275Y-51211D01*
X70275Y-51239D01*
X70014Y-51500D01*
X70289Y-51775D01*
X70351Y-51742D01*
X70391Y-51669D01*
X70416Y-51590D01*
X70426Y-51507D01*
X70426Y-52720D01*
X70275Y-52720D01*
X70275Y-51789D01*
X70000Y-51514D01*
X69986Y-51528D01*
X69986Y-51500D01*
X69711Y-51225D01*
X69649Y-51258D01*
X69609Y-51331D01*
X69584Y-51410D01*
X69574Y-51493D01*
X69581Y-51576D01*
X69603Y-51656D01*
X69641Y-51731D01*
X69649Y-51742D01*
X69711Y-51775D01*
X69986Y-51500D01*
X69986Y-51528D01*
X69725Y-51789D01*
X69758Y-51851D01*
X69831Y-51891D01*
X69910Y-51916D01*
X69993Y-51926D01*
X70076Y-51919D01*
X70156Y-51897D01*
X70231Y-51859D01*
X70242Y-51851D01*
X70275Y-51789D01*
X70275Y-52720D01*
X69425Y-52720D01*
X69425Y-51458D01*
X69425Y-50458D01*
X69409Y-50376D01*
X69377Y-50299D01*
X69331Y-50230D01*
X69272Y-50171D01*
X69203Y-50124D01*
X69126Y-50092D01*
X69044Y-50075D01*
X68961Y-50075D01*
X68879Y-50090D01*
X68802Y-50122D01*
X68732Y-50167D01*
X68673Y-50226D01*
X68626Y-50295D01*
X68593Y-50371D01*
X68576Y-50453D01*
X68574Y-50536D01*
X68590Y-50618D01*
X68620Y-50696D01*
X68666Y-50766D01*
X68723Y-50825D01*
X68792Y-50873D01*
X68868Y-50906D01*
X68950Y-50924D01*
X69033Y-50926D01*
X69115Y-50911D01*
X69193Y-50881D01*
X69263Y-50836D01*
X69324Y-50779D01*
X69371Y-50711D01*
X69405Y-50634D01*
X69424Y-50553D01*
X69425Y-50458D01*
X69425Y-51458D01*
X69409Y-51376D01*
X69377Y-51299D01*
X69331Y-51230D01*
X69272Y-51171D01*
X69203Y-51124D01*
X69126Y-51092D01*
X69044Y-51075D01*
X68961Y-51075D01*
X68879Y-51090D01*
X68802Y-51122D01*
X68732Y-51167D01*
X68673Y-51226D01*
X68626Y-51295D01*
X68593Y-51371D01*
X68576Y-51453D01*
X68574Y-51536D01*
X68590Y-51618D01*
X68620Y-51696D01*
X68666Y-51766D01*
X68723Y-51825D01*
X68792Y-51873D01*
X68868Y-51906D01*
X68950Y-51924D01*
X69033Y-51926D01*
X69115Y-51911D01*
X69193Y-51881D01*
X69263Y-51836D01*
X69324Y-51779D01*
X69371Y-51711D01*
X69405Y-51634D01*
X69424Y-51553D01*
X69425Y-51458D01*
X69425Y-52720D01*
X68425Y-52720D01*
X68425Y-51458D01*
X68409Y-51376D01*
X68377Y-51299D01*
X68331Y-51230D01*
X68272Y-51171D01*
X68203Y-51124D01*
X68126Y-51092D01*
X68044Y-51075D01*
X67961Y-51075D01*
X67879Y-51090D01*
X67802Y-51122D01*
X67732Y-51167D01*
X67673Y-51226D01*
X67626Y-51295D01*
X67593Y-51371D01*
X67576Y-51453D01*
X67574Y-51536D01*
X67590Y-51618D01*
X67620Y-51696D01*
X67666Y-51766D01*
X67723Y-51825D01*
X67792Y-51873D01*
X67868Y-51906D01*
X67950Y-51924D01*
X68033Y-51926D01*
X68115Y-51911D01*
X68193Y-51881D01*
X68263Y-51836D01*
X68324Y-51779D01*
X68371Y-51711D01*
X68405Y-51634D01*
X68424Y-51553D01*
X68425Y-51458D01*
X68425Y-52720D01*
X62385Y-52720D01*
X62385Y-50472D01*
X62374Y-50417D01*
X62353Y-50366D01*
X62322Y-50319D01*
X62282Y-50279D01*
X62236Y-50248D01*
X62185Y-50226D01*
X62130Y-50215D01*
X62074Y-50215D01*
X62019Y-50225D01*
X61967Y-50246D01*
X61921Y-50277D01*
X61881Y-50316D01*
X61857Y-50350D01*
X61402Y-50350D01*
X61257Y-50205D01*
X61264Y-50176D01*
X61265Y-50112D01*
X61254Y-50057D01*
X61233Y-50006D01*
X61202Y-49959D01*
X61162Y-49919D01*
X61116Y-49888D01*
X61065Y-49866D01*
X61010Y-49855D01*
X60954Y-49855D01*
X60899Y-49865D01*
X60847Y-49886D01*
X60801Y-49917D01*
X60775Y-49942D01*
X60775Y-47789D01*
X60500Y-47514D01*
X60486Y-47528D01*
X60486Y-47500D01*
X60211Y-47225D01*
X60149Y-47258D01*
X60109Y-47331D01*
X60084Y-47410D01*
X60074Y-47493D01*
X60081Y-47576D01*
X60103Y-47656D01*
X60141Y-47731D01*
X60149Y-47742D01*
X60211Y-47775D01*
X60486Y-47500D01*
X60486Y-47528D01*
X60225Y-47789D01*
X60258Y-47851D01*
X60331Y-47891D01*
X60410Y-47916D01*
X60493Y-47926D01*
X60576Y-47919D01*
X60656Y-47897D01*
X60731Y-47859D01*
X60742Y-47851D01*
X60775Y-47789D01*
X60775Y-49942D01*
X60761Y-49956D01*
X60729Y-50002D01*
X60707Y-50053D01*
X60695Y-50108D01*
X60695Y-50164D01*
X60705Y-50219D01*
X60725Y-50271D01*
X60756Y-50318D01*
X60794Y-50358D01*
X60840Y-50390D01*
X60892Y-50412D01*
X60946Y-50424D01*
X61002Y-50426D01*
X61046Y-50418D01*
X61233Y-50605D01*
X61234Y-50606D01*
X61237Y-50608D01*
X61255Y-50624D01*
X61256Y-50624D01*
X61270Y-50632D01*
X61281Y-50638D01*
X61282Y-50639D01*
X61301Y-50644D01*
X61309Y-50647D01*
X61310Y-50647D01*
X61338Y-50650D01*
X61340Y-50650D01*
X61857Y-50650D01*
X61876Y-50678D01*
X61914Y-50718D01*
X61960Y-50750D01*
X62012Y-50772D01*
X62066Y-50784D01*
X62122Y-50786D01*
X62177Y-50776D01*
X62229Y-50756D01*
X62276Y-50726D01*
X62317Y-50687D01*
X62349Y-50641D01*
X62372Y-50590D01*
X62384Y-50536D01*
X62385Y-50472D01*
X62385Y-52720D01*
X58426Y-52720D01*
X58426Y-52007D01*
X58419Y-51924D01*
X58397Y-51844D01*
X58359Y-51769D01*
X58351Y-51758D01*
X58289Y-51725D01*
X58275Y-51739D01*
X58275Y-51711D01*
X58242Y-51649D01*
X58169Y-51609D01*
X58090Y-51584D01*
X58007Y-51574D01*
X57924Y-51581D01*
X57844Y-51603D01*
X57769Y-51641D01*
X57758Y-51649D01*
X57725Y-51711D01*
X58000Y-51986D01*
X58275Y-51711D01*
X58275Y-51739D01*
X58014Y-52000D01*
X58289Y-52275D01*
X58351Y-52242D01*
X58391Y-52169D01*
X58416Y-52090D01*
X58426Y-52007D01*
X58426Y-52720D01*
X58275Y-52720D01*
X58275Y-52289D01*
X58000Y-52014D01*
X57986Y-52028D01*
X57986Y-52000D01*
X57711Y-51725D01*
X57649Y-51758D01*
X57609Y-51831D01*
X57584Y-51910D01*
X57574Y-51993D01*
X57581Y-52076D01*
X57603Y-52156D01*
X57641Y-52231D01*
X57649Y-52242D01*
X57711Y-52275D01*
X57986Y-52000D01*
X57986Y-52028D01*
X57725Y-52289D01*
X57758Y-52351D01*
X57831Y-52391D01*
X57910Y-52416D01*
X57993Y-52426D01*
X58076Y-52419D01*
X58156Y-52397D01*
X58231Y-52359D01*
X58242Y-52351D01*
X58275Y-52289D01*
X58275Y-52720D01*
X56425Y-52720D01*
X56425Y-51458D01*
X56409Y-51376D01*
X56377Y-51299D01*
X56331Y-51230D01*
X56272Y-51171D01*
X56203Y-51124D01*
X56126Y-51092D01*
X56044Y-51075D01*
X55961Y-51075D01*
X55879Y-51090D01*
X55802Y-51122D01*
X55732Y-51167D01*
X55673Y-51226D01*
X55626Y-51295D01*
X55593Y-51371D01*
X55576Y-51453D01*
X55574Y-51536D01*
X55590Y-51618D01*
X55620Y-51696D01*
X55666Y-51766D01*
X55723Y-51825D01*
X55792Y-51873D01*
X55868Y-51906D01*
X55950Y-51924D01*
X56033Y-51926D01*
X56115Y-51911D01*
X56193Y-51881D01*
X56263Y-51836D01*
X56324Y-51779D01*
X56371Y-51711D01*
X56405Y-51634D01*
X56424Y-51553D01*
X56425Y-51458D01*
X56425Y-52720D01*
X55426Y-52720D01*
X55426Y-51507D01*
X55426Y-50507D01*
X55419Y-50424D01*
X55397Y-50344D01*
X55359Y-50269D01*
X55351Y-50258D01*
X55289Y-50225D01*
X55275Y-50239D01*
X55014Y-50500D01*
X55289Y-50775D01*
X55351Y-50742D01*
X55391Y-50669D01*
X55416Y-50590D01*
X55426Y-50507D01*
X55426Y-51507D01*
X55419Y-51424D01*
X55397Y-51344D01*
X55359Y-51269D01*
X55351Y-51258D01*
X55289Y-51225D01*
X55275Y-51239D01*
X55275Y-51211D01*
X55275Y-50789D01*
X55000Y-50514D01*
X54725Y-50789D01*
X54758Y-50851D01*
X54831Y-50891D01*
X54910Y-50916D01*
X54993Y-50926D01*
X55076Y-50919D01*
X55156Y-50897D01*
X55231Y-50859D01*
X55242Y-50851D01*
X55275Y-50789D01*
X55275Y-51211D01*
X55242Y-51149D01*
X55169Y-51109D01*
X55090Y-51084D01*
X55007Y-51074D01*
X54924Y-51081D01*
X54844Y-51103D01*
X54769Y-51141D01*
X54758Y-51149D01*
X54725Y-51211D01*
X55000Y-51486D01*
X55275Y-51211D01*
X55275Y-51239D01*
X55014Y-51500D01*
X55289Y-51775D01*
X55351Y-51742D01*
X55391Y-51669D01*
X55416Y-51590D01*
X55426Y-51507D01*
X55426Y-52720D01*
X53425Y-52720D01*
X53425Y-51458D01*
X53409Y-51376D01*
X53377Y-51299D01*
X53331Y-51230D01*
X53272Y-51171D01*
X53203Y-51124D01*
X53126Y-51092D01*
X53044Y-51075D01*
X52961Y-51075D01*
X52879Y-51090D01*
X52802Y-51122D01*
X52732Y-51167D01*
X52673Y-51226D01*
X52626Y-51295D01*
X52593Y-51371D01*
X52576Y-51453D01*
X52574Y-51536D01*
X52590Y-51618D01*
X52620Y-51696D01*
X52666Y-51766D01*
X52723Y-51825D01*
X52792Y-51873D01*
X52868Y-51906D01*
X52950Y-51924D01*
X53033Y-51926D01*
X53115Y-51911D01*
X53193Y-51881D01*
X53263Y-51836D01*
X53324Y-51779D01*
X53371Y-51711D01*
X53405Y-51634D01*
X53424Y-51553D01*
X53425Y-51458D01*
X53425Y-52720D01*
X52425Y-52720D01*
X52425Y-50458D01*
X52425Y-48458D01*
X52409Y-48376D01*
X52377Y-48299D01*
X52331Y-48230D01*
X52272Y-48171D01*
X52203Y-48124D01*
X52126Y-48092D01*
X52044Y-48075D01*
X51961Y-48075D01*
X51879Y-48090D01*
X51802Y-48122D01*
X51732Y-48167D01*
X51673Y-48226D01*
X51626Y-48295D01*
X51593Y-48371D01*
X51576Y-48453D01*
X51574Y-48536D01*
X51590Y-48618D01*
X51620Y-48696D01*
X51666Y-48766D01*
X51723Y-48825D01*
X51792Y-48873D01*
X51868Y-48906D01*
X51950Y-48924D01*
X52033Y-48926D01*
X52115Y-48911D01*
X52193Y-48881D01*
X52263Y-48836D01*
X52324Y-48779D01*
X52371Y-48711D01*
X52405Y-48634D01*
X52424Y-48553D01*
X52425Y-48458D01*
X52425Y-50458D01*
X52409Y-50376D01*
X52377Y-50299D01*
X52331Y-50230D01*
X52272Y-50171D01*
X52203Y-50124D01*
X52126Y-50092D01*
X52044Y-50075D01*
X51961Y-50075D01*
X51879Y-50090D01*
X51802Y-50122D01*
X51732Y-50167D01*
X51673Y-50226D01*
X51626Y-50295D01*
X51593Y-50371D01*
X51576Y-50453D01*
X51574Y-50536D01*
X51590Y-50618D01*
X51620Y-50696D01*
X51666Y-50766D01*
X51723Y-50825D01*
X51792Y-50873D01*
X51868Y-50906D01*
X51950Y-50924D01*
X52033Y-50926D01*
X52115Y-50911D01*
X52193Y-50881D01*
X52263Y-50836D01*
X52324Y-50779D01*
X52371Y-50711D01*
X52405Y-50634D01*
X52424Y-50553D01*
X52425Y-50458D01*
X52425Y-52720D01*
X52424Y-52720D01*
X52424Y-51826D01*
X52424Y-51805D01*
X52424Y-51174D01*
X52420Y-51153D01*
X52412Y-51133D01*
X52400Y-51116D01*
X52385Y-51100D01*
X52367Y-51088D01*
X52347Y-51080D01*
X52326Y-51076D01*
X52305Y-51076D01*
X51674Y-51076D01*
X51653Y-51080D01*
X51633Y-51088D01*
X51616Y-51100D01*
X51600Y-51115D01*
X51588Y-51133D01*
X51580Y-51153D01*
X51576Y-51174D01*
X51576Y-51195D01*
X51576Y-51826D01*
X51580Y-51847D01*
X51588Y-51867D01*
X51600Y-51884D01*
X51615Y-51900D01*
X51633Y-51912D01*
X51653Y-51920D01*
X51674Y-51924D01*
X51695Y-51924D01*
X52326Y-51924D01*
X52347Y-51920D01*
X52367Y-51912D01*
X52384Y-51900D01*
X52400Y-51885D01*
X52412Y-51867D01*
X52420Y-51847D01*
X52424Y-51826D01*
X52424Y-52720D01*
X51280Y-52720D01*
X51280Y-46052D01*
X51430Y-46202D01*
X51430Y-47079D01*
X51430Y-47080D01*
X51430Y-47082D01*
X51432Y-47108D01*
X51438Y-47128D01*
X51441Y-47137D01*
X51448Y-47150D01*
X51454Y-47162D01*
X51455Y-47163D01*
X51473Y-47185D01*
X51474Y-47186D01*
X51612Y-47324D01*
X51593Y-47371D01*
X51576Y-47453D01*
X51574Y-47536D01*
X51590Y-47618D01*
X51620Y-47696D01*
X51666Y-47766D01*
X51723Y-47825D01*
X51792Y-47873D01*
X51868Y-47906D01*
X51950Y-47924D01*
X52033Y-47926D01*
X52115Y-47911D01*
X52193Y-47881D01*
X52263Y-47836D01*
X52281Y-47818D01*
X52282Y-47818D01*
X52288Y-47830D01*
X52294Y-47842D01*
X52295Y-47843D01*
X52313Y-47865D01*
X52314Y-47866D01*
X52615Y-48167D01*
X52616Y-48168D01*
X52619Y-48170D01*
X52637Y-48186D01*
X52638Y-48186D01*
X52652Y-48194D01*
X52663Y-48200D01*
X52664Y-48201D01*
X52683Y-48206D01*
X52690Y-48208D01*
X52673Y-48226D01*
X52626Y-48295D01*
X52593Y-48371D01*
X52576Y-48453D01*
X52574Y-48536D01*
X52590Y-48618D01*
X52620Y-48696D01*
X52666Y-48766D01*
X52723Y-48825D01*
X52792Y-48873D01*
X52868Y-48906D01*
X52950Y-48924D01*
X53033Y-48926D01*
X53115Y-48911D01*
X53193Y-48881D01*
X53263Y-48836D01*
X53324Y-48779D01*
X53371Y-48711D01*
X53405Y-48634D01*
X53424Y-48553D01*
X53425Y-48458D01*
X53409Y-48376D01*
X53377Y-48299D01*
X53331Y-48230D01*
X53313Y-48212D01*
X57413Y-48212D01*
X57418Y-48228D01*
X57421Y-48237D01*
X57428Y-48250D01*
X57434Y-48262D01*
X57435Y-48263D01*
X57453Y-48285D01*
X57454Y-48286D01*
X57794Y-48626D01*
X57732Y-48667D01*
X57673Y-48726D01*
X57626Y-48795D01*
X57602Y-48850D01*
X55690Y-48850D01*
X55661Y-48853D01*
X55633Y-48861D01*
X55607Y-48875D01*
X55585Y-48893D01*
X55583Y-48894D01*
X54932Y-49545D01*
X54932Y-48842D01*
X54980Y-48793D01*
X55026Y-48804D01*
X55082Y-48806D01*
X55137Y-48796D01*
X55189Y-48776D01*
X55236Y-48746D01*
X55277Y-48707D01*
X55309Y-48661D01*
X55332Y-48610D01*
X55344Y-48556D01*
X55345Y-48492D01*
X55334Y-48437D01*
X55313Y-48386D01*
X55282Y-48339D01*
X55242Y-48299D01*
X55196Y-48268D01*
X55145Y-48246D01*
X55090Y-48235D01*
X55034Y-48235D01*
X54979Y-48245D01*
X54927Y-48266D01*
X54881Y-48297D01*
X54850Y-48327D01*
X54822Y-48299D01*
X54776Y-48268D01*
X54725Y-48246D01*
X54670Y-48235D01*
X54614Y-48235D01*
X54559Y-48245D01*
X54507Y-48266D01*
X54461Y-48297D01*
X54421Y-48336D01*
X54389Y-48382D01*
X54367Y-48433D01*
X54355Y-48488D01*
X54355Y-48544D01*
X54365Y-48599D01*
X54385Y-48651D01*
X54416Y-48698D01*
X54454Y-48738D01*
X54490Y-48763D01*
X54490Y-49588D01*
X54168Y-49910D01*
X53801Y-49910D01*
X53800Y-49910D01*
X53798Y-49910D01*
X53772Y-49912D01*
X53752Y-49918D01*
X53743Y-49921D01*
X53730Y-49928D01*
X53718Y-49934D01*
X53695Y-49953D01*
X53694Y-49954D01*
X53395Y-50253D01*
X53394Y-50254D01*
X53392Y-50255D01*
X53376Y-50275D01*
X53369Y-50287D01*
X53331Y-50230D01*
X53272Y-50171D01*
X53203Y-50124D01*
X53126Y-50092D01*
X53044Y-50075D01*
X52961Y-50075D01*
X52879Y-50090D01*
X52802Y-50122D01*
X52732Y-50167D01*
X52673Y-50226D01*
X52626Y-50295D01*
X52593Y-50371D01*
X52576Y-50453D01*
X52574Y-50536D01*
X52590Y-50618D01*
X52620Y-50696D01*
X52666Y-50766D01*
X52723Y-50825D01*
X52792Y-50873D01*
X52868Y-50906D01*
X52950Y-50924D01*
X53033Y-50926D01*
X53115Y-50911D01*
X53193Y-50881D01*
X53263Y-50836D01*
X53324Y-50779D01*
X53351Y-50739D01*
X53352Y-50748D01*
X53358Y-50768D01*
X53361Y-50777D01*
X53368Y-50790D01*
X53374Y-50802D01*
X53375Y-50803D01*
X53393Y-50825D01*
X53394Y-50826D01*
X53733Y-51165D01*
X53732Y-51167D01*
X53673Y-51226D01*
X53626Y-51295D01*
X53593Y-51371D01*
X53576Y-51453D01*
X53574Y-51536D01*
X53590Y-51618D01*
X53620Y-51696D01*
X53666Y-51766D01*
X53723Y-51825D01*
X53792Y-51873D01*
X53868Y-51906D01*
X53950Y-51924D01*
X54033Y-51926D01*
X54115Y-51911D01*
X54193Y-51881D01*
X54263Y-51836D01*
X54324Y-51779D01*
X54361Y-51725D01*
X54362Y-51738D01*
X54368Y-51758D01*
X54371Y-51767D01*
X54378Y-51780D01*
X54384Y-51792D01*
X54385Y-51793D01*
X54403Y-51815D01*
X54404Y-51816D01*
X54793Y-52205D01*
X54794Y-52206D01*
X54797Y-52208D01*
X54815Y-52224D01*
X54816Y-52224D01*
X54841Y-52238D01*
X54842Y-52238D01*
X54851Y-52241D01*
X54876Y-52278D01*
X54914Y-52318D01*
X54960Y-52350D01*
X55012Y-52372D01*
X55066Y-52384D01*
X55122Y-52386D01*
X55177Y-52376D01*
X55229Y-52356D01*
X55276Y-52326D01*
X55317Y-52287D01*
X55349Y-52241D01*
X55372Y-52190D01*
X55384Y-52136D01*
X55385Y-52072D01*
X55374Y-52017D01*
X55353Y-51966D01*
X55322Y-51919D01*
X55282Y-51879D01*
X55242Y-51851D01*
X55275Y-51789D01*
X55021Y-51535D01*
X55000Y-51514D01*
X54986Y-51500D01*
X54965Y-51479D01*
X54711Y-51225D01*
X54660Y-51252D01*
X54660Y-50747D01*
X54711Y-50775D01*
X54965Y-50521D01*
X54986Y-50500D01*
X55000Y-50486D01*
X55021Y-50465D01*
X55275Y-50211D01*
X55242Y-50149D01*
X55169Y-50109D01*
X55090Y-50084D01*
X55007Y-50074D01*
X54924Y-50081D01*
X54844Y-50103D01*
X54769Y-50141D01*
X54758Y-50149D01*
X54739Y-50182D01*
X54729Y-50172D01*
X55752Y-49150D01*
X57602Y-49150D01*
X57620Y-49196D01*
X57666Y-49266D01*
X57723Y-49325D01*
X57758Y-49350D01*
X56980Y-49350D01*
X56951Y-49353D01*
X56923Y-49361D01*
X56897Y-49375D01*
X56875Y-49393D01*
X56874Y-49394D01*
X56873Y-49395D01*
X56161Y-50106D01*
X56126Y-50092D01*
X56044Y-50075D01*
X55961Y-50075D01*
X55879Y-50090D01*
X55802Y-50122D01*
X55732Y-50167D01*
X55673Y-50226D01*
X55626Y-50295D01*
X55593Y-50371D01*
X55576Y-50453D01*
X55574Y-50536D01*
X55590Y-50618D01*
X55620Y-50696D01*
X55666Y-50766D01*
X55723Y-50825D01*
X55792Y-50873D01*
X55868Y-50906D01*
X55950Y-50924D01*
X56033Y-50926D01*
X56115Y-50911D01*
X56193Y-50881D01*
X56263Y-50836D01*
X56324Y-50779D01*
X56371Y-50711D01*
X56405Y-50634D01*
X56424Y-50553D01*
X56425Y-50458D01*
X56409Y-50376D01*
X56381Y-50310D01*
X57042Y-49650D01*
X57758Y-49650D01*
X57732Y-49667D01*
X57673Y-49726D01*
X57626Y-49795D01*
X57593Y-49871D01*
X57576Y-49953D01*
X57574Y-50036D01*
X57590Y-50118D01*
X57620Y-50196D01*
X57666Y-50266D01*
X57723Y-50325D01*
X57792Y-50373D01*
X57868Y-50406D01*
X57950Y-50424D01*
X58033Y-50426D01*
X58115Y-50411D01*
X58193Y-50381D01*
X58263Y-50336D01*
X58324Y-50279D01*
X58371Y-50211D01*
X58405Y-50134D01*
X58424Y-50053D01*
X58425Y-49958D01*
X58409Y-49876D01*
X58387Y-49824D01*
X58727Y-49485D01*
X58728Y-49485D01*
X58737Y-49472D01*
X58746Y-49463D01*
X58746Y-49462D01*
X58760Y-49437D01*
X58760Y-49436D01*
X58769Y-49409D01*
X58769Y-49408D01*
X58772Y-49380D01*
X58772Y-49378D01*
X58772Y-48040D01*
X59118Y-47693D01*
X59120Y-47696D01*
X59166Y-47766D01*
X59223Y-47825D01*
X59292Y-47873D01*
X59368Y-47906D01*
X59450Y-47924D01*
X59533Y-47926D01*
X59615Y-47911D01*
X59693Y-47881D01*
X59763Y-47836D01*
X59770Y-47829D01*
X59770Y-49238D01*
X58304Y-50703D01*
X58272Y-50671D01*
X58203Y-50624D01*
X58126Y-50592D01*
X58044Y-50575D01*
X57961Y-50575D01*
X57879Y-50590D01*
X57802Y-50622D01*
X57732Y-50667D01*
X57673Y-50726D01*
X57626Y-50795D01*
X57593Y-50871D01*
X57576Y-50953D01*
X57574Y-51036D01*
X57590Y-51118D01*
X57620Y-51196D01*
X57666Y-51266D01*
X57723Y-51325D01*
X57792Y-51373D01*
X57868Y-51406D01*
X57950Y-51424D01*
X58033Y-51426D01*
X58115Y-51411D01*
X58193Y-51381D01*
X58263Y-51336D01*
X58324Y-51279D01*
X58371Y-51211D01*
X58405Y-51134D01*
X58424Y-51053D01*
X58424Y-51007D01*
X60025Y-49407D01*
X60026Y-49406D01*
X60028Y-49403D01*
X60044Y-49385D01*
X60044Y-49384D01*
X60058Y-49359D01*
X60058Y-49358D01*
X60067Y-49331D01*
X60067Y-49330D01*
X60070Y-49302D01*
X60070Y-49300D01*
X60070Y-46920D01*
X60067Y-46892D01*
X60067Y-46891D01*
X60059Y-46863D01*
X60045Y-46837D01*
X60027Y-46815D01*
X60026Y-46814D01*
X60025Y-46813D01*
X59886Y-46674D01*
X59905Y-46634D01*
X59924Y-46553D01*
X59925Y-46458D01*
X59909Y-46376D01*
X59877Y-46299D01*
X59831Y-46230D01*
X59772Y-46171D01*
X59742Y-46149D01*
X59768Y-46148D01*
X59769Y-46147D01*
X59788Y-46141D01*
X59796Y-46139D01*
X59797Y-46139D01*
X59810Y-46132D01*
X59822Y-46126D01*
X59823Y-46125D01*
X59845Y-46107D01*
X59846Y-46106D01*
X60205Y-45747D01*
X60206Y-45746D01*
X60208Y-45743D01*
X60224Y-45725D01*
X60224Y-45724D01*
X60232Y-45710D01*
X60238Y-45699D01*
X60239Y-45698D01*
X60244Y-45679D01*
X60247Y-45671D01*
X60247Y-45670D01*
X60250Y-45642D01*
X60250Y-45640D01*
X60250Y-45502D01*
X60614Y-45137D01*
X60646Y-45144D01*
X60702Y-45146D01*
X60757Y-45136D01*
X60809Y-45116D01*
X60856Y-45086D01*
X60897Y-45047D01*
X60929Y-45001D01*
X60952Y-44950D01*
X60964Y-44896D01*
X60965Y-44832D01*
X60954Y-44777D01*
X60933Y-44726D01*
X60902Y-44679D01*
X60862Y-44639D01*
X60816Y-44608D01*
X60765Y-44586D01*
X60710Y-44575D01*
X60654Y-44575D01*
X60599Y-44585D01*
X60547Y-44606D01*
X60501Y-44637D01*
X60461Y-44676D01*
X60429Y-44722D01*
X60407Y-44773D01*
X60395Y-44828D01*
X60395Y-44884D01*
X60402Y-44925D01*
X59995Y-45333D01*
X59994Y-45334D01*
X59992Y-45335D01*
X59976Y-45355D01*
X59965Y-45374D01*
X59961Y-45382D01*
X59955Y-45401D01*
X59953Y-45409D01*
X59950Y-45438D01*
X59950Y-45440D01*
X59950Y-45578D01*
X59908Y-45619D01*
X59924Y-45553D01*
X59925Y-45458D01*
X59909Y-45376D01*
X59877Y-45299D01*
X59831Y-45230D01*
X59772Y-45171D01*
X59703Y-45124D01*
X59626Y-45092D01*
X59544Y-45075D01*
X59461Y-45075D01*
X59379Y-45090D01*
X59302Y-45122D01*
X59232Y-45167D01*
X59173Y-45226D01*
X59150Y-45259D01*
X59150Y-45062D01*
X59324Y-44887D01*
X59368Y-44906D01*
X59450Y-44924D01*
X59533Y-44926D01*
X59615Y-44911D01*
X59693Y-44881D01*
X59763Y-44836D01*
X59824Y-44779D01*
X59871Y-44711D01*
X59905Y-44634D01*
X59924Y-44553D01*
X59925Y-44458D01*
X59909Y-44376D01*
X59877Y-44299D01*
X59831Y-44230D01*
X59772Y-44171D01*
X59703Y-44124D01*
X59626Y-44092D01*
X59544Y-44075D01*
X59461Y-44075D01*
X59379Y-44090D01*
X59302Y-44122D01*
X59232Y-44167D01*
X59173Y-44226D01*
X59126Y-44295D01*
X59093Y-44371D01*
X59076Y-44453D01*
X59074Y-44536D01*
X59090Y-44618D01*
X59112Y-44675D01*
X58895Y-44893D01*
X58894Y-44894D01*
X58892Y-44895D01*
X58876Y-44915D01*
X58865Y-44934D01*
X58861Y-44942D01*
X58855Y-44961D01*
X58853Y-44969D01*
X58850Y-44998D01*
X58850Y-45000D01*
X58850Y-45258D01*
X58831Y-45230D01*
X58772Y-45171D01*
X58703Y-45124D01*
X58626Y-45092D01*
X58544Y-45075D01*
X58461Y-45075D01*
X58416Y-45083D01*
X58424Y-45053D01*
X58425Y-44958D01*
X58416Y-44916D01*
X58450Y-44924D01*
X58533Y-44926D01*
X58615Y-44911D01*
X58693Y-44881D01*
X58763Y-44836D01*
X58824Y-44779D01*
X58871Y-44711D01*
X58905Y-44634D01*
X58924Y-44553D01*
X58925Y-44458D01*
X58909Y-44376D01*
X58877Y-44299D01*
X58831Y-44230D01*
X58772Y-44171D01*
X58741Y-44150D01*
X59000Y-44150D01*
X59001Y-44150D01*
X59003Y-44149D01*
X59029Y-44148D01*
X59030Y-44147D01*
X59049Y-44141D01*
X59057Y-44139D01*
X59058Y-44139D01*
X59071Y-44132D01*
X59083Y-44126D01*
X59084Y-44125D01*
X59106Y-44107D01*
X59107Y-44106D01*
X59325Y-43888D01*
X59368Y-43907D01*
X59450Y-43925D01*
X59533Y-43927D01*
X59615Y-43912D01*
X59693Y-43882D01*
X59763Y-43837D01*
X59824Y-43780D01*
X59871Y-43712D01*
X59905Y-43635D01*
X59924Y-43554D01*
X59925Y-43459D01*
X59909Y-43377D01*
X59877Y-43300D01*
X59857Y-43270D01*
X61500Y-44913D01*
X61500Y-45849D01*
X61500Y-45850D01*
X61500Y-45852D01*
X61502Y-45878D01*
X61508Y-45898D01*
X61511Y-45907D01*
X61518Y-45920D01*
X61524Y-45932D01*
X61525Y-45933D01*
X61543Y-45955D01*
X61544Y-45956D01*
X61733Y-46145D01*
X61702Y-46124D01*
X61625Y-46092D01*
X61543Y-46075D01*
X61460Y-46075D01*
X61378Y-46090D01*
X61301Y-46122D01*
X61231Y-46167D01*
X61172Y-46226D01*
X61125Y-46295D01*
X61092Y-46371D01*
X61075Y-46453D01*
X61073Y-46536D01*
X61089Y-46618D01*
X61119Y-46696D01*
X61165Y-46766D01*
X61222Y-46825D01*
X61291Y-46873D01*
X61367Y-46906D01*
X61449Y-46924D01*
X61532Y-46926D01*
X61614Y-46911D01*
X61674Y-46887D01*
X61830Y-47043D01*
X61830Y-47230D01*
X61771Y-47171D01*
X61702Y-47124D01*
X61625Y-47092D01*
X61543Y-47075D01*
X61460Y-47075D01*
X61378Y-47090D01*
X61301Y-47122D01*
X61231Y-47167D01*
X61172Y-47226D01*
X61150Y-47258D01*
X61150Y-46840D01*
X61147Y-46812D01*
X61147Y-46811D01*
X61139Y-46784D01*
X61139Y-46783D01*
X61125Y-46757D01*
X61107Y-46735D01*
X61106Y-46734D01*
X61105Y-46733D01*
X60924Y-46552D01*
X60925Y-46458D01*
X60909Y-46376D01*
X60877Y-46299D01*
X60831Y-46230D01*
X60772Y-46171D01*
X60703Y-46124D01*
X60626Y-46092D01*
X60544Y-46075D01*
X60461Y-46075D01*
X60379Y-46090D01*
X60302Y-46122D01*
X60232Y-46167D01*
X60173Y-46226D01*
X60126Y-46295D01*
X60093Y-46371D01*
X60076Y-46453D01*
X60074Y-46536D01*
X60090Y-46618D01*
X60120Y-46696D01*
X60166Y-46766D01*
X60223Y-46825D01*
X60292Y-46873D01*
X60368Y-46906D01*
X60450Y-46924D01*
X60533Y-46926D01*
X60615Y-46911D01*
X60693Y-46881D01*
X60763Y-46836D01*
X60773Y-46825D01*
X60850Y-46902D01*
X60850Y-47257D01*
X60789Y-47225D01*
X60775Y-47239D01*
X60775Y-47211D01*
X60742Y-47149D01*
X60669Y-47109D01*
X60590Y-47084D01*
X60507Y-47074D01*
X60424Y-47081D01*
X60344Y-47103D01*
X60269Y-47141D01*
X60258Y-47149D01*
X60225Y-47211D01*
X60500Y-47486D01*
X60775Y-47211D01*
X60775Y-47239D01*
X60514Y-47500D01*
X60789Y-47775D01*
X60851Y-47742D01*
X60858Y-47728D01*
X60861Y-47737D01*
X60868Y-47750D01*
X60874Y-47762D01*
X60875Y-47763D01*
X60893Y-47785D01*
X60894Y-47786D01*
X61213Y-48105D01*
X61214Y-48106D01*
X61217Y-48108D01*
X61235Y-48124D01*
X61236Y-48124D01*
X61261Y-48138D01*
X61262Y-48138D01*
X61289Y-48147D01*
X61290Y-48147D01*
X61318Y-48150D01*
X61320Y-48150D01*
X61498Y-48150D01*
X63268Y-49920D01*
X63268Y-50617D01*
X63268Y-50618D01*
X63268Y-50620D01*
X63270Y-50646D01*
X63276Y-50666D01*
X63279Y-50675D01*
X63286Y-50688D01*
X63292Y-50700D01*
X63293Y-50701D01*
X63311Y-50723D01*
X63312Y-50724D01*
X63410Y-50822D01*
X63410Y-51559D01*
X63410Y-51560D01*
X63410Y-51562D01*
X63412Y-51588D01*
X63418Y-51608D01*
X63421Y-51617D01*
X63428Y-51630D01*
X63434Y-51642D01*
X63435Y-51643D01*
X63453Y-51665D01*
X63454Y-51666D01*
X63612Y-51824D01*
X63593Y-51871D01*
X63576Y-51953D01*
X63574Y-52036D01*
X63590Y-52118D01*
X63620Y-52196D01*
X63666Y-52266D01*
X63723Y-52325D01*
X63792Y-52373D01*
X63868Y-52406D01*
X63950Y-52424D01*
X64033Y-52426D01*
X64115Y-52411D01*
X64193Y-52381D01*
X64263Y-52336D01*
X64324Y-52279D01*
X64371Y-52211D01*
X64405Y-52134D01*
X64424Y-52053D01*
X64425Y-51958D01*
X64409Y-51876D01*
X64387Y-51824D01*
X65082Y-51130D01*
X65590Y-51130D01*
X65588Y-51133D01*
X65580Y-51153D01*
X65576Y-51174D01*
X65576Y-51195D01*
X65576Y-51826D01*
X65580Y-51847D01*
X65588Y-51867D01*
X65600Y-51884D01*
X65615Y-51900D01*
X65633Y-51912D01*
X65653Y-51920D01*
X65674Y-51924D01*
X65695Y-51924D01*
X66326Y-51924D01*
X66347Y-51920D01*
X66367Y-51912D01*
X66384Y-51900D01*
X66400Y-51885D01*
X66412Y-51867D01*
X66420Y-51847D01*
X66424Y-51826D01*
X66424Y-51805D01*
X66424Y-51174D01*
X66420Y-51153D01*
X66412Y-51133D01*
X66409Y-51130D01*
X66519Y-51130D01*
X66520Y-51130D01*
X66522Y-51129D01*
X66548Y-51128D01*
X66549Y-51127D01*
X66568Y-51121D01*
X66576Y-51119D01*
X66577Y-51119D01*
X66590Y-51112D01*
X66602Y-51106D01*
X66603Y-51105D01*
X66625Y-51087D01*
X66626Y-51086D01*
X66824Y-50887D01*
X66868Y-50906D01*
X66950Y-50924D01*
X67033Y-50926D01*
X67115Y-50911D01*
X67193Y-50881D01*
X67263Y-50836D01*
X67270Y-50829D01*
X67270Y-51018D01*
X67175Y-51112D01*
X67126Y-51092D01*
X67044Y-51075D01*
X66961Y-51075D01*
X66879Y-51090D01*
X66802Y-51122D01*
X66732Y-51167D01*
X66673Y-51226D01*
X66626Y-51295D01*
X66593Y-51371D01*
X66576Y-51453D01*
X66574Y-51536D01*
X66590Y-51618D01*
X66620Y-51696D01*
X66666Y-51766D01*
X66723Y-51825D01*
X66792Y-51873D01*
X66868Y-51906D01*
X66950Y-51924D01*
X67033Y-51926D01*
X67115Y-51911D01*
X67193Y-51881D01*
X67263Y-51836D01*
X67324Y-51779D01*
X67371Y-51711D01*
X67405Y-51634D01*
X67424Y-51553D01*
X67425Y-51458D01*
X67409Y-51376D01*
X67387Y-51324D01*
X67525Y-51187D01*
X67544Y-51165D01*
X67544Y-51164D01*
X67558Y-51139D01*
X67567Y-51111D01*
X67570Y-51082D01*
X67570Y-51080D01*
X67570Y-50342D01*
X67645Y-50266D01*
X67626Y-50295D01*
X67593Y-50371D01*
X67576Y-50453D01*
X67574Y-50536D01*
X67590Y-50618D01*
X67620Y-50696D01*
X67666Y-50766D01*
X67723Y-50825D01*
X67792Y-50873D01*
X67868Y-50906D01*
X67950Y-50924D01*
X68033Y-50926D01*
X68115Y-50911D01*
X68193Y-50881D01*
X68263Y-50836D01*
X68324Y-50779D01*
X68371Y-50711D01*
X68405Y-50634D01*
X68424Y-50553D01*
X68425Y-50458D01*
X68409Y-50376D01*
X68377Y-50299D01*
X68331Y-50230D01*
X68272Y-50171D01*
X68203Y-50124D01*
X68126Y-50092D01*
X68044Y-50075D01*
X67961Y-50075D01*
X67879Y-50090D01*
X67802Y-50122D01*
X67768Y-50143D01*
X67852Y-50060D01*
X69390Y-50060D01*
X69416Y-50098D01*
X69454Y-50138D01*
X69500Y-50170D01*
X69552Y-50192D01*
X69606Y-50204D01*
X69662Y-50206D01*
X69697Y-50199D01*
X69670Y-50227D01*
X69682Y-50239D01*
X69649Y-50258D01*
X69609Y-50331D01*
X69584Y-50410D01*
X69574Y-50493D01*
X69581Y-50576D01*
X69603Y-50656D01*
X69641Y-50731D01*
X69649Y-50742D01*
X69711Y-50775D01*
X69965Y-50521D01*
X69986Y-50500D01*
X70000Y-50486D01*
X70021Y-50465D01*
X70275Y-50211D01*
X70242Y-50149D01*
X70169Y-50109D01*
X70090Y-50084D01*
X70007Y-50074D01*
X69924Y-50081D01*
X69863Y-50097D01*
X69889Y-50061D01*
X69912Y-50010D01*
X69924Y-49956D01*
X69925Y-49892D01*
X69914Y-49837D01*
X69894Y-49790D01*
X70059Y-49790D01*
X70060Y-49790D01*
X70062Y-49789D01*
X70088Y-49788D01*
X70089Y-49787D01*
X70108Y-49781D01*
X70116Y-49779D01*
X70117Y-49779D01*
X70130Y-49772D01*
X70142Y-49766D01*
X70143Y-49765D01*
X70165Y-49747D01*
X70166Y-49746D01*
X70525Y-49387D01*
X70526Y-49386D01*
X70528Y-49383D01*
X70544Y-49365D01*
X70544Y-49364D01*
X70552Y-49350D01*
X70558Y-49339D01*
X70559Y-49338D01*
X70564Y-49319D01*
X70567Y-49311D01*
X70567Y-49310D01*
X70570Y-49282D01*
X70570Y-49280D01*
X70570Y-47342D01*
X70667Y-47245D01*
X70686Y-47223D01*
X70686Y-47222D01*
X70700Y-47197D01*
X70709Y-47169D01*
X70712Y-47140D01*
X70712Y-47138D01*
X70712Y-46400D01*
X70720Y-46392D01*
X70720Y-52720D01*
X70720Y-52720D01*
G37*
X70720Y-52720D02*
X70426Y-52720D01*
X70426Y-51507D01*
X70426Y-50507D01*
X70419Y-50424D01*
X70397Y-50344D01*
X70359Y-50269D01*
X70351Y-50258D01*
X70289Y-50225D01*
X70014Y-50500D01*
X70289Y-50775D01*
X70351Y-50742D01*
X70391Y-50669D01*
X70416Y-50590D01*
X70426Y-50507D01*
X70426Y-51507D01*
X70419Y-51424D01*
X70397Y-51344D01*
X70359Y-51269D01*
X70351Y-51258D01*
X70289Y-51225D01*
X70275Y-51239D01*
X70275Y-51211D01*
X70275Y-50789D01*
X70000Y-50514D01*
X69986Y-50528D01*
X69725Y-50789D01*
X69758Y-50851D01*
X69831Y-50891D01*
X69910Y-50916D01*
X69993Y-50926D01*
X70076Y-50919D01*
X70156Y-50897D01*
X70231Y-50859D01*
X70242Y-50851D01*
X70275Y-50789D01*
X70275Y-51211D01*
X70242Y-51149D01*
X70169Y-51109D01*
X70090Y-51084D01*
X70007Y-51074D01*
X69924Y-51081D01*
X69844Y-51103D01*
X69769Y-51141D01*
X69758Y-51149D01*
X69725Y-51211D01*
X70000Y-51486D01*
X70275Y-51211D01*
X70275Y-51239D01*
X70014Y-51500D01*
X70289Y-51775D01*
X70351Y-51742D01*
X70391Y-51669D01*
X70416Y-51590D01*
X70426Y-51507D01*
X70426Y-52720D01*
X70275Y-52720D01*
X70275Y-51789D01*
X70000Y-51514D01*
X69986Y-51528D01*
X69986Y-51500D01*
X69711Y-51225D01*
X69649Y-51258D01*
X69609Y-51331D01*
X69584Y-51410D01*
X69574Y-51493D01*
X69581Y-51576D01*
X69603Y-51656D01*
X69641Y-51731D01*
X69649Y-51742D01*
X69711Y-51775D01*
X69986Y-51500D01*
X69986Y-51528D01*
X69725Y-51789D01*
X69758Y-51851D01*
X69831Y-51891D01*
X69910Y-51916D01*
X69993Y-51926D01*
X70076Y-51919D01*
X70156Y-51897D01*
X70231Y-51859D01*
X70242Y-51851D01*
X70275Y-51789D01*
X70275Y-52720D01*
X69425Y-52720D01*
X69425Y-51458D01*
X69425Y-50458D01*
X69409Y-50376D01*
X69377Y-50299D01*
X69331Y-50230D01*
X69272Y-50171D01*
X69203Y-50124D01*
X69126Y-50092D01*
X69044Y-50075D01*
X68961Y-50075D01*
X68879Y-50090D01*
X68802Y-50122D01*
X68732Y-50167D01*
X68673Y-50226D01*
X68626Y-50295D01*
X68593Y-50371D01*
X68576Y-50453D01*
X68574Y-50536D01*
X68590Y-50618D01*
X68620Y-50696D01*
X68666Y-50766D01*
X68723Y-50825D01*
X68792Y-50873D01*
X68868Y-50906D01*
X68950Y-50924D01*
X69033Y-50926D01*
X69115Y-50911D01*
X69193Y-50881D01*
X69263Y-50836D01*
X69324Y-50779D01*
X69371Y-50711D01*
X69405Y-50634D01*
X69424Y-50553D01*
X69425Y-50458D01*
X69425Y-51458D01*
X69409Y-51376D01*
X69377Y-51299D01*
X69331Y-51230D01*
X69272Y-51171D01*
X69203Y-51124D01*
X69126Y-51092D01*
X69044Y-51075D01*
X68961Y-51075D01*
X68879Y-51090D01*
X68802Y-51122D01*
X68732Y-51167D01*
X68673Y-51226D01*
X68626Y-51295D01*
X68593Y-51371D01*
X68576Y-51453D01*
X68574Y-51536D01*
X68590Y-51618D01*
X68620Y-51696D01*
X68666Y-51766D01*
X68723Y-51825D01*
X68792Y-51873D01*
X68868Y-51906D01*
X68950Y-51924D01*
X69033Y-51926D01*
X69115Y-51911D01*
X69193Y-51881D01*
X69263Y-51836D01*
X69324Y-51779D01*
X69371Y-51711D01*
X69405Y-51634D01*
X69424Y-51553D01*
X69425Y-51458D01*
X69425Y-52720D01*
X68425Y-52720D01*
X68425Y-51458D01*
X68409Y-51376D01*
X68377Y-51299D01*
X68331Y-51230D01*
X68272Y-51171D01*
X68203Y-51124D01*
X68126Y-51092D01*
X68044Y-51075D01*
X67961Y-51075D01*
X67879Y-51090D01*
X67802Y-51122D01*
X67732Y-51167D01*
X67673Y-51226D01*
X67626Y-51295D01*
X67593Y-51371D01*
X67576Y-51453D01*
X67574Y-51536D01*
X67590Y-51618D01*
X67620Y-51696D01*
X67666Y-51766D01*
X67723Y-51825D01*
X67792Y-51873D01*
X67868Y-51906D01*
X67950Y-51924D01*
X68033Y-51926D01*
X68115Y-51911D01*
X68193Y-51881D01*
X68263Y-51836D01*
X68324Y-51779D01*
X68371Y-51711D01*
X68405Y-51634D01*
X68424Y-51553D01*
X68425Y-51458D01*
X68425Y-52720D01*
X62385Y-52720D01*
X62385Y-50472D01*
X62374Y-50417D01*
X62353Y-50366D01*
X62322Y-50319D01*
X62282Y-50279D01*
X62236Y-50248D01*
X62185Y-50226D01*
X62130Y-50215D01*
X62074Y-50215D01*
X62019Y-50225D01*
X61967Y-50246D01*
X61921Y-50277D01*
X61881Y-50316D01*
X61857Y-50350D01*
X61402Y-50350D01*
X61257Y-50205D01*
X61264Y-50176D01*
X61265Y-50112D01*
X61254Y-50057D01*
X61233Y-50006D01*
X61202Y-49959D01*
X61162Y-49919D01*
X61116Y-49888D01*
X61065Y-49866D01*
X61010Y-49855D01*
X60954Y-49855D01*
X60899Y-49865D01*
X60847Y-49886D01*
X60801Y-49917D01*
X60775Y-49942D01*
X60775Y-47789D01*
X60500Y-47514D01*
X60486Y-47528D01*
X60486Y-47500D01*
X60211Y-47225D01*
X60149Y-47258D01*
X60109Y-47331D01*
X60084Y-47410D01*
X60074Y-47493D01*
X60081Y-47576D01*
X60103Y-47656D01*
X60141Y-47731D01*
X60149Y-47742D01*
X60211Y-47775D01*
X60486Y-47500D01*
X60486Y-47528D01*
X60225Y-47789D01*
X60258Y-47851D01*
X60331Y-47891D01*
X60410Y-47916D01*
X60493Y-47926D01*
X60576Y-47919D01*
X60656Y-47897D01*
X60731Y-47859D01*
X60742Y-47851D01*
X60775Y-47789D01*
X60775Y-49942D01*
X60761Y-49956D01*
X60729Y-50002D01*
X60707Y-50053D01*
X60695Y-50108D01*
X60695Y-50164D01*
X60705Y-50219D01*
X60725Y-50271D01*
X60756Y-50318D01*
X60794Y-50358D01*
X60840Y-50390D01*
X60892Y-50412D01*
X60946Y-50424D01*
X61002Y-50426D01*
X61046Y-50418D01*
X61233Y-50605D01*
X61234Y-50606D01*
X61237Y-50608D01*
X61255Y-50624D01*
X61256Y-50624D01*
X61270Y-50632D01*
X61281Y-50638D01*
X61282Y-50639D01*
X61301Y-50644D01*
X61309Y-50647D01*
X61310Y-50647D01*
X61338Y-50650D01*
X61340Y-50650D01*
X61857Y-50650D01*
X61876Y-50678D01*
X61914Y-50718D01*
X61960Y-50750D01*
X62012Y-50772D01*
X62066Y-50784D01*
X62122Y-50786D01*
X62177Y-50776D01*
X62229Y-50756D01*
X62276Y-50726D01*
X62317Y-50687D01*
X62349Y-50641D01*
X62372Y-50590D01*
X62384Y-50536D01*
X62385Y-50472D01*
X62385Y-52720D01*
X58426Y-52720D01*
X58426Y-52007D01*
X58419Y-51924D01*
X58397Y-51844D01*
X58359Y-51769D01*
X58351Y-51758D01*
X58289Y-51725D01*
X58275Y-51739D01*
X58275Y-51711D01*
X58242Y-51649D01*
X58169Y-51609D01*
X58090Y-51584D01*
X58007Y-51574D01*
X57924Y-51581D01*
X57844Y-51603D01*
X57769Y-51641D01*
X57758Y-51649D01*
X57725Y-51711D01*
X58000Y-51986D01*
X58275Y-51711D01*
X58275Y-51739D01*
X58014Y-52000D01*
X58289Y-52275D01*
X58351Y-52242D01*
X58391Y-52169D01*
X58416Y-52090D01*
X58426Y-52007D01*
X58426Y-52720D01*
X58275Y-52720D01*
X58275Y-52289D01*
X58000Y-52014D01*
X57986Y-52028D01*
X57986Y-52000D01*
X57711Y-51725D01*
X57649Y-51758D01*
X57609Y-51831D01*
X57584Y-51910D01*
X57574Y-51993D01*
X57581Y-52076D01*
X57603Y-52156D01*
X57641Y-52231D01*
X57649Y-52242D01*
X57711Y-52275D01*
X57986Y-52000D01*
X57986Y-52028D01*
X57725Y-52289D01*
X57758Y-52351D01*
X57831Y-52391D01*
X57910Y-52416D01*
X57993Y-52426D01*
X58076Y-52419D01*
X58156Y-52397D01*
X58231Y-52359D01*
X58242Y-52351D01*
X58275Y-52289D01*
X58275Y-52720D01*
X56425Y-52720D01*
X56425Y-51458D01*
X56409Y-51376D01*
X56377Y-51299D01*
X56331Y-51230D01*
X56272Y-51171D01*
X56203Y-51124D01*
X56126Y-51092D01*
X56044Y-51075D01*
X55961Y-51075D01*
X55879Y-51090D01*
X55802Y-51122D01*
X55732Y-51167D01*
X55673Y-51226D01*
X55626Y-51295D01*
X55593Y-51371D01*
X55576Y-51453D01*
X55574Y-51536D01*
X55590Y-51618D01*
X55620Y-51696D01*
X55666Y-51766D01*
X55723Y-51825D01*
X55792Y-51873D01*
X55868Y-51906D01*
X55950Y-51924D01*
X56033Y-51926D01*
X56115Y-51911D01*
X56193Y-51881D01*
X56263Y-51836D01*
X56324Y-51779D01*
X56371Y-51711D01*
X56405Y-51634D01*
X56424Y-51553D01*
X56425Y-51458D01*
X56425Y-52720D01*
X55426Y-52720D01*
X55426Y-51507D01*
X55426Y-50507D01*
X55419Y-50424D01*
X55397Y-50344D01*
X55359Y-50269D01*
X55351Y-50258D01*
X55289Y-50225D01*
X55275Y-50239D01*
X55014Y-50500D01*
X55289Y-50775D01*
X55351Y-50742D01*
X55391Y-50669D01*
X55416Y-50590D01*
X55426Y-50507D01*
X55426Y-51507D01*
X55419Y-51424D01*
X55397Y-51344D01*
X55359Y-51269D01*
X55351Y-51258D01*
X55289Y-51225D01*
X55275Y-51239D01*
X55275Y-51211D01*
X55275Y-50789D01*
X55000Y-50514D01*
X54725Y-50789D01*
X54758Y-50851D01*
X54831Y-50891D01*
X54910Y-50916D01*
X54993Y-50926D01*
X55076Y-50919D01*
X55156Y-50897D01*
X55231Y-50859D01*
X55242Y-50851D01*
X55275Y-50789D01*
X55275Y-51211D01*
X55242Y-51149D01*
X55169Y-51109D01*
X55090Y-51084D01*
X55007Y-51074D01*
X54924Y-51081D01*
X54844Y-51103D01*
X54769Y-51141D01*
X54758Y-51149D01*
X54725Y-51211D01*
X55000Y-51486D01*
X55275Y-51211D01*
X55275Y-51239D01*
X55014Y-51500D01*
X55289Y-51775D01*
X55351Y-51742D01*
X55391Y-51669D01*
X55416Y-51590D01*
X55426Y-51507D01*
X55426Y-52720D01*
X53425Y-52720D01*
X53425Y-51458D01*
X53409Y-51376D01*
X53377Y-51299D01*
X53331Y-51230D01*
X53272Y-51171D01*
X53203Y-51124D01*
X53126Y-51092D01*
X53044Y-51075D01*
X52961Y-51075D01*
X52879Y-51090D01*
X52802Y-51122D01*
X52732Y-51167D01*
X52673Y-51226D01*
X52626Y-51295D01*
X52593Y-51371D01*
X52576Y-51453D01*
X52574Y-51536D01*
X52590Y-51618D01*
X52620Y-51696D01*
X52666Y-51766D01*
X52723Y-51825D01*
X52792Y-51873D01*
X52868Y-51906D01*
X52950Y-51924D01*
X53033Y-51926D01*
X53115Y-51911D01*
X53193Y-51881D01*
X53263Y-51836D01*
X53324Y-51779D01*
X53371Y-51711D01*
X53405Y-51634D01*
X53424Y-51553D01*
X53425Y-51458D01*
X53425Y-52720D01*
X52425Y-52720D01*
X52425Y-50458D01*
X52425Y-48458D01*
X52409Y-48376D01*
X52377Y-48299D01*
X52331Y-48230D01*
X52272Y-48171D01*
X52203Y-48124D01*
X52126Y-48092D01*
X52044Y-48075D01*
X51961Y-48075D01*
X51879Y-48090D01*
X51802Y-48122D01*
X51732Y-48167D01*
X51673Y-48226D01*
X51626Y-48295D01*
X51593Y-48371D01*
X51576Y-48453D01*
X51574Y-48536D01*
X51590Y-48618D01*
X51620Y-48696D01*
X51666Y-48766D01*
X51723Y-48825D01*
X51792Y-48873D01*
X51868Y-48906D01*
X51950Y-48924D01*
X52033Y-48926D01*
X52115Y-48911D01*
X52193Y-48881D01*
X52263Y-48836D01*
X52324Y-48779D01*
X52371Y-48711D01*
X52405Y-48634D01*
X52424Y-48553D01*
X52425Y-48458D01*
X52425Y-50458D01*
X52409Y-50376D01*
X52377Y-50299D01*
X52331Y-50230D01*
X52272Y-50171D01*
X52203Y-50124D01*
X52126Y-50092D01*
X52044Y-50075D01*
X51961Y-50075D01*
X51879Y-50090D01*
X51802Y-50122D01*
X51732Y-50167D01*
X51673Y-50226D01*
X51626Y-50295D01*
X51593Y-50371D01*
X51576Y-50453D01*
X51574Y-50536D01*
X51590Y-50618D01*
X51620Y-50696D01*
X51666Y-50766D01*
X51723Y-50825D01*
X51792Y-50873D01*
X51868Y-50906D01*
X51950Y-50924D01*
X52033Y-50926D01*
X52115Y-50911D01*
X52193Y-50881D01*
X52263Y-50836D01*
X52324Y-50779D01*
X52371Y-50711D01*
X52405Y-50634D01*
X52424Y-50553D01*
X52425Y-50458D01*
X52425Y-52720D01*
X52424Y-52720D01*
X52424Y-51826D01*
X52424Y-51805D01*
X52424Y-51174D01*
X52420Y-51153D01*
X52412Y-51133D01*
X52400Y-51116D01*
X52385Y-51100D01*
X52367Y-51088D01*
X52347Y-51080D01*
X52326Y-51076D01*
X52305Y-51076D01*
X51674Y-51076D01*
X51653Y-51080D01*
X51633Y-51088D01*
X51616Y-51100D01*
X51600Y-51115D01*
X51588Y-51133D01*
X51580Y-51153D01*
X51576Y-51174D01*
X51576Y-51195D01*
X51576Y-51826D01*
X51580Y-51847D01*
X51588Y-51867D01*
X51600Y-51884D01*
X51615Y-51900D01*
X51633Y-51912D01*
X51653Y-51920D01*
X51674Y-51924D01*
X51695Y-51924D01*
X52326Y-51924D01*
X52347Y-51920D01*
X52367Y-51912D01*
X52384Y-51900D01*
X52400Y-51885D01*
X52412Y-51867D01*
X52420Y-51847D01*
X52424Y-51826D01*
X52424Y-52720D01*
X51280Y-52720D01*
X51280Y-46052D01*
X51430Y-46202D01*
X51430Y-47079D01*
X51430Y-47080D01*
X51430Y-47082D01*
X51432Y-47108D01*
X51438Y-47128D01*
X51441Y-47137D01*
X51448Y-47150D01*
X51454Y-47162D01*
X51455Y-47163D01*
X51473Y-47185D01*
X51474Y-47186D01*
X51612Y-47324D01*
X51593Y-47371D01*
X51576Y-47453D01*
X51574Y-47536D01*
X51590Y-47618D01*
X51620Y-47696D01*
X51666Y-47766D01*
X51723Y-47825D01*
X51792Y-47873D01*
X51868Y-47906D01*
X51950Y-47924D01*
X52033Y-47926D01*
X52115Y-47911D01*
X52193Y-47881D01*
X52263Y-47836D01*
X52281Y-47818D01*
X52282Y-47818D01*
X52288Y-47830D01*
X52294Y-47842D01*
X52295Y-47843D01*
X52313Y-47865D01*
X52314Y-47866D01*
X52615Y-48167D01*
X52616Y-48168D01*
X52619Y-48170D01*
X52637Y-48186D01*
X52638Y-48186D01*
X52652Y-48194D01*
X52663Y-48200D01*
X52664Y-48201D01*
X52683Y-48206D01*
X52690Y-48208D01*
X52673Y-48226D01*
X52626Y-48295D01*
X52593Y-48371D01*
X52576Y-48453D01*
X52574Y-48536D01*
X52590Y-48618D01*
X52620Y-48696D01*
X52666Y-48766D01*
X52723Y-48825D01*
X52792Y-48873D01*
X52868Y-48906D01*
X52950Y-48924D01*
X53033Y-48926D01*
X53115Y-48911D01*
X53193Y-48881D01*
X53263Y-48836D01*
X53324Y-48779D01*
X53371Y-48711D01*
X53405Y-48634D01*
X53424Y-48553D01*
X53425Y-48458D01*
X53409Y-48376D01*
X53377Y-48299D01*
X53331Y-48230D01*
X53313Y-48212D01*
X57413Y-48212D01*
X57418Y-48228D01*
X57421Y-48237D01*
X57428Y-48250D01*
X57434Y-48262D01*
X57435Y-48263D01*
X57453Y-48285D01*
X57454Y-48286D01*
X57794Y-48626D01*
X57732Y-48667D01*
X57673Y-48726D01*
X57626Y-48795D01*
X57602Y-48850D01*
X55690Y-48850D01*
X55661Y-48853D01*
X55633Y-48861D01*
X55607Y-48875D01*
X55585Y-48893D01*
X55583Y-48894D01*
X54932Y-49545D01*
X54932Y-48842D01*
X54980Y-48793D01*
X55026Y-48804D01*
X55082Y-48806D01*
X55137Y-48796D01*
X55189Y-48776D01*
X55236Y-48746D01*
X55277Y-48707D01*
X55309Y-48661D01*
X55332Y-48610D01*
X55344Y-48556D01*
X55345Y-48492D01*
X55334Y-48437D01*
X55313Y-48386D01*
X55282Y-48339D01*
X55242Y-48299D01*
X55196Y-48268D01*
X55145Y-48246D01*
X55090Y-48235D01*
X55034Y-48235D01*
X54979Y-48245D01*
X54927Y-48266D01*
X54881Y-48297D01*
X54850Y-48327D01*
X54822Y-48299D01*
X54776Y-48268D01*
X54725Y-48246D01*
X54670Y-48235D01*
X54614Y-48235D01*
X54559Y-48245D01*
X54507Y-48266D01*
X54461Y-48297D01*
X54421Y-48336D01*
X54389Y-48382D01*
X54367Y-48433D01*
X54355Y-48488D01*
X54355Y-48544D01*
X54365Y-48599D01*
X54385Y-48651D01*
X54416Y-48698D01*
X54454Y-48738D01*
X54490Y-48763D01*
X54490Y-49588D01*
X54168Y-49910D01*
X53801Y-49910D01*
X53800Y-49910D01*
X53798Y-49910D01*
X53772Y-49912D01*
X53752Y-49918D01*
X53743Y-49921D01*
X53730Y-49928D01*
X53718Y-49934D01*
X53695Y-49953D01*
X53694Y-49954D01*
X53395Y-50253D01*
X53394Y-50254D01*
X53392Y-50255D01*
X53376Y-50275D01*
X53369Y-50287D01*
X53331Y-50230D01*
X53272Y-50171D01*
X53203Y-50124D01*
X53126Y-50092D01*
X53044Y-50075D01*
X52961Y-50075D01*
X52879Y-50090D01*
X52802Y-50122D01*
X52732Y-50167D01*
X52673Y-50226D01*
X52626Y-50295D01*
X52593Y-50371D01*
X52576Y-50453D01*
X52574Y-50536D01*
X52590Y-50618D01*
X52620Y-50696D01*
X52666Y-50766D01*
X52723Y-50825D01*
X52792Y-50873D01*
X52868Y-50906D01*
X52950Y-50924D01*
X53033Y-50926D01*
X53115Y-50911D01*
X53193Y-50881D01*
X53263Y-50836D01*
X53324Y-50779D01*
X53351Y-50739D01*
X53352Y-50748D01*
X53358Y-50768D01*
X53361Y-50777D01*
X53368Y-50790D01*
X53374Y-50802D01*
X53375Y-50803D01*
X53393Y-50825D01*
X53394Y-50826D01*
X53733Y-51165D01*
X53732Y-51167D01*
X53673Y-51226D01*
X53626Y-51295D01*
X53593Y-51371D01*
X53576Y-51453D01*
X53574Y-51536D01*
X53590Y-51618D01*
X53620Y-51696D01*
X53666Y-51766D01*
X53723Y-51825D01*
X53792Y-51873D01*
X53868Y-51906D01*
X53950Y-51924D01*
X54033Y-51926D01*
X54115Y-51911D01*
X54193Y-51881D01*
X54263Y-51836D01*
X54324Y-51779D01*
X54361Y-51725D01*
X54362Y-51738D01*
X54368Y-51758D01*
X54371Y-51767D01*
X54378Y-51780D01*
X54384Y-51792D01*
X54385Y-51793D01*
X54403Y-51815D01*
X54404Y-51816D01*
X54793Y-52205D01*
X54794Y-52206D01*
X54797Y-52208D01*
X54815Y-52224D01*
X54816Y-52224D01*
X54841Y-52238D01*
X54842Y-52238D01*
X54851Y-52241D01*
X54876Y-52278D01*
X54914Y-52318D01*
X54960Y-52350D01*
X55012Y-52372D01*
X55066Y-52384D01*
X55122Y-52386D01*
X55177Y-52376D01*
X55229Y-52356D01*
X55276Y-52326D01*
X55317Y-52287D01*
X55349Y-52241D01*
X55372Y-52190D01*
X55384Y-52136D01*
X55385Y-52072D01*
X55374Y-52017D01*
X55353Y-51966D01*
X55322Y-51919D01*
X55282Y-51879D01*
X55242Y-51851D01*
X55275Y-51789D01*
X55021Y-51535D01*
X55000Y-51514D01*
X54986Y-51500D01*
X54965Y-51479D01*
X54711Y-51225D01*
X54660Y-51252D01*
X54660Y-50747D01*
X54711Y-50775D01*
X54965Y-50521D01*
X54986Y-50500D01*
X55000Y-50486D01*
X55021Y-50465D01*
X55275Y-50211D01*
X55242Y-50149D01*
X55169Y-50109D01*
X55090Y-50084D01*
X55007Y-50074D01*
X54924Y-50081D01*
X54844Y-50103D01*
X54769Y-50141D01*
X54758Y-50149D01*
X54739Y-50182D01*
X54729Y-50172D01*
X55752Y-49150D01*
X57602Y-49150D01*
X57620Y-49196D01*
X57666Y-49266D01*
X57723Y-49325D01*
X57758Y-49350D01*
X56980Y-49350D01*
X56951Y-49353D01*
X56923Y-49361D01*
X56897Y-49375D01*
X56875Y-49393D01*
X56874Y-49394D01*
X56873Y-49395D01*
X56161Y-50106D01*
X56126Y-50092D01*
X56044Y-50075D01*
X55961Y-50075D01*
X55879Y-50090D01*
X55802Y-50122D01*
X55732Y-50167D01*
X55673Y-50226D01*
X55626Y-50295D01*
X55593Y-50371D01*
X55576Y-50453D01*
X55574Y-50536D01*
X55590Y-50618D01*
X55620Y-50696D01*
X55666Y-50766D01*
X55723Y-50825D01*
X55792Y-50873D01*
X55868Y-50906D01*
X55950Y-50924D01*
X56033Y-50926D01*
X56115Y-50911D01*
X56193Y-50881D01*
X56263Y-50836D01*
X56324Y-50779D01*
X56371Y-50711D01*
X56405Y-50634D01*
X56424Y-50553D01*
X56425Y-50458D01*
X56409Y-50376D01*
X56381Y-50310D01*
X57042Y-49650D01*
X57758Y-49650D01*
X57732Y-49667D01*
X57673Y-49726D01*
X57626Y-49795D01*
X57593Y-49871D01*
X57576Y-49953D01*
X57574Y-50036D01*
X57590Y-50118D01*
X57620Y-50196D01*
X57666Y-50266D01*
X57723Y-50325D01*
X57792Y-50373D01*
X57868Y-50406D01*
X57950Y-50424D01*
X58033Y-50426D01*
X58115Y-50411D01*
X58193Y-50381D01*
X58263Y-50336D01*
X58324Y-50279D01*
X58371Y-50211D01*
X58405Y-50134D01*
X58424Y-50053D01*
X58425Y-49958D01*
X58409Y-49876D01*
X58387Y-49824D01*
X58727Y-49485D01*
X58728Y-49485D01*
X58737Y-49472D01*
X58746Y-49463D01*
X58746Y-49462D01*
X58760Y-49437D01*
X58760Y-49436D01*
X58769Y-49409D01*
X58769Y-49408D01*
X58772Y-49380D01*
X58772Y-49378D01*
X58772Y-48040D01*
X59118Y-47693D01*
X59120Y-47696D01*
X59166Y-47766D01*
X59223Y-47825D01*
X59292Y-47873D01*
X59368Y-47906D01*
X59450Y-47924D01*
X59533Y-47926D01*
X59615Y-47911D01*
X59693Y-47881D01*
X59763Y-47836D01*
X59770Y-47829D01*
X59770Y-49238D01*
X58304Y-50703D01*
X58272Y-50671D01*
X58203Y-50624D01*
X58126Y-50592D01*
X58044Y-50575D01*
X57961Y-50575D01*
X57879Y-50590D01*
X57802Y-50622D01*
X57732Y-50667D01*
X57673Y-50726D01*
X57626Y-50795D01*
X57593Y-50871D01*
X57576Y-50953D01*
X57574Y-51036D01*
X57590Y-51118D01*
X57620Y-51196D01*
X57666Y-51266D01*
X57723Y-51325D01*
X57792Y-51373D01*
X57868Y-51406D01*
X57950Y-51424D01*
X58033Y-51426D01*
X58115Y-51411D01*
X58193Y-51381D01*
X58263Y-51336D01*
X58324Y-51279D01*
X58371Y-51211D01*
X58405Y-51134D01*
X58424Y-51053D01*
X58424Y-51007D01*
X60025Y-49407D01*
X60026Y-49406D01*
X60028Y-49403D01*
X60044Y-49385D01*
X60044Y-49384D01*
X60058Y-49359D01*
X60058Y-49358D01*
X60067Y-49331D01*
X60067Y-49330D01*
X60070Y-49302D01*
X60070Y-49300D01*
X60070Y-46920D01*
X60067Y-46892D01*
X60067Y-46891D01*
X60059Y-46863D01*
X60045Y-46837D01*
X60027Y-46815D01*
X60026Y-46814D01*
X60025Y-46813D01*
X59886Y-46674D01*
X59905Y-46634D01*
X59924Y-46553D01*
X59925Y-46458D01*
X59909Y-46376D01*
X59877Y-46299D01*
X59831Y-46230D01*
X59772Y-46171D01*
X59742Y-46149D01*
X59768Y-46148D01*
X59769Y-46147D01*
X59788Y-46141D01*
X59796Y-46139D01*
X59797Y-46139D01*
X59810Y-46132D01*
X59822Y-46126D01*
X59823Y-46125D01*
X59845Y-46107D01*
X59846Y-46106D01*
X60205Y-45747D01*
X60206Y-45746D01*
X60208Y-45743D01*
X60224Y-45725D01*
X60224Y-45724D01*
X60232Y-45710D01*
X60238Y-45699D01*
X60239Y-45698D01*
X60244Y-45679D01*
X60247Y-45671D01*
X60247Y-45670D01*
X60250Y-45642D01*
X60250Y-45640D01*
X60250Y-45502D01*
X60614Y-45137D01*
X60646Y-45144D01*
X60702Y-45146D01*
X60757Y-45136D01*
X60809Y-45116D01*
X60856Y-45086D01*
X60897Y-45047D01*
X60929Y-45001D01*
X60952Y-44950D01*
X60964Y-44896D01*
X60965Y-44832D01*
X60954Y-44777D01*
X60933Y-44726D01*
X60902Y-44679D01*
X60862Y-44639D01*
X60816Y-44608D01*
X60765Y-44586D01*
X60710Y-44575D01*
X60654Y-44575D01*
X60599Y-44585D01*
X60547Y-44606D01*
X60501Y-44637D01*
X60461Y-44676D01*
X60429Y-44722D01*
X60407Y-44773D01*
X60395Y-44828D01*
X60395Y-44884D01*
X60402Y-44925D01*
X59995Y-45333D01*
X59994Y-45334D01*
X59992Y-45335D01*
X59976Y-45355D01*
X59965Y-45374D01*
X59961Y-45382D01*
X59955Y-45401D01*
X59953Y-45409D01*
X59950Y-45438D01*
X59950Y-45440D01*
X59950Y-45578D01*
X59908Y-45619D01*
X59924Y-45553D01*
X59925Y-45458D01*
X59909Y-45376D01*
X59877Y-45299D01*
X59831Y-45230D01*
X59772Y-45171D01*
X59703Y-45124D01*
X59626Y-45092D01*
X59544Y-45075D01*
X59461Y-45075D01*
X59379Y-45090D01*
X59302Y-45122D01*
X59232Y-45167D01*
X59173Y-45226D01*
X59150Y-45259D01*
X59150Y-45062D01*
X59324Y-44887D01*
X59368Y-44906D01*
X59450Y-44924D01*
X59533Y-44926D01*
X59615Y-44911D01*
X59693Y-44881D01*
X59763Y-44836D01*
X59824Y-44779D01*
X59871Y-44711D01*
X59905Y-44634D01*
X59924Y-44553D01*
X59925Y-44458D01*
X59909Y-44376D01*
X59877Y-44299D01*
X59831Y-44230D01*
X59772Y-44171D01*
X59703Y-44124D01*
X59626Y-44092D01*
X59544Y-44075D01*
X59461Y-44075D01*
X59379Y-44090D01*
X59302Y-44122D01*
X59232Y-44167D01*
X59173Y-44226D01*
X59126Y-44295D01*
X59093Y-44371D01*
X59076Y-44453D01*
X59074Y-44536D01*
X59090Y-44618D01*
X59112Y-44675D01*
X58895Y-44893D01*
X58894Y-44894D01*
X58892Y-44895D01*
X58876Y-44915D01*
X58865Y-44934D01*
X58861Y-44942D01*
X58855Y-44961D01*
X58853Y-44969D01*
X58850Y-44998D01*
X58850Y-45000D01*
X58850Y-45258D01*
X58831Y-45230D01*
X58772Y-45171D01*
X58703Y-45124D01*
X58626Y-45092D01*
X58544Y-45075D01*
X58461Y-45075D01*
X58416Y-45083D01*
X58424Y-45053D01*
X58425Y-44958D01*
X58416Y-44916D01*
X58450Y-44924D01*
X58533Y-44926D01*
X58615Y-44911D01*
X58693Y-44881D01*
X58763Y-44836D01*
X58824Y-44779D01*
X58871Y-44711D01*
X58905Y-44634D01*
X58924Y-44553D01*
X58925Y-44458D01*
X58909Y-44376D01*
X58877Y-44299D01*
X58831Y-44230D01*
X58772Y-44171D01*
X58741Y-44150D01*
X59000Y-44150D01*
X59001Y-44150D01*
X59003Y-44149D01*
X59029Y-44148D01*
X59030Y-44147D01*
X59049Y-44141D01*
X59057Y-44139D01*
X59058Y-44139D01*
X59071Y-44132D01*
X59083Y-44126D01*
X59084Y-44125D01*
X59106Y-44107D01*
X59107Y-44106D01*
X59325Y-43888D01*
X59368Y-43907D01*
X59450Y-43925D01*
X59533Y-43927D01*
X59615Y-43912D01*
X59693Y-43882D01*
X59763Y-43837D01*
X59824Y-43780D01*
X59871Y-43712D01*
X59905Y-43635D01*
X59924Y-43554D01*
X59925Y-43459D01*
X59909Y-43377D01*
X59877Y-43300D01*
X59857Y-43270D01*
X61500Y-44913D01*
X61500Y-45849D01*
X61500Y-45850D01*
X61500Y-45852D01*
X61502Y-45878D01*
X61508Y-45898D01*
X61511Y-45907D01*
X61518Y-45920D01*
X61524Y-45932D01*
X61525Y-45933D01*
X61543Y-45955D01*
X61544Y-45956D01*
X61733Y-46145D01*
X61702Y-46124D01*
X61625Y-46092D01*
X61543Y-46075D01*
X61460Y-46075D01*
X61378Y-46090D01*
X61301Y-46122D01*
X61231Y-46167D01*
X61172Y-46226D01*
X61125Y-46295D01*
X61092Y-46371D01*
X61075Y-46453D01*
X61073Y-46536D01*
X61089Y-46618D01*
X61119Y-46696D01*
X61165Y-46766D01*
X61222Y-46825D01*
X61291Y-46873D01*
X61367Y-46906D01*
X61449Y-46924D01*
X61532Y-46926D01*
X61614Y-46911D01*
X61674Y-46887D01*
X61830Y-47043D01*
X61830Y-47230D01*
X61771Y-47171D01*
X61702Y-47124D01*
X61625Y-47092D01*
X61543Y-47075D01*
X61460Y-47075D01*
X61378Y-47090D01*
X61301Y-47122D01*
X61231Y-47167D01*
X61172Y-47226D01*
X61150Y-47258D01*
X61150Y-46840D01*
X61147Y-46812D01*
X61147Y-46811D01*
X61139Y-46784D01*
X61139Y-46783D01*
X61125Y-46757D01*
X61107Y-46735D01*
X61106Y-46734D01*
X61105Y-46733D01*
X60924Y-46552D01*
X60925Y-46458D01*
X60909Y-46376D01*
X60877Y-46299D01*
X60831Y-46230D01*
X60772Y-46171D01*
X60703Y-46124D01*
X60626Y-46092D01*
X60544Y-46075D01*
X60461Y-46075D01*
X60379Y-46090D01*
X60302Y-46122D01*
X60232Y-46167D01*
X60173Y-46226D01*
X60126Y-46295D01*
X60093Y-46371D01*
X60076Y-46453D01*
X60074Y-46536D01*
X60090Y-46618D01*
X60120Y-46696D01*
X60166Y-46766D01*
X60223Y-46825D01*
X60292Y-46873D01*
X60368Y-46906D01*
X60450Y-46924D01*
X60533Y-46926D01*
X60615Y-46911D01*
X60693Y-46881D01*
X60763Y-46836D01*
X60773Y-46825D01*
X60850Y-46902D01*
X60850Y-47257D01*
X60789Y-47225D01*
X60775Y-47239D01*
X60775Y-47211D01*
X60742Y-47149D01*
X60669Y-47109D01*
X60590Y-47084D01*
X60507Y-47074D01*
X60424Y-47081D01*
X60344Y-47103D01*
X60269Y-47141D01*
X60258Y-47149D01*
X60225Y-47211D01*
X60500Y-47486D01*
X60775Y-47211D01*
X60775Y-47239D01*
X60514Y-47500D01*
X60789Y-47775D01*
X60851Y-47742D01*
X60858Y-47728D01*
X60861Y-47737D01*
X60868Y-47750D01*
X60874Y-47762D01*
X60875Y-47763D01*
X60893Y-47785D01*
X60894Y-47786D01*
X61213Y-48105D01*
X61214Y-48106D01*
X61217Y-48108D01*
X61235Y-48124D01*
X61236Y-48124D01*
X61261Y-48138D01*
X61262Y-48138D01*
X61289Y-48147D01*
X61290Y-48147D01*
X61318Y-48150D01*
X61320Y-48150D01*
X61498Y-48150D01*
X63268Y-49920D01*
X63268Y-50617D01*
X63268Y-50618D01*
X63268Y-50620D01*
X63270Y-50646D01*
X63276Y-50666D01*
X63279Y-50675D01*
X63286Y-50688D01*
X63292Y-50700D01*
X63293Y-50701D01*
X63311Y-50723D01*
X63312Y-50724D01*
X63410Y-50822D01*
X63410Y-51559D01*
X63410Y-51560D01*
X63410Y-51562D01*
X63412Y-51588D01*
X63418Y-51608D01*
X63421Y-51617D01*
X63428Y-51630D01*
X63434Y-51642D01*
X63435Y-51643D01*
X63453Y-51665D01*
X63454Y-51666D01*
X63612Y-51824D01*
X63593Y-51871D01*
X63576Y-51953D01*
X63574Y-52036D01*
X63590Y-52118D01*
X63620Y-52196D01*
X63666Y-52266D01*
X63723Y-52325D01*
X63792Y-52373D01*
X63868Y-52406D01*
X63950Y-52424D01*
X64033Y-52426D01*
X64115Y-52411D01*
X64193Y-52381D01*
X64263Y-52336D01*
X64324Y-52279D01*
X64371Y-52211D01*
X64405Y-52134D01*
X64424Y-52053D01*
X64425Y-51958D01*
X64409Y-51876D01*
X64387Y-51824D01*
X65082Y-51130D01*
X65590Y-51130D01*
X65588Y-51133D01*
X65580Y-51153D01*
X65576Y-51174D01*
X65576Y-51195D01*
X65576Y-51826D01*
X65580Y-51847D01*
X65588Y-51867D01*
X65600Y-51884D01*
X65615Y-51900D01*
X65633Y-51912D01*
X65653Y-51920D01*
X65674Y-51924D01*
X65695Y-51924D01*
X66326Y-51924D01*
X66347Y-51920D01*
X66367Y-51912D01*
X66384Y-51900D01*
X66400Y-51885D01*
X66412Y-51867D01*
X66420Y-51847D01*
X66424Y-51826D01*
X66424Y-51805D01*
X66424Y-51174D01*
X66420Y-51153D01*
X66412Y-51133D01*
X66409Y-51130D01*
X66519Y-51130D01*
X66520Y-51130D01*
X66522Y-51129D01*
X66548Y-51128D01*
X66549Y-51127D01*
X66568Y-51121D01*
X66576Y-51119D01*
X66577Y-51119D01*
X66590Y-51112D01*
X66602Y-51106D01*
X66603Y-51105D01*
X66625Y-51087D01*
X66626Y-51086D01*
X66824Y-50887D01*
X66868Y-50906D01*
X66950Y-50924D01*
X67033Y-50926D01*
X67115Y-50911D01*
X67193Y-50881D01*
X67263Y-50836D01*
X67270Y-50829D01*
X67270Y-51018D01*
X67175Y-51112D01*
X67126Y-51092D01*
X67044Y-51075D01*
X66961Y-51075D01*
X66879Y-51090D01*
X66802Y-51122D01*
X66732Y-51167D01*
X66673Y-51226D01*
X66626Y-51295D01*
X66593Y-51371D01*
X66576Y-51453D01*
X66574Y-51536D01*
X66590Y-51618D01*
X66620Y-51696D01*
X66666Y-51766D01*
X66723Y-51825D01*
X66792Y-51873D01*
X66868Y-51906D01*
X66950Y-51924D01*
X67033Y-51926D01*
X67115Y-51911D01*
X67193Y-51881D01*
X67263Y-51836D01*
X67324Y-51779D01*
X67371Y-51711D01*
X67405Y-51634D01*
X67424Y-51553D01*
X67425Y-51458D01*
X67409Y-51376D01*
X67387Y-51324D01*
X67525Y-51187D01*
X67544Y-51165D01*
X67544Y-51164D01*
X67558Y-51139D01*
X67567Y-51111D01*
X67570Y-51082D01*
X67570Y-51080D01*
X67570Y-50342D01*
X67645Y-50266D01*
X67626Y-50295D01*
X67593Y-50371D01*
X67576Y-50453D01*
X67574Y-50536D01*
X67590Y-50618D01*
X67620Y-50696D01*
X67666Y-50766D01*
X67723Y-50825D01*
X67792Y-50873D01*
X67868Y-50906D01*
X67950Y-50924D01*
X68033Y-50926D01*
X68115Y-50911D01*
X68193Y-50881D01*
X68263Y-50836D01*
X68324Y-50779D01*
X68371Y-50711D01*
X68405Y-50634D01*
X68424Y-50553D01*
X68425Y-50458D01*
X68409Y-50376D01*
X68377Y-50299D01*
X68331Y-50230D01*
X68272Y-50171D01*
X68203Y-50124D01*
X68126Y-50092D01*
X68044Y-50075D01*
X67961Y-50075D01*
X67879Y-50090D01*
X67802Y-50122D01*
X67768Y-50143D01*
X67852Y-50060D01*
X69390Y-50060D01*
X69416Y-50098D01*
X69454Y-50138D01*
X69500Y-50170D01*
X69552Y-50192D01*
X69606Y-50204D01*
X69662Y-50206D01*
X69697Y-50199D01*
X69670Y-50227D01*
X69682Y-50239D01*
X69649Y-50258D01*
X69609Y-50331D01*
X69584Y-50410D01*
X69574Y-50493D01*
X69581Y-50576D01*
X69603Y-50656D01*
X69641Y-50731D01*
X69649Y-50742D01*
X69711Y-50775D01*
X69965Y-50521D01*
X69986Y-50500D01*
X70000Y-50486D01*
X70021Y-50465D01*
X70275Y-50211D01*
X70242Y-50149D01*
X70169Y-50109D01*
X70090Y-50084D01*
X70007Y-50074D01*
X69924Y-50081D01*
X69863Y-50097D01*
X69889Y-50061D01*
X69912Y-50010D01*
X69924Y-49956D01*
X69925Y-49892D01*
X69914Y-49837D01*
X69894Y-49790D01*
X70059Y-49790D01*
X70060Y-49790D01*
X70062Y-49789D01*
X70088Y-49788D01*
X70089Y-49787D01*
X70108Y-49781D01*
X70116Y-49779D01*
X70117Y-49779D01*
X70130Y-49772D01*
X70142Y-49766D01*
X70143Y-49765D01*
X70165Y-49747D01*
X70166Y-49746D01*
X70525Y-49387D01*
X70526Y-49386D01*
X70528Y-49383D01*
X70544Y-49365D01*
X70544Y-49364D01*
X70552Y-49350D01*
X70558Y-49339D01*
X70559Y-49338D01*
X70564Y-49319D01*
X70567Y-49311D01*
X70567Y-49310D01*
X70570Y-49282D01*
X70570Y-49280D01*
X70570Y-47342D01*
X70667Y-47245D01*
X70686Y-47223D01*
X70686Y-47222D01*
X70700Y-47197D01*
X70709Y-47169D01*
X70712Y-47140D01*
X70712Y-47138D01*
X70712Y-46400D01*
X70720Y-46392D01*
X70720Y-52720D01*
M02*
