G04 (created by PCBNEW-RS274X (2012-01-19 BZR 3256)-stable) date Tue 02 Jul 2013 11:49:59 AM CDT*
G01*
G70*
G90*
%MOIN*%
G04 Gerber Fmt 3.4, Leading zero omitted, Abs format*
%FSLAX34Y34*%
G04 APERTURE LIST*
%ADD10C,0.006000*%
%ADD11C,0.008000*%
%ADD12C,0.012000*%
%ADD13C,0.015000*%
%ADD14C,0.007500*%
%ADD15C,0.000100*%
%ADD16C,0.020000*%
%ADD17R,0.094700X0.106500*%
%ADD18R,0.071000X0.071000*%
%ADD19C,0.071000*%
%ADD20R,0.058000X0.052900*%
G04 APERTURE END LIST*
G54D10*
G54D11*
X63250Y-51500D02*
X63000Y-51500D01*
X63250Y-51750D02*
X63250Y-51500D01*
X62750Y-52000D02*
X63250Y-51500D01*
X58750Y-51500D02*
X59000Y-51500D01*
X58750Y-51500D02*
X58750Y-51750D01*
X59250Y-52000D02*
X58750Y-51500D01*
X62500Y-50250D02*
X62500Y-49000D01*
X62250Y-49250D02*
X62500Y-49000D01*
X62500Y-49000D02*
X62750Y-49250D01*
X60250Y-49743D02*
X60250Y-49143D01*
X60422Y-49143D01*
X60464Y-49171D01*
X60486Y-49200D01*
X60507Y-49257D01*
X60507Y-49343D01*
X60486Y-49400D01*
X60464Y-49429D01*
X60422Y-49457D01*
X60250Y-49457D01*
X60914Y-49743D02*
X60700Y-49743D01*
X60700Y-49143D01*
X61321Y-49686D02*
X61300Y-49714D01*
X61236Y-49743D01*
X61193Y-49743D01*
X61128Y-49714D01*
X61086Y-49657D01*
X61064Y-49600D01*
X61043Y-49486D01*
X61043Y-49400D01*
X61064Y-49286D01*
X61086Y-49229D01*
X61128Y-49171D01*
X61193Y-49143D01*
X61236Y-49143D01*
X61300Y-49171D01*
X61321Y-49200D01*
X61771Y-49686D02*
X61750Y-49714D01*
X61686Y-49743D01*
X61643Y-49743D01*
X61578Y-49714D01*
X61536Y-49657D01*
X61514Y-49600D01*
X61493Y-49486D01*
X61493Y-49400D01*
X61514Y-49286D01*
X61536Y-49229D01*
X61578Y-49171D01*
X61643Y-49143D01*
X61686Y-49143D01*
X61750Y-49171D01*
X61771Y-49200D01*
X59972Y-50634D02*
X60036Y-50663D01*
X60143Y-50663D01*
X60186Y-50634D01*
X60207Y-50606D01*
X60229Y-50549D01*
X60229Y-50491D01*
X60207Y-50434D01*
X60186Y-50406D01*
X60143Y-50377D01*
X60057Y-50349D01*
X60015Y-50320D01*
X59993Y-50291D01*
X59972Y-50234D01*
X59972Y-50177D01*
X59993Y-50120D01*
X60015Y-50091D01*
X60057Y-50063D01*
X60165Y-50063D01*
X60229Y-50091D01*
X60486Y-50663D02*
X60444Y-50634D01*
X60422Y-50606D01*
X60401Y-50549D01*
X60401Y-50377D01*
X60422Y-50320D01*
X60444Y-50291D01*
X60486Y-50263D01*
X60551Y-50263D01*
X60594Y-50291D01*
X60615Y-50320D01*
X60636Y-50377D01*
X60636Y-50549D01*
X60615Y-50606D01*
X60594Y-50634D01*
X60551Y-50663D01*
X60486Y-50663D01*
X61022Y-50634D02*
X60979Y-50663D01*
X60893Y-50663D01*
X60851Y-50634D01*
X60829Y-50606D01*
X60808Y-50549D01*
X60808Y-50377D01*
X60829Y-50320D01*
X60851Y-50291D01*
X60893Y-50263D01*
X60979Y-50263D01*
X61022Y-50291D01*
X61215Y-50663D02*
X61215Y-50063D01*
X61258Y-50434D02*
X61387Y-50663D01*
X61387Y-50263D02*
X61215Y-50491D01*
X61751Y-50634D02*
X61708Y-50663D01*
X61622Y-50663D01*
X61579Y-50634D01*
X61558Y-50577D01*
X61558Y-50349D01*
X61579Y-50291D01*
X61622Y-50263D01*
X61708Y-50263D01*
X61751Y-50291D01*
X61772Y-50349D01*
X61772Y-50406D01*
X61558Y-50463D01*
X61901Y-50263D02*
X62072Y-50263D01*
X61965Y-50063D02*
X61965Y-50577D01*
X61987Y-50634D01*
X62029Y-50663D01*
X62072Y-50663D01*
X60828Y-51583D02*
X60786Y-51554D01*
X60764Y-51526D01*
X60743Y-51469D01*
X60743Y-51297D01*
X60764Y-51240D01*
X60786Y-51211D01*
X60828Y-51183D01*
X60893Y-51183D01*
X60936Y-51211D01*
X60957Y-51240D01*
X60978Y-51297D01*
X60978Y-51469D01*
X60957Y-51526D01*
X60936Y-51554D01*
X60893Y-51583D01*
X60828Y-51583D01*
X61171Y-51583D02*
X61171Y-51183D01*
X61171Y-51297D02*
X61193Y-51240D01*
X61214Y-51211D01*
X61257Y-51183D01*
X61300Y-51183D01*
X59671Y-52474D02*
X59628Y-52503D01*
X59542Y-52503D01*
X59500Y-52474D01*
X59478Y-52446D01*
X59457Y-52389D01*
X59457Y-52217D01*
X59478Y-52160D01*
X59500Y-52131D01*
X59542Y-52103D01*
X59628Y-52103D01*
X59671Y-52131D01*
X59928Y-52503D02*
X59886Y-52474D01*
X59864Y-52417D01*
X59864Y-51903D01*
X60293Y-52503D02*
X60293Y-52189D01*
X60272Y-52131D01*
X60229Y-52103D01*
X60143Y-52103D01*
X60100Y-52131D01*
X60293Y-52474D02*
X60250Y-52503D01*
X60143Y-52503D01*
X60100Y-52474D01*
X60079Y-52417D01*
X60079Y-52360D01*
X60100Y-52303D01*
X60143Y-52274D01*
X60250Y-52274D01*
X60293Y-52246D01*
X60507Y-52503D02*
X60507Y-52103D01*
X60507Y-52160D02*
X60529Y-52131D01*
X60571Y-52103D01*
X60636Y-52103D01*
X60679Y-52131D01*
X60700Y-52189D01*
X60700Y-52503D01*
X60700Y-52189D02*
X60721Y-52131D01*
X60764Y-52103D01*
X60829Y-52103D01*
X60871Y-52131D01*
X60893Y-52189D01*
X60893Y-52503D01*
X61086Y-52474D02*
X61129Y-52503D01*
X61214Y-52503D01*
X61257Y-52474D01*
X61279Y-52417D01*
X61279Y-52389D01*
X61257Y-52331D01*
X61214Y-52303D01*
X61150Y-52303D01*
X61107Y-52274D01*
X61086Y-52217D01*
X61086Y-52189D01*
X61107Y-52131D01*
X61150Y-52103D01*
X61214Y-52103D01*
X61257Y-52131D01*
X61471Y-52503D02*
X61471Y-51903D01*
X61664Y-52503D02*
X61664Y-52189D01*
X61643Y-52131D01*
X61600Y-52103D01*
X61535Y-52103D01*
X61493Y-52131D01*
X61471Y-52160D01*
X62050Y-52474D02*
X62007Y-52503D01*
X61921Y-52503D01*
X61878Y-52474D01*
X61857Y-52417D01*
X61857Y-52189D01*
X61878Y-52131D01*
X61921Y-52103D01*
X62007Y-52103D01*
X62050Y-52131D01*
X62071Y-52189D01*
X62071Y-52246D01*
X61857Y-52303D01*
X62328Y-52503D02*
X62286Y-52474D01*
X62264Y-52417D01*
X62264Y-51903D01*
X62564Y-52503D02*
X62522Y-52474D01*
X62500Y-52417D01*
X62500Y-51903D01*
X59500Y-49000D02*
X59750Y-49250D01*
X59250Y-49250D02*
X59500Y-49000D01*
X59500Y-50250D02*
X59500Y-49000D01*
G54D12*
X59715Y-38824D02*
X59515Y-38443D01*
X59372Y-38824D02*
X59372Y-38024D01*
X59600Y-38024D01*
X59658Y-38062D01*
X59686Y-38100D01*
X59715Y-38176D01*
X59715Y-38290D01*
X59686Y-38367D01*
X59658Y-38405D01*
X59600Y-38443D01*
X59372Y-38443D01*
X59972Y-38405D02*
X60172Y-38405D01*
X60258Y-38824D02*
X59972Y-38824D01*
X59972Y-38024D01*
X60258Y-38024D01*
X60429Y-38024D02*
X60629Y-38824D01*
X60829Y-38024D01*
X61600Y-38024D02*
X61657Y-38024D01*
X61714Y-38062D01*
X61743Y-38100D01*
X61772Y-38176D01*
X61800Y-38329D01*
X61800Y-38519D01*
X61772Y-38671D01*
X61743Y-38748D01*
X61714Y-38786D01*
X61657Y-38824D01*
X61600Y-38824D01*
X61543Y-38786D01*
X61514Y-38748D01*
X61486Y-38671D01*
X61457Y-38519D01*
X61457Y-38329D01*
X61486Y-38176D01*
X61514Y-38100D01*
X61543Y-38062D01*
X61600Y-38024D01*
X62057Y-38748D02*
X62085Y-38786D01*
X62057Y-38824D01*
X62028Y-38786D01*
X62057Y-38748D01*
X62057Y-38824D01*
X62657Y-38824D02*
X62314Y-38824D01*
X62486Y-38824D02*
X62486Y-38024D01*
X62429Y-38138D01*
X62371Y-38214D01*
X62314Y-38252D01*
G54D13*
X63500Y-52500D02*
X63500Y-48797D01*
X64500Y-52500D02*
X64500Y-48797D01*
X63500Y-52500D02*
X64500Y-52500D01*
X63500Y-40205D02*
X63498Y-40205D01*
X63500Y-36500D02*
X63500Y-40205D01*
X64500Y-40205D02*
X64708Y-40205D01*
X64500Y-36500D02*
X64500Y-40205D01*
X63500Y-36500D02*
X64500Y-36500D01*
X58500Y-36500D02*
X58500Y-40205D01*
X57500Y-36500D02*
X58500Y-36500D01*
X57500Y-36500D02*
X57500Y-40396D01*
X57500Y-52500D02*
X57500Y-48797D01*
X58500Y-52500D02*
X58500Y-48797D01*
X57500Y-52500D02*
X58500Y-52500D01*
G54D12*
X66824Y-46729D02*
X66024Y-46729D01*
X66024Y-46501D01*
X66062Y-46443D01*
X66100Y-46415D01*
X66176Y-46386D01*
X66290Y-46386D01*
X66367Y-46415D01*
X66405Y-46443D01*
X66443Y-46501D01*
X66443Y-46729D01*
X66824Y-45786D02*
X66443Y-45986D01*
X66824Y-46129D02*
X66024Y-46129D01*
X66024Y-45901D01*
X66062Y-45843D01*
X66100Y-45815D01*
X66176Y-45786D01*
X66290Y-45786D01*
X66367Y-45815D01*
X66405Y-45843D01*
X66443Y-45901D01*
X66443Y-46129D01*
X66405Y-45529D02*
X66405Y-45329D01*
X66824Y-45243D02*
X66824Y-45529D01*
X66024Y-45529D01*
X66024Y-45243D01*
X66824Y-44700D02*
X66824Y-44986D01*
X66024Y-44986D01*
X66824Y-44500D02*
X66024Y-44500D01*
X66824Y-44214D02*
X66024Y-44214D01*
X66595Y-44014D01*
X66024Y-43814D01*
X66824Y-43814D01*
X66824Y-43528D02*
X66024Y-43528D01*
X66824Y-43242D02*
X66024Y-43242D01*
X66824Y-42899D01*
X66024Y-42899D01*
X66595Y-42642D02*
X66595Y-42356D01*
X66824Y-42699D02*
X66024Y-42499D01*
X66824Y-42299D01*
X66824Y-41756D02*
X66443Y-41956D01*
X66824Y-42099D02*
X66024Y-42099D01*
X66024Y-41871D01*
X66062Y-41813D01*
X66100Y-41785D01*
X66176Y-41756D01*
X66290Y-41756D01*
X66367Y-41785D01*
X66405Y-41813D01*
X66443Y-41871D01*
X66443Y-42099D01*
X66443Y-41385D02*
X66824Y-41385D01*
X66024Y-41585D02*
X66443Y-41385D01*
X66024Y-41185D01*
X68064Y-45471D02*
X67264Y-45471D01*
X67264Y-45328D01*
X67302Y-45243D01*
X67378Y-45185D01*
X67454Y-45157D01*
X67607Y-45128D01*
X67721Y-45128D01*
X67873Y-45157D01*
X67950Y-45185D01*
X68026Y-45243D01*
X68064Y-45328D01*
X68064Y-45471D01*
X67645Y-44871D02*
X67645Y-44671D01*
X68064Y-44585D02*
X68064Y-44871D01*
X67264Y-44871D01*
X67264Y-44585D01*
X68026Y-44357D02*
X68064Y-44271D01*
X68064Y-44128D01*
X68026Y-44071D01*
X67988Y-44042D01*
X67911Y-44014D01*
X67835Y-44014D01*
X67759Y-44042D01*
X67721Y-44071D01*
X67683Y-44128D01*
X67645Y-44242D01*
X67607Y-44300D01*
X67569Y-44328D01*
X67492Y-44357D01*
X67416Y-44357D01*
X67340Y-44328D01*
X67302Y-44300D01*
X67264Y-44242D01*
X67264Y-44100D01*
X67302Y-44014D01*
X68064Y-43757D02*
X67264Y-43757D01*
X67302Y-43157D02*
X67264Y-43214D01*
X67264Y-43300D01*
X67302Y-43385D01*
X67378Y-43443D01*
X67454Y-43471D01*
X67607Y-43500D01*
X67721Y-43500D01*
X67873Y-43471D01*
X67950Y-43443D01*
X68026Y-43385D01*
X68064Y-43300D01*
X68064Y-43243D01*
X68026Y-43157D01*
X67988Y-43128D01*
X67721Y-43128D01*
X67721Y-43243D01*
X68064Y-42871D02*
X67264Y-42871D01*
X68064Y-42528D01*
X67264Y-42528D01*
X55176Y-41271D02*
X55976Y-41271D01*
X55976Y-41499D01*
X55938Y-41557D01*
X55900Y-41585D01*
X55824Y-41614D01*
X55710Y-41614D01*
X55633Y-41585D01*
X55595Y-41557D01*
X55557Y-41499D01*
X55557Y-41271D01*
X55176Y-42214D02*
X55557Y-42014D01*
X55176Y-41871D02*
X55976Y-41871D01*
X55976Y-42099D01*
X55938Y-42157D01*
X55900Y-42185D01*
X55824Y-42214D01*
X55710Y-42214D01*
X55633Y-42185D01*
X55595Y-42157D01*
X55557Y-42099D01*
X55557Y-41871D01*
X55595Y-42471D02*
X55595Y-42671D01*
X55176Y-42757D02*
X55176Y-42471D01*
X55976Y-42471D01*
X55976Y-42757D01*
X55176Y-43300D02*
X55176Y-43014D01*
X55976Y-43014D01*
X55176Y-43500D02*
X55976Y-43500D01*
X55176Y-43786D02*
X55976Y-43786D01*
X55405Y-43986D01*
X55976Y-44186D01*
X55176Y-44186D01*
X55176Y-44472D02*
X55976Y-44472D01*
X55176Y-44758D02*
X55976Y-44758D01*
X55176Y-45101D01*
X55976Y-45101D01*
X55405Y-45358D02*
X55405Y-45644D01*
X55176Y-45301D02*
X55976Y-45501D01*
X55176Y-45701D01*
X55176Y-46244D02*
X55557Y-46044D01*
X55176Y-45901D02*
X55976Y-45901D01*
X55976Y-46129D01*
X55938Y-46187D01*
X55900Y-46215D01*
X55824Y-46244D01*
X55710Y-46244D01*
X55633Y-46215D01*
X55595Y-46187D01*
X55557Y-46129D01*
X55557Y-45901D01*
X55557Y-46615D02*
X55176Y-46615D01*
X55976Y-46415D02*
X55557Y-46615D01*
X55976Y-46815D01*
X53936Y-42529D02*
X54736Y-42529D01*
X54736Y-42672D01*
X54698Y-42757D01*
X54622Y-42815D01*
X54546Y-42843D01*
X54393Y-42872D01*
X54279Y-42872D01*
X54127Y-42843D01*
X54050Y-42815D01*
X53974Y-42757D01*
X53936Y-42672D01*
X53936Y-42529D01*
X54355Y-43129D02*
X54355Y-43329D01*
X53936Y-43415D02*
X53936Y-43129D01*
X54736Y-43129D01*
X54736Y-43415D01*
X53974Y-43643D02*
X53936Y-43729D01*
X53936Y-43872D01*
X53974Y-43929D01*
X54012Y-43958D01*
X54089Y-43986D01*
X54165Y-43986D01*
X54241Y-43958D01*
X54279Y-43929D01*
X54317Y-43872D01*
X54355Y-43758D01*
X54393Y-43700D01*
X54431Y-43672D01*
X54508Y-43643D01*
X54584Y-43643D01*
X54660Y-43672D01*
X54698Y-43700D01*
X54736Y-43758D01*
X54736Y-43900D01*
X54698Y-43986D01*
X53936Y-44243D02*
X54736Y-44243D01*
X54698Y-44843D02*
X54736Y-44786D01*
X54736Y-44700D01*
X54698Y-44615D01*
X54622Y-44557D01*
X54546Y-44529D01*
X54393Y-44500D01*
X54279Y-44500D01*
X54127Y-44529D01*
X54050Y-44557D01*
X53974Y-44615D01*
X53936Y-44700D01*
X53936Y-44757D01*
X53974Y-44843D01*
X54012Y-44872D01*
X54279Y-44872D01*
X54279Y-44757D01*
X53936Y-45129D02*
X54736Y-45129D01*
X53936Y-45472D01*
X54736Y-45472D01*
X53486Y-37024D02*
X53686Y-37824D01*
X53886Y-37024D01*
X54343Y-37290D02*
X54343Y-37824D01*
X54086Y-37290D02*
X54086Y-37710D01*
X54114Y-37786D01*
X54172Y-37824D01*
X54257Y-37824D01*
X54314Y-37786D01*
X54343Y-37748D01*
X54715Y-37824D02*
X54657Y-37786D01*
X54629Y-37710D01*
X54629Y-37024D01*
X54857Y-37290D02*
X55086Y-37290D01*
X54943Y-37024D02*
X54943Y-37710D01*
X54971Y-37786D01*
X55029Y-37824D01*
X55086Y-37824D01*
X55543Y-37290D02*
X55543Y-37824D01*
X55286Y-37290D02*
X55286Y-37710D01*
X55314Y-37786D01*
X55372Y-37824D01*
X55457Y-37824D01*
X55514Y-37786D01*
X55543Y-37748D01*
X55829Y-37824D02*
X55829Y-37290D01*
X55829Y-37443D02*
X55857Y-37367D01*
X55886Y-37329D01*
X55943Y-37290D01*
X56000Y-37290D01*
X56428Y-37786D02*
X56371Y-37824D01*
X56257Y-37824D01*
X56200Y-37786D01*
X56171Y-37710D01*
X56171Y-37405D01*
X56200Y-37329D01*
X56257Y-37290D01*
X56371Y-37290D01*
X56428Y-37329D01*
X56457Y-37405D01*
X56457Y-37481D01*
X56171Y-37557D01*
X54115Y-39064D02*
X54115Y-38264D01*
X54343Y-38264D01*
X54401Y-38302D01*
X54429Y-38340D01*
X54458Y-38416D01*
X54458Y-38530D01*
X54429Y-38607D01*
X54401Y-38645D01*
X54343Y-38683D01*
X54115Y-38683D01*
X54715Y-39064D02*
X54715Y-38530D01*
X54715Y-38683D02*
X54743Y-38607D01*
X54772Y-38569D01*
X54829Y-38530D01*
X54886Y-38530D01*
X55172Y-39064D02*
X55114Y-39026D01*
X55086Y-38988D01*
X55057Y-38911D01*
X55057Y-38683D01*
X55086Y-38607D01*
X55114Y-38569D01*
X55172Y-38530D01*
X55257Y-38530D01*
X55314Y-38569D01*
X55343Y-38607D01*
X55372Y-38683D01*
X55372Y-38911D01*
X55343Y-38988D01*
X55314Y-39026D01*
X55257Y-39064D01*
X55172Y-39064D01*
X55886Y-38530D02*
X55886Y-39178D01*
X55857Y-39254D01*
X55829Y-39292D01*
X55772Y-39330D01*
X55686Y-39330D01*
X55629Y-39292D01*
X55886Y-39026D02*
X55829Y-39064D01*
X55715Y-39064D01*
X55657Y-39026D01*
X55629Y-38988D01*
X55600Y-38911D01*
X55600Y-38683D01*
X55629Y-38607D01*
X55657Y-38569D01*
X55715Y-38530D01*
X55829Y-38530D01*
X55886Y-38569D01*
G54D14*
X66986Y-36727D02*
X67215Y-36727D01*
X67101Y-36841D02*
X67101Y-36613D01*
G54D13*
X51000Y-53000D02*
X51000Y-49500D01*
X71000Y-53000D02*
X51000Y-53000D01*
X71000Y-49500D02*
X71000Y-53000D01*
X51000Y-49500D02*
X51000Y-36000D01*
X71000Y-36000D02*
X71000Y-49500D01*
X51000Y-36000D02*
X71000Y-36000D01*
G54D10*
X66826Y-36965D02*
X66492Y-36965D01*
X65172Y-36965D02*
X65506Y-36965D01*
X66826Y-36926D02*
X66492Y-36926D01*
X65172Y-36926D02*
X65506Y-36926D01*
X66826Y-36887D02*
X66492Y-36887D01*
X65172Y-36887D02*
X65506Y-36887D01*
X66826Y-36847D02*
X66492Y-36847D01*
X65172Y-36847D02*
X65506Y-36847D01*
X66826Y-36808D02*
X66492Y-36808D01*
X65172Y-36808D02*
X65506Y-36808D01*
X66826Y-36768D02*
X66492Y-36768D01*
X65172Y-36768D02*
X65506Y-36768D01*
X66826Y-36729D02*
X66492Y-36729D01*
X65172Y-36729D02*
X65506Y-36729D01*
X66826Y-36690D02*
X66492Y-36690D01*
X65172Y-36690D02*
X65506Y-36690D01*
X66826Y-36650D02*
X66492Y-36650D01*
X65172Y-36650D02*
X65506Y-36650D01*
X66826Y-36611D02*
X66492Y-36611D01*
X65172Y-36611D02*
X65506Y-36611D01*
X66826Y-36571D02*
X66492Y-36571D01*
X65172Y-36571D02*
X65506Y-36571D01*
X65172Y-36965D02*
X65506Y-36965D01*
X65506Y-36965D02*
X65506Y-36522D01*
X66826Y-36965D02*
X66492Y-36965D01*
X66492Y-36965D02*
X66492Y-36522D01*
X66826Y-39476D02*
X66826Y-36522D01*
X66826Y-36522D02*
X65172Y-36522D01*
X65172Y-36522D02*
X65172Y-39476D01*
X65172Y-39476D02*
X66826Y-39476D01*
G54D13*
X51000Y-49500D02*
X57000Y-49500D01*
X57000Y-49500D02*
X57000Y-52500D01*
X57000Y-52500D02*
X51000Y-52500D01*
X51000Y-52500D02*
X51000Y-49500D01*
G54D15*
X51500Y-52000D02*
X56500Y-52000D01*
X56500Y-52000D02*
X56500Y-50000D01*
X56500Y-50000D02*
X51500Y-50000D01*
X51500Y-50000D02*
X51500Y-52000D01*
G54D13*
X65000Y-49500D02*
X65000Y-52500D01*
X65000Y-52500D02*
X71000Y-52500D01*
X71000Y-52500D02*
X71000Y-49500D01*
X71000Y-49500D02*
X65000Y-49500D01*
G54D15*
X65500Y-52000D02*
X70500Y-52000D01*
X70500Y-52000D02*
X70500Y-50000D01*
X70500Y-50000D02*
X65500Y-50000D01*
X65500Y-50000D02*
X65500Y-52000D01*
G54D10*
X67131Y-37281D02*
X67131Y-38721D01*
X67131Y-38721D02*
X67870Y-38721D01*
X67870Y-38721D02*
X67870Y-37281D01*
X67870Y-37281D02*
X67131Y-37281D01*
G54D12*
X57226Y-40692D02*
X57226Y-48782D01*
X57226Y-48782D02*
X64776Y-48782D01*
X64776Y-48782D02*
X64776Y-40220D01*
X64776Y-40220D02*
X57698Y-40220D01*
X57698Y-40220D02*
X57226Y-40692D01*
G54D16*
X61109Y-39767D02*
X61106Y-39788D01*
X61100Y-39808D01*
X61090Y-39827D01*
X61077Y-39843D01*
X61060Y-39857D01*
X61042Y-39867D01*
X61021Y-39873D01*
X61000Y-39875D01*
X60980Y-39874D01*
X60960Y-39868D01*
X60941Y-39858D01*
X60924Y-39844D01*
X60911Y-39828D01*
X60900Y-39809D01*
X60894Y-39789D01*
X60892Y-39768D01*
X60893Y-39748D01*
X60899Y-39727D01*
X60909Y-39708D01*
X60922Y-39692D01*
X60938Y-39678D01*
X60957Y-39668D01*
X60977Y-39661D01*
X60998Y-39659D01*
X61018Y-39660D01*
X61039Y-39666D01*
X61058Y-39675D01*
X61075Y-39689D01*
X61089Y-39705D01*
X61099Y-39723D01*
X61106Y-39743D01*
X61108Y-39764D01*
X61109Y-39767D01*
G54D15*
X51500Y-39000D02*
X51500Y-49000D01*
X51500Y-49000D02*
X53500Y-49000D01*
X53500Y-49000D02*
X53500Y-39000D01*
X53500Y-39000D02*
X51500Y-39000D01*
X68500Y-39000D02*
X68500Y-49000D01*
X68500Y-49000D02*
X70500Y-49000D01*
X70500Y-49000D02*
X70500Y-39000D01*
X70500Y-39000D02*
X68500Y-39000D01*
G54D11*
X65936Y-40075D02*
X65964Y-40096D01*
X65993Y-40160D01*
X65993Y-40203D01*
X65964Y-40268D01*
X65907Y-40310D01*
X65850Y-40332D01*
X65736Y-40353D01*
X65650Y-40353D01*
X65536Y-40332D01*
X65479Y-40310D01*
X65421Y-40268D01*
X65393Y-40203D01*
X65393Y-40160D01*
X65421Y-40096D01*
X65450Y-40075D01*
X65993Y-39646D02*
X65993Y-39903D01*
X65993Y-39775D02*
X65393Y-39775D01*
X65479Y-39818D01*
X65536Y-39860D01*
X65564Y-39903D01*
X66743Y-40539D02*
X66743Y-40796D01*
X66743Y-40668D02*
X66143Y-40668D01*
X66229Y-40711D01*
X66286Y-40753D01*
X66314Y-40796D01*
X66143Y-40260D02*
X66143Y-40217D01*
X66171Y-40174D01*
X66200Y-40153D01*
X66257Y-40132D01*
X66371Y-40110D01*
X66514Y-40110D01*
X66629Y-40132D01*
X66686Y-40153D01*
X66714Y-40174D01*
X66743Y-40217D01*
X66743Y-40260D01*
X66714Y-40303D01*
X66686Y-40324D01*
X66629Y-40346D01*
X66514Y-40367D01*
X66371Y-40367D01*
X66257Y-40346D01*
X66200Y-40324D01*
X66171Y-40303D01*
X66143Y-40260D01*
X66343Y-39724D02*
X66743Y-39724D01*
X66343Y-39917D02*
X66657Y-39917D01*
X66714Y-39895D01*
X66743Y-39853D01*
X66743Y-39788D01*
X66714Y-39745D01*
X66686Y-39724D01*
X55668Y-48493D02*
X55668Y-47893D01*
X55840Y-47893D01*
X55882Y-47921D01*
X55904Y-47950D01*
X55925Y-48007D01*
X55925Y-48093D01*
X55904Y-48150D01*
X55882Y-48179D01*
X55840Y-48207D01*
X55668Y-48207D01*
X56354Y-48493D02*
X56097Y-48493D01*
X56225Y-48493D02*
X56225Y-47893D01*
X56182Y-47979D01*
X56140Y-48036D01*
X56097Y-48064D01*
X55540Y-49214D02*
X55604Y-49243D01*
X55711Y-49243D01*
X55754Y-49214D01*
X55775Y-49186D01*
X55797Y-49129D01*
X55797Y-49071D01*
X55775Y-49014D01*
X55754Y-48986D01*
X55711Y-48957D01*
X55625Y-48929D01*
X55583Y-48900D01*
X55561Y-48871D01*
X55540Y-48814D01*
X55540Y-48757D01*
X55561Y-48700D01*
X55583Y-48671D01*
X55625Y-48643D01*
X55733Y-48643D01*
X55797Y-48671D01*
X55990Y-49243D02*
X55990Y-48643D01*
X56162Y-48643D01*
X56204Y-48671D01*
X56226Y-48700D01*
X56247Y-48757D01*
X56247Y-48843D01*
X56226Y-48900D01*
X56204Y-48929D01*
X56162Y-48957D01*
X55990Y-48957D01*
X56440Y-49243D02*
X56440Y-48643D01*
X66168Y-48493D02*
X66168Y-47893D01*
X66340Y-47893D01*
X66382Y-47921D01*
X66404Y-47950D01*
X66425Y-48007D01*
X66425Y-48093D01*
X66404Y-48150D01*
X66382Y-48179D01*
X66340Y-48207D01*
X66168Y-48207D01*
X66811Y-47893D02*
X66725Y-47893D01*
X66682Y-47921D01*
X66661Y-47950D01*
X66618Y-48036D01*
X66597Y-48150D01*
X66597Y-48379D01*
X66618Y-48436D01*
X66640Y-48464D01*
X66682Y-48493D01*
X66768Y-48493D01*
X66811Y-48464D01*
X66832Y-48436D01*
X66854Y-48379D01*
X66854Y-48236D01*
X66832Y-48179D01*
X66811Y-48150D01*
X66768Y-48121D01*
X66682Y-48121D01*
X66640Y-48150D01*
X66618Y-48179D01*
X66597Y-48236D01*
X65325Y-49243D02*
X65111Y-49243D01*
X65111Y-48643D01*
X65475Y-49243D02*
X65475Y-48643D01*
X65647Y-48643D01*
X65689Y-48671D01*
X65711Y-48700D01*
X65732Y-48757D01*
X65732Y-48843D01*
X65711Y-48900D01*
X65689Y-48929D01*
X65647Y-48957D01*
X65475Y-48957D01*
X66182Y-49186D02*
X66161Y-49214D01*
X66097Y-49243D01*
X66054Y-49243D01*
X65989Y-49214D01*
X65947Y-49157D01*
X65925Y-49100D01*
X65904Y-48986D01*
X65904Y-48900D01*
X65925Y-48786D01*
X65947Y-48729D01*
X65989Y-48671D01*
X66054Y-48643D01*
X66097Y-48643D01*
X66161Y-48671D01*
X66182Y-48700D01*
X66268Y-49300D02*
X66611Y-49300D01*
X66718Y-48843D02*
X66718Y-49443D01*
X66718Y-48871D02*
X66761Y-48843D01*
X66847Y-48843D01*
X66890Y-48871D01*
X66911Y-48900D01*
X66932Y-48957D01*
X66932Y-49129D01*
X66911Y-49186D01*
X66890Y-49214D01*
X66847Y-49243D01*
X66761Y-49243D01*
X66718Y-49214D01*
X67125Y-49243D02*
X67125Y-48843D01*
X67125Y-48957D02*
X67147Y-48900D01*
X67168Y-48871D01*
X67211Y-48843D01*
X67254Y-48843D01*
X67468Y-49243D02*
X67426Y-49214D01*
X67404Y-49186D01*
X67383Y-49129D01*
X67383Y-48957D01*
X67404Y-48900D01*
X67426Y-48871D01*
X67468Y-48843D01*
X67533Y-48843D01*
X67576Y-48871D01*
X67597Y-48900D01*
X67618Y-48957D01*
X67618Y-49129D01*
X67597Y-49186D01*
X67576Y-49214D01*
X67533Y-49243D01*
X67468Y-49243D01*
X67811Y-49243D02*
X67811Y-48643D01*
X67811Y-48871D02*
X67854Y-48843D01*
X67940Y-48843D01*
X67983Y-48871D01*
X68004Y-48900D01*
X68025Y-48957D01*
X68025Y-49129D01*
X68004Y-49186D01*
X67983Y-49214D01*
X67940Y-49243D01*
X67854Y-49243D01*
X67811Y-49214D01*
X68390Y-49214D02*
X68347Y-49243D01*
X68261Y-49243D01*
X68218Y-49214D01*
X68197Y-49157D01*
X68197Y-48929D01*
X68218Y-48871D01*
X68261Y-48843D01*
X68347Y-48843D01*
X68390Y-48871D01*
X68411Y-48929D01*
X68411Y-48986D01*
X68197Y-49043D01*
X67686Y-39575D02*
X67714Y-39596D01*
X67743Y-39660D01*
X67743Y-39703D01*
X67714Y-39768D01*
X67657Y-39810D01*
X67600Y-39832D01*
X67486Y-39853D01*
X67400Y-39853D01*
X67286Y-39832D01*
X67229Y-39810D01*
X67171Y-39768D01*
X67143Y-39703D01*
X67143Y-39660D01*
X67171Y-39596D01*
X67200Y-39575D01*
X67200Y-39403D02*
X67171Y-39382D01*
X67143Y-39339D01*
X67143Y-39232D01*
X67171Y-39189D01*
X67200Y-39168D01*
X67257Y-39146D01*
X67314Y-39146D01*
X67400Y-39168D01*
X67743Y-39425D01*
X67743Y-39146D01*
X68143Y-38546D02*
X68143Y-38503D01*
X68171Y-38460D01*
X68200Y-38439D01*
X68257Y-38418D01*
X68371Y-38396D01*
X68514Y-38396D01*
X68629Y-38418D01*
X68686Y-38439D01*
X68714Y-38460D01*
X68743Y-38503D01*
X68743Y-38546D01*
X68714Y-38589D01*
X68686Y-38610D01*
X68629Y-38632D01*
X68514Y-38653D01*
X68371Y-38653D01*
X68257Y-38632D01*
X68200Y-38610D01*
X68171Y-38589D01*
X68143Y-38546D01*
X68686Y-38203D02*
X68714Y-38181D01*
X68743Y-38203D01*
X68714Y-38224D01*
X68686Y-38203D01*
X68743Y-38203D01*
X68743Y-37753D02*
X68743Y-38010D01*
X68743Y-37882D02*
X68143Y-37882D01*
X68229Y-37925D01*
X68286Y-37967D01*
X68314Y-38010D01*
X68343Y-37367D02*
X68743Y-37367D01*
X68343Y-37560D02*
X68657Y-37560D01*
X68714Y-37538D01*
X68743Y-37496D01*
X68743Y-37431D01*
X68714Y-37388D01*
X68686Y-37367D01*
%LPC*%
G54D17*
X66000Y-38924D03*
X66000Y-37074D03*
G54D18*
X58000Y-37000D03*
G54D19*
X58000Y-38000D03*
X58000Y-39000D03*
X58000Y-40000D03*
X58000Y-41000D03*
X58000Y-42000D03*
X58000Y-43000D03*
X58000Y-44000D03*
X58000Y-45000D03*
X58000Y-46000D03*
X58000Y-47000D03*
X58000Y-48000D03*
X58000Y-49000D03*
X58000Y-50000D03*
X58000Y-51000D03*
X58000Y-52000D03*
X64000Y-52000D03*
X64000Y-51000D03*
X64000Y-50000D03*
X64000Y-49000D03*
X64000Y-48000D03*
X64000Y-47000D03*
X64000Y-46000D03*
X64000Y-45000D03*
X64000Y-44000D03*
X64000Y-43000D03*
X64000Y-42000D03*
X64000Y-41000D03*
X64000Y-40000D03*
X64000Y-39000D03*
X64000Y-38000D03*
X64000Y-37000D03*
G54D18*
X52000Y-51500D03*
G54D19*
X52000Y-50500D03*
X53000Y-51500D03*
X53000Y-50500D03*
X54000Y-51500D03*
X54000Y-50500D03*
X55000Y-51500D03*
X55000Y-50500D03*
X56000Y-51500D03*
X56000Y-50500D03*
G54D18*
X66000Y-51500D03*
G54D19*
X66000Y-50500D03*
X67000Y-51500D03*
X67000Y-50500D03*
X68000Y-51500D03*
X68000Y-50500D03*
X69000Y-51500D03*
X69000Y-50500D03*
X70000Y-51500D03*
X70000Y-50500D03*
G54D20*
X67500Y-37626D03*
X67500Y-38376D03*
G54D18*
X61499Y-42501D03*
G54D19*
X60500Y-41501D03*
X60500Y-42501D03*
X59500Y-41501D03*
X58500Y-42501D03*
X59500Y-42501D03*
X58500Y-43501D03*
X59500Y-43501D03*
X58500Y-44500D03*
X59500Y-44500D03*
X58500Y-45500D03*
X59500Y-45500D03*
X58500Y-46500D03*
X59500Y-47500D03*
X59500Y-46500D03*
X60500Y-47500D03*
X60500Y-46500D03*
X61499Y-47500D03*
X61499Y-46500D03*
X62499Y-47500D03*
X63499Y-46500D03*
X62499Y-46500D03*
X63499Y-45500D03*
X62499Y-45500D03*
X63499Y-44500D03*
X62499Y-44500D03*
X63499Y-43501D03*
X62499Y-43501D03*
X63499Y-42501D03*
X62499Y-41501D03*
X62499Y-42501D03*
X61499Y-41501D03*
G54D18*
X52000Y-39500D03*
G54D19*
X53000Y-39500D03*
X52000Y-40500D03*
X53000Y-40500D03*
X52000Y-41500D03*
X53000Y-41500D03*
X52000Y-42500D03*
X53000Y-42500D03*
X52000Y-43500D03*
X53000Y-43500D03*
X52000Y-44500D03*
X53000Y-44500D03*
X52000Y-45500D03*
X53000Y-45500D03*
X52000Y-46500D03*
X53000Y-46500D03*
X52000Y-47500D03*
X53000Y-47500D03*
X52000Y-48500D03*
X53000Y-48500D03*
G54D18*
X69000Y-39500D03*
G54D19*
X70000Y-39500D03*
X69000Y-40500D03*
X70000Y-40500D03*
X69000Y-41500D03*
X70000Y-41500D03*
X69000Y-42500D03*
X70000Y-42500D03*
X69000Y-43500D03*
X70000Y-43500D03*
X69000Y-44500D03*
X70000Y-44500D03*
X69000Y-45500D03*
X70000Y-45500D03*
X69000Y-46500D03*
X70000Y-46500D03*
X69000Y-47500D03*
X70000Y-47500D03*
X69000Y-48500D03*
X70000Y-48500D03*
M02*
